<?xml version="1.0" encoding="utf-8"?>
<!-- Generator: Adobe Illustrator 22.0.1, SVG Export Plug-In . SVG Version: 6.00 Build 0)  -->
<svg version="1.1" id="Layer_1" xmlns="http://www.w3.org/2000/svg" xmlns:xlink="http://www.w3.org/1999/xlink" x="0px" y="0px"
	 viewBox="0 0 319.8 106.7" style="enable-background:new 0 0 319.8 106.7;" xml:space="preserve">
<style type="text/css">
	.Arched_x0020_Green{fill:url(#SVGID_1_);stroke:#FFFFFF;stroke-width:0.25;stroke-miterlimit:1;}
	.st0{fill:#003767;}
	.st1{display:none;}
</style>
<linearGradient id="SVGID_1_" gradientUnits="userSpaceOnUse" x1="-71.5317" y1="720.3335" x2="-70.8246" y2="719.6264">
	<stop  offset="0" style="stop-color:#20AC4B"/>
	<stop  offset="0.9831" style="stop-color:#19361A"/>
</linearGradient>
<g>
	<path class="st0" d="M88.4,63.6l-4-1.3l-0.2-10.2l-2.6-0.7c-0.2-1.7-0.9-3.7-3.1-4.3c-2.2-0.6-3.4,0.7-3.4,0.7
		c5.7-0.6,3.9,13.6,3.9,13.6l-4.1-0.9l-4.4,2.8l0,5.2c0,0,4.5-3.2,4.4-3.2c0,0,28.7,7.2,28.7,7.2l-0.1-4.2l-3.8-1
		c0,0-0.1-3.1-0.2-6.5c-0.1-3.4-0.5-6.8-2.6-7.5C95,52.6,93.4,54,93.4,54c4.9,0.1,3,11.9,3,11.9l-2.8-0.6l-0.4-9.6
		c0,0-2.4-0.8-2.4-0.8c0,0,0-3.7-2.4-4.4c-2.4-0.7-4.6,1.4-3.9,1.2C91.3,50.3,88.4,63.6,88.4,63.6z"/>
	<path class="st0" d="M77.5,67.3c-0.3,0.4-1.2,0.7-1.1,2.3c0.1,1.7-1.1,3-2.1,3.1l0-3.7l3.3-2.8C77.5,66.3,78.1,66.8,77.5,67.3z"/>
	<path class="st0" d="M85.6,69.5c-0.3,0.3-1.1,0.6-1.1,2.2c0,1.6-1,2.6-2,2.7l0-3.3l3-2.6C85.6,68.5,86.1,69,85.6,69.5z"/>
	<path class="st0" d="M101.2,73.2c-0.3,0.3-1,0.6-1,2c0,1.5-1,2.5-1.9,2.6l0-3.1l2.9-2.4C101.2,72.3,101.6,72.7,101.2,73.2z"/>
	<path class="st0" d="M93.9,71.5c-0.3,0.3-1.1,0.6-1.1,2.2c0,1.6-1,2.7-2,2.8l0-3.3l3-2.6C93.9,70.5,94.4,71,93.9,71.5z"/>
	<polygon class="st0" points="71.3,10.5 74.5,6.7 79.2,8.4 79.9,9.3 76.3,8.2 76.1,10.4 77.2,10.8 72.8,24.5 71.9,24.3 71.1,26.6 
		77.3,28.8 77.6,26.3 76.3,25.8 77.7,20.3 89,24.5 96.9,33.6 96.1,33.5 96.5,35.2 101.4,37.1 101.3,38.3 66.5,26.3 50.3,41.6 
		49.7,41 55.4,35.3 62.1,25.4 66.4,22 65.3,25 64.4,25.9 63.7,27.8 66.2,25.8 67.1,25 72.4,10.8 73.1,10.4 73.1,9.1 	"/>
	<polygon class="st0" points="104.3,47.2 109.1,43.4 66.7,28.1 43.4,49.8 48,52.4 48.1,51.2 47.3,50.6 67.9,33.2 104.3,45.4 	"/>
	<polygon class="st0" points="79.9,13 78.5,18.2 86.1,20.7 	"/>
	<path class="st0" d="M69.5,13.7l-2.6,6l-2.6,2.2C64.4,21.8,65.3,20.2,69.5,13.7z"/>
	<path class="st0" d="M64.8,58.8c0,0,0.1-8.3,0.1-8.6c0-0.3-0.2-1.3-0.5-1.8c-0.3-0.4-0.9-0.9-1.4-0.8c-0.7,0.1-1.6,0.8-1.9,2.1
		C60.8,51.1,61,60.8,60.9,61L64.8,58.8z"/>
	<path class="st0" d="M59.3,61.9c0,0,0-7.3,0-7.9c0-0.6-0.2-1.4-0.6-1.8c-0.4-0.4-1-0.6-1.9,0.2c-0.8,0.8-1,1.7-0.9,11.5L59.3,61.9z
		"/>
	<path class="st0" d="M54.9,64.5c0,0,0-5.5,0-6.2c0-0.8-0.1-1.5-0.5-1.8c-0.3-0.3-1.4-0.4-1.9,0.9c-0.5,1.3-0.5,6.4-0.5,8.8
		L54.9,64.5z"/>
	<path class="st0" d="M102.6,85.4l-4.1-0.9c-0.5-4.1-3.1-4.5-4.4-4.4c-1.3,0.1-1.5,0.7-1.5,0.7c1.7-0.5,3.1,0,4.1,1.1
		c1,1.1,0.9,2.5,0.9,2.5L97.5,91h-2.4v-5.6c0.4,0,2.1-0.4,1.3-2.3c-0.8-2-3.6-2.4-4.2-1.6c-0.6,0.8-0.2,1.6-0.2,1.6l-1.9-0.4
		c-0.8-4.8-4-4.5-4.9-4.3c-0.9,0.2-1.1,0.7-1.1,0.7c2.3-0.7,3.5,0.4,4.3,1.4c0.7,1,0.7,2.3,0.7,2.3V91h-2.5v-7.7
		c0.7,0,2.1-0.4,1.6-2c-0.5-1.6-2.6-2.5-3.9-2.1c-1.3,0.4-1,1.8-1,1.8L81,80.5c-0.6-4.6-3.9-4.9-5.1-4.6c-1.1,0.3-1.3,1.1-1.3,1.1
		c0.4-0.5,2.3-1,3.9,0.2c1.6,1.2,1.6,3.6,1.6,3.6L80.3,91h-3v-9.3c1-0.2,2.1-0.2,2.2-1.8c0.1-1.5-1.7-3-3.6-2.9
		C74,77.2,74.2,79,74.2,79l-5-0.9l0,12.9H50.6l-5,0.7l-2.7-4.8l2.8-4.7l4.6,2.2l0-0.8L44.2,78L43,82.7l-5.2,2.6L34.3,93l-8.2-0.2
		c-0.6-1.3-1.7-6.9-1.7-6.9l3.1-5.7l-3,1.8L24,83.2l-4.8,2.6L17,90l-6.4,2.3l-1.8-0.2c18.5-14.7,18.5-13.6,18.5-13.6
		c4.1,1.4,6,2,7.8,1c1.8-1,2.1-1.1,4.1-1.4c2-0.2,4.5-2.4,4.5-2.4l6.8,5.2l0.1-2.2c-0.6-0.3-0.5-1-0.7-2c-0.2-0.9-0.6-1.3-0.9-1.5
		c-0.3-0.2-0.3-0.5-0.2-0.7c0.1-0.1,0.6-0.3,0.6-0.3c-0.2,0.6,0.1,0.6,0.7,1c0.5,0.4,0.5,1.4,0.5,1.4c0,0.1,0,0.6,0.6,1.2
		c0.6,0.6,1.2,0.6,1.2,0.6l-0.3-2.1l2.4-1.1c-0.4-1.7-0.5-1.5-0.9-1.9c-0.3-0.4-0.2-0.6-0.1-0.7c0.2-0.1,0.7-0.2,0.7-0.2
		s-0.4,0.3,0.2,0.7c0.6,0.4,0.6,0.7,0.7,1c0.1,0.3,0,1.3,0.6,1.9c0.6,0.7,1.1,0.6,1.1,0.6l-0.2-2.5l2.4-1.1
		c-0.2-1.3-0.5-1.5-0.6-1.7c-0.1-0.2-0.5-0.2-0.7-0.5c-0.3-0.3,0.1-0.6,0.1-0.6l1.2-0.6c-0.4,0.7,0.2,0.8,0.6,1.2
		c0.4,0.4,0.5,1.1,0.5,1.6c0,0.4,0.2,1.1,0.7,1.7c0.5,0.6,1.3,0.6,1.3,0.6l-0.1-3.2l2-0.9c0,0,0-1.1-0.4-1.7
		c-0.4-0.5-0.6-0.4-0.8-0.7c-0.3-0.3-0.1-0.8,0-0.8c0.1-0.1,1-0.4,1-0.4c-0.1,0.4,0.2,0.6,0.4,0.8c0.2,0.2,0.5,0.4,0.7,1
		c0.2,0.6-0.1,1.2,0.5,2.3c0.6,1.1,1.4,1.4,1.4,1.4v-3.4l1.2-0.6l-3.6-2.5L47.3,75l-0.1-4.4L64,61l3.5,2.2L67.3,41L48.5,56.4
		l-0.7-2.8l20-17.2l36.4,12.3l-1.2,3L69.3,40.5l0,36.2l3.7,0.9c-0.3-2.9,2.5-3.9,5.2-3c2.7,0.9,3.7,3.8,3.7,3.8
		c0.5-2.1,3-2.6,5.4-1.5c2.3,1,3.3,3.4,3.3,3.4c0.7-2.1,3.1-2.4,5.6-1.1c2.5,1.3,3,4.4,3,4.4l3.2,0.8 M61.8,81.7
		c0.7,0.8,1.8,0.4,2.5-1.1c0.7-1.4,0.7-3.2,0-4c-0.7-0.8-1.8-0.3-2.5,1.1C61.1,79.1,61.1,80.9,61.8,81.7z M57.2,83.5
		c0.6,0.8,1.6,0.4,2.2-0.9c0.6-1.3,0.6-3,0.1-3.7c-0.6-0.8-1.6-0.3-2.2,0.9C56.6,81.1,56.6,82.8,57.2,83.5z M53.1,84.9
		c0.4,0.8,1.2,0.5,1.7-0.5c0.5-1.1,0.6-2.5,0.1-3.3c-0.4-0.8-1.2-0.5-1.7,0.5C52.7,82.7,52.7,84.1,53.1,84.9z"/>
	<polygon class="st0" points="103.6,84.6 101.7,84.2 101.7,90.9 103.6,90.9 	"/>
</g>
<rect x="117.8" y="69.5" class="st0" width="181.5" height="0.3"/>
<g>
	<g>
		<path class="st0" d="M121.6,77.1v8.1c0,0.7,0.1,1.5,0.4,2.1c0.5,0.8,1.4,1.1,2.3,1.1c2.4,0,2.7-1.9,2.7-3.3v-8h3.7V85
			c0,1.5-0.2,3.2-1.1,4.2c-1.3,1.6-3.8,1.9-5.5,1.9c-6.4,0-6.5-4-6.5-6.2l0-7.8H121.6z"/>
		<path class="st0" d="M138.4,81.3v2.3h-2.3v3.3c0,1.2,0,1.7,1.4,1.7c0.3,0,0.5,0,0.9,0v2.2c-0.5,0.1-1.1,0.2-2.3,0.2
			c-2.8,0-3.4-0.9-3.4-2.8v-4.5h-1.3v-2.3h1.4v-1.5l3.4-1.4v2.8H138.4z"/>
		<path class="st0" d="M180.2,81.3v2.3h-2.3v3.3c0,1.2,0,1.7,1.4,1.7c0.3,0,0.5,0,0.9,0v2.2c-0.5,0.1-1.1,0.2-2.3,0.2
			c-2.8,0-3.4-0.9-3.4-2.8v-4.5h-1.3v-2.3h1.4v-1.5l3.4-1.4v2.8H180.2z"/>
		<path class="st0" d="M198.1,81.3v2.3h-2.3v3.3c0,1.2,0,1.7,1.4,1.7c0.3,0,0.5,0,0.9,0v2.2c-0.5,0.1-1.1,0.2-2.3,0.2
			c-2.8,0-3.4-0.9-3.4-2.8v-4.5H191v-2.3h1.4v-1.5l3.4-1.4v2.8H198.1z"/>
		<path class="st0" d="M145.5,90.8v-1.3c-0.4,0.6-1.2,1.5-3.1,1.5c-2.3,0-3.4-1.3-3.4-2.9c0-2.6,2.4-3.5,6.5-3.4c0-1-0.1-2-1.2-2
			c-0.7,0-1.3,0.4-1.3,1.4h-3.4c0-0.4,0-1.2,0.7-2c0.7-0.8,2.2-1.2,3.9-1.2c0.9,0,2.7,0.1,3.7,1.1c0.6,0.6,0.8,1.5,0.8,2.5v4.4
			l0,1.8L145.5,90.8z M142.5,87.7c0,0.7,0.5,1.3,1.3,1.3c0.4,0,1-0.2,1.4-0.9c0.3-0.6,0.3-1.4,0.3-1.8
			C144,86.3,142.5,86.3,142.5,87.7z"/>
		<path class="st0" d="M187.1,90.8v-1.3c-0.4,0.6-1.2,1.5-3.1,1.5c-2.3,0-3.3-1.3-3.3-2.9c0-2.6,2.4-3.5,6.5-3.4c0-1-0.1-2-1.2-2
			c-0.7,0-1.3,0.4-1.3,1.4h-3.4c0-0.4,0-1.2,0.7-2c0.7-0.8,2.2-1.2,3.9-1.2c0.9,0,2.7,0.1,3.7,1.1c0.6,0.6,0.8,1.5,0.8,2.5v4.4
			l0,1.8L187.1,90.8z M184.2,87.7c0,0.7,0.5,1.3,1.3,1.3c0.4,0,1-0.2,1.4-0.9c0.3-0.6,0.3-1.4,0.3-1.8
			C185.6,86.3,184.2,86.3,184.2,87.7z"/>
		<path class="st0" d="M149.6,77.1h3.6v5.2c0.4-0.4,1.2-1.2,3-1.2c0.9,0,1.9,0.2,2.6,1c0.9,0.8,0.9,1.9,0.9,3.2v5.5h-3.5v-5.1
			c0-0.8,0-2.3-1.5-2.3c-1.1,0-1.4,0.9-1.5,1.3c-0.1,0.4-0.1,1-0.1,1.8v4.3h-3.6V77.1z"/>
		<path class="st0" d="M164.6,86.4c0,0.6,0.1,2.1,2.3,2.1c0.3,0,2,0,2-1.5c0-0.6-0.3-1.1-1.2-1.3l-3.3-0.9c-0.9-0.2-3.4-0.9-3.4-3.7
			c0-2.2,1.7-4.3,5.7-4.3c5.3,0,5.6,2.9,5.6,4.3h-3.8c0-0.4,0-1.9-1.8-1.9c-1.1,0-1.8,0.6-1.8,1.4c0,1,0.8,1.2,1.4,1.4l2.5,0.7
			c1.8,0.5,4,1,4,3.9c0,3-2.6,4.4-6,4.4c-1.4,0-3.7-0.2-5-1.6c-1-1.1-1-2.4-1-3H164.6z"/>
		<path class="st0" d="M201.6,86.7c0,0.5,0,2.3,1.8,2.3c0.9,0,1.5-0.5,1.6-1.4h3.3c-0.3,2.4-2.5,3.3-4.9,3.3c-3.3,0-5.1-1.7-5.1-4.8
			c0-3.2,1.5-5.2,5-5.2c2.6,0,3.9,1.1,4.5,2.4c0.4,0.8,0.5,1.7,0.5,3.4H201.6z M205.1,84.8c0-0.5-0.2-2-1.7-2s-1.7,1.5-1.7,2H205.1z
			"/>
	</g>
	<g>
		<path class="st0" d="M221.1,85.2c0.1,3.5-1.8,5.7-5.6,5.7c-3.7,0-5.6-2.2-5.6-5.7v-8.3h1.9v8.8c0.1,2.4,1.5,3.6,3.6,3.6
			c2.2,0,3.6-1.3,3.7-3.6v-8.8h1.9V85.2z"/>
		<path class="st0" d="M225.4,82.5L225.4,82.5c0.7-1.2,2-1.7,2.9-1.7c0.7,0,3.6,0.2,3.6,3.2v6.6h-1.8v-6c0-1.6-0.7-2.4-2.2-2.4
			c0,0-1-0.1-1.8,0.7c-0.3,0.3-0.8,0.7-0.8,2.6v5.2h-1.8v-9.6h1.8V82.5z"/>
		<path class="st0" d="M235.2,76.9h2.2v2h-2.2V76.9z M235.4,90.7v-9.6h1.8v9.6H235.4z"/>
		<path class="st0" d="M243.2,90.7l-4-9.6h2l3.1,7.6l3-7.6h2l-4.2,9.6H243.2z"/>
		<path class="st0" d="M252.4,86.2c-0.1,1.7,0.6,3.4,2.4,3.4c1.4,0,2.1-0.6,2.3-1.9h1.9c-0.3,2.2-2,3.3-4.3,3.3
			c-3.1,0-4.3-2.2-4.3-5c0-2.8,1.4-5.2,4.4-5.2c2.9,0.1,4.2,1.9,4.2,4.5v0.9H252.4z M257.3,84.9c0-1.6-0.7-2.8-2.4-2.8
			c-1.5,0-2.4,1.3-2.4,2.8H257.3z"/>
		<path class="st0" d="M263.7,90.7h-1.8v-9.6h1.8v1.9h0c0.3-1.3,1.5-2,2.8-2c0.2,0,0.4,0,0.6,0v1.7c-0.2-0.1-0.5-0.1-0.8-0.1
			c-2.3,0.1-2.7,1.3-2.7,3.3V90.7z"/>
		<path class="st0" d="M272.3,80.8c1.8,0,3.9,0.8,3.7,2.9h-1.9c0.1-1.2-0.9-1.6-1.9-1.6c-1,0-1.8,0.5-1.8,1.5c0,1.1,1.6,1.1,2.3,1.4
			c1.6,0.5,3.5,0.7,3.5,2.9c0,2.3-2.3,3.1-4.3,3.1c-2,0-3.7-0.9-3.7-3.1h1.9c0,1.2,0.8,1.8,2,1.8c1.1,0,2.1-0.4,2.1-1.7
			c0-2.1-5.8-0.5-5.8-4.3C268.6,81.7,270.6,80.8,272.3,80.8z"/>
		<path class="st0" d="M278.7,76.9h2.2v2h-2.2V76.9z M278.9,90.7v-9.6h1.8v9.6H278.9z"/>
		<path class="st0" d="M284.2,81.1v-2l1.8-0.6v2.6l2.2-0.1v1.4l-2.2,0v6.2c0,0.7,0.5,1,1.2,1c0.3,0,0.7,0,1-0.1v1.4
			c-0.4,0-0.8,0.1-1.2,0.1c-0.4,0-0.8,0-1.2-0.1c-0.3-0.1-0.8-0.2-1.1-0.6c-0.3-0.5-0.4-0.5-0.4-1.8v-6.1l-1.6,0V81L284.2,81.1z"/>
		<path class="st0" d="M293.9,94.3h-1.9l1.4-3.7l-4-9.5h2l3,7.6l3.1-7.6h1.9L293.9,94.3z"/>
	</g>
</g>
<g>
	<g>
		<g>
			<path class="st0" d="M273.5,34c0.1-0.4,0.2-0.5,0.3-0.5s0.1,0.1,0.3,0.4c0.2,0.5,2.1,5.4,2.8,7.3c0.4,1.1,0.8,1.3,1,1.3
				c0.2,0.1,0.4,0.1,0.5,0.1c0.1,0,0.1,0,0.1,0.1c0,0.1-0.1,0.1-0.2,0.1c-0.2,0-1.1,0-1.9,0c-0.2,0-0.4,0-0.4-0.1c0,0,0-0.1,0.1-0.1
				c0.1,0,0.1-0.1,0.1-0.3l-1.1-3c0,0,0-0.1-0.1-0.1h-2.6c-0.1,0-0.1,0-0.1,0.1l-0.7,2.1c-0.1,0.3-0.2,0.6-0.2,0.8
				c0,0.2,0.3,0.3,0.5,0.3h0.1c0.1,0,0.1,0,0.1,0.1c0,0.1-0.1,0.1-0.2,0.1c-0.3,0-0.8,0-0.9,0s-0.8,0-1.4,0c-0.2,0-0.2,0-0.2-0.1
				c0,0,0-0.1,0.1-0.1c0.1,0,0.3,0,0.3,0c0.6-0.1,0.8-0.5,1-1.1L273.5,34z M274.8,38.8C274.8,38.8,274.8,38.8,274.8,38.8l-1.1-3.3
				c-0.1-0.2-0.1-0.2-0.2,0l-1.1,3.3c0,0.1,0,0.1,0,0.1H274.8z"/>
			<path class="st0" d="M280.3,41.2c0,1,0.1,1.3,0.5,1.4c0.2,0.1,0.5,0.1,0.6,0.1c0.1,0,0.1,0,0.1,0.1c0,0.1-0.1,0.1-0.2,0.1
				c-0.7,0-1.2,0-1.3,0s-0.6,0-1.2,0c-0.1,0-0.2,0-0.2-0.1c0,0,0-0.1,0.1-0.1c0.1,0,0.3,0,0.5-0.1c0.3-0.1,0.4-0.4,0.4-1.5l0-6.9
				c0-0.5,0-0.6,0.1-0.6s0.3,0.3,0.4,0.4c0.2,0.2,2,2.1,3.8,4.1c1.2,1.3,2.5,2.7,2.9,3.1l-0.1-6.1c0-0.8-0.1-1-0.5-1.1
				c-0.2,0-0.5-0.1-0.6-0.1c-0.1,0-0.1,0-0.1-0.1c0-0.1,0.1-0.1,0.2-0.1c0.5,0,1.1,0,1.3,0c0.1,0,0.5,0,1,0c0.1,0,0.2,0,0.2,0.1
				c0,0,0,0.1-0.1,0.1c-0.1,0-0.1,0-0.3,0c-0.4,0.1-0.4,0.3-0.4,1.1l0,7.1c0,0.8,0,0.9-0.1,0.9c-0.1,0-0.2-0.1-0.9-0.8
				c-0.1-0.1-1.9-1.9-3.1-3.3c-1.4-1.5-2.8-3-3.1-3.5L280.3,41.2z"/>
			<path class="st0" d="M290.7,37.2c0-1.9,0-2.2,0-2.6c0-0.4-0.1-0.6-0.5-0.7c-0.1,0-0.3,0-0.4,0c0,0-0.1,0-0.1-0.1
				c0-0.1,0.1-0.1,0.2-0.1c0.5,0,1.3,0,1.4,0c0.1,0,0.9,0,1.6,0c1.2,0,3.4-0.1,4.8,1.4c0.6,0.6,1.2,1.6,1.2,3.1
				c0,1.5-0.6,2.7-1.3,3.4c-0.5,0.5-1.6,1.4-3.7,1.4c-0.5,0-1.2,0-1.7-0.1c-0.5,0-0.9-0.1-1-0.1c0,0-0.2,0-0.5,0c-0.2,0-0.5,0-0.7,0
				c-0.1,0-0.2,0-0.2-0.1c0,0,0-0.1,0.1-0.1c0.1,0,0.3,0,0.4,0c0.2,0,0.3-0.3,0.3-0.7c0.1-0.5,0.1-1.5,0.1-2.6V37.2z M291.7,38.5
				c0,1.3,0,2.4,0,2.6c0,0.3,0,0.8,0.1,0.9c0.2,0.2,0.6,0.5,2,0.5c1.1,0,2.2-0.4,2.9-1.1c0.6-0.6,1-1.8,1-2.9c0-1.5-0.7-2.5-1.2-3
				c-1.1-1.2-2.5-1.4-3.9-1.4c-0.2,0-0.7,0-0.8,0.1c-0.1,0-0.1,0.1-0.1,0.2c0,0.4,0,1.6,0,2.6V38.5z"/>
		</g>
	</g>
	<g>
		<g>
			<path class="st0" d="M118.5,23.2c-1.1-1-1.4-2.3-1.4-3.4c0-0.8,0.3-2.1,1.3-3.1c0.7-0.7,1.7-1.2,3.5-1.2c0.5,0,1.1,0,1.6,0.1
				c0.4,0.1,0.8,0.1,1.2,0.2c0.1,0,0.1,0.1,0.1,0.1c0,0.1,0,0.2-0.1,0.6c0,0.4,0,1,0,1.2c0,0.2,0,0.2-0.1,0.2
				c-0.1,0-0.1-0.1-0.1-0.2c0-0.4-0.2-0.9-0.5-1.2c-0.4-0.3-1.3-0.6-2.3-0.6c-1.5,0-2.2,0.4-2.6,0.8c-0.8,0.8-1,1.8-1,3
				c0,2.2,1.7,4.1,4.1,4.1c0.9,0,1.5-0.1,2-0.6c0.2-0.2,0.4-0.7,0.4-1c0-0.1,0-0.2,0.1-0.2c0.1,0,0.1,0.1,0.1,0.2
				c0,0.1-0.1,1.1-0.2,1.5c-0.1,0.2-0.1,0.2-0.3,0.3c-0.5,0.2-1.3,0.3-2,0.3C120.6,24.5,119.4,24,118.5,23.2z"/>
			<path class="st0" d="M130.7,15.6c2.6,0,4.5,1.6,4.5,4.3c0,2.5-1.8,4.6-4.5,4.6c-3.1,0-4.4-2.4-4.4-4.5
				C126.3,18.2,127.6,15.6,130.7,15.6z M131,24c1,0,3.1-0.6,3.1-3.9c0-2.7-1.7-4.2-3.4-4.2c-1.9,0-3.3,1.2-3.3,3.7
				C127.4,22.3,128.9,24,131,24z"/>
			<path class="st0" d="M138.2,21c0,1.7,0,2.4,0.2,2.6c0.2,0.2,0.5,0.3,1.4,0.3c0.6,0,1.1,0,1.4-0.3c0.1-0.2,0.3-0.5,0.3-0.7
				c0-0.1,0-0.1,0.1-0.1c0.1,0,0.1,0,0.1,0.2c0,0.1-0.1,0.8-0.2,1.1c-0.1,0.3-0.1,0.3-0.7,0.3c-0.8,0-1.4,0-1.9,0
				c-0.5,0-0.8,0-1.2,0c0,0-0.2,0-0.5,0c-0.2,0-0.5,0-0.6,0c-0.1,0-0.2,0-0.2-0.1c0,0,0-0.1,0.1-0.1c0.1,0,0.2,0,0.3,0
				c0.2,0,0.3-0.3,0.3-0.6c0.1-0.5,0.1-1.4,0.1-2.5v-2c0-1.8,0-2.1,0-2.4c0-0.4-0.1-0.6-0.5-0.6c-0.1,0-0.3,0-0.4,0
				c0,0-0.1,0-0.1-0.1c0-0.1,0.1-0.1,0.2-0.1c0.5,0,1.2,0,1.3,0s0.9,0,1.2,0c0.1,0,0.2,0,0.2,0.1c0,0,0,0.1-0.1,0.1
				c-0.1,0-0.2,0-0.4,0c-0.3,0.1-0.4,0.2-0.4,0.6c0,0.4,0,0.7,0,2.4V21z"/>
			<path class="st0" d="M144,21c0,1.7,0,2.4,0.2,2.6c0.2,0.2,0.5,0.3,1.4,0.3c0.6,0,1.1,0,1.4-0.3c0.1-0.2,0.3-0.5,0.3-0.7
				c0-0.1,0-0.1,0.1-0.1c0.1,0,0.1,0,0.1,0.2c0,0.1-0.1,0.8-0.2,1.1c-0.1,0.3-0.1,0.3-0.7,0.3c-0.8,0-1.4,0-1.9,0
				c-0.5,0-0.8,0-1.2,0c0,0-0.2,0-0.5,0c-0.2,0-0.5,0-0.6,0c-0.1,0-0.2,0-0.2-0.1c0,0,0-0.1,0.1-0.1c0.1,0,0.2,0,0.3,0
				c0.2,0,0.3-0.3,0.3-0.6c0.1-0.5,0.1-1.4,0.1-2.5v-2c0-1.8,0-2.1,0-2.4c0-0.4-0.1-0.6-0.5-0.6c-0.1,0-0.3,0-0.4,0
				c0,0-0.1,0-0.1-0.1c0-0.1,0.1-0.1,0.2-0.1c0.5,0,1.2,0,1.3,0s0.9,0,1.2,0c0.1,0,0.2,0,0.2,0.1c0,0,0,0.1-0.1,0.1
				c-0.1,0-0.2,0-0.4,0c-0.3,0.1-0.4,0.2-0.4,0.6c0,0.4,0,0.7,0,2.4V21z"/>
			<path class="st0" d="M149.5,19c0-1.8,0-2.1,0-2.4c0-0.4-0.1-0.6-0.5-0.6c-0.1,0-0.3,0-0.4,0c0,0-0.1,0-0.1-0.1
				c0-0.1,0.1-0.1,0.2-0.1c0.3,0,0.6,0,0.8,0l0.5,0c0.1,0,2.3,0,2.6,0c0.2,0,0.4,0,0.5-0.1c0.1,0,0.1-0.1,0.2-0.1c0,0,0,0,0,0.1
				c0,0.1-0.1,0.2-0.1,0.5c0,0.1,0,0.6-0.1,0.7c0,0.1,0,0.1-0.1,0.1c-0.1,0-0.1-0.1-0.1-0.1c0-0.1,0-0.3-0.1-0.4
				c-0.1-0.2-0.2-0.3-0.8-0.4c-0.2,0-1.4,0-1.6,0c0,0-0.1,0-0.1,0.1v3.1c0,0.1,0,0.1,0.1,0.1c0.1,0,1.5,0,1.8,0c0.3,0,0.4,0,0.5-0.2
				c0.1-0.1,0.1-0.1,0.2-0.1c0,0,0.1,0,0.1,0.1s-0.1,0.3-0.1,0.6c0,0.2,0,0.6,0,0.7c0,0.1,0,0.2-0.1,0.2c-0.1,0-0.1,0-0.1-0.1
				c0-0.1,0-0.2,0-0.4c0-0.2-0.1-0.4-0.6-0.4c-0.3,0-1.4-0.1-1.6-0.1c-0.1,0-0.1,0-0.1,0.1v1c0,0.4,0,1.7,0,1.9
				c0,0.8,0.2,0.9,1.3,0.9c0.3,0,0.8,0,1.1-0.1c0.3-0.1,0.4-0.4,0.5-0.8c0-0.1,0-0.2,0.1-0.2c0.1,0,0.1,0.1,0.1,0.2
				c0,0.1-0.1,0.9-0.1,1.1c-0.1,0.3-0.2,0.3-0.6,0.3c-0.9,0-1.5,0-1.9,0c-0.4,0-0.7,0-0.9,0c0,0-0.2,0-0.5,0c-0.2,0-0.5,0-0.7,0
				c-0.1,0-0.2,0-0.2-0.1c0,0,0-0.1,0.1-0.1c0.1,0,0.2,0,0.3,0c0.2,0,0.3-0.3,0.3-0.6c0.1-0.5,0.1-1.4,0.1-2.5V19z"/>
			<path class="st0" d="M161.6,21.4c0-0.9-0.1-1-0.5-1.2c-0.1,0-0.3,0-0.4,0c0,0-0.1,0-0.1-0.1c0-0.1,0.1-0.1,0.2-0.1
				c0.5,0,1.2,0,1.3,0c0.1,0,0.8,0,1.1,0c0.1,0,0.2,0,0.2,0.1c0,0,0,0.1-0.1,0.1c-0.1,0-0.1,0-0.3,0c-0.3,0.1-0.4,0.2-0.4,0.6
				c0,0.4,0,0.7,0,1.2v1.3c0,0.5,0,0.5-0.1,0.6c-0.7,0.4-1.7,0.5-2.4,0.5c-0.9,0-2.5-0.1-3.7-1.2c-0.7-0.6-1.3-1.8-1.3-3.2
				c0-1.8,0.9-3.1,1.9-3.7c1-0.6,2.1-0.7,3-0.7c0.7,0,1.5,0.1,1.7,0.2c0.2,0.1,0.6,0.1,0.9,0.1c0.1,0,0.1,0.1,0.1,0.1
				c0,0.2-0.1,0.5-0.1,1.6c0,0.2,0,0.2-0.1,0.2c-0.1,0-0.1-0.1-0.1-0.2c0-0.2-0.1-0.5-0.2-0.7c-0.3-0.4-1.2-0.9-2.7-0.9
				c-0.7,0-1.6,0.1-2.4,0.7c-0.7,0.5-1.1,1.6-1.1,2.9c0,1.6,0.8,2.8,1.2,3.1c0.9,0.9,1.9,1.2,3,1.2c0.4,0,1-0.1,1.3-0.2
				c0.1-0.1,0.2-0.2,0.2-0.4V21.4z"/>
			<path class="st0" d="M165.6,19c0-1.8,0-2.1,0-2.4c0-0.4-0.1-0.6-0.5-0.6c-0.1,0-0.3,0-0.4,0c0,0-0.1,0-0.1-0.1
				c0-0.1,0.1-0.1,0.2-0.1c0.3,0,0.6,0,0.8,0l0.5,0c0.1,0,2.3,0,2.6,0c0.2,0,0.4,0,0.5-0.1c0.1,0,0.1-0.1,0.2-0.1c0,0,0,0,0,0.1
				c0,0.1-0.1,0.2-0.1,0.5c0,0.1,0,0.6-0.1,0.7c0,0.1,0,0.1-0.1,0.1c-0.1,0-0.1-0.1-0.1-0.1c0-0.1,0-0.3-0.1-0.4
				c-0.1-0.2-0.2-0.3-0.8-0.4c-0.2,0-1.4,0-1.6,0c0,0-0.1,0-0.1,0.1v3.1c0,0.1,0,0.1,0.1,0.1c0.1,0,1.5,0,1.8,0c0.3,0,0.4,0,0.5-0.2
				c0.1-0.1,0.1-0.1,0.2-0.1c0,0,0.1,0,0.1,0.1s-0.1,0.3-0.1,0.6c0,0.2,0,0.6,0,0.7c0,0.1,0,0.2-0.1,0.2c-0.1,0-0.1,0-0.1-0.1
				c0-0.1,0-0.2,0-0.4c0-0.2-0.1-0.4-0.6-0.4c-0.3,0-1.4-0.1-1.6-0.1c-0.1,0-0.1,0-0.1,0.1v1c0,0.4,0,1.7,0,1.9
				c0,0.8,0.2,0.9,1.3,0.9c0.3,0,0.8,0,1.1-0.1c0.3-0.1,0.4-0.4,0.5-0.8c0-0.1,0-0.2,0.1-0.2c0.1,0,0.1,0.1,0.1,0.2
				c0,0.1-0.1,0.9-0.1,1.1c-0.1,0.3-0.2,0.3-0.6,0.3c-0.9,0-1.5,0-1.9,0c-0.4,0-0.7,0-0.9,0c0,0-0.2,0-0.5,0c-0.2,0-0.5,0-0.7,0
				c-0.1,0-0.2,0-0.2-0.1c0,0,0-0.1,0.1-0.1c0.1,0,0.2,0,0.3,0c0.2,0,0.3-0.3,0.3-0.6c0.1-0.5,0.1-1.4,0.1-2.5V19z"/>
			<path class="st0" d="M179.3,15.6c2.6,0,4.5,1.6,4.5,4.3c0,2.5-1.8,4.6-4.5,4.6c-3.1,0-4.4-2.4-4.4-4.5
				C174.9,18.2,176.2,15.6,179.3,15.6z M179.6,24c1,0,3.1-0.6,3.1-3.9c0-2.7-1.7-4.2-3.4-4.2c-1.9,0-3.3,1.2-3.3,3.7
				C175.9,22.3,177.5,24,179.6,24z"/>
			<path class="st0" d="M186,19c0-1.8,0-2.1,0-2.4c0-0.4-0.1-0.6-0.5-0.6c-0.1,0-0.3,0-0.4,0c0,0-0.1,0-0.1-0.1
				c0-0.1,0.1-0.1,0.2-0.1c0.3,0,0.6,0,0.8,0l0.5,0c0.2,0,2.5,0,2.8,0c0.2,0,0.4,0,0.5,0c0.1,0,0.1-0.1,0.2-0.1c0,0,0.1,0,0.1,0.1
				c0,0.1-0.1,0.2-0.1,0.5c0,0.1,0,0.6-0.1,0.7c0,0.1,0,0.1-0.1,0.1s-0.1-0.1-0.1-0.1c0-0.1,0-0.3-0.1-0.4c-0.1-0.1-0.3-0.4-0.8-0.4
				l-1.7,0c-0.1,0-0.1,0-0.1,0.1v3.1c0,0.1,0,0.1,0.1,0.1l1.5,0c0.2,0,0.4,0,0.5,0c0.3,0,0.4-0.1,0.5-0.2c0-0.1,0.1-0.1,0.1-0.1
				c0,0,0.1,0,0.1,0.1c0,0.1-0.1,0.3-0.1,0.6c0,0.2,0,0.7,0,0.8c0,0.1,0,0.2-0.1,0.2c-0.1,0-0.1,0-0.1-0.1c0-0.1,0-0.3-0.1-0.4
				c-0.1-0.2-0.2-0.4-0.6-0.4c-0.3,0-1.5,0-1.7,0c-0.1,0-0.1,0-0.1,0.1v1c0,1.1,0,2,0.1,2.5c0,0.3,0.1,0.6,0.4,0.6
				c0.2,0,0.4,0,0.5,0c0.1,0,0.1,0,0.1,0.1c0,0.1-0.1,0.1-0.2,0.1c-0.6,0-1.3,0-1.4,0s-0.8,0-1.1,0c-0.1,0-0.2,0-0.2-0.1
				c0,0,0-0.1,0.1-0.1c0.1,0,0.2,0,0.3,0c0.2,0,0.3-0.3,0.3-0.6C186,23,186,22.1,186,21V19z"/>
		</g>
	</g>
	<g>
		<g>
			<path class="st0" d="M129.8,37c0,1.9,0,3.5,0.1,4.3c0.1,0.6,0.2,1,0.8,1.1c0.3,0,0.7,0.1,0.9,0.1c0.1,0,0.2,0.1,0.2,0.1
				c0,0.1-0.1,0.2-0.3,0.2c-1.1,0-2.4-0.1-2.5-0.1s-1.4,0.1-2,0.1c-0.2,0-0.3,0-0.3-0.2c0-0.1,0-0.1,0.2-0.1c0.2,0,0.4,0,0.6-0.1
				c0.4-0.1,0.5-0.5,0.6-1.1c0.1-0.8,0.1-2.4,0.1-4.3v-2.1c0-0.1-0.1-0.1-0.1-0.1h-8.4c-0.1,0-0.1,0-0.1,0.1V37c0,1.9,0,3.5,0.1,4.3
				c0.1,0.6,0.2,1,0.8,1.1c0.3,0,0.7,0.1,0.9,0.1c0.1,0,0.2,0.1,0.2,0.1c0,0.1-0.1,0.2-0.3,0.2c-1.1,0-2.4-0.1-2.5-0.1
				s-1.4,0.1-2,0.1c-0.2,0-0.3,0-0.3-0.2c0-0.1,0-0.1,0.2-0.1c0.2,0,0.4,0,0.6-0.1c0.4-0.1,0.5-0.5,0.6-1.1c0.1-0.8,0.1-2.4,0.1-4.3
				v-3.5c0-3.1,0-3.7,0-4.3c0-0.7-0.2-1-0.9-1.1c-0.2,0-0.5-0.1-0.7-0.1c-0.1,0-0.2,0-0.2-0.1c0-0.1,0.1-0.2,0.3-0.2
				c0.9,0,2.2,0.1,2.3,0.1s1.4-0.1,2-0.1c0.2,0,0.3,0,0.3,0.2c0,0.1-0.1,0.1-0.2,0.1c-0.1,0-0.3,0-0.5,0.1c-0.5,0.1-0.7,0.4-0.7,1.1
				c0,0.6,0,1.2,0,4.3v0.4c0,0.1,0.1,0.1,0.1,0.1h8.4c0.1,0,0.1,0,0.1-0.1v-0.4c0-3.1,0-3.7,0-4.3c0-0.7-0.2-1-0.9-1.1
				c-0.2,0-0.5-0.1-0.7-0.1c-0.1,0-0.2,0-0.2-0.1c0-0.1,0.1-0.2,0.3-0.2c0.9,0,2.2,0.1,2.3,0.1s1.4-0.1,2-0.1c0.2,0,0.3,0,0.3,0.2
				c0,0.1-0.1,0.1-0.2,0.1c-0.1,0-0.3,0-0.5,0.1c-0.5,0.1-0.7,0.4-0.7,1.1c0,0.6,0,1.2,0,4.3V37z"/>
			<path class="st0" d="M136.1,33.5c0-3.1,0-3.7,0-4.3c0-0.7-0.2-1-0.9-1.1c-0.2,0-0.5-0.1-0.7-0.1c-0.1,0-0.2,0-0.2-0.1
				c0-0.1,0.1-0.2,0.3-0.2c0.9,0,2.1,0.1,2.3,0.1c0.2,0,1.4-0.1,2-0.1c0.2,0,0.3,0,0.3,0.2c0,0.1-0.1,0.1-0.2,0.1
				c-0.1,0-0.3,0-0.5,0.1c-0.5,0.1-0.7,0.4-0.7,1.1c0,0.6,0,1.2,0,4.3v2.8c0,2.9,0.6,4.1,1.5,4.9c1,0.9,1.9,1.1,3,1.1
				c1.2,0,2.4-0.6,3.1-1.4c0.9-1.1,1.2-2.8,1.2-4.9v-2.5c0-3.1,0-3.7,0-4.3c0-0.7-0.2-1-0.9-1.1c-0.2,0-0.5-0.1-0.7-0.1
				c-0.1,0-0.2,0-0.2-0.1c0-0.1,0.1-0.2,0.3-0.2c0.9,0,2,0.1,2.1,0.1c0.1,0,1.1-0.1,1.7-0.1c0.2,0,0.3,0,0.3,0.2
				c0,0.1-0.1,0.1-0.2,0.1c-0.1,0-0.3,0-0.5,0.1c-0.5,0.1-0.7,0.4-0.7,1.1c0,0.6,0,1.2,0,4.3v2.1c0,2.2-0.2,4.5-1.8,6
				c-1.4,1.3-2.9,1.5-4.1,1.5c-0.7,0-2.7-0.1-4.1-1.4c-1-0.9-1.7-2.3-1.7-5.2V33.5z"/>
			<path class="st0" d="M168.6,40.2c0.1,0.7,0.2,1.8,1.1,2.1c0.6,0.2,1.1,0.2,1.3,0.2c0.1,0,0.2,0,0.2,0.1c0,0.1-0.2,0.2-0.4,0.2
				c-0.4,0-2.6,0-3.3-0.1c-0.5,0-0.6-0.1-0.6-0.2c0-0.1,0-0.1,0.1-0.1s0.1-0.4,0.1-0.7l-1-10.3H166l-4.9,10.4
				c-0.4,0.9-0.5,1.1-0.7,1.1c-0.1,0-0.2-0.2-0.6-0.9c-0.5-1-2.2-4.4-2.3-4.6c-0.2-0.4-2.4-5.1-2.6-5.7h-0.1l-0.8,9.2
				c0,0.3,0,0.7,0,1c0,0.3,0.2,0.6,0.5,0.6c0.3,0.1,0.6,0.1,0.8,0.1c0.1,0,0.2,0,0.2,0.1c0,0.1-0.1,0.2-0.4,0.2
				c-0.7,0-1.7-0.1-1.9-0.1c-0.2,0-1.1,0.1-1.7,0.1c-0.2,0-0.3,0-0.3-0.2c0-0.1,0.1-0.1,0.2-0.1c0.2,0,0.3,0,0.6-0.1
				c0.7-0.1,0.7-0.9,0.8-1.7l1.4-13c0-0.2,0.1-0.4,0.2-0.4c0.1,0,0.2,0.1,0.3,0.3l6.1,12.5l5.9-12.5c0.1-0.2,0.2-0.3,0.3-0.3
				c0.1,0,0.2,0.2,0.2,0.5L168.6,40.2z"/>
			<path class="st0" d="M178.8,28.2c0.2-0.7,0.3-0.8,0.4-0.8c0.1,0,0.2,0.1,0.4,0.7c0.3,0.8,3.4,9,4.6,12c0.7,1.8,1.3,2.1,1.7,2.2
				c0.3,0.1,0.6,0.1,0.8,0.1c0.1,0,0.2,0,0.2,0.1c0,0.1-0.2,0.2-0.4,0.2c-0.3,0-1.8,0-3.1,0c-0.4,0-0.6,0-0.6-0.1
				c0-0.1,0.1-0.1,0.1-0.1c0.1,0,0.2-0.2,0.1-0.5l-1.9-4.9c0-0.1-0.1-0.1-0.2-0.1h-4.3c-0.1,0-0.2,0.1-0.2,0.2l-1.2,3.5
				c-0.2,0.5-0.3,1-0.3,1.3c0,0.4,0.4,0.6,0.8,0.6h0.2c0.1,0,0.2,0,0.2,0.1c0,0.1-0.1,0.2-0.3,0.2c-0.5,0-1.3-0.1-1.6-0.1
				c-0.2,0-1.3,0.1-2.3,0.1c-0.3,0-0.4,0-0.4-0.2c0-0.1,0.1-0.1,0.2-0.1c0.1,0,0.4,0,0.6,0c0.9-0.1,1.3-0.9,1.7-1.9L178.8,28.2z
				 M180.8,36.1c0.1,0,0.1-0.1,0.1-0.1l-1.9-5.4c-0.1-0.3-0.2-0.3-0.3,0L177,36c0,0.1,0,0.1,0.1,0.1H180.8z"/>
			<path class="st0" d="M191.2,40c0,1.6,0.2,2.2,0.8,2.3c0.4,0.1,0.8,0.1,1,0.1c0.1,0,0.2,0,0.2,0.1c0,0.1-0.1,0.2-0.4,0.2
				c-1.1,0-1.9-0.1-2.1-0.1c-0.2,0-1,0.1-1.9,0.1c-0.2,0-0.3,0-0.3-0.2c0-0.1,0.1-0.1,0.2-0.1c0.2,0,0.5,0,0.8-0.1
				c0.5-0.1,0.6-0.7,0.6-2.5l0-11.4c0-0.8,0.1-1,0.2-1s0.5,0.4,0.7,0.6c0.3,0.3,3.3,3.5,6.3,6.8c2,2.1,4.1,4.5,4.8,5.2L201.8,30
				c0-1.3-0.2-1.7-0.8-1.9c-0.4-0.1-0.8-0.1-1-0.1c-0.1,0-0.2-0.1-0.2-0.1c0-0.1,0.2-0.1,0.4-0.1c0.9,0,1.9,0.1,2.1,0.1
				c0.2,0,0.9-0.1,1.7-0.1c0.2,0,0.4,0,0.4,0.1c0,0.1-0.1,0.1-0.2,0.1c-0.1,0-0.2,0-0.5,0.1c-0.7,0.1-0.7,0.6-0.7,1.8l0,11.7
				c0,1.3,0,1.4-0.2,1.4c-0.2,0-0.4-0.2-1.5-1.3c-0.2-0.2-3.1-3.1-5.2-5.4c-2.3-2.5-4.6-5-5.2-5.7L191.2,40z"/>
			<path class="st0" d="M212,37c0,1.9,0,3.5,0.1,4.3c0.1,0.6,0.2,1,0.8,1.1c0.3,0,0.7,0.1,0.9,0.1c0.1,0,0.2,0.1,0.2,0.1
				c0,0.1-0.1,0.2-0.3,0.2c-1.1,0-2.4-0.1-2.5-0.1s-1.4,0.1-2,0.1c-0.2,0-0.3,0-0.3-0.2c0-0.1,0-0.1,0.2-0.1c0.2,0,0.4,0,0.6-0.1
				c0.4-0.1,0.5-0.5,0.6-1.1c0.1-0.8,0.1-2.4,0.1-4.3v-3.5c0-3.1,0-3.7,0-4.3c0-0.7-0.2-1-0.7-1.1c-0.2-0.1-0.5-0.1-0.6-0.1
				c-0.1,0-0.2,0-0.2-0.1c0-0.1,0.1-0.2,0.3-0.2c0.7,0,1.9,0.1,2,0.1s1.4-0.1,2-0.1c0.2,0,0.3,0,0.3,0.2c0,0.1-0.1,0.1-0.2,0.1
				c-0.1,0-0.3,0-0.5,0.1c-0.5,0.1-0.7,0.4-0.7,1.1c0,0.6,0,1.2,0,4.3V37z"/>
			<path class="st0" d="M224.5,37c0,1.9,0,3.5,0.1,4.3c0.1,0.6,0.2,1,0.8,1.1c0.3,0,0.7,0.1,0.9,0.1c0.1,0,0.2,0.1,0.2,0.1
				c0,0.1-0.1,0.2-0.3,0.2c-1.1,0-2.4-0.1-2.5-0.1s-1.4,0.1-2,0.1c-0.2,0-0.3,0-0.3-0.2c0-0.1,0-0.1,0.2-0.1c0.2,0,0.4,0,0.6-0.1
				c0.4-0.1,0.5-0.5,0.6-1.1c0.1-0.8,0.1-2.4,0.1-4.3v-8.4l-2.9,0c-1.2,0-1.7,0.2-2,0.6c-0.2,0.3-0.3,0.5-0.3,0.6
				c-0.1,0.2-0.1,0.2-0.2,0.2c-0.1,0-0.1-0.1-0.1-0.2c0-0.2,0.4-1.9,0.4-2.1c0-0.1,0.1-0.4,0.2-0.4c0.1,0,0.3,0.2,0.9,0.2
				c0.6,0.1,1.3,0.1,1.6,0.1h7.5c0.6,0,1.1,0,1.4-0.1c0.3,0,0.5-0.1,0.6-0.1c0.1,0,0.1,0.1,0.1,0.2c0,0.6-0.1,2-0.1,2.2
				c0,0.2-0.1,0.3-0.1,0.3c-0.1,0-0.1-0.1-0.2-0.3l0-0.2c-0.1-0.6-0.5-1.1-2.5-1.1l-2.5,0V37z"/>
			<path class="st0" d="M236.9,37c0,1.9,0,3.5,0.1,4.3c0.1,0.6,0.2,1,0.8,1.1c0.3,0,0.7,0.1,0.9,0.1c0.1,0,0.2,0.1,0.2,0.1
				c0,0.1-0.1,0.2-0.3,0.2c-1.1,0-2.4-0.1-2.5-0.1s-1.4,0.1-2,0.1c-0.2,0-0.3,0-0.3-0.2c0-0.1,0-0.1,0.2-0.1c0.2,0,0.4,0,0.6-0.1
				c0.4-0.1,0.5-0.5,0.6-1.1c0.1-0.8,0.1-2.4,0.1-4.3v-3.5c0-3.1,0-3.7,0-4.3c0-0.7-0.2-1-0.7-1.1c-0.2-0.1-0.5-0.1-0.6-0.1
				c-0.1,0-0.2,0-0.2-0.1c0-0.1,0.1-0.2,0.3-0.2c0.7,0,1.9,0.1,2,0.1s1.4-0.1,2-0.1c0.2,0,0.3,0,0.3,0.2c0,0.1-0.1,0.1-0.2,0.1
				c-0.1,0-0.3,0-0.5,0.1c-0.5,0.1-0.7,0.4-0.7,1.1c0,0.6,0,1.2,0,4.3V37z"/>
			<path class="st0" d="M245.2,33.5c0-3.1,0-3.7,0-4.3c0-0.7-0.2-1-0.9-1.1c-0.2,0-0.5-0.1-0.7-0.1c-0.1,0-0.2,0-0.2-0.1
				c0-0.1,0.1-0.2,0.3-0.2c0.5,0,1,0,1.4,0l0.8,0c0.1,0,4.1,0,4.6,0c0.4,0,0.7-0.1,0.9-0.1c0.1,0,0.2-0.1,0.3-0.1
				c0.1,0,0.1,0.1,0.1,0.2c0,0.1-0.1,0.4-0.2,0.9c0,0.2-0.1,1.1-0.1,1.3c0,0.1-0.1,0.2-0.1,0.2c-0.1,0-0.2-0.1-0.2-0.3
				c0-0.1,0-0.5-0.1-0.7c-0.1-0.3-0.3-0.6-1.4-0.7c-0.3,0-2.5-0.1-2.7-0.1c-0.1,0-0.1,0.1-0.1,0.2v5.5c0,0.1,0,0.2,0.1,0.2
				c0.3,0,2.7,0,3.2,0c0.5,0,0.8-0.1,0.9-0.3c0.1-0.2,0.2-0.3,0.3-0.3c0.1,0,0.1,0,0.1,0.2s-0.1,0.5-0.2,1.1c0,0.4-0.1,1.1-0.1,1.3
				c0,0.2,0,0.4-0.1,0.4c-0.1,0-0.1-0.1-0.1-0.2c0-0.2,0-0.4-0.1-0.7c-0.1-0.3-0.3-0.6-1-0.7c-0.5-0.1-2.5-0.1-2.8-0.1
				c-0.1,0-0.1,0.1-0.1,0.1V37c0,0.7,0,3,0,3.4c0.1,1.4,0.4,1.6,2.3,1.6c0.5,0,1.4,0,1.9-0.2c0.5-0.2,0.8-0.6,0.9-1.4
				c0-0.2,0.1-0.3,0.2-0.3c0.1,0,0.1,0.2,0.1,0.3c0,0.2-0.2,1.5-0.3,1.9c-0.1,0.5-0.3,0.5-1.1,0.5c-1.5,0-2.6,0-3.4-0.1
				c-0.8,0-1.3-0.1-1.6-0.1c0,0-0.4,0-0.8,0c-0.4,0-0.9,0-1.2,0c-0.2,0-0.3,0-0.3-0.2c0-0.1,0-0.1,0.2-0.1c0.2,0,0.4,0,0.6-0.1
				c0.4-0.1,0.5-0.5,0.6-1.1c0.1-0.8,0.1-2.4,0.1-4.3V33.5z"/>
			<path class="st0" d="M256.9,42.5c-0.3-0.1-0.3-0.2-0.3-0.8c0-1,0.1-1.8,0.1-2.1c0-0.2,0.1-0.3,0.2-0.3c0.1,0,0.1,0.1,0.1,0.2
				c0,0.2,0,0.5,0.1,0.7c0.3,1.5,1.6,2,2.9,2c1.9,0,2.8-1.4,2.8-2.7c0-1.4-0.6-2.2-2.3-3.6l-0.9-0.7c-2.1-1.7-2.6-3-2.6-4.3
				c0-2.1,1.6-3.6,4.1-3.6c0.8,0,1.4,0.1,1.9,0.2c0.4,0.1,0.5,0.1,0.7,0.1s0.2,0,0.2,0.1s-0.1,0.8-0.1,2.1c0,0.3,0,0.5-0.1,0.5
				c-0.1,0-0.1-0.1-0.2-0.3c0-0.2-0.1-0.8-0.3-1c-0.1-0.2-0.7-1.1-2.5-1.1c-1.4,0-2.5,0.9-2.5,2.3c0,1.1,0.5,1.9,2.4,3.3l0.6,0.4
				c2.4,1.9,2.9,3.1,2.9,4.7c0,0.8-0.3,2.3-1.7,3.3c-0.9,0.6-1.9,0.8-3,0.8C258.6,43,257.7,42.9,256.9,42.5z"/>
		</g>
	</g>
	<g>
		<g>
			<path class="st0" d="M116.9,61.4c-0.3-0.1-0.3-0.2-0.3-0.8c0-1,0.1-1.8,0.1-2.1c0-0.2,0.1-0.3,0.2-0.3c0.1,0,0.1,0.1,0.1,0.2
				c0,0.2,0,0.5,0.1,0.7c0.3,1.5,1.6,2,2.9,2c1.9,0,2.8-1.4,2.8-2.6c0-1.4-0.6-2.2-2.3-3.6l-0.9-0.7c-2.1-1.7-2.6-3-2.6-4.3
				c0-2.1,1.6-3.6,4.1-3.6c0.8,0,1.3,0.1,1.8,0.2c0.4,0.1,0.5,0.1,0.7,0.1c0.2,0,0.2,0,0.2,0.1s-0.1,0.8-0.1,2.1
				c0,0.3,0,0.5-0.1,0.5c-0.1,0-0.1-0.1-0.2-0.3c0-0.2-0.1-0.8-0.3-1c-0.1-0.2-0.7-1.1-2.5-1.1c-1.4,0-2.4,0.9-2.4,2.3
				c0,1.1,0.5,1.8,2.4,3.3l0.6,0.4c2.3,1.8,2.9,3.1,2.9,4.7c0,0.8-0.3,2.3-1.7,3.3c-0.9,0.6-1.9,0.8-3,0.8
				C118.6,61.9,117.7,61.8,116.9,61.4z"/>
			<path class="st0" d="M134.2,46.4c4.5,0,7.8,2.8,7.8,7.4c0,4.4-3.1,8.1-7.9,8.1c-5.4,0-7.7-4.2-7.7-7.8
				C126.4,50.9,128.7,46.4,134.2,46.4z M134.6,61.2c1.8,0,5.5-1,5.5-6.8c0-4.8-2.9-7.3-6-7.3c-3.3,0-5.8,2.2-5.8,6.5
				C128.3,58.2,131,61.2,134.6,61.2z"/>
			<path class="st0" d="M146.9,59.8c-1.9-1.7-2.4-4-2.4-5.9c0-1.3,0.5-3.7,2.2-5.4c1.2-1.2,3-2.1,6.1-2.1c0.8,0,1.9,0.1,2.9,0.2
				c0.8,0.1,1.4,0.3,2,0.3c0.2,0,0.3,0.1,0.3,0.2c0,0.2-0.1,0.4-0.1,1.1c0,0.7,0,1.7-0.1,2c0,0.3-0.1,0.4-0.2,0.4
				c-0.1,0-0.2-0.1-0.2-0.4c0-0.8-0.3-1.6-0.8-2c-0.7-0.6-2.2-1.1-4-1.1c-2.6,0-3.9,0.8-4.6,1.4c-1.4,1.4-1.8,3.2-1.8,5.2
				c0,3.8,2.9,7.3,7.2,7.3c1.5,0,2.7-0.2,3.5-1c0.4-0.4,0.7-1.3,0.7-1.7c0-0.2,0.1-0.3,0.2-0.3c0.1,0,0.1,0.1,0.1,0.3
				c0,0.1-0.2,1.9-0.4,2.5c-0.1,0.4-0.2,0.4-0.5,0.6c-0.8,0.3-2.3,0.5-3.6,0.5C150.5,61.9,148.5,61.2,146.9,59.8z"/>
			<path class="st0" d="M164.1,55.9c0,1.9,0,3.5,0.1,4.3c0.1,0.6,0.2,1,0.8,1.1c0.3,0,0.7,0.1,0.9,0.1c0.1,0,0.2,0.1,0.2,0.1
				c0,0.1-0.1,0.2-0.3,0.2c-1.1,0-2.3-0.1-2.4-0.1c-0.1,0-1.3,0.1-1.9,0.1c-0.2,0-0.3,0-0.3-0.2c0-0.1,0-0.1,0.2-0.1
				c0.2,0,0.4,0,0.6-0.1c0.4-0.1,0.5-0.5,0.6-1.1c0.1-0.8,0.1-2.4,0.1-4.3v-3.5c0-3.1,0-3.7,0-4.3c0-0.7-0.2-1-0.7-1.1
				c-0.2-0.1-0.5-0.1-0.6-0.1c-0.1,0-0.2,0-0.2-0.1c0-0.1,0.1-0.2,0.3-0.2c0.7,0,1.9,0.1,2,0.1c0.1,0,1.4-0.1,1.9-0.1
				c0.2,0,0.3,0,0.3,0.2c0,0.1-0.1,0.1-0.2,0.1c-0.1,0-0.3,0-0.5,0.1c-0.5,0.1-0.7,0.4-0.7,1.1c0,0.6,0,1.2,0,4.3V55.9z"/>
			<path class="st0" d="M174,47.1c0.2-0.7,0.3-0.8,0.4-0.8s0.2,0.1,0.4,0.7c0.3,0.8,3.4,9,4.6,12c0.7,1.8,1.3,2.1,1.7,2.2
				c0.3,0.1,0.6,0.1,0.8,0.1c0.1,0,0.2,0,0.2,0.1c0,0.1-0.2,0.2-0.4,0.2c-0.3,0-1.7,0-3.1,0c-0.4,0-0.6,0-0.6-0.1
				c0-0.1,0.1-0.1,0.1-0.1c0.1,0,0.2-0.2,0.1-0.5l-1.8-4.9c0-0.1-0.1-0.1-0.2-0.1H172c-0.1,0-0.2,0.1-0.2,0.2l-1.2,3.5
				c-0.2,0.5-0.3,1-0.3,1.3c0,0.4,0.4,0.6,0.8,0.6h0.2c0.1,0,0.2,0,0.2,0.1c0,0.1-0.1,0.2-0.3,0.2c-0.5,0-1.3-0.1-1.5-0.1
				c-0.2,0-1.3,0.1-2.2,0.1c-0.3,0-0.4,0-0.4-0.2c0-0.1,0.1-0.1,0.2-0.1c0.1,0,0.4,0,0.6,0c0.9-0.1,1.3-0.9,1.7-1.9L174,47.1z
				 M176,55.1c0.1,0,0.1-0.1,0.1-0.1l-1.9-5.4c-0.1-0.3-0.2-0.3-0.3,0l-1.7,5.4c0,0.1,0,0.1,0.1,0.1H176z"/>
			<path class="st0" d="M186.7,55.9c0,2.9,0.1,4.2,0.4,4.5c0.3,0.3,0.8,0.5,2.4,0.5c1.1,0,1.9,0,2.4-0.6c0.3-0.3,0.5-0.8,0.5-1.2
				c0-0.2,0.1-0.3,0.2-0.3c0.1,0,0.1,0.1,0.1,0.3c0,0.2-0.1,1.4-0.3,2c-0.1,0.5-0.2,0.5-1.3,0.5c-1.4,0-2.5,0-3.3-0.1
				c-0.8,0-1.4-0.1-2-0.1c-0.1,0-0.4,0-0.8,0c-0.4,0-0.8,0-1.1,0c-0.2,0-0.3,0-0.3-0.2c0-0.1,0-0.1,0.2-0.1c0.2,0,0.4,0,0.6-0.1
				c0.4-0.1,0.5-0.5,0.6-1.1c0.1-0.8,0.1-2.4,0.1-4.3v-3.5c0-3.1,0-3.7,0-4.3c0-0.7-0.2-1-0.9-1.1c-0.2,0-0.5-0.1-0.7-0.1
				c-0.1,0-0.2,0-0.2-0.1c0-0.1,0.1-0.2,0.3-0.2c0.9,0,2.1,0.1,2.2,0.1c0.1,0,1.5-0.1,2.1-0.1c0.2,0,0.3,0,0.3,0.2
				c0,0.1-0.1,0.1-0.2,0.1c-0.1,0-0.4,0-0.7,0.1c-0.6,0.1-0.7,0.4-0.8,1.1c0,0.6,0,1.2,0,4.3V55.9z"/>
			<path class="st0" d="M201.6,61.4c-0.3-0.1-0.3-0.2-0.3-0.8c0-1,0.1-1.8,0.1-2.1c0-0.2,0.1-0.3,0.2-0.3c0.1,0,0.1,0.1,0.1,0.2
				c0,0.2,0,0.5,0.1,0.7c0.3,1.5,1.6,2,2.9,2c1.9,0,2.8-1.4,2.8-2.6c0-1.4-0.6-2.2-2.3-3.6l-0.9-0.7c-2.1-1.7-2.6-3-2.6-4.3
				c0-2.1,1.6-3.6,4.1-3.6c0.8,0,1.4,0.1,1.8,0.2c0.4,0.1,0.5,0.1,0.7,0.1c0.2,0,0.2,0,0.2,0.1s-0.1,0.8-0.1,2.1
				c0,0.3,0,0.5-0.1,0.5c-0.1,0-0.1-0.1-0.2-0.3c0-0.2-0.1-0.8-0.3-1c-0.1-0.2-0.7-1.1-2.5-1.1c-1.4,0-2.4,0.9-2.4,2.3
				c0,1.1,0.5,1.8,2.4,3.3l0.6,0.4c2.3,1.8,2.9,3.1,2.9,4.7c0,0.8-0.3,2.3-1.7,3.3c-0.9,0.6-1.9,0.8-3,0.8
				C203.3,61.9,202.4,61.8,201.6,61.4z"/>
			<path class="st0" d="M213.9,59.8c-1.9-1.7-2.4-4-2.4-5.9c0-1.3,0.5-3.7,2.2-5.4c1.2-1.2,3-2.1,6.1-2.1c0.8,0,1.9,0.1,2.9,0.2
				c0.8,0.1,1.4,0.3,2,0.3c0.2,0,0.3,0.1,0.3,0.2c0,0.2-0.1,0.4-0.1,1.1c0,0.7,0,1.7-0.1,2c0,0.3-0.1,0.4-0.2,0.4
				c-0.1,0-0.2-0.1-0.2-0.4c0-0.8-0.3-1.6-0.8-2c-0.7-0.6-2.2-1.1-4-1.1c-2.6,0-3.9,0.8-4.6,1.4c-1.4,1.4-1.8,3.2-1.8,5.2
				c0,3.8,2.9,7.3,7.2,7.3c1.5,0,2.7-0.2,3.5-1c0.4-0.4,0.7-1.3,0.7-1.7c0-0.2,0.1-0.3,0.2-0.3c0.1,0,0.1,0.1,0.1,0.3
				c0,0.1-0.2,1.9-0.4,2.5c-0.1,0.4-0.2,0.4-0.5,0.6c-0.8,0.3-2.3,0.5-3.6,0.5C217.5,61.9,215.4,61.2,213.9,59.8z"/>
			<path class="st0" d="M230.6,55.9c0,1.9,0,3.5,0.1,4.3c0.1,0.6,0.2,1,0.8,1.1c0.3,0,0.7,0.1,0.9,0.1c0.1,0,0.2,0.1,0.2,0.1
				c0,0.1-0.1,0.2-0.3,0.2c-1.1,0-2.3-0.1-2.4-0.1c-0.1,0-1.3,0.1-1.9,0.1c-0.2,0-0.3,0-0.3-0.2c0-0.1,0-0.1,0.2-0.1
				c0.2,0,0.4,0,0.6-0.1c0.4-0.1,0.5-0.5,0.6-1.1c0.1-0.8,0.1-2.4,0.1-4.3v-3.5c0-3.1,0-3.7,0-4.3c0-0.7-0.2-1-0.7-1.1
				c-0.2-0.1-0.5-0.1-0.6-0.1c-0.1,0-0.2,0-0.2-0.1c0-0.1,0.1-0.2,0.3-0.2c0.7,0,1.9,0.1,2,0.1c0.1,0,1.3-0.1,1.9-0.1
				c0.2,0,0.3,0,0.3,0.2c0,0.1-0.1,0.1-0.2,0.1c-0.1,0-0.3,0-0.5,0.1c-0.5,0.1-0.7,0.4-0.7,1.1c0,0.6,0,1.2,0,4.3V55.9z"/>
			<path class="st0" d="M236.5,52.4c0-3.1,0-3.7,0-4.3c0-0.7-0.2-1-0.9-1.1c-0.2,0-0.5-0.1-0.7-0.1c-0.1,0-0.2,0-0.2-0.1
				c0-0.1,0.1-0.2,0.3-0.2c0.5,0,1,0,1.4,0l0.8,0c0.1,0,4.1,0,4.5,0c0.4,0,0.7-0.1,0.9-0.1c0.1,0,0.2-0.1,0.3-0.1
				c0.1,0,0.1,0.1,0.1,0.2c0,0.1-0.1,0.4-0.2,0.9c0,0.2-0.1,1.1-0.1,1.3c0,0.1-0.1,0.2-0.1,0.2c-0.1,0-0.2-0.1-0.2-0.3
				c0-0.1,0-0.5-0.1-0.7c-0.1-0.3-0.3-0.6-1.4-0.7c-0.3,0-2.5-0.1-2.7-0.1c-0.1,0-0.1,0.1-0.1,0.2v5.5c0,0.1,0,0.2,0.1,0.2
				c0.3,0,2.7,0,3.2,0c0.5,0,0.8-0.1,0.9-0.3c0.1-0.2,0.2-0.3,0.3-0.3c0.1,0,0.1,0,0.1,0.2s-0.1,0.5-0.2,1.1c0,0.4-0.1,1.1-0.1,1.3
				c0,0.2,0,0.4-0.1,0.4c-0.1,0-0.1-0.1-0.1-0.2c0-0.2,0-0.4-0.1-0.7c-0.1-0.3-0.3-0.6-1-0.7c-0.5-0.1-2.5-0.1-2.8-0.1
				c-0.1,0-0.1,0.1-0.1,0.1v1.7c0,0.7,0,3,0,3.4c0.1,1.4,0.4,1.6,2.3,1.6c0.5,0,1.4,0,1.9-0.2c0.5-0.2,0.8-0.6,0.9-1.4
				c0-0.2,0.1-0.3,0.2-0.3c0.1,0,0.1,0.2,0.1,0.3c0,0.2-0.2,1.5-0.3,1.9c-0.1,0.5-0.3,0.5-1.1,0.5c-1.5,0-2.6,0-3.4-0.1
				c-0.8,0-1.3-0.1-1.5-0.1c0,0-0.4,0-0.8,0c-0.4,0-0.9,0-1.2,0c-0.2,0-0.3,0-0.3-0.2c0-0.1,0-0.1,0.2-0.1c0.2,0,0.4,0,0.6-0.1
				c0.4-0.1,0.5-0.5,0.6-1.1c0.1-0.8,0.1-2.4,0.1-4.3V52.4z"/>
			<path class="st0" d="M248.7,59c0,1.6,0.2,2.1,0.8,2.3c0.4,0.1,0.8,0.1,1,0.1c0.1,0,0.2,0,0.2,0.1c0,0.1-0.1,0.2-0.4,0.2
				c-1.1,0-1.9-0.1-2.1-0.1s-1,0.1-1.9,0.1c-0.2,0-0.3,0-0.3-0.2c0-0.1,0.1-0.1,0.2-0.1c0.2,0,0.5,0,0.8-0.1
				c0.5-0.1,0.6-0.7,0.6-2.5l0-11.4c0-0.8,0.1-1,0.2-1c0.2,0,0.5,0.4,0.7,0.6c0.3,0.3,3.3,3.5,6.3,6.8c2,2.1,4.1,4.5,4.8,5.2
				l-0.2-10.1c0-1.3-0.2-1.7-0.8-1.9c-0.4-0.1-0.8-0.1-1-0.1c-0.1,0-0.2-0.1-0.2-0.1c0-0.1,0.2-0.1,0.4-0.1c0.9,0,1.8,0.1,2.1,0.1
				c0.2,0,0.9-0.1,1.7-0.1c0.2,0,0.4,0,0.4,0.1c0,0.1-0.1,0.1-0.2,0.1c-0.1,0-0.2,0-0.5,0.1c-0.7,0.1-0.7,0.6-0.7,1.8l0,11.6
				c0,1.3,0,1.4-0.2,1.4c-0.2,0-0.4-0.2-1.4-1.3c-0.2-0.2-3.1-3.1-5.2-5.4c-2.3-2.5-4.5-5-5.2-5.7L248.7,59z"/>
			<path class="st0" d="M266.4,59.8c-1.9-1.7-2.4-4-2.4-5.9c0-1.3,0.5-3.7,2.2-5.4c1.2-1.2,3-2.1,6.1-2.1c0.8,0,1.9,0.1,2.9,0.2
				c0.8,0.1,1.4,0.3,2,0.3c0.2,0,0.3,0.1,0.3,0.2c0,0.2-0.1,0.4-0.1,1.1c0,0.7,0,1.7-0.1,2c0,0.3-0.1,0.4-0.2,0.4
				c-0.1,0-0.2-0.1-0.2-0.4c0-0.8-0.3-1.6-0.8-2c-0.7-0.6-2.2-1.1-4-1.1c-2.6,0-3.9,0.8-4.6,1.4c-1.4,1.4-1.8,3.2-1.8,5.2
				c0,3.8,2.9,7.3,7.2,7.3c1.5,0,2.7-0.2,3.5-1c0.4-0.4,0.7-1.3,0.7-1.7c0-0.2,0.1-0.3,0.2-0.3c0.1,0,0.1,0.1,0.1,0.3
				c0,0.1-0.2,1.9-0.4,2.5c-0.1,0.4-0.2,0.4-0.5,0.6c-0.8,0.3-2.3,0.5-3.6,0.5C270,61.9,268,61.2,266.4,59.8z"/>
			<path class="st0" d="M281.9,52.4c0-3.1,0-3.7,0-4.3c0-0.7-0.2-1-0.9-1.1c-0.2,0-0.5-0.1-0.7-0.1c-0.1,0-0.2,0-0.2-0.1
				c0-0.1,0.1-0.2,0.3-0.2c0.5,0,1,0,1.4,0l0.8,0c0.1,0,4.1,0,4.5,0c0.4,0,0.7-0.1,0.9-0.1c0.1,0,0.2-0.1,0.3-0.1
				c0.1,0,0.1,0.1,0.1,0.2c0,0.1-0.1,0.4-0.2,0.9c0,0.2-0.1,1.1-0.1,1.3c0,0.1-0.1,0.2-0.1,0.2c-0.1,0-0.2-0.1-0.2-0.3
				c0-0.1,0-0.5-0.1-0.7c-0.1-0.3-0.3-0.6-1.4-0.7c-0.3,0-2.5-0.1-2.7-0.1c-0.1,0-0.1,0.1-0.1,0.2v5.5c0,0.1,0,0.2,0.1,0.2
				c0.3,0,2.7,0,3.2,0c0.5,0,0.8-0.1,0.9-0.3c0.1-0.2,0.2-0.3,0.3-0.3c0.1,0,0.1,0,0.1,0.2S288,53.3,288,54c0,0.4-0.1,1.1-0.1,1.3
				c0,0.2,0,0.4-0.1,0.4c-0.1,0-0.1-0.1-0.1-0.2c0-0.2,0-0.4-0.1-0.7c-0.1-0.3-0.3-0.6-1-0.7c-0.5-0.1-2.5-0.1-2.8-0.1
				c-0.1,0-0.1,0.1-0.1,0.1v1.7c0,0.7,0,3,0,3.4c0.1,1.4,0.4,1.6,2.3,1.6c0.5,0,1.4,0,1.9-0.2c0.5-0.2,0.8-0.6,0.9-1.4
				c0-0.2,0.1-0.3,0.2-0.3c0.1,0,0.1,0.2,0.1,0.3c0,0.2-0.2,1.5-0.3,1.9c-0.1,0.5-0.3,0.5-1.1,0.5c-1.5,0-2.6,0-3.4-0.1
				c-0.8,0-1.3-0.1-1.5-0.1c0,0-0.4,0-0.8,0c-0.4,0-0.9,0-1.2,0c-0.2,0-0.3,0-0.3-0.2c0-0.1,0-0.1,0.2-0.1c0.2,0,0.4,0,0.6-0.1
				c0.4-0.1,0.5-0.5,0.6-1.1c0.1-0.8,0.1-2.4,0.1-4.3V52.4z"/>
			<path class="st0" d="M291.9,61.4c-0.3-0.1-0.3-0.2-0.3-0.8c0-1,0.1-1.8,0.1-2.1c0-0.2,0.1-0.3,0.2-0.3c0.1,0,0.1,0.1,0.1,0.2
				c0,0.2,0,0.5,0.1,0.7c0.3,1.5,1.6,2,2.9,2c1.9,0,2.8-1.4,2.8-2.6c0-1.4-0.6-2.2-2.3-3.6l-0.9-0.7c-2.1-1.7-2.6-3-2.6-4.3
				c0-2.1,1.6-3.6,4.1-3.6c0.8,0,1.4,0.1,1.8,0.2c0.4,0.1,0.5,0.1,0.7,0.1c0.2,0,0.2,0,0.2,0.1s-0.1,0.8-0.1,2.1
				c0,0.3,0,0.5-0.1,0.5c-0.1,0-0.1-0.1-0.2-0.3c0-0.2-0.1-0.8-0.3-1c-0.1-0.2-0.7-1.1-2.5-1.1c-1.4,0-2.4,0.9-2.4,2.3
				c0,1.1,0.5,1.8,2.4,3.3l0.6,0.4c2.3,1.8,2.9,3.1,2.9,4.7c0,0.8-0.3,2.3-1.7,3.3c-0.9,0.6-1.9,0.8-3,0.8
				C293.6,61.9,292.7,61.8,291.9,61.4z"/>
		</g>
	</g>
</g>
<g class="st1">
	<g>
		<text transform="matrix(1 0 0 1 175.3814 223.1031)" style="display:inline;"><tspan x="0" y="0" class="st0" style="font-family:'TrajanPro-Regular'; font-size:12.0478px;">A</tspan><tspan x="8.2" y="0" class="st0" style="font-family:'TrajanPro-Regular'; font-size:12.0478px;">N</tspan><tspan x="18.9" y="0" class="st0" style="font-family:'TrajanPro-Regular'; font-size:12.0478px;">D</tspan></text>
	</g>
	<g>
		<text transform="matrix(1 0 0 1 22.1665 204.5895)" style="display:inline;"><tspan x="0" y="0" class="st0" style="font-family:'TrajanPro-Regular'; font-size:11.3358px;">C</tspan><tspan x="9.1" y="0" class="st0" style="font-family:'TrajanPro-Regular'; font-size:11.3358px;">o</tspan><tspan x="18.8" y="0" class="st0" style="font-family:'TrajanPro-Regular'; font-size:11.3358px;">l</tspan><tspan x="24.6" y="0" class="st0" style="font-family:'TrajanPro-Regular'; font-size:11.3358px;">le</tspan><tspan x="37.8" y="0" class="st0" style="font-family:'TrajanPro-Regular'; font-size:11.3358px;">g</tspan><tspan x="47.1" y="0" class="st0" style="font-family:'TrajanPro-Regular'; font-size:11.3358px;">e </tspan><tspan x="57.7" y="0" class="st0" style="font-family:'TrajanPro-Regular'; font-size:11.3358px;">o</tspan><tspan x="67.5" y="0" class="st0" style="font-family:'TrajanPro-Regular'; font-size:11.3358px;">f</tspan></text>
	</g>
	<g>
		<text transform="matrix(1 0 0 1 19.9136 223.0133)" style="display:inline;"><tspan x="0" y="0" class="st0" style="font-family:'TrajanPro-Regular'; font-size:19.9228px;">h</tspan><tspan x="19.5" y="0" class="st0" style="font-family:'TrajanPro-Regular'; font-size:19.9228px;">u</tspan><tspan x="36.1" y="0" class="st0" style="font-family:'TrajanPro-Regular'; font-size:19.9228px; letter-spacing:1;">m</tspan><tspan x="58.2" y="0" class="st0" style="font-family:'TrajanPro-Regular'; font-size:19.9228px;">an</tspan><tspan x="92.6" y="0" class="st0" style="font-family:'TrajanPro-Regular'; font-size:19.9228px; letter-spacing:1;">iti</tspan><tspan x="127.5" y="0" class="st0" style="font-family:'TrajanPro-Regular'; font-size:19.9228px;">e</tspan><tspan x="140.4" y="0" class="st0" style="font-family:'TrajanPro-Regular'; font-size:19.9228px; letter-spacing:1;">s</tspan></text>
	</g>
	<g>
		<text transform="matrix(1 0 0 1 20.3316 241.9283)" style="display:inline;"><tspan x="0" y="0" class="st0" style="font-family:'TrajanPro-Regular'; font-size:19.8506px;">s</tspan><tspan x="10.5" y="0" class="st0" style="font-family:'TrajanPro-Regular'; font-size:19.8506px;">o</tspan><tspan x="28.7" y="0" class="st0" style="font-family:'TrajanPro-Regular'; font-size:19.8506px;">c</tspan><tspan x="44.3" y="0" class="st0" style="font-family:'TrajanPro-Regular'; font-size:19.8506px;">ial</tspan><tspan x="78.6" y="0" class="st0" style="font-family:'TrajanPro-Regular'; font-size:19.8506px;"> s</tspan><tspan x="95.6" y="0" class="st0" style="font-family:'TrajanPro-Regular'; font-size:19.8506px;">c</tspan><tspan x="110.8" y="0" class="st0" style="font-family:'TrajanPro-Regular'; font-size:19.8506px; letter-spacing:-1;">i</tspan><tspan x="118.3" y="0" class="st0" style="font-family:'TrajanPro-Regular'; font-size:19.8506px;">e</tspan><tspan x="130.1" y="0" class="st0" style="font-family:'TrajanPro-Regular'; font-size:19.8506px;">n</tspan><tspan x="148.2" y="0" class="st0" style="font-family:'TrajanPro-Regular'; font-size:19.8506px;">c</tspan><tspan x="163.7" y="0" class="st0" style="font-family:'TrajanPro-Regular'; font-size:19.8506px;">e</tspan><tspan x="175.1" y="0" class="st0" style="font-family:'TrajanPro-Regular'; font-size:19.8506px;">s</tspan></text>
	</g>
</g>
</svg>
