<?xml version="1.0" encoding="utf-8"?>
<!-- Generator: Adobe Illustrator 21.0.0, SVG Export Plug-In . SVG Version: 6.00 Build 0)  -->
<svg version="1.1" id="Layer_1" xmlns="http://www.w3.org/2000/svg" xmlns:xlink="http://www.w3.org/1999/xlink" x="0px" y="0px"
	 viewBox="0 0 432 108" style="enable-background:new 0 0 432 108;" xml:space="preserve">
<style type="text/css">
	.st0{fill:#231F20;}
	.st1{fill:#CED493;}
	.st2{fill:#A8B533;}
</style>
<g>
	<g>
		<path class="st0" d="M154.2,73.2c-1,0-4.7,0.1-5.5,0.1v-1c1.6-0.4,2.5-1.8,2.5-3V58.3h-17.6v11.2c0,1.2,1,2.5,2.6,3v1
			c-0.8,0-4.5-0.1-5.6-0.1c-0.9,0-4.4,0.1-5.2,0.1v-1c1.6-0.4,2.5-1.8,2.5-3V46.2c0-1.1-0.9-2.5-2.5-3v-1c0.8,0,4.3,0.1,5.2,0.1
			c1,0,4.8-0.1,5.6-0.1v1c-1.6,0.4-2.6,1.8-2.6,3v9.2h17.6v-9.2c0-1.2-0.9-2.6-2.5-3v-1c0.8,0,4.5,0.1,5.5,0.1
			c0.9,0,4.5-0.1,5.3-0.1v1c-1.6,0.4-2.6,1.8-2.6,3v23.3c0,1.1,1,2.5,2.6,3v1C158.6,73.4,155.1,73.2,154.2,73.2"/>
		<path class="st0" d="M192.4,72.6c-1.2,0.8-2.8,2.1-2.8,2.1c-1-1-3-3-3.4-5.7c-2.6,2.6-6.2,5-10.9,5c-6.4,0-9.1-4.1-9.1-9.1V50.1
			c0-2.4-1.3-3.5-3.8-4v-0.8l8.6-3.4h0.8v18.8c0,5.3,1.1,9.4,6.4,9.4c3.3,0,6.2-2.2,7.7-4.1V50.1c0-2.4-1.3-3.5-3.8-4v-0.8l8.6-3.4
			h0.8v25c0,2.4,0.7,3,1.6,3c0.5,0,1.3-0.1,1.7-0.3l0.5,1.2C195.5,70.7,193.9,71.5,192.4,72.6"/>
		<path class="st0" d="M241.8,73.2c-1,0-5.1,0.1-6,0.1v-0.9c1.6-0.7,3.3-1.5,3.3-2.9V55.1c0-5.3-0.3-9.4-5.6-9.4
			c-3,0-5.9,1.7-7.6,3.4c0.1,0.6,0.1,1.3,0.1,1.9v18.7c0,1.5,1.6,2.2,3.3,2.9v0.9c-1,0-5.3-0.1-6.2-0.1s-5.1,0.1-6,0.1v-0.9
			c1.6-0.7,3.3-1.5,3.3-2.9V55.1c0-5.3-0.3-9.4-5.6-9.4c-3.3,0-5.9,2.2-7.4,4.1v19.8c0,1.5,1.6,2.2,3.3,2.9v0.9
			c-1,0-5.3-0.1-6.2-0.1c-1,0-5.1,0.1-6,0.1v-0.9c1.6-0.7,3.3-1.5,3.3-2.9V50.1c0-2.4-1.3-3.5-3.8-4v-0.8l8.3-3.4h0.8l0.3,4.8
			c2.7-2.5,5.7-4.8,10.3-4.8c4.4,0,6.7,2,7.7,4.8c2.7-2.5,6.5-4.8,11.1-4.8c6.4,0,8.3,4.1,8.3,9.1v18.7c0,1.5,1.6,2.2,3.3,2.9v0.9
			C247.1,73.4,242.8,73.2,241.8,73.2"/>
		<path class="st0" d="M276,72.6c-1.2,0.8-2.8,2.1-2.8,2.1c-1-1-2.3-2.6-3-4.7c-2.2,2.4-5.7,3.9-9.6,3.9c-5.7,0-9.7-2.7-9.7-8.7
			c0-5.6,5.3-8.5,10.8-9.5c1.5-0.2,6.2-0.3,7.9-0.3v-4.8c0-3.3-2.1-6.1-6.6-6.1c-3.6,0-6.1,1.8-7.9,4.9h-1v-6
			c2.8-0.8,6.1-1.5,10.5-1.5c8.8,0,10.6,4.5,10.6,9.5v15.5c0,2.4,0.7,3,1.6,3c0.5,0,1.3-0.1,1.7-0.3l0.5,1.2
			C279.1,70.7,277.5,71.5,276,72.6 M269.6,57.8h-4.4c-4.4,0-8.3,2.4-8.3,7.1c0,3.4,2.3,5.4,5.1,5.4c3,0,5.9-1.6,7.5-4.2V57.8z"/>
		<path class="st0" d="M307.8,73.2c-1,0-5.1,0.1-6,0.1v-0.9c1.6-0.7,3.3-1.5,3.3-2.9V55.1c0-5.3-2.1-9.4-7.4-9.4
			c-3.3,0-6.2,2.2-7.7,4.1v19.8c0,1.5,1.6,2.2,3.3,2.9v0.9c-1,0-5.3-0.1-6.2-0.1c-1,0-5.1,0.1-6,0.1v-0.9c1.6-0.7,3.3-1.5,3.3-2.9
			V50.1c0-2.4-1.3-3.5-3.8-4v-0.8l8.3-3.4h0.8l0.3,4.8c2.7-2.5,6-4.8,10.6-4.8c6.4,0,10.1,4.1,10.1,9.1v18.7c0,1.5,1.6,2.2,3.3,2.9
			v0.9C313.1,73.4,308.8,73.2,307.8,73.2"/>
		<path class="st0" d="M323.6,73.2c-1,0-5.1,0.1-6,0.1v-0.9c1.6-0.7,3.3-1.5,3.3-2.9V50.1c0-2.4-1.3-3.5-3.8-4v-0.8l8.6-3.4h0.8
			v27.7c0,1.5,1.6,2.2,3.3,2.9v0.9C328.9,73.4,324.6,73.2,323.6,73.2"/>
		<path class="st0" d="M344.3,73.9c-3.6,0-7.1-1.7-7.1-8.7v-20h-4.6v-1.8l4-1.2c2.2-1.9,3.2-4.9,3.8-8.4h2.5v8.5h9.1v2.8h-9.1v19
			c0,3.9,1.3,5.3,3.6,5.3c2.2,0,3.6-1.1,4.6-2.2l1.2,1.1C351.5,70,348.6,73.9,344.3,73.9"/>
		<path class="st0" d="M362.2,73.2c-1,0-5.1,0.1-6,0.1v-0.9c1.6-0.7,3.3-1.5,3.3-2.9V50.1c0-2.4-1.3-3.5-3.8-4v-0.8l8.6-3.4h0.8
			v27.7c0,1.5,1.6,2.2,3.3,2.9v0.9C367.4,73.4,363.1,73.2,362.2,73.2"/>
		<path class="st0" d="M399.1,55.4H378c-1,8.5,3.8,14.9,10.8,14.9c4,0,6.8-0.7,8.6-2.6l1.3,1.4c-1.6,1.9-5,4.8-10.8,4.8
			c-10.5,0-16.1-6.4-16.1-16c0-9.8,6.8-16,14.9-16c7.9,0,13,5.6,12.6,12C399.3,54.4,399.2,55,399.1,55.4 M386.8,44.6
			c-4.9,0-7.8,4.5-8.5,8.3h15C393.8,49.2,391.4,44.6,386.8,44.6"/>
		<path class="st0" d="M414.2,73.9c-3.1,0-6.8-0.7-9.4-1.5v-6.5h1c2.1,3.7,4.5,5.3,8.3,5.3c4.2,0,6.5-1.6,6.5-4.3
			c0-1.8-0.9-3-2.5-3.7l-9.2-4.5c-3-1.5-4.8-3.8-4.8-7.4c0-6.1,5.5-9.4,11.4-9.4c3,0,6.8,0.7,9.4,1.5v6.3h-1
			c-1.6-2.9-4.4-5.1-8.2-5.1c-3.6,0-5.9,1.9-5.9,4.7c0,2.4,0.9,3.6,3.3,4.8l9.4,4.5c1.6,0.8,3.6,2.8,3.6,6.2
			C426.1,70.6,421.5,73.9,414.2,73.9"/>
	</g>
	<path class="st0" d="M127.3,24.1h2.4l3.4,5.6h0v-5.6h1.8v8h-2.3l-3.5-5.7h0V32h-1.8V24.1z"/>
	<path class="st0" d="M139.5,24.1h1.5l3.5,8h-2l-0.7-1.7h-3.1L138,32h-1.9L139.5,24.1z M140.2,26.4l-1,2.5h2L140.2,26.4z"/>
	<path class="st0" d="M146.1,25.6h-2.3v-1.6h6.3v1.6h-2.3V32h-1.8V25.6z"/>
	<path class="st0" d="M151.3,24.1h1.8v8h-1.8V24.1z"/>
	<path class="st0" d="M158.9,23.9c2.5,0,4.3,1.6,4.3,4.2c0,2.6-1.8,4.2-4.3,4.2c-2.5,0-4.3-1.6-4.3-4.2
		C154.6,25.5,156.4,23.9,158.9,23.9z M158.9,30.6c1.5,0,2.5-1.1,2.5-2.6c0-1.5-1-2.6-2.5-2.6s-2.5,1.1-2.5,2.6
		C156.4,29.5,157.4,30.6,158.9,30.6z"/>
	<path class="st0" d="M164.8,24.1h2.4l3.4,5.6h0v-5.6h1.8v8H170l-3.5-5.7h0V32h-1.8V24.1z"/>
	<path class="st0" d="M176.9,24.1h1.5l3.5,8h-2l-0.7-1.7h-3.1l-0.7,1.7h-1.9L176.9,24.1z M177.6,26.4l-1,2.5h2L177.6,26.4z"/>
	<path class="st0" d="M183.1,24.1h1.8v6.4h3.3V32h-5V24.1z"/>
	<path class="st0" d="M192.2,24.1h5.4v1.6H194v1.5h3.5v1.6H194v1.6h3.9V32h-5.6V24.1z"/>
	<path class="st0" d="M199.6,24.1h2.4l3.4,5.6h0v-5.6h1.8v8h-2.3l-3.5-5.7h0V32h-1.8V24.1z"/>
	<path class="st0" d="M209.2,24.1h2.6c2.6,0,4.7,1.1,4.7,4c0,2.6-2.1,4-4.5,4h-2.9V24.1z M210.9,30.4h0.9c1.6,0,2.9-0.6,2.9-2.4
		c0-1.6-1.3-2.3-2.7-2.3h-1V30.4z"/>
	<path class="st0" d="M221.9,23.9c2.5,0,4.3,1.6,4.3,4.2c0,2.6-1.8,4.2-4.3,4.2c-2.5,0-4.3-1.6-4.3-4.2
		C217.6,25.5,219.4,23.9,221.9,23.9z M221.9,30.6c1.5,0,2.5-1.1,2.5-2.6c0-1.5-1-2.6-2.5-2.6c-1.5,0-2.5,1.1-2.5,2.6
		C219.5,29.5,220.4,30.6,221.9,30.6z"/>
	<path class="st0" d="M226.9,24.1h1.9l1.3,5.1h0l1.7-5.1h1.6l1.7,5.3h0l1.3-5.3h1.8l-2.3,8h-1.6l-1.8-5.5h0l-1.8,5.5h-1.5
		L226.9,24.1z"/>
	<path class="st0" d="M239.4,24.1h2.7l1.8,5.2h0l1.9-5.2h2.7v8h-1.8v-6.1h0l-2.1,6.1h-1.3l-2-6.1h0V32h-1.8V24.1z"/>
	<path class="st0" d="M250.5,24.1h5.4v1.6h-3.7v1.5h3.5v1.6h-3.5v1.6h3.9V32h-5.6V24.1z"/>
	<path class="st0" d="M257.8,24.1h2.4l3.4,5.6h0v-5.6h1.8v8h-2.3l-3.5-5.7h0V32h-1.8V24.1z"/>
	<path class="st0" d="M268.9,25.6h-2.3v-1.6h6.3v1.6h-2.3V32h-1.8V25.6z"/>
	<path class="st0" d="M277,24.1h5.4v1.6h-3.6v1.6h3.3v1.6h-3.3V32H277V24.1z"/>
	<path class="st0" d="M287.9,23.9c2.5,0,4.3,1.6,4.3,4.2c0,2.6-1.8,4.2-4.3,4.2c-2.5,0-4.3-1.6-4.3-4.2
		C283.6,25.5,285.4,23.9,287.9,23.9z M287.9,30.6c1.5,0,2.5-1.1,2.5-2.6c0-1.5-1-2.6-2.5-2.6c-1.5,0-2.5,1.1-2.5,2.6
		C285.4,29.5,286.4,30.6,287.9,30.6z"/>
	<path class="st0" d="M293.7,24.1h3.1c1.6,0,3,0.6,3,2.4c0,1.1-0.6,2-1.7,2.2l2,3.4H298l-1.7-3.2h-0.9V32h-1.8V24.1z M295.5,27.4h1
		c0.6,0,1.5,0,1.5-0.9c0-0.8-0.7-0.9-1.4-0.9h-1.2V27.4z"/>
	<path class="st0" d="M305.7,25.6h-2.3v-1.6h6.3v1.6h-2.3V32h-1.8V25.6z"/>
	<path class="st0" d="M311,24.1h1.8v3h3.4v-3h1.8v8h-1.8v-3.5h-3.4V32H311V24.1z"/>
	<path class="st0" d="M319.9,24.1h5.4v1.6h-3.7v1.5h3.5v1.6h-3.5v1.6h3.9V32h-5.6V24.1z"/>
	<path class="st1" d="M61.5,53.7c0,3-2.4,5.5-5.5,5.5c-3,0-5.5-2.4-5.5-5.5c0-3,2.5-5.5,5.5-5.5C59.1,48.3,61.5,50.7,61.5,53.7"/>
	<path class="st1" d="M52.7,5.9c-0.2-2.7,0.9-3.2,3.3-3.2c2.4,0,3.5,0.5,3.3,3.2l-2.3,33.3c-0.1,0.8-0.4,2.4-1.1,2.4
		c-0.7,0-1-1.7-1.1-2.4L52.7,5.9z"/>
	<path class="st2" d="M87.6,17.5c1.8-2,2.9-1.6,4.6,0.1c1.7,1.7,2.1,2.8,0,4.6L67.1,44.2c-0.6,0.5-2,1.4-2.5,0.9
		c-0.5-0.5,0.5-1.9,0.9-2.5L87.6,17.5z"/>
	<path class="st2" d="M103.9,50.4c2.7-0.2,3.2,0.9,3.2,3.3c0,2.4-0.5,3.5-3.2,3.3l-33.3-2.3c-0.7-0.1-2.4-0.4-2.4-1.1
		c0-0.7,1.7-1,2.4-1.1L103.9,50.4z"/>
	<path class="st2" d="M92.2,85.2c2,1.8,1.6,2.9-0.1,4.6c-1.7,1.7-2.8,2.1-4.6,0.1L65.6,64.7c-0.5-0.6-1.4-2-0.9-2.5
		c0.5-0.5,1.9,0.5,2.5,0.9L92.2,85.2z"/>
	<path class="st2" d="M59.4,101.6c0.2,2.7-0.9,3.2-3.3,3.2c-2.4,0-3.5-0.5-3.3-3.2L55,68.3c0.1-0.7,0.4-2.4,1.1-2.4
		c0.7,0,1,1.7,1.1,2.4L59.4,101.6z"/>
	<path class="st2" d="M24.5,89.9c-1.8,2-2.9,1.6-4.6-0.1c-1.7-1.7-2.1-2.8-0.1-4.6L45,63.3c0.6-0.5,2-1.4,2.5-0.9
		c0.5,0.5-0.5,1.9-0.9,2.5L24.5,89.9z"/>
	<path class="st2" d="M8.2,57C5.5,57.2,5,56.1,5,53.7c0-2.4,0.5-3.5,3.2-3.3l33.3,2.3c0.7,0.1,2.4,0.4,2.4,1.1c0,0.7-1.7,1-2.4,1.1
		L8.2,57z"/>
	<path class="st2" d="M19.9,22.2c-2-1.8-1.6-2.9,0.1-4.6c1.7-1.7,2.8-2.1,4.6-0.1l21.9,25.2c0.5,0.6,1.4,2,0.9,2.5
		c-0.5,0.5-1.9-0.5-2.5-0.9L19.9,22.2z"/>
	<path class="st2" d="M62.1,38.4c-0.3,1-0.4,2.1-0.7,3.1c-0.3,1-0.5,1.2-1.4,0.9c-1.5-0.5,0.2-5.8,0.5-6.6
		c2.2-6.8,11.9-13.6,13.8-19.6c1.1-3.4-0.6-7.1-4.1-8.3c-3.1-1-4.4,0.9-5.5,0.5c-0.3-0.1-0.5-0.5-0.3-0.8C64.7,6.3,68,4.1,74,6
		c4.9,1.6,7.7,6.8,6.2,11.7C77.5,26,65.5,27.6,62.1,38.4"/>
	<path class="st2" d="M71.1,47.1c-1,0.5-1.8,1.2-2.7,1.7c-0.9,0.5-1.2,0.5-1.7-0.3c-0.7-1.4,4.3-4,5-4.4c6.4-3.3,18-1.2,23.6-4.1
		c3.2-1.6,4.6-5.5,2.9-8.8c-1.5-2.9-3.7-2.5-4.2-3.5c-0.2-0.3,0-0.7,0.3-0.8c1.4-0.7,5.2,0.1,8.1,5.7c2.3,4.6,0.6,10.3-3.9,12.6
		C90.8,49.2,81.2,41.9,71.1,47.1"/>
	<path class="st2" d="M71.4,59.7c-1-0.3-2.1-0.4-3.1-0.7c-1-0.3-1.2-0.5-0.9-1.4c0.5-1.5,5.8,0.2,6.6,0.5
		c6.8,2.2,13.6,11.9,19.6,13.8c3.4,1.1,7.1-0.6,8.3-4.1c1-3.1-0.9-4.4-0.5-5.5c0.1-0.3,0.5-0.5,0.8-0.3c1.5,0.5,3.7,3.8,1.7,9.8
		c-1.6,4.9-6.8,7.7-11.7,6.1C83.8,75.2,82.2,63.2,71.4,59.7"/>
	<path class="st2" d="M62.6,68.8c-0.5-1-1.2-1.8-1.7-2.7c-0.5-0.9-0.5-1.2,0.3-1.7c1.4-0.7,4,4.3,4.4,5c3.3,6.4,1.2,18,4.1,23.6
		c1.6,3.2,5.5,4.6,8.8,2.9c2.9-1.5,2.5-3.7,3.5-4.2c0.3-0.1,0.7,0,0.8,0.3c0.7,1.4-0.1,5.2-5.7,8.1c-4.6,2.3-10.3,0.6-12.6-3.9
		C60.5,88.5,67.8,78.9,62.6,68.8"/>
	<path class="st2" d="M50,69.1c0.3-1,0.4-2.1,0.7-3.1c0.3-1,0.5-1.2,1.4-0.9c1.5,0.5-0.2,5.8-0.5,6.6C49.6,78.4,39.9,85.2,38,91.2
		c-1.1,3.4,0.6,7.1,4.1,8.3c3.1,1,4.4-0.9,5.5-0.5c0.3,0.1,0.4,0.5,0.3,0.8c-0.5,1.5-3.8,3.7-9.8,1.7c-4.9-1.6-7.7-6.8-6.1-11.7
		C34.6,81.5,46.6,79.9,50,69.1"/>
	<path class="st2" d="M41,60.3c1-0.5,1.8-1.2,2.8-1.7c0.9-0.5,1.2-0.5,1.7,0.3c0.7,1.4-4.3,4-5,4.4c-6.4,3.3-18,1.2-23.6,4.1
		c-3.2,1.6-4.6,5.5-2.9,8.8c1.5,2.9,3.7,2.5,4.2,3.5c0.2,0.3,0,0.7-0.3,0.8c-1.4,0.7-5.2-0.1-8.1-5.7C7.3,70.2,9,64.5,13.6,62.2
		C21.3,58.2,30.9,65.5,41,60.3"/>
	<path class="st2" d="M40.7,47.7c1,0.3,2.1,0.4,3.1,0.7c1,0.3,1.2,0.5,0.9,1.4c-0.5,1.5-5.8-0.2-6.6-0.5
		c-6.8-2.2-13.6-11.9-19.6-13.8c-3.4-1.1-7.1,0.6-8.3,4.1c-1,3.1,0.9,4.4,0.5,5.5c-0.1,0.3-0.5,0.4-0.8,0.3
		c-1.5-0.5-3.7-3.8-1.7-9.8c1.6-4.9,6.8-7.7,11.7-6.2C28.3,32.3,29.9,44.3,40.7,47.7"/>
	<path class="st2" d="M49.5,38.6c0.5,1,1.2,1.8,1.7,2.8c0.5,0.9,0.5,1.2-0.3,1.7c-1.4,0.7-4-4.3-4.4-5c-3.3-6.4-1.2-18-4.1-23.6
		c-1.6-3.2-5.5-4.6-8.8-2.9c-2.9,1.5-2.5,3.7-3.5,4.2c-0.3,0.1-0.7,0-0.8-0.3c-0.7-1.4,0.1-5.2,5.7-8.1c4.6-2.3,10.3-0.6,12.6,3.9
		C51.6,18.9,44.3,28.6,49.5,38.6"/>
</g>
</svg>
