<?xml version="1.0" standalone="no"?>
<!DOCTYPE svg PUBLIC "-//W3C//DTD SVG 1.1//EN" "http://www.w3.org/Graphics/SVG/1.1/DTD/svg11.dtd" >
<svg xmlns="http://www.w3.org/2000/svg" xmlns:xlink="http://www.w3.org/1999/xlink" version="1.1">
<metadata>
Created by FontForge 20181214 at Sat Jun 23 16:03:46 2018
 By convertio
Copyright (c) 1998-2018 by James P. Ascher
</metadata>
<defs>
<font id="JunicodeRX" horiz-adv-x="0" >
  <font-face 
    font-family="JunicodeRX"
    font-weight="400"
    font-stretch="normal"
    units-per-em="2048"
    panose-1="2 4 5 2 0 0 0 0 0 0"
    ascent="1638"
    descent="-410"
    x-height="856"
    cap-height="1363"
    bbox="-1333 -872 3152 2068"
    underline-thickness="70"
    underline-position="-170"
    unicode-range="U+000D-1034A"
  />
<missing-glyph horiz-adv-x="1024" 
d="M354 1194q292 0 292 -199q0 -89 -116 -151l-106 -56q-114 -62 -114 -151q0 -75 76 -211q8 -8 22 -7q22 4 22 19q-20 69 -20 125q0 49 74 90l166 88q82 43 82 189q-2 160 -118 301q-114 131 -244 131q-84 0 -84 -82q0 -86 68 -86zM534 86q0 39 -20 71q-36 56 -100 56
q-38 0 -68 -21q-50 -37 -50 -106q0 -37 22 -68q36 -49 96 -49q36 0 66 17q54 33 54 100zM68 -132v1640h864v-1640h-864z" />
    <glyph glyph-name="Q_u" unicode="Qu" horiz-adv-x="2510" 
d="M2483 31q-28 -3 -136.5 -27.5t-137.5 -35.5q-3 -1 -7 -1q-16 0 -16 45v45q0 24 -11.5 24t-27.5 -15q-95 -89 -234 -89q-105 0 -185 106t-80 218v335q0 147 -111 147q-15 0 -15 28t15 28q105 0 169.5 9t83.5 9q20 0 19 -16q-8 -123 -8 -152v-355q0 -115 39.5 -187.5
t121.5 -72.5q88 0 156 52t68 126v384q0 147 -111 147q-15 0 -15 28t15 28q123 0 180.5 9t69.5 9q22 0 20 -27q-6 -87 -6 -139v-464q0 -155 82 -145l47 6q17 2 22 -27q1 -8 1 -15q0 -14 -8 -15zM91 667q2 266 178.5 492t470.5 226q279 0 461 -213.5t182 -508.5
q0 -195 -107.5 -375.5t-253.5 -249.5q-17 -8 -17.5 -22t14.5 -23q198 -117 578 -187t849 -37q13 1 12 -26t-24 -31q-216 -32 -434 -32q-369 0 -796.5 102t-702.5 227q-178 81 -295 248.5t-115 409.5zM282 708q0 -287 149 -474t318 -187q226 0 334.5 180t108.5 437
q0 261 -140 455.5t-319 194.5q-198 0 -324.5 -162t-126.5 -444z" />
    <glyph glyph-name="ellipsis" unicode="&#x2e;&#x2e;&#x2e;" horiz-adv-x="1591" 
d="M670 98q0 51 36 82t91 31t85 -37t30 -87.5t-34.5 -81t-87.5 -30.5t-86.5 36t-33.5 87zM1183 98q0 51 36 82t91 31t85 -37t30 -87.5t-34.5 -81t-87.5 -30.5t-86.5 36t-33.5 87zM139 98q0 51 36 82t91 31t85 -37t30 -87.5t-34.5 -81t-87.5 -30.5t-86.5 36t-33.5 87z" />
    <glyph glyph-name="exclamdbl" unicode="&#x21;&#x21;" horiz-adv-x="880" 
d="M616 211q61 0 91 -37t30 -87.5t-34.5 -81t-87.5 -30.5t-86.5 36t-33.5 87t30 82t91 31zM522 1275q0 56 30.5 90t67.5 34q103 0 103 -111q0 -63 -31 -354.5t-43 -497.5q-1 -16 -33 -16t-33 16q-8 199 -34.5 491t-26.5 348zM260 211q61 0 91 -37t30 -87.5t-34.5 -81
t-87.5 -30.5t-86.5 36t-33.5 87t30 82t91 31zM166 1275q0 56 30.5 90t67.5 34q103 0 103 -111q0 -63 -31 -354.5t-43 -497.5q-1 -16 -33 -16t-33 16q-8 199 -34.5 491t-26.5 348z" />
    <glyph glyph-name="f_eth" unicode="f&#xf0;" horiz-adv-x="1604" 
d="M664 434q0 170 133 303t299 133q12 0 12 8q0 9 -6 15q-85 76 -208 154q-7 5 -13 5q-11 0 -23 -10l-173 -139q-2 -2 -3 -2q-2 0 -6 2q-14 6 -76 105q-9 14 -9 20t5 5l84 -21q24 -6 49 13l72 54q8 6 8 11q0 8 -12 16q-59 38 -93 55q-20 10 -6 45q15 36 31 34q18 -2 142 -76
q10 -6 20 -5q14 0 21 6l307 246q2 2 5 2q4 0 9 -3q35 -28 88 -91q14 -17 14 -22q0 -7 -14 -4l-73 18q-16 4 -29 4q-26 0 -45 -15l-203 -165q-12 -10 -12 -16q0 -7 10 -13q173 -101 285 -192q112 -90 193 -219t81 -259q0 -199 -110 -329q-111 -130 -310 -130q-186 0 -315 131
q-129 132 -129 326zM838 430q0 -173 81 -280t187 -107q93 0 170 106q78 106 78 281q0 171 -83 276t-167 105q-97 0 -182 -107q-84 -106 -84 -274zM201 127v600q0 37 -37 37h-74q-15 0 -15 28q0 27 15 27q111 0 111 86v84q0 206 107 352q106 146 261 146q93 0 137 -33
q43 -32 43 -76q0 -38 -27 -61q-28 -23 -59 -23q-54 0 -82 50q-28 49 -93 49q-55 0 -94 -69q-40 -68 -40 -158v-279q0 -37 37 -37h203q15 0 15 -43t-15 -43h-203q-37 0 -37 -37v-600q0 -78 148 -78q14 0 14 -29q0 -28 -14 -28q-85 8 -211 8t-207 -8q-14 0 -14 28q0 29 14 29
q117 0 117 78z" />
    <glyph glyph-name="f_f_t" unicode="fft" horiz-adv-x="1792" 
d="M203 127v600q0 37 -37 37h-72q-14 0 -14 27.5t14 27.5q109 0 109 101v14q0 138 63 256t170.5 189t237.5 71q70 0 132 -36t91 -75q136 148 311 148q93 0 140 -32.5t47 -86.5q0 -34 -29.5 -59t-56.5 -25q-60 0 -104 54.5t-97 54.5q-97 0 -157 -76.5t-60 -296.5v-133
q0 -37 37 -37h289q92 0 139 56t63 95q4 9 14 9t20.5 -5t10.5 -14v-98q0 -43 41 -43h244q14 0 14 -45t-14 -45h-244q-41 0 -41 -40v-403q0 -131 37.5 -187t124.5 -56q52 0 108 39q14 10 21.5 -4t7.5 -21t-2 -10q-84 -101 -220 -101q-125 0 -177.5 54.5t-52.5 181.5v511
q0 40 -40 40h-343q-37 0 -37 -37v-600q0 -78 145 -78q15 0 15 -28.5t-15 -28.5q-100 8 -209.5 8t-204.5 -8q-15 0 -15 28.5t15 28.5q116 0 116 78v600q0 37 -37 37h-308q-37 0 -37 -37v-600q0 -78 117 -78q14 0 14 -28.5t-14 -28.5q-94 8 -192.5 8t-194.5 -8q-16 0 -16 28.5
t16 28.5q117 0 117 78zM356 887q0 -37 37 -37h308q37 0 37 37v37q0 148 68 284q-51 87 -101 117.5t-132 30.5q-84 0 -133.5 -45.5t-66.5 -127.5t-17 -188v-108z" />
    <glyph glyph-name="f_f_udieresis" unicode="ff&#xfc;" horiz-adv-x="2156" 
d="M1551 1156q0 -45 -31 -76q-31 -32 -76 -32t-76 32q-31 31 -31 76t31 76q31 32 76 32t76 -32q31 -31 31 -76zM1933 1156q0 -45 -31 -76q-31 -32 -76 -32t-77 32q-32 31 -32 76t32 76q32 32 77 32t76 -32q31 -31 31 -76zM889 1101v-214q0 -35 38 -37q158 -11 260 -11t166 9
t84 9q18 0 18 -16q-8 -123 -8 -152v-355q0 -112 40 -188q38 -72 120 -72q88 0 157 52t69 126v384q0 147 -112 147q-15 0 -15 28q1 28 15 28q123 0 181 9q57 9 69 9q20 0 20 -27q-6 -87 -6 -139v-464q0 -95 31 -128q14 -18 41 -18q10 0 21 2l37 5q22 3 22 -27q0 -28 -8 -30
q-28 -3 -136 -27q-123 -28 -138 -36q-2 -1 -6 -1q-16 0 -16 45v45q0 24 -12 24t-28 -15q-96 -89 -234 -89q-105 0 -185 106q-79 106 -79 218v335q0 147 -108 147t-260 -19q-38 -5 -38 -37v-600q0 -78 148 -78q14 0 14 -29q0 -28 -14 -28q-85 8 -211 8q-125 0 -207 -8
q-14 0 -14 28q0 29 14 29q118 0 118 78v600q0 37 -37 37h-307q-37 0 -37 -37v-600q0 -78 117 -78q14 0 14 -29q0 -28 -14 -28q-80 8 -193 8q-114 0 -194 -8q-16 0 -16 28q0 29 16 29q117 0 117 78v600q0 37 -37 37h-72q-14 0 -14 28q0 27 14 27h2q107 0 107 101v14
q0 138 63 256t170 189q108 71 238 71q110 0 209 -95q118 132 268 132q47 0 89 -13q43 -13 67 -39q24 -25 24 -67q0 -30 -28 -57t-58 -27q-53 0 -101 54q-49 55 -95 55q-62 0 -111 -85t-49 -207zM796 1224q-31 51 -78 90q-50 42 -139 42q-90 0 -139 -46q-50 -45 -67 -127
t-17 -188v-108q0 -37 37 -37h307q37 0 37 55v19q0 172 59 300z" />
    <glyph glyph-name="f_f_y" unicode="ffy" horiz-adv-x="1958" 
d="M203 127v609q0 37 -37 37h-72q-14 0 -14 26t14 26q109 0 109 101v8q0 138 63 256t170.5 189t237.5 71q69 0 130.5 -35.5t92.5 -75.5q136 148 311 148q93 0 140 -32.5t47 -86.5q0 -34 -29.5 -59t-56.5 -25q-60 0 -104 54.5t-97 54.5q-97 0 -157 -76.5t-60 -296.5v-127
q0 -37 37 -37h153q57 -6 184 -6t187 6q14 0 14 -26.5t-14 -26.5q-96 0 -96 -55q0 -17 4 -29l174 -504q11 -31 25 -31q15 0 28 33l195 502q6 15 6 26q0 58 -129 58q-14 0 -14 26.5t14 26.5q57 -6 163 -6t164 6q14 0 14 -26.5t-14 -26.5q-97 0 -125 -72l-442 -1149
q-25 -64 -73.5 -99.5t-104.5 -35.5q-40 0 -65 25t-25 51q1 76 95 76q95 0 120 63l96 240q11 28 11 39q0 14 -13 51l-258 739q-25 72 -121 72q-65 0 -127.5 -18.5t-62.5 -48.5v-609q0 -78 145 -78q15 0 15 -28.5t-15 -28.5q-100 8 -209.5 8t-204.5 -8q-15 0 -15 28.5t15 28.5
q116 0 116 78v609q0 37 -37 37h-308q-37 0 -37 -37v-609q0 -78 117 -78q14 0 14 -28.5t-14 -28.5q-94 8 -192.5 8t-194.5 -8q-16 0 -16 28.5t16 28.5q117 0 117 78zM356 893q0 -37 37 -37h308q37 0 37 37v31q0 148 68 284q-51 87 -101 117.5t-132 30.5q-84 0 -133.5 -45.5
t-66.5 -127.5t-17 -188v-102z" />
    <glyph glyph-name="f_j" unicode="fj" horiz-adv-x="1067" 
d="M203 127v600q0 37 -33 37h-78q-14 0 -14 27.5t14 27.5q111 0 111 84v21q0 242 146.5 402.5t334.5 160.5q227 0 227 -113q0 -38 -27.5 -64t-58.5 -26q-59 0 -102 54.5t-139 54.5q-113 0 -170.5 -96t-57.5 -351v-59q0 -37 37 -37h309q76 0 166 29q12 4 21 4q13 0 13 -27
q-6 -90 -6 -151v-646q0 -315 -96.5 -464.5t-260.5 -149.5q-49 0 -87 27.5t-38 68.5q0 34 25 52t53 18q49 0 88 -39t65 -39q99 0 99 213l-1 903q0 115 -41 115h-309q-37 0 -37 -37v-600q0 -78 117 -78q14 0 14 -28.5t-14 -28.5q-91 8 -190.5 8t-196.5 -8q-16 0 -16 28.5
t16 28.5q117 0 117 78z" />
    <glyph glyph-name="f_odieresis" unicode="f&#xf6;" horiz-adv-x="1579" 
d="M1408 1156q0 -45 -32 -76q-31 -32 -76 -32q-44 0 -76 32q-31 31 -31 76t31 76q32 32 76 32q45 0 76 -32q32 -31 32 -76zM1027 1156q0 -45 -31 -76q-32 -32 -77 -32t-77 32q-31 31 -31 76t31 76q32 32 77 32t77 -32q31 -31 31 -76zM831 422q0 -177 81 -278
q82 -101 176 -101t176 101q81 101 81 278q0 176 -80 282q-80 107 -175 107q-96 0 -178 -105q-81 -106 -81 -284zM668 428q0 168 125 305q15 16 31 31h-433q-37 0 -37 -37v-600q0 -78 148 -78q14 0 14 -29q0 -28 -14 -28q-85 8 -211 8t-207 -8q-14 0 -14 28q0 29 14 29
q117 0 117 78v600q0 37 -37 37h-74q-15 0 -15 28q0 27 15 27q111 0 111 86v19q0 250 125 406q126 157 289 157q47 0 90 -13t67 -39q23 -25 23 -67q0 -30 -27 -57q-28 -27 -59 -27q-53 0 -101 54q-49 55 -94 55q-62 0 -111 -85t-49 -207v-214q0 -37 37 -37h575q60 20 126 20
q174 0 295 -136q121 -137 121 -314q0 -176 -111 -310q-111 -133 -297 -133q-185 0 -308 142q-124 142 -124 309z" />
    <glyph glyph-name="f_r" unicode="fr" horiz-adv-x="1280" 
d="M201 127v600q0 37 -37 37h-74q-15 0 -15 27.5t15 27.5q111 0 111 86v19q0 250 141 406.5t330 156.5q53 0 96 -13q42 -13 66 -39q24 -25 24 -67q0 -30 -27.5 -57t-58.5 -27q-56 0 -101.5 54.5t-99.5 54.5q-106 0 -161.5 -85t-55.5 -207v-214q0 -37 37 -37h361
q59 0 99.5 16.5t47.5 16.5q18 0 17 -25q-4 -74 -4 -102t13.5 -28t27.5 20q89 122 213 122q32 0 53 -11t39 -34t18 -67q0 -12 -10 -34.5t-31 -38t-42.5 -15.5t-67 24.5t-68.5 24.5q-61 0 -103 -60.5t-42 -164.5v-367q0 -78 151 -78q14 0 14 -28.5t-14 -28.5q-84 8 -210 8
t-209 -8q-14 0 -14 28.5t14 28.5q115 0 115 78v637h-368q-37 0 -37 -37v-600q0 -78 148 -78q14 0 14 -28.5t-14 -28.5q-85 8 -211 8t-207 -8q-14 0 -14 28.5t14 28.5q117 0 117 78z" />
    <glyph glyph-name="f_t" unicode="ft" horiz-adv-x="1258" 
d="M201 127v600q0 37 -37 37h-74q-15 0 -15 27.5t15 27.5q111 0 111 86v19q0 250 141 406.5t330 156.5q53 0 96 -13q42 -13 66 -39q24 -25 24 -67q0 -30 -27.5 -57t-58.5 -27q-56 0 -101.5 54.5t-99.5 54.5q-106 0 -161.5 -85t-55.5 -207v-214q0 -37 37 -37h263
q127 0 172.5 60t58.5 95q4 9 14 9t20.5 -5t10.5 -14v-98q0 -43 41 -43h244q14 0 14 -45t-14 -45h-244q-41 0 -41 -40v-407q0 -131 37.5 -187t124.5 -56q52 0 108 39q14 10 21.5 -4t7.5 -21t-2 -10q-87 -101 -220 -101q-125 0 -177.5 54.5t-52.5 181.5v511q0 40 -40 40h-346
q-37 0 -37 -37v-600q0 -78 148 -78q14 0 14 -28.5t-14 -28.5q-85 8 -211 8t-207 -8q-14 0 -14 28.5t14 28.5q117 0 117 78z" />
    <glyph glyph-name="f_t_y" unicode="fty" horiz-adv-x="2096" 
d="M201 127v602q0 37 -37 37h-74q-15 0 -15 27.5t15 27.5q111 0 111 86v17q0 250 141 406.5t330 156.5q53 0 96 -13q42 -13 66 -39q24 -25 24 -67q0 -30 -27.5 -57t-58.5 -27q-56 0 -101.5 54.5t-99.5 54.5q-106 0 -161.5 -85t-55.5 -207v-212q0 -37 37 -37h263
q128 0 172 58q43 56 59 95q4 9 14 9t20.5 -5t10.5 -14v-96q0 -43 41 -43h248q57 -6 184 -6t187 6q14 0 14 -26.5t-14 -26.5q-96 0 -96 -55q0 -17 4 -29l174 -504q11 -31 25 -31q15 0 28 33l195 502q6 15 6 26q0 58 -129 58q-14 0 -14 26.5t14 26.5q57 -6 163 -6t164 6
q14 0 14 -26.5t-14 -26.5q-97 0 -125 -72l-442 -1149q-25 -64 -73.5 -99.5t-104.5 -35.5q-40 0 -65 25t-25 51q1 76 95 76q95 0 120 63l96 240q11 28 11 39q0 14 -13 51l-258 739q-25 72 -118.5 72t-192.5 -18.5t-99 -58.5v-409q0 -131 37.5 -187t124.5 -56q52 0 108 39
q14 10 21.5 -4t7.5 -21t-2 -10q-87 -101 -220 -101q-125 0 -177.5 54.5t-52.5 181.5v513q0 40 -40 40h-346q-37 0 -37 -37v-602q0 -78 148 -78q14 0 14 -28.5t-14 -28.5q-85 8 -211 8t-207 -8q-14 0 -14 28.5t14 28.5q117 0 117 78z" />
    <glyph glyph-name="f_thorn" unicode="f&#xfe;" horiz-adv-x="1480" 
d="M203 127v600q0 37 -33 37h-76q-14 0 -14 28q0 27 14 27q109 0 109 123v33q0 116 79 255q78 138 189 198q111 59 223 59q88 0 152 -33q31 31 45 31t14 -19q-6 -46 -6 -70v-599q0 -25 10 -25t22 14q72 84 166 84q130 0 223 -92q93 -93 93 -258q0 -222 -157 -370
q-158 -147 -327 -170q-30 -4 -30 -31v-367q0 -58 -58 -78l-176 -61q-1 -1 -4 -1q-11 0 -17 12q-7 13 -7 27q0 11 6 15l80 53q22 15 22 58v1567q-1 102 -35 176q-20 43 -116 43q-117 0 -178 -92q-60 -92 -60 -343v-71q0 -37 37 -37h201q15 0 15 -43t-15 -43h-201
q-37 0 -37 -37v-600q0 -78 117 -78q14 0 14 -29q0 -28 -14 -28q-80 8 -193 8q-114 0 -194 -8q-16 0 -16 28q0 29 16 29q117 0 117 78zM899 90q0 -39 24 -39q50 0 129 51q80 50 134 156q53 105 53 213q0 141 -41 233q-41 93 -123 93t-152 -117q-24 -40 -24 -94v-496z" />
    <glyph glyph-name="f_udieresis" unicode="f&#xfc;" horiz-adv-x="1619" 
d="M201 127v600q0 37 -37 37h-74q-15 0 -15 28q0 27 15 27q111 0 111 86v19q0 250 125 406q126 157 289 157q47 0 90 -13t67 -39q23 -25 23 -67q0 -30 -27 -57q-28 -27 -59 -27q-53 0 -101 54q-49 55 -94 55q-62 0 -111 -85t-49 -207v-214q0 -35 37 -37q158 -11 260 -11
t167 9q64 9 83 9t19 -16q-8 -123 -8 -152v-355q0 -116 40 -188q38 -72 120 -72q88 0 156 52q69 52 69 126v384q0 147 -111 147q-15 0 -15 28t15 28q123 0 180 9q58 9 70 9q20 0 20 -27q-6 -87 -6 -139v-464q0 -146 72 -146q5 0 10 1l47 6q17 2 22 -27q1 -8 1 -15
q0 -14 -8 -15q-28 -3 -136 -27q-109 -25 -138 -36q-3 -1 -7 -1q-16 0 -16 45v45q0 24 -11 24q-12 0 -28 -15q-95 -89 -234 -89q-105 0 -185 106t-80 218v335q0 147 -108 147t-260 -19q-37 -5 -37 -37v-600q0 -78 148 -78q14 0 14 -29q0 -28 -14 -28q-85 8 -211 8t-207 -8
q-14 0 -14 28q0 29 14 29q117 0 117 78zM1398 1156q0 -45 -32 -76q-31 -32 -76 -32t-76 32q-32 31 -32 76t32 76q31 32 76 32t76 -32q32 -31 32 -76zM1016 1156q0 -45 -32 -76q-31 -32 -76 -32q-44 0 -76 32q-31 31 -31 76t31 76q32 32 76 32q45 0 76 -32q32 -31 32 -76z
" />
    <glyph glyph-name="f_y" unicode="fy" horiz-adv-x="1422" 
d="M201 127v608q0 37 -37 37h-74q-15 0 -15 26q0 27 15 27q111 0 111 86v13q0 250 125 406q126 157 289 157q47 0 90 -13t67 -39q23 -25 23 -67q0 -30 -27 -57q-28 -27 -59 -27q-53 0 -101 54q-49 55 -94 55q-62 0 -111 -85t-49 -207v-208q0 -37 37 -37h154q57 -6 184 -6
t187 6q14 0 14 -26q0 -27 -14 -27q-96 0 -96 -55q0 -17 4 -29l174 -504q11 -31 25 -31q15 0 28 33l195 502q6 15 6 26q0 58 -129 58q-14 0 -14 27q0 26 14 26q57 -6 163 -6t164 6q14 0 14 -26q0 -27 -14 -27q-97 0 -125 -72l-442 -1149q-25 -64 -73 -100q-49 -35 -105 -35
q-40 0 -65 25t-25 51q1 76 95 76q95 0 120 63l96 240q11 28 11 39q0 14 -13 51l-258 739q-25 72 -121 72q-59 0 -125 -18t-66 -50v-608q0 -78 148 -78q14 0 14 -29q0 -28 -14 -28q-85 8 -211 8t-207 -8q-14 0 -14 28q0 29 14 29q117 0 117 78z" />
    <glyph glyph-name="second" unicode="&#x2032;&#x2032;" horiz-adv-x="918" 
d="M747 1487q44 0 78 -30q21 -18 21 -38q0 -9 -6 -18l-271 -434q-18 -29 -41 -29q-33 0 -33 37q0 12 5 22l206 467q10 23 41 23zM399 1487q44 0 78 -30q21 -18 21 -38q0 -9 -6 -18l-271 -434q-18 -29 -41 -29q-33 0 -33 37q0 12 5 22l206 467q10 23 41 23z" />
    <glyph glyph-name="twodotenleader" unicode="&#x2e;&#x2e;" horiz-adv-x="1063" 
d="M797 211q65 0 97 -55q18 -30 18 -68q0 -65 -54 -97q-27 -16 -61 -16q-74 0 -109 56q-18 29 -18 65q0 68 58 99q30 16 69 16zM266 211q65 0 97 -55q18 -30 18 -68q0 -65 -54 -97q-27 -16 -61 -16q-74 0 -109 56q-18 29 -18 65q0 68 58 99q30 16 69 16z" />
    <glyph glyph-name="uni2036" unicode="&#x2035;&#x2035;" horiz-adv-x="894" 
d="M439 1419q0 32 47 55q27 13 52 13q31 0 41 -23l206 -467q5 -10 5 -22q0 -37 -33 -37q-23 0 -41 29l-271 434q-6 9 -6 18zM119 1419q0 32 47 55q27 13 52 13q31 0 41 -23l206 -467q5 -10 5 -22q0 -37 -33 -37q-23 0 -41 29l-271 434q-6 9 -6 18z" />
    <glyph glyph-name="uni2037" unicode="&#x2035;&#x2035;&#x2035;" horiz-adv-x="1274" 
d="M794 1419q0 32 47 55q27 13 52 13q31 0 41 -23l206 -467q5 -10 5 -22q0 -37 -33 -37q-23 0 -41 29l-271 434q-6 9 -6 18zM444 1419q0 32 47 55q27 13 52 13q31 0 41 -23l206 -467q5 -10 5 -22q0 -37 -33 -37q-23 0 -41 29l-271 434q-6 9 -6 18zM119 1419q0 32 47 55
q27 13 52 13q31 0 41 -23l206 -467q5 -10 5 -22q0 -37 -33 -37q-23 0 -41 29l-271 434q-6 9 -6 18z" />
    <glyph glyph-name="uni2047" unicode="&#x3f;&#x3f;" horiz-adv-x="1288" 
d="M803 1194q-68 0 -68 86q0 82 84 82q130 0 244 -131q115 -141 118 -301q0 -146 -82 -189l-165 -88q-74 -41 -74 -90q0 -56 20 -125q0 -15 -22 -19q-15 -1 -23 7q-75 136 -75 211q0 89 114 151l105 56q116 62 116 151q0 199 -292 199zM983 86q0 -67 -54 -100
q-30 -17 -65 -17q-61 0 -97 49q-22 31 -22 68q0 69 51 106q30 21 68 21q64 0 99 -56q20 -32 20 -71zM279 1194q-68 0 -68 86q0 82 84 82q130 0 244 -131q115 -141 118 -301q0 -146 -82 -189l-165 -88q-74 -41 -74 -90q0 -56 20 -125q0 -15 -22 -19q-15 -1 -23 7
q-75 136 -75 211q0 89 114 151l105 56q116 62 116 151q0 199 -292 199zM459 86q0 -67 -54 -100q-30 -17 -65 -17q-61 0 -97 49q-22 31 -22 68q0 69 51 106q30 21 68 21q64 0 99 -56q20 -32 20 -71z" />
    <glyph glyph-name="uni2048" unicode="&#x3f;&#x21;" horiz-adv-x="1148" 
d="M279 1194q-68 0 -68 86q0 82 84 82q130 0 244 -131q115 -141 118 -301q0 -146 -82 -189l-165 -88q-74 -41 -74 -90q0 -56 20 -125q0 -15 -22 -19q-15 -1 -23 7q-75 136 -75 211q0 89 114 151l105 56q116 62 116 151q0 199 -292 199zM459 86q0 -67 -54 -100
q-30 -17 -65 -17q-61 0 -97 49q-22 31 -22 68q0 69 51 106q30 21 68 21q64 0 99 -56q20 -32 20 -71zM908 211q61 0 91 -37t30 -87.5t-34.5 -81t-87.5 -30.5t-86.5 36t-33.5 87t30 82t91 31zM814 1275q0 56 30.5 90t67.5 34q103 0 103 -111q0 -63 -31 -354.5t-43 -497.5
q-1 -16 -33 -16t-33 16q-8 199 -34.5 491t-26.5 348z" />
    <glyph glyph-name="uni2049" unicode="&#x21;&#x3f;" horiz-adv-x="1084" 
d="M260 211q61 0 91 -37t30 -87.5t-34.5 -81t-87.5 -30.5t-86.5 36t-33.5 87t30 82t91 31zM166 1275q0 56 30.5 90t67.5 34q103 0 103 -111q0 -63 -31 -354.5t-43 -497.5q-1 -16 -33 -16t-33 16q-8 199 -34.5 491t-26.5 348zM591 1194q-68 0 -68 86q0 82 84 82
q130 0 244 -131q115 -141 118 -301q0 -146 -82 -189l-165 -88q-74 -41 -74 -90q0 -56 20 -125q0 -15 -22 -19q-15 -1 -23 7q-75 136 -75 211q0 89 114 151l105 56q116 62 116 151q0 199 -292 199zM771 86q0 -67 -54 -100q-30 -17 -65 -17q-61 0 -97 49q-22 31 -22 68
q0 69 51 106q30 21 68 21q64 0 99 -56q20 -32 20 -71z" />
    <glyph glyph-name="uniE1A6" unicode="&#x17f;b" horiz-adv-x="1564" 
d="M874 301q0 -81 75.5 -172.5t176.5 -91.5q92 0 142.5 111t50.5 270q0 152 -76.5 262.5t-198.5 110.5q-86 0 -147 -50q-23 -18 -23 -94v-346zM219 125v555q0 33 -31 33h-75q-16 0 -16 27.5t16 27.5q45 0 75.5 46.5t30.5 109.5q0 221 133 392t338 171q62 0 123 -30.5
t61 -98.5v-522q0 -27 12 -27t21 6q83 55 176 55q178 0 294 -131.5t116 -308.5q0 -215 -111.5 -334t-294.5 -119q-45 0 -155 46q-24 10 -58 10q-22 0 -96 -56q-2 -1 -6 -1q-11 0 -33 9t-22 15q4 130 4 260v914q0 219 -131 219q-98 0 -158 -81.5t-60 -313.5v-871
q0 -78 116 -78q16 0 16 -28.5t-16 -28.5q-81 8 -188 8q-116 0 -198 -8q-15 0 -15 28.5t15 28.5q117 0 117 76z" />
    <glyph glyph-name="uniE1A7" unicode="&#x17f;h" horiz-adv-x="1615" 
d="M219 125v555q0 33 -31 33h-75q-16 0 -16 27.5t16 27.5q45 0 75.5 46.5t30.5 109.5q0 246 136.5 404.5t334.5 158.5q62 0 123 -32t61 -107v-557q0 -25 16 -25q9 0 17 8q96 96 241 96t219 -105.5t74 -215.5v-422q0 -78 127 -78q14 0 14 -28.5t-14 -28.5q-81 8 -197.5 8
t-195.5 -8q-14 0 -14 28.5t14 28.5q113 0 113 78v420q0 97 -59 165t-143 68t-148 -51t-64 -100v-502q0 -78 111 -78q14 0 14 -28.5t-14 -28.5q-105 8 -205 8t-180 -8q-14 0 -14 28.5t14 28.5q121 0 121 78v1047q0 219 -131 219q-98 0 -158 -79t-60 -316v-871q0 -78 116 -78
q16 0 16 -28.5t-16 -28.5q-81 8 -188 8q-116 0 -198 -8q-15 0 -15 28.5t15 28.5q117 0 117 76z" />
    <glyph glyph-name="uniE1A8" unicode="&#x17f;i" horiz-adv-x="1037" 
d="M980 -8q-76 8 -187 8t-192 -8q-14 0 -14 28q0 29 14 29q113 0 113 78v444q0 138 -92 138q-17 0 -17 28t17 28q33 0 97 34q65 34 98 59t44 25q12 0 12 -16q-6 -108 -6 -166v-574q0 -78 113 -78q14 0 14 -29q0 -28 -14 -28zM90 713q-15 0 -15 27.5t15 27.5q35 0 73 37
t38 119q0 252 141 407.5t330 155.5q123 0 167 -57q19 -24 19 -60.5t-32 -61t-54 -24.5q-56 0 -101.5 54.5t-99.5 54.5q-92 0 -154.5 -76t-62.5 -315v-875q0 -78 144 -78q15 0 15 -28.5t-15 -28.5q-83 8 -208 8t-206 -8q-17 0 -17 28.5t17 28.5q117 0 117 78v565q0 21 -25 21
h-86z" />
    <glyph glyph-name="uniE1A9" unicode="&#x17f;k" horiz-adv-x="1519" 
d="M873 1358v-836q0 -47 47 -43q50 5 66 23l197 221q26 29 26 47q0 33 -96 33q-14 0 -14 26.5t14 26.5q92 -6 190 -6t174 6q14 0 14 -26.5t-14 -26.5q-92 0 -163 -68l-213 -205q-19 -18 -19 -34t17 -35l321 -367q39 -45 129 -45q14 0 14 -28.5t-14 -28.5q-95 8 -202 8
t-201 -8q-14 0 -14 28.5t14 28.5q82 0 82 29q0 13 -31 49l-221 254q-16 19 -34 25q-20 6 -35 6t-24.5 -8t-9.5 -35v-242q0 -78 119 -78q14 0 14 -28.5t-14 -28.5q-104 8 -198 8q-95 0 -190 -8q-13 0 -13 28t13 29q115 9 115 78l2 1047q0 219 -131 219q-98 0 -158 -81.5
t-60 -313.5v-871q0 -78 116 -78q16 0 16 -28.5t-16 -28.5q-81 8 -188 8q-116 0 -198 -8q-15 0 -15 28.5t15 28.5q117 0 117 76v555q0 33 -31 33h-75q-16 0 -16 27.5t16 27.5q45 0 75.5 46.5t30.5 109.5q0 221 133 392t338 171q62 -1 123 -31q60 -30 60 -98z" />
    <glyph glyph-name="uniE1AA" unicode="&#x17f;l" horiz-adv-x="1069" 
d="M219 125v555q0 33 -31 33h-75q-16 0 -16 27q0 28 16 28q45 0 75 46q31 47 31 110q0 221 133 392t338 171q100 0 161 -37q32 20 38 27q7 8 19 8t12 -15q-6 -68 -6 -172v-1171q0 -78 119 -78q15 0 15 -29q0 -28 -15 -28q-82 8 -194 8t-194 -8q-15 0 -15 28q0 29 15 29
q116 0 116 78v1053q0 213 -150 213q-121 0 -180 -81q-59 -82 -59 -314v-871q0 -78 116 -78q16 0 16 -29q0 -28 -16 -28q-81 8 -192 8q-112 0 -194 -8q-15 0 -15 28q0 29 15 29q117 0 117 76z" />
    <glyph glyph-name="uniE1AB" unicode="&#x17f;&#x17f;" horiz-adv-x="1067" 
d="M1372 1374q0 -53 -57 -82q-16 -8 -29 -8q-59 0 -102.5 54.5t-98.5 54.5q-97 0 -157 -78.5t-60 -319.5v-868q0 -77 142 -78q13 0 13 -27.5t-13 -29.5q-82 8 -206 8t-206 -8q-13 0 -13 28.5t13 28.5q117 0 117 76v565q0 22 -25 23h-84q-16 0 -16 27.5t16 27.5q49 0 79 47
t30 109q0 188 69 305q-54 105 -138 122q-24 5 -54 5q-97 0 -157 -75.5t-60 -265.5v-888q0 -78 117 -78q13 0 13 -27.5t-13 -29.5q-82 8 -194 8t-194 -8q-13 0 -13 28.5t13 28.5q117 0 117 76v563q0 25 -24 25h-82q-16 0 -16 27.5t16 27.5q47 0 76.5 47t29.5 109
q0 220 137 373t334 153q110 0 185 -94q137 131 309 131q141 0 177 -74q9 -18 9 -39z" />
    <glyph glyph-name="uniE1AC" unicode="&#x17f;&#x17f;i" horiz-adv-x="1574" 
d="M1515 -8q-76 8 -187 8t-192 -8q-14 0 -14 28q0 29 14 29q113 0 113 78v444q0 138 -92 138q-17 0 -17 28t17 28q33 0 97 34q65 34 98 59t44 25q12 0 12 -16q-6 -108 -6 -166v-574q0 -78 113 -78q14 0 14 -29q0 -28 -14 -28zM1372 1374q0 -53 -57 -82q-16 -8 -29 -8
q-59 0 -102.5 54.5t-98.5 54.5q-97 0 -157 -78.5t-60 -319.5v-868q0 -77 142 -78q13 0 13 -27.5t-13 -29.5q-82 8 -206 8t-206 -8q-13 0 -13 28.5t13 28.5q117 0 117 76v565q0 22 -25 23h-84q-16 0 -16 27.5t16 27.5q49 0 79 47t30 109q0 188 69 305q-54 105 -138 122
q-24 5 -54 5q-97 0 -157 -75.5t-60 -265.5v-888q0 -78 117 -78q13 0 13 -27.5t-13 -29.5q-82 8 -194 8t-194 -8q-13 0 -13 28.5t13 28.5q117 0 117 76v563q0 25 -24 25h-82q-16 0 -16 27.5t16 27.5q47 0 76.5 47t29.5 109q0 220 137 373t334 153q110 0 185 -94
q137 131 309 131q141 0 177 -74q9 -18 9 -39z" />
    <glyph glyph-name="uniE1AD" unicode="&#x17f;&#x17f;l" horiz-adv-x="1580" 
d="M375 1015v-888q0 -78 117 -78q13 0 13 -27q0 -28 -13 -30q-82 8 -194 8t-194 -8q-13 0 -13 28q0 29 13 29q117 0 117 76v563q0 25 -24 25h-82q-16 0 -16 27q0 28 16 28q47 0 80 53q26 41 26 103q0 218 131 364q145 162 340 162q110 0 185 -94q137 131 330 131
q74 0 141 -37q33 20 39 27q8 8 18 8q12 0 12 -15q-6 -68 -6 -172v-1171q0 -78 119 -78q13 0 13 -29q0 -28 -13 -28q-82 8 -188 8q-119 0 -201 -8q-13 0 -13 28q0 29 13 29q117 0 117 78v1053q0 167 -69 199q-29 14 -83 14q-120 0 -176 -74q-62 -84 -62 -324v-868
q0 -77 142 -78q13 0 13 -27q0 -28 -13 -30q-82 8 -206 8t-206 -8q-13 0 -13 28q0 29 13 29q117 0 117 76v565q0 22 -25 23h-84q-16 0 -16 27q0 28 16 28q49 0 83 53q26 41 26 103q0 188 69 305q-54 105 -138 122q-24 5 -54 5q-100 0 -158 -74q-59 -79 -59 -267z" />
    <glyph glyph-name="uniEADA" unicode="&#xf127;t" horiz-adv-x="1198" 
d="M870 317q0 -115 30.5 -179t131.5 -64q51 0 116 42q21 -4 21 -33q0 -3 -2 -5q-84 -101 -221 -101q-133 0 -181 61t-48 175v507q0 40 -40 40h-73q-14 0 -14 22.5t14 22.5q53 0 83 34.5t30 77.5v263q0 126 -34 169.5t-118 43.5q-238 0 -238 -294v-1517q0 -58 -58 -78
l-175 -61q-1 -1 -4 -1q-11 0 -17.5 12.5t-6.5 26.5q0 11 6 15l80 53q22 15 22 58v1128q0 25 -25 25h-82q-15 0 -15 22.5t15 22.5q54 0 87 67q20 41 20 89q0 124 60.5 250.5t175 201t255.5 74.5q119 0 162 -67t43 -201v-326q0 -43 41 -43h244q14 0 14 -45t-14 -45h-244
q-41 0 -41 -40v-403z" />
    <glyph glyph-name="uniEBA0" unicode="&#x17f;&#xe4;" horiz-adv-x="1564" 
d="M619 411q0 189 132 324t343 135q67 0 113 -19t62 -34q24 25 66 45q42 21 54 21t12 -15q-6 -68 -6 -135v-502q0 -177 70 -177q20 0 66 33q12 8 25 -13q13 -20 13 -27t-4 -9q-82 -56 -165 -56q-80 0 -110 48q-31 47 -44 88q-108 -141 -240 -141q-197 0 -292 123
q-95 122 -95 311zM782 440q0 -148 83 -257t192 -109q78 0 131 41t53 84v469q0 53 3 92q-65 50 -186 50t-198 -111q-78 -111 -78 -259zM1386 1156q0 -45 -32 -76q-31 -32 -76 -32t-76 32q-32 31 -32 76t32 76q31 32 76 32t76 -32q32 -31 32 -76zM1004 1156q0 -45 -32 -76
q-31 -32 -76 -32q-44 0 -76 32q-31 31 -31 76t31 76q32 32 76 32q45 0 76 -32q32 -31 32 -76zM201 127v600q0 37 -37 37h-74q-15 0 -15 28q0 27 15 27q111 0 111 86v19q0 250 125 406q126 157 289 157q47 0 90 -13t67 -38q23 -26 23 -68q0 -30 -27 -57q-28 -27 -59 -27
q-53 0 -101 54q-49 55 -94 55q-62 0 -111 -85t-49 -207v-974q0 -78 148 -78q14 0 14 -29q0 -28 -14 -28q-85 8 -211 8t-207 -8q-14 0 -14 28q0 29 14 29q117 0 117 78z" />
    <glyph glyph-name="uniEBA4" unicode="&#x17f;&#xf6;" horiz-adv-x="1548" 
d="M637 428q0 168 125 305q124 137 298 137t296 -136q121 -138 121 -314t-111 -310q-110 -133 -296 -133t-310 141q-123 142 -123 310zM800 422q0 -178 82 -278q81 -101 175 -101q93 0 175 101q82 102 82 278t-80 282q-80 107 -176 107t-177 -105q-81 -106 -81 -284z
M1386 1156q0 -45 -32 -76q-31 -32 -76 -32t-76 32q-32 31 -32 76t32 76q31 32 76 32t76 -32q32 -31 32 -76zM1004 1156q0 -45 -32 -76q-31 -32 -76 -32q-44 0 -76 32q-31 31 -31 76t31 76q32 32 76 32q45 0 76 -32q32 -31 32 -76zM201 127v600q0 37 -37 37h-74q-15 0 -15 28
q0 27 15 27q111 0 111 86v19q0 250 125 406q126 157 289 157q47 0 90 -13t67 -38q23 -26 23 -68q0 -30 -27 -57q-28 -27 -59 -27q-53 0 -101 54q-49 55 -94 55q-62 0 -111 -85t-49 -207v-974q0 -78 148 -78q14 0 14 -29q0 -28 -14 -28q-85 8 -211 8t-207 -8q-14 0 -14 28
q0 29 14 29q117 0 117 78z" />
    <glyph glyph-name="uniEBA5" unicode="&#x17f;p" horiz-adv-x="1554" 
d="M201 127v565q0 21 -25 21h-86q-15 0 -15 27q0 28 15 28q35 0 73 37t38 119q0 252 141 408q141 155 340 155q128 0 213 -95q85 -94 85 -224q0 -141 -99 -280v-100q0 -20 16 -20q9 0 18 8q106 94 187 94q112 0 206 -68q94 -69 142 -154q48 -86 49 -230q0 -198 -109 -320
q-110 -121 -305 -121q-110 0 -167 19q-6 2 -11 2q-26 0 -26 -33v-381q0 -86 151 -86q14 0 14 -28q0 -29 -14 -29q-85 8 -212 8q-128 0 -208 -8q-14 0 -14 29q0 28 14 28q115 0 115 84v999q0 124 -86 124q-17 0 -17 27q0 28 17 28q52 0 103 79q52 79 71 151t19 140
q0 150 -67 212q-67 63 -155 63q-123 0 -196 -88q-62 -76 -62 -315v-875q0 -78 144 -78q15 0 15 -29q0 -28 -15 -28q-83 8 -208 8t-206 -8q-17 0 -17 28q0 29 17 29q117 0 117 78zM881 205q0 -164 189 -164q140 0 198 111q57 111 57 268q0 368 -264 368q-84 0 -160 -100
q-20 -26 -20 -94v-389z" />
    <glyph glyph-name="uniEBA9" unicode="&#x17f;ti" horiz-adv-x="1675" 
d="M1301 1157q0 45 31 75q30 31 75 31t77 -31q32 -30 32 -75t-32 -77t-77 -32t-75 32q-31 32 -31 77zM203 125v610q0 25 -25 25h-82q-14 0 -14 22q0 23 14 23q54 0 87 67q20 41 20 89q0 124 61 251q60 126 174 200q115 75 256 75q119 0 162 -66t43 -202v-377q0 -43 41 -43
h349q85 0 142 42t68 42q12 0 12 -16q-6 -108 -6 -166v-574q0 -78 113 -78q14 0 14 -29q0 -28 -14 -28q-76 8 -187 8t-192 -8q-14 0 -14 28q0 29 14 29q113 0 113 78v444q0 138 -92 138h-320q-41 0 -41 -40v-352q0 -120 33 -181q32 -62 114 -62q51 0 116 42q21 -4 21 -33
q0 -3 -2 -5q-84 -101 -221 -101q-118 0 -166 61t-48 175v456q0 40 -40 40h-73q-14 0 -14 23q0 22 14 22q53 0 83 34q29 35 29 78v314q0 127 -33 170q-34 43 -118 43q-238 0 -238 -294v-972q0 -78 117 -78q15 0 15 -29q0 -28 -15 -28q-80 8 -193 8q-114 0 -194 -8
q-15 0 -15 28q0 29 15 29q117 0 117 76z" />
    <glyph glyph-name="uniEBAA" unicode="&#x17f;tr" horiz-adv-x="1873" 
d="M203 125v610q0 25 -25 25h-82q-14 0 -14 22q0 23 14 23q54 0 87 67q20 41 20 89q0 124 61 251q60 126 174 200q115 75 256 75q119 0 162 -66t43 -202v-377q0 -43 41 -43h349q85 0 142 42t64 42q14 0 14 -25q-4 -49 -4 -90q0 -40 13 -40q14 0 28 20q85 122 213 122
q32 0 53 -11q22 -11 40 -34q17 -23 17 -67q0 -12 -10 -34q-10 -23 -31 -38q-21 -16 -42 -16q-22 0 -68 24q-45 25 -68 25q-61 -1 -103 -61t-42 -164v-367q0 -78 113 -78q14 0 14 -29q0 -28 -14 -28q-76 8 -187 8t-192 -8q-14 0 -14 28q0 29 14 29q113 0 113 78v444
q0 138 -92 138h-320q-41 0 -41 -40v-352q0 -119 33 -181q32 -62 113 -62q51 0 116 42q21 -4 21 -33q0 -3 -2 -5q-90 -101 -221 -101q-117 0 -165 61q-48 62 -48 175v456q0 40 -40 40h-73q-14 0 -14 23q0 22 14 22q53 0 83 34q29 35 29 78v314q0 127 -33 170q-34 43 -118 43
q-238 0 -238 -294v-972q0 -78 117 -78q15 0 15 -29q0 -28 -15 -28q-80 8 -193 8q-114 0 -194 -8q-15 0 -15 28q0 29 15 29q117 0 117 76z" />
    <glyph glyph-name="uniEBAB" unicode="&#x17f;&#xfc;" horiz-adv-x="1588" 
d="M1563 31q-28 -3 -137 -27q-108 -25 -137 -36q-3 -1 -7 -1q-16 0 -16 45v45q0 24 -12 24q-11 0 -27 -15q-95 -89 -234 -89q-105 0 -185 106q-81 106 -81 218v335q0 147 -111 147q-15 0 -15 28t15 28q106 0 170 9q65 9 84 9t19 -16q-8 -107 -8 -152v-355q0 -115 39 -188
q40 -72 122 -72q88 0 156 52t68 126v384q0 147 -111 147q-15 0 -15 28t15 28q123 0 181 9q57 9 69 9q20 0 20 -27q-6 -60 -6 -139v-464q0 -145 82 -145l47 6q17 2 22 -27q1 -8 1 -15q0 -14 -8 -15zM1386 1156q0 -45 -32 -76q-31 -32 -76 -32t-76 32q-32 31 -32 76t32 76
q31 32 76 32t76 -32q32 -31 32 -76zM1004 1156q0 -45 -32 -76q-31 -32 -76 -32q-44 0 -76 32q-31 31 -31 76t31 76q32 32 76 32q45 0 76 -32q32 -31 32 -76zM201 127v600q0 37 -37 37h-74q-15 0 -15 28q0 27 15 27q111 0 111 86v19q0 250 125 406q126 157 289 157
q47 0 90 -13t67 -38q23 -26 23 -68q0 -30 -27 -57q-28 -27 -59 -27q-53 0 -101 54q-49 55 -94 55q-62 0 -111 -85t-49 -207v-974q0 -78 148 -78q14 0 14 -29q0 -28 -14 -28q-85 8 -211 8t-207 -8q-14 0 -14 28q0 29 14 29q117 0 117 78z" />
    <glyph glyph-name="uniEEDA" unicode="&#xa787;&#xa787;" horiz-adv-x="1487" 
d="M1398 754h-337q-41 0 -72 -43q-80 -110 -80 -285q0 -122 59 -219.5t142 -97.5q75 0 225 200q3 4 12 4q24 0 36 -14l4 -9l-1 -5q-40 -98 -85.5 -171t-106 -105t-138.5 -32q-98 0 -173 66.5t-105 154.5q-39 -78 -78 -127.5t-95.5 -71.5t-117.5 -22q-133 0 -221 119.5
t-88 256.5q0 140 36.5 223.5t98.5 140.5q13 12 13 22q0 15 -31 15h-262q-13 0 -13 14q0 7 33 86q22 51 37 76q5 8 19 8q37 0 38 -18q0 -3 -1 -6q-7 -24 -7 -42q0 -38 41 -38h838q249 0 378 16q23 0 23 -48t-21 -48zM752 290q-5 31 -5 63q0 136 35 220t100 144q13 12 13 22
q0 15 -31 15h-372q-41 0 -72 -43q-80 -110 -80 -285q0 -122 59 -219.5t142 -97.5q72 0 211 181z" />
    <glyph glyph-name="uniF4FB" unicode="&#x17f;j" horiz-adv-x="1027" 
d="M878 856l-10 -205q-1 -30 -1 -59v-533q0 -326 -110 -483q-79 -110 -193 -127q-26 -4 -55 -4q-64 0 -102 39q-23 25 -23 57q0 45 43 63q16 7 35 7q49 0 88 -39q41 -39 65 -39q99 0 99 213v786q0 170 -88 170q-15 0 -15 27q0 29 15 29q48 0 165 80q22 15 35 26q20 19 33 19
q17 0 19 -27zM839 1430q19 -24 19 -60.5t-32 -61t-54 -24.5q-56 0 -101.5 54.5t-99.5 54.5q-92 0 -154.5 -76t-62.5 -315v-875q0 -78 144 -78q15 0 15 -28.5t-15 -28.5q-83 8 -208 8t-206 -8q-17 0 -17 28.5t17 28.5q117 0 117 78v565q0 21 -25 21h-86q-15 0 -15 27.5
t15 27.5q35 0 73 37t38 119q0 252 141 407.5t330 155.5q123 0 167 -57z" />
    <glyph glyph-name="uniF4FD" unicode="&#x17f;s" horiz-adv-x="1260" 
d="M839 1430q19 -24 19 -60.5t-32 -61t-54 -24.5q-56 0 -101.5 54.5t-99.5 54.5q-92 0 -154.5 -76t-62.5 -315v-875q0 -78 144 -78q15 0 15 -28.5t-15 -28.5q-83 8 -208 8t-206 -8q-17 0 -17 28.5t17 28.5q117 0 117 78v565q0 21 -25 21h-86q-15 0 -15 27.5t15 27.5
q35 0 73 37t38 119q0 252 141 407.5t330 155.5q123 0 167 -57zM1202 246q0 -81 -42 -144.5t-115 -95t-154 -31.5q-156 0 -240 60q-20 63 -20 172v45q0 15 23.5 15t25.5 -15q5 -39 65 -126t179 -87q59 0 110 37t51 107t-43 112.5t-153.5 72t-177 94.5t-66.5 165
q0 102 84 172.5t213 70.5t207 -36q31 -84 31 -170v-11q0 -14 -22 -14t-25 14q-10 54 -67.5 105t-134.5 51t-124 -37.5t-47 -101.5q0 -60 33.5 -93.5t167 -72t187.5 -97t54 -161.5z" />
    <glyph glyph-name="uniF4FE" unicode="&#x17f;&#x17f;k" horiz-adv-x="2065" 
d="M1411 1298v-776q0 -43 46 -43q41 0 67 23l197 221q26 29 26 47q0 33 -96 33q-14 0 -14 27q0 26 14 26q92 -6 190 -6t174 6q14 0 14 -26q0 -27 -14 -27q-92 0 -163 -68l-213 -205q-19 -18 -19 -34t17 -35l321 -367q39 -45 129 -45q14 0 14 -29q0 -28 -14 -28q-95 8 -202 8
t-201 -8q-14 0 -14 28q0 29 14 29q82 0 82 29q0 13 -31 49l-221 254q-16 18 -36 25q-19 6 -34 6t-24 -8t-9 -35v-242q0 -78 119 -78q14 0 14 -29q0 -28 -14 -28q-104 8 -198 8t-189 -8q-13 0 -13 28q0 29 13 29q115 0 115 78v1053q0 167 -69 199q-29 14 -83 14
q-120 0 -176 -74q-62 -84 -62 -324v-868q0 -78 142 -78q13 0 13 -27q0 -28 -13 -30q-82 8 -215 8q-115 0 -197 -8q-13 0 -13 28q0 29 13 29q117 0 117 76v565q0 23 -25 23h-84q-14 0 -14 27q0 28 14 28q49 0 83 53q26 41 26 103q0 188 69 305q-54 105 -138 122q-24 5 -54 5
q-100 0 -158 -74q-59 -78 -59 -267v-888q0 -78 117 -78q13 0 13 -29q0 -28 -13 -28q-82 8 -195 8q-111 0 -193 -8q-13 0 -13 28q0 29 13 29q117 0 117 76v563q0 25 -24 25h-82q-14 0 -14 27q0 28 14 28q47 0 80 53q26 41 26 103q0 218 131 364q145 162 340 162
q110 0 185 -94q137 131 330 131q74 0 141 -37q33 20 39 27q8 8 18 8q12 0 12 -15q-6 -68 -6 -172z" />
    <glyph glyph-name="uniF4FF" unicode="&#x17f;&#x17f;t" horiz-adv-x="1739" 
d="M1710 83q0 -3 -2 -5q-84 -101 -221 -101q-133 0 -181 61t-48 175v507q0 40 -40 40h-73q-14 0 -14 22q0 23 14 23q53 0 83 35q30 34 30 77v263q0 126 -34 170q-34 43 -118 43q-238 0 -238 -294v-972q0 -78 117 -78q15 0 15 -29q0 -28 -15 -28q-80 8 -193 8q-114 0 -194 -8
q-15 0 -15 28q0 29 15 29q117 0 117 76v610q0 25 -25 25h-82q-14 0 -14 22q0 23 14 23q54 0 87 67q20 41 20 89q0 72 21 141q20 70 48 127q-31 60 -74 93q-44 34 -118 34q-100 0 -158 -74q-59 -78 -59 -267v-888q0 -78 117 -78q15 0 15 -29q0 -28 -15 -28q-82 8 -194 8
t-194 -8q-15 0 -15 28q0 29 15 29q117 0 117 76v563q0 25 -24 25h-82q-16 0 -16 27q0 28 16 28q47 0 80 53q26 40 26 103q0 218 131 364q145 162 340 162q110 0 186 -96q33 33 81 64t111 50q64 19 136 19q119 0 162 -67t43 -201v-326q0 -43 41 -43h244q14 0 14 -45t-14 -45
h-244q-41 0 -41 -40v-403q1 -115 31 -179q31 -64 131 -64q51 0 116 42q21 -4 21 -33z" />
    <glyph glyph-name="uniFB00" unicode="ff" horiz-adv-x="1118" 
d="M890 127q0 -78 145 -78q15 0 15 -29q0 -28 -15 -28q-85 8 -209 8q-125 0 -205 -8q-15 0 -15 28q0 29 15 29q116 0 116 78v600q0 37 -37 37h-307q-37 0 -37 -37v-600q0 -78 117 -78q14 0 14 -29q0 -28 -14 -28q-80 8 -193 8q-114 0 -194 -8q-16 0 -16 28q0 29 16 29
q117 0 117 78v600q0 37 -37 37h-72q-14 0 -14 28q0 27 14 27h2q107 0 107 101v14q0 138 63 256t170 189q108 71 238 71q94 0 178 -67q29 -23 45 -44q136 148 310 148q93 0 140 -33q47 -32 47 -86q0 -34 -30 -59q-29 -25 -56 -25q-60 0 -104 54q-44 55 -97 55q-97 0 -157 -77
q-60 -76 -60 -296v-133q0 -37 37 -37h202q15 0 15 -43t-15 -43h-202q-37 0 -37 -37v-600zM805 1208q-52 87 -101 118q-49 30 -131 30q-84 0 -133 -46q-50 -45 -67 -127t-17 -188v-108q0 -37 37 -37h307q37 0 37 37v37q0 148 68 284z" />
    <glyph glyph-name="uniFB01" unicode="fi" horiz-adv-x="1067" 
d="M896 127q0 -78 111 -78q16 0 16 -29q0 -28 -16 -28q-84 8 -178 8t-198 -8q-15 0 -15 28q0 29 15 29q112 0 112 78v522q0 115 -41 115h-309q-37 0 -37 -37v-600q0 -78 117 -78q14 0 14 -29q0 -28 -14 -28q-93 8 -189 8q-97 0 -198 -8q-16 0 -16 28q0 29 16 29
q117 0 117 78v600q0 37 -33 37h-78q-14 0 -14 28q0 27 14 27q111 0 111 84v21q0 242 147 402q146 161 334 161q227 0 227 -113q0 -38 -27 -64q-28 -26 -59 -26q-59 0 -103 54q-44 55 -138 55q-118 0 -173 -103q-55 -104 -55 -344v-59q0 -37 37 -37h309q52 0 116 16
q63 17 74 17q10 0 10 -27q-6 -90 -6 -151v-578z" />
    <glyph glyph-name="uniFB02" unicode="fl" horiz-adv-x="1067" 
d="M898 127q0 -78 119 -78q14 0 14 -29q0 -28 -14 -28q-77 8 -193 8t-197 -8q-15 0 -15 28q0 29 15 29q118 0 118 78v600q0 37 -36 37h-316q-37 0 -37 -37v-600q0 -78 117 -78q14 0 14 -29q0 -28 -14 -28q-80 8 -193 8q-114 0 -194 -8q-16 0 -16 28q0 29 16 29q117 0 117 78
v600q0 37 -33 37h-76q-14 0 -14 28q0 27 14 27q109 0 109 123v33q0 116 79 255q78 138 189 198q111 59 223 59q87 0 151 -33q31 31 45 31t14 -19q-6 -46 -6 -70v-1269zM745 887v287q0 132 -35 176q-34 43 -116 43q-117 0 -178 -92q-60 -92 -60 -343v-71q0 -37 37 -37h316
q36 0 36 37z" />
    <glyph glyph-name="uniFB03" unicode="ffi" horiz-adv-x="1602" 
d="M1430 127q0 -78 110 -78q14 0 14 -29q0 -28 -14 -28q-76 8 -180 8q-103 0 -196 -8q-14 0 -14 28q0 29 14 29q113 0 113 78v499q0 100 -26 125q-13 13 -35 13h-289q-37 0 -37 -37v-600q0 -78 117 -78q16 0 16 -29q0 -28 -16 -28q-94 8 -193 8q-98 0 -193 -8q-15 0 -15 28
q0 29 15 29q116 0 116 78v600q0 37 -37 37h-307q-37 0 -37 -37v-600q0 -78 117 -78q14 0 14 -29q0 -28 -14 -28q-94 8 -193 8t-194 -8q-16 0 -16 28q0 29 16 29q117 0 117 78v600q0 37 -37 37h-72q-14 0 -14 28q0 27 14 27q109 0 109 115q0 200 135 358q134 158 336 158
q89 0 178 -68q27 -21 45 -43q136 148 341 148q87 0 147 -31q60 -30 60 -78t-33 -71q-32 -23 -53 -23q-60 0 -104 54q-44 55 -141 55q-96 0 -160 -87t-64 -405v-14q0 -37 37 -37h291q86 0 186 30q10 3 13 3q19 0 19 -27q-6 -111 -6 -215v-514zM737 924q0 148 68 284
q-50 82 -97 115q-48 33 -135 33q-80 0 -129 -43q-48 -43 -68 -118t-20 -294v-14q0 -37 37 -37h307q37 0 37 37v37z" />
    <glyph glyph-name="uniFB04" unicode="ffl" horiz-adv-x="1604" 
d="M1430 127q0 -78 118 -78q15 0 15 -29q0 -28 -15 -28q-77 8 -192 8q-116 0 -196 -8q-14 0 -14 28q0 29 14 29q117 0 117 78v600q0 37 -37 37h-313q-37 0 -37 -37v-600q0 -78 119 -78q14 0 14 -29q0 -28 -14 -28q-80 8 -194 8t-194 -8q-15 0 -15 28q0 29 15 29
q116 0 116 78v600q0 37 -37 37h-307q-37 0 -37 -37v-600q0 -78 117 -78q14 0 14 -29q0 -28 -14 -28q-80 8 -193 8q-114 0 -194 -8q-16 0 -16 28q0 29 16 29q117 0 117 78v600q0 37 -37 37h-72q-14 0 -14 28q0 27 14 27q109 0 109 115q0 206 137 361t334 155q94 0 178 -67
q29 -23 45 -44q136 148 310 148q114 0 171 -33l34 27q5 4 11 4q13 0 13 -15l-6 -149v-1194zM1277 887v284q0 112 -14 144q-34 78 -146 78q-104 0 -165 -89q-62 -88 -62 -403v-14q0 -37 37 -37h313q37 0 37 37zM737 924q0 148 68 284q-54 87 -103 118q-48 30 -129 30
q-116 0 -167 -82q-50 -81 -50 -305v-82q0 -37 37 -37h307q37 0 37 37v37z" />
    <glyph glyph-name="uniFB05" unicode="&#x17f;t" horiz-adv-x="1227" 
d="M899 317q0 -115 30.5 -179t131.5 -64q51 1 116 42q21 -4 21 -33q0 -3 -2 -5q-84 -101 -221 -101q-133 0 -181 61t-48 175v507q0 40 -40 40h-73q-14 0 -14 22.5t14 22.5q53 0 83 34.5t30 77.5v263q0 126 -34 169.5t-118 43.5q-238 0 -238 -294v-972q0 -78 117 -78
q15 0 15 -28.5t-15 -28.5q-80 8 -193 8q-114 0 -194 -8q-15 0 -15 28.5t15 28.5q117 0 117 76v610q0 25 -25 25h-82q-14 0 -14 22.5t14 22.5q54 0 87 67q20 41 20 89q0 124 60.5 250.5t175 201t255.5 74.5q119 0 162 -67t43 -201v-326q0 -43 41 -43h244q14 0 14 -45t-14 -45
h-244q-41 0 -41 -40v-403z" />
    <glyph glyph-name=".notdef" horiz-adv-x="1024" 
d="M354 1194q292 0 292 -199q0 -89 -116 -151l-106 -56q-114 -62 -114 -151q0 -75 76 -211q8 -8 22 -7q22 4 22 19q-20 69 -20 125q0 49 74 90l166 88q82 43 82 189q-2 160 -118 301q-114 131 -244 131q-84 0 -84 -82q0 -86 68 -86zM534 86q0 39 -20 71q-36 56 -100 56
q-38 0 -68 -21q-50 -37 -50 -106q0 -37 22 -68q36 -49 96 -49q36 0 66 17q54 33 54 100zM68 -132v1640h864v-1640h-864z" />
    <glyph glyph-name=".null" horiz-adv-x="1024" 
d="M354 1194q292 0 292 -199q0 -89 -116 -151l-106 -56q-114 -62 -114 -151q0 -75 76 -211q8 -8 22 -7q22 4 22 19q-20 69 -20 125q0 49 74 90l166 88q82 43 82 189q-2 160 -118 301q-114 131 -244 131q-84 0 -84 -82q0 -86 68 -86zM534 86q0 39 -20 71q-36 56 -100 56
q-38 0 -68 -21q-50 -37 -50 -106q0 -37 22 -68q36 -49 96 -49q36 0 66 17q54 33 54 100zM68 -132v1640h864v-1640h-864z" />
    <glyph glyph-name="nonmarkingreturn" unicode="&#xd;" horiz-adv-x="559" 
 />
    <glyph glyph-name="A" unicode="A" horiz-adv-x="1398" 
d="M10 -7q-14 0 -14 38t14 38q97 0 129 28t66 104l377 987q6 17 6 30t-13 26.5t-13 19.5t39.5 27.5t92.5 58.5t65 37q23 0 35 -44q26 -97 49 -166l333 -991q39 -117 192 -117q13 0 13 -38t-13 -38q-73 7 -231 7t-230 -7q-14 0 -14 38t14 38q99 0 99 68q0 23 -8 49l-101 313
q-9 32 -44 32h-407q-28 0 -40 -35l-113 -314q-9 -22 -9 -40q0 -73 151 -73q14 0 14 -38t-14 -38q-85 7 -213 7t-212 -7zM832 600q25 0 25 16q0 5 -2 11l-170 532q-6 20 -18 20t-19 -20l-197 -532q-2 -5 -2 -11q0 -16 24 -16h359z" />
    <glyph glyph-name="AE" unicode="&#xc6;" horiz-adv-x="1742" 
d="M66 172l576 1024q16 28 16 45q0 41 -83 41q-13 0 -13 38t13 38q139 -6 275 -6t330.5 3t287 3t102.5 -7t10 -26v-319q0 -13 -37.5 -13t-37.5 13q0 132 -83.5 203.5t-178.5 73.5l-269 6q-41 0 -41 -40v-538q0 -35 35 -35h213q101 0 101 93v95q0 13 34.5 13t34.5 -13
q-6 -57 -6 -216.5t6 -211.5q0 -13 -34.5 -13t-34.5 13v84q0 87 -101 87h-213q-35 0 -35 -34v-273q0 -122 51.5 -180t116.5 -58l238 7q89 3 168.5 77t79.5 198q0 18 37.5 18t37.5 -18v-325q0 -26 -102 -26t-332 3.5t-364 3.5t-261 -7q-13 0 -13 38t13 38q170 0 170 108v396
q0 34 -33 34h-317q-29 0 -41 -24l-210 -415q-12 -24 -12 -40q0 -59 152 -59q14 0 14 -38t-14 -38q-74 7 -209 7t-216 -7q-13 0 -13 38t13 38q121 0 179 103zM470 676h270q33 0 33 35v479q0 27 -19.5 27t-29.5 -21l-272 -491q-4 -7 -4 -15q0 -14 22 -14z" />
    <glyph glyph-name="AEacute" unicode="&#x1fc;" horiz-adv-x="1742" 
d="M1324 1640l-298 -157q-18 -9 -30.5 -9t-24.5 8.5t-12 20t6.5 23t16.5 17.5l270 199q5 4 13 4t20 -8t23 -23t17.5 -31.5t6.5 -24.5t-2 -12.5t-6 -6.5zM66 172l576 1024q16 28 16 45q0 41 -83 41q-13 0 -13 38t13 38q139 -6 275 -6t330.5 3t287 3t102.5 -7t10 -26v-319
q0 -13 -37.5 -13t-37.5 13q0 132 -83.5 203.5t-178.5 73.5l-269 6q-41 0 -41 -40v-538q0 -35 35 -35h213q101 0 101 93v95q0 13 34.5 13t34.5 -13q-6 -57 -6 -216.5t6 -211.5q0 -13 -34.5 -13t-34.5 13v84q0 87 -101 87h-213q-35 0 -35 -34v-273q0 -122 51.5 -180t116.5 -58
l238 7q89 3 168.5 77t79.5 198q0 18 37.5 18t37.5 -18v-325q0 -26 -102 -26t-332 3.5t-364 3.5t-261 -7q-13 0 -13 38t13 38q170 0 170 108v396q0 34 -33 34h-317q-29 0 -41 -24l-210 -415q-12 -24 -12 -40q0 -59 152 -59q14 0 14 -38t-14 -38q-74 7 -209 7t-216 -7
q-13 0 -13 38t13 38q121 0 179 103zM470 676h270q33 0 33 35v479q0 27 -19.5 27t-29.5 -21l-272 -491q-4 -7 -4 -15q0 -14 22 -14z" />
    <glyph glyph-name="Aacute" unicode="&#xc1;" horiz-adv-x="1398" 
d="M910 1640l-298 -157q-18 -9 -30.5 -9t-24.5 8.5t-12 20t6.5 23t16.5 17.5l270 199q5 4 13 4t20 -8t23 -23t17.5 -31.5t6.5 -24.5t-2 -12.5t-6 -6.5zM10 -7q-14 0 -14 38t14 38q97 0 129 28t66 104l377 987q6 17 6 30t-13 26.5t-13 19.5t39.5 27.5t92.5 58.5t65 37
q23 0 35 -44q26 -97 49 -166l333 -991q39 -117 192 -117q13 0 13 -38t-13 -38q-73 7 -231 7t-230 -7q-14 0 -14 38t14 38q99 0 99 68q0 23 -8 49l-101 313q-9 32 -44 32h-407q-28 0 -40 -35l-113 -314q-9 -22 -9 -40q0 -73 151 -73q14 0 14 -38t-14 -38q-85 7 -213 7
t-212 -7zM832 600q25 0 25 16q0 5 -2 11l-170 532q-6 20 -18 20t-19 -20l-197 -532q-2 -5 -2 -11q0 -16 24 -16h359z" />
    <glyph glyph-name="Abreve" unicode="&#x102;" horiz-adv-x="1398" 
d="M984 1857q0 -275 -270.5 -275t-270.5 275q8 8 19.5 8t19.5 -8q35 -164 230 -164t233 164q8 8 19.5 8t19.5 -8zM10 -7q-14 0 -14 38t14 38q97 0 129 28t66 104l377 987q6 17 6 30t-13 26.5t-13 19.5t39.5 27.5t92.5 58.5t65 37q23 0 35 -44q26 -97 49 -166l333 -991
q39 -117 192 -117q13 0 13 -38t-13 -38q-73 7 -231 7t-230 -7q-14 0 -14 38t14 38q99 0 99 68q0 23 -8 49l-101 313q-9 32 -44 32h-407q-28 0 -40 -35l-113 -314q-9 -22 -9 -40q0 -73 151 -73q14 0 14 -38t-14 -38q-85 7 -213 7t-212 -7zM832 600q25 0 25 16q0 5 -2 11
l-170 532q-6 20 -18 20t-19 -20l-197 -532q-2 -5 -2 -11q0 -16 24 -16h359z" />
    <glyph glyph-name="Acircumflex" unicode="&#xc2;" horiz-adv-x="1398" 
d="M1009 1507q3 -3 3 -8.5t-7 -14t-12 -8.5t-8 1l-246 139q-17 9 -34 9t-34 -9l-241 -139q-4 -2 -10.5 -2t-14.5 8t-8 14t4 10l260 250q22 22 44 22t44 -22zM10 -7q-14 0 -14 38t14 38q97 0 129 28t66 104l377 987q6 17 6 30t-13 26.5t-13 19.5t39.5 27.5t92.5 58.5t65 37
q23 0 35 -44q26 -97 49 -166l333 -991q39 -117 192 -117q13 0 13 -38t-13 -38q-73 7 -231 7t-230 -7q-14 0 -14 38t14 38q99 0 99 68q0 23 -8 49l-101 313q-9 32 -44 32h-407q-28 0 -40 -35l-113 -314q-9 -22 -9 -40q0 -73 151 -73q14 0 14 -38t-14 -38q-85 7 -213 7
t-212 -7zM832 600q25 0 25 16q0 5 -2 11l-170 532q-6 20 -18 20t-19 -20l-197 -532q-2 -5 -2 -11q0 -16 24 -16h359z" />
    <glyph glyph-name="Adieresis" unicode="&#xc4;" horiz-adv-x="1398" 
d="M584 1608q0 -44 -31 -75.5t-75 -31.5t-75.5 31.5t-31.5 75.5t31.5 75t75.5 31t75 -31t31 -75zM1026 1608q0 -44 -31.5 -75.5t-75.5 -31.5t-75 31.5t-31 75.5t31 75t75 31t75.5 -31t31.5 -75zM10 -7q-14 0 -14 38t14 38q97 0 129 28t66 104l377 987q6 17 6 30t-13 26.5
t-13 19.5t39.5 27.5t92.5 58.5t65 37q23 0 35 -44q26 -97 49 -166l333 -991q39 -117 192 -117q13 0 13 -38t-13 -38q-73 7 -231 7t-230 -7q-14 0 -14 38t14 38q99 0 99 68q0 23 -8 49l-101 313q-9 32 -44 32h-407q-28 0 -40 -35l-113 -314q-9 -22 -9 -40q0 -73 151 -73
q14 0 14 -38t-14 -38q-85 7 -213 7t-212 -7zM832 600q25 0 25 16q0 5 -2 11l-170 532q-6 20 -18 20t-19 -20l-197 -532q-2 -5 -2 -11q0 -16 24 -16h359z" />
    <glyph glyph-name="Agrave" unicode="&#xc0;" horiz-adv-x="1398" 
d="M818 1545q9 -8 15 -18t6 -22t-11.5 -21.5t-25.5 -9.5t-31 9l-281 151q-6 2 -10.5 9.5t-4.5 21t15 36t29 30.5t22.5 8t15.5 -5zM10 -7q-14 0 -14 38t14 38q97 0 129 28t66 104l377 987q6 17 6 30t-13 26.5t-13 19.5t39.5 27.5t92.5 58.5t65 37q23 0 35 -44q26 -97 49 -166
l333 -991q39 -117 192 -117q13 0 13 -38t-13 -38q-73 7 -231 7t-230 -7q-14 0 -14 38t14 38q99 0 99 68q0 23 -8 49l-101 313q-9 32 -44 32h-407q-28 0 -40 -35l-113 -314q-9 -22 -9 -40q0 -73 151 -73q14 0 14 -38t-14 -38q-85 7 -213 7t-212 -7zM832 600q25 0 25 16
q0 5 -2 11l-170 532q-6 20 -18 20t-19 -20l-197 -532q-2 -5 -2 -11q0 -16 24 -16h359z" />
    <glyph glyph-name="Amacron" unicode="&#x100;" horiz-adv-x="1398" 
d="M1004 1651q28 0 28 -47t-32 -47h-578q-29 0 -29 47t29 47h582zM10 -7q-14 0 -14 38t14 38q97 0 129 28t66 104l377 987q6 17 6 30t-13 26.5t-13 19.5t39.5 27.5t92.5 58.5t65 37q23 0 35 -44q26 -97 49 -166l333 -991q39 -117 192 -117q13 0 13 -38t-13 -38q-73 7 -231 7
t-230 -7q-14 0 -14 38t14 38q99 0 99 68q0 23 -8 49l-101 313q-9 32 -44 32h-407q-28 0 -40 -35l-113 -314q-9 -22 -9 -40q0 -73 151 -73q14 0 14 -38t-14 -38q-85 7 -213 7t-212 -7zM832 600q25 0 25 16q0 5 -2 11l-170 532q-6 20 -18 20t-19 -20l-197 -532q-2 -5 -2 -11
q0 -16 24 -16h359z" />
    <glyph glyph-name="Aogonek" unicode="&#x104;" horiz-adv-x="1398" 
d="M1286 -379q-42 -56 -90 -83q-49 -26 -116 -26q-88 0 -135 52q-47 53 -47 125q0 149 175 311q-109 -1 -166 -7q-14 0 -14 38t14 38q99 0 99 68q0 23 -8 49l-101 313q-9 32 -44 32h-407q-28 0 -40 -35l-113 -314q-9 -22 -9 -40q0 -73 151 -73q14 0 14 -38t-14 -38
q-85 7 -213 7t-212 -7q-14 0 -14 38t14 38q97 0 129 28t66 104l377 987q6 17 6 30t-13 26q-13 14 -13 20t40 28q39 21 92 58t65 37q23 0 35 -44q26 -97 49 -166l333 -991q39 -117 192 -117q13 0 13 -38t-13 -38q-65 6 -199 7q-130 -141 -130 -249q0 -128 123 -128
q60 0 103 34q21 -7 21 -36zM832 600q25 0 25 16q0 5 -2 11l-170 532q-6 20 -18 20t-19 -20l-197 -532q-2 -5 -2 -11q0 -16 24 -16h359z" />
    <glyph glyph-name="Aring" unicode="&#xc5;" horiz-adv-x="1398" 
d="M9 -7q-13 0 -13 38t13 38q85 0 125 25q40 26 70 107l414 1086q12 32 12 45q0 14 -37 33q-75 48 -75 148q0 86 63 133q63 48 143 48t129 -59t49 -122q0 -95 -72 -143q-30 -17 -30 -36q0 -18 8 -45l367 -1103q39 -117 192 -117q13 0 13 -38t-13 -38q-73 7 -231 7t-230 -7
q-14 0 -14 38t14 38q99 0 99 68q0 23 -8 49l-101 313q-9 32 -44 32h-407q-28 0 -40 -35l-113 -314q-9 -22 -9 -40q0 -73 151 -73q14 0 14 -38t-14 -38q-80 7 -215 7t-210 -7zM608 1513q0 -60 31 -89q31 -30 72 -30q49 0 74 36t25 83q0 53 -28 85q-28 33 -71 33
q-52 0 -77 -39q-26 -38 -26 -79zM831 600q24 0 24 14q0 7 -2 13l-169 532q-6 20 -18 20t-19 -20l-197 -532q-2 -5 -2 -13q0 -14 24 -14h359z" />
    <glyph glyph-name="Aringacute" unicode="&#x1fa;" horiz-adv-x="1398" 
d="M964 1925l-298 -157q-18 -9 -30.5 -9t-24.5 8.5t-12 20t6.5 23t16.5 17.5l270 199q5 4 13 4t20 -8t23 -23t17.5 -31.5t6.5 -24.5t-2 -12.5t-6 -6.5zM9 -7q-13 0 -13 38t13 38q85 0 125 25q40 26 70 107l414 1086q12 32 12 45q0 14 -37 33q-75 48 -75 148q0 86 63 133
q63 48 143 48t129 -59t49 -122q0 -95 -72 -143q-30 -17 -30 -36q0 -18 8 -45l367 -1103q39 -117 192 -117q13 0 13 -38t-13 -38q-73 7 -231 7t-230 -7q-14 0 -14 38t14 38q99 0 99 68q0 23 -8 49l-101 313q-9 32 -44 32h-407q-28 0 -40 -35l-113 -314q-9 -22 -9 -40
q0 -73 151 -73q14 0 14 -38t-14 -38q-80 7 -215 7t-210 -7zM608 1513q0 -60 31 -89q31 -30 72 -30q49 0 74 36t25 83q0 53 -28 85q-28 33 -71 33q-52 0 -77 -39q-26 -38 -26 -79zM831 600q24 0 24 14q0 7 -2 13l-169 532q-6 20 -18 20t-19 -20l-197 -532q-2 -5 -2 -13
q0 -14 24 -14h359z" />
    <glyph glyph-name="Atilde" unicode="&#xc3;" horiz-adv-x="1398" 
d="M373 1525q29 43 50.5 68.5t67.5 53t92 27.5t135.5 -31.5t123.5 -31.5q61 0 133 72q2 2 6.5 2t13 -7t8.5 -11.5t-1 -6.5q-104 -158 -213 -158q-47 0 -138 33t-142 33t-109 -64q-3 -3 -7.5 -3t-12.5 8t-8 11t1 5zM10 -7q-14 0 -14 38t14 38q97 0 129 28t66 104l377 987
q6 17 6 30t-13 26.5t-13 19.5t39.5 27.5t92.5 58.5t65 37q23 0 35 -44q26 -97 49 -166l333 -991q39 -117 192 -117q13 0 13 -38t-13 -38q-73 7 -231 7t-230 -7q-14 0 -14 38t14 38q99 0 99 68q0 23 -8 49l-101 313q-9 32 -44 32h-407q-28 0 -40 -35l-113 -314q-9 -22 -9 -40
q0 -73 151 -73q14 0 14 -38t-14 -38q-85 7 -213 7t-212 -7zM832 600q25 0 25 16q0 5 -2 11l-170 532q-6 20 -18 20t-19 -20l-197 -532q-2 -5 -2 -11q0 -16 24 -16h359z" />
    <glyph glyph-name="B" unicode="B" horiz-adv-x="1250" 
d="M271 186v986q0 110 -189 110q-14 0 -14 38t14 38q114 -6 240 -6t181 3t126 3q173 0 290 -81t117 -242q0 -199 -196 -290q-15 -7 -15 -13q0 -7 15 -12q108 -35 198.5 -127.5t90.5 -245.5q0 -142 -104.5 -248t-395.5 -106q-64 0 -140 3.5t-196 3.5t-202 -7q-13 0 -13 38
t13 38q180 0 180 117zM431 789q0 -36 79 -36q354 0 354 279q0 265 -381 265q-52 0 -52 -67v-441zM431 277q0 -220 184 -220q333 0 333 315q0 211 -222 289q-87 29 -260 30q-35 0 -35 -30v-384z" />
    <glyph glyph-name="C" unicode="C" horiz-adv-x="1344" 
d="M91 647q0 223 95.5 387.5t248.5 257.5t377 93q91 0 177 -15t241 -43q29 -134 29 -311q-4 -16 -35.5 -16t-33.5 14q-28 300 -407 300q-204 0 -352.5 -184t-148.5 -423q0 -283 145 -471t353 -188q354 0 452 269q4 11 29 11t31.5 -5.5t6.5 -16.5q-37 -191 -90 -270
q-32 -4 -77 -17q-147 -46 -376 -46q-178 0 -329.5 86t-243.5 237.5t-92 350.5z" />
    <glyph glyph-name="Cacute" unicode="&#x106;" horiz-adv-x="1344" 
d="M1040 1640l-298 -157q-18 -9 -30.5 -9t-24.5 8.5t-12 20t6.5 23t16.5 17.5l270 199q5 4 13 4t20 -8t23 -23t17.5 -31.5t6.5 -24.5t-2 -12.5t-6 -6.5zM91 647q0 223 95.5 387.5t248.5 257.5t377 93q91 0 177 -15t241 -43q29 -134 29 -311q-4 -16 -35.5 -16t-33.5 14
q-28 300 -407 300q-204 0 -352.5 -184t-148.5 -423q0 -283 145 -471t353 -188q354 0 452 269q4 11 29 11t31.5 -5.5t6.5 -16.5q-37 -191 -90 -270q-32 -4 -77 -17q-147 -46 -376 -46q-178 0 -329.5 86t-243.5 237.5t-92 350.5z" />
    <glyph glyph-name="CapAcute" horiz-adv-x="638" 
d="M488 1640l-298 -157q-18 -9 -30.5 -9t-24.5 8.5t-12 20t6.5 23t16.5 17.5l270 199q5 4 13 4t20 -8t23 -23t17.5 -31.5t6.5 -24.5t-2 -12.5t-6 -6.5z" />
    <glyph glyph-name="CapAcute.comb" 
d="M224 1640l-298 -157q-18 -9 -31 -9q-12 0 -24 8.5t-12 21.5q0 10 7 21t16 18l270 199q5 4 12 4q9 0 21 -8t23 -23t17.5 -31.5t6.5 -26.5q0 -6 -2 -10.5t-6 -6.5z" />
    <glyph glyph-name="CapCaron" horiz-adv-x="795" 
d="M696 1740l-260 -249q-23 -22 -44.5 -22t-43.5 22l-260 249q-4 4 -4 10t8 14.5t14.5 8.5t10.5 -2l241 -139q16 -9 33.5 -9t34.5 9l246 139q2 1 7.5 1t12.5 -9t7 -14.5t-3 -8.5z" />
    <glyph glyph-name="CapCaron.comb" 
d="M311 1740l-260 -249q-23 -22 -44.5 -22t-43.5 22l-260 249q-4 4 -4 10t8 14.5t14.5 8.5t10.5 -2l241 -139q16 -9 33.5 -9t34.5 9l246 139q2 1 7.5 1t12.5 -9t7 -14.5t-3 -8.5z" />
    <glyph glyph-name="CapCircumflex" horiz-adv-x="794" 
d="M696 1507q3 -3 3 -8.5t-7 -14t-12 -8.5t-8 1l-246 139q-17 9 -34 9t-34 -9l-241 -139q-4 -2 -10.5 -2t-14.5 8t-8 14t4 10l260 250q22 22 44 22t44 -22z" />
    <glyph glyph-name="CapCircumflex.comb" 
d="M308 1506q3 -3 3 -8.5t-7 -14t-12 -8.5t-8 1l-246 139q-17 9 -34 9t-34 -9l-241 -139q-4 -2 -10.5 -2t-14.5 8t-8 14t4 10l260 250q22 22 44 22t44 -22z" />
    <glyph glyph-name="CapDieresis" horiz-adv-x="839" 
d="M308 1608q0 -44 -31 -75.5t-75 -31.5t-75.5 31.5t-31.5 75.5t31.5 75t75.5 31t75 -31t31 -75zM750 1608q0 -44 -31.5 -75.5t-75.5 -31.5t-75 31.5t-31 75.5t31 75t75 31t75.5 -31t31.5 -75z" />
    <glyph glyph-name="CapDieresis.comb" 
d="M-117 1607q0 -44 -31 -75.5t-75 -31.5t-75.5 31.5t-31.5 75.5t31.5 75t75.5 31t75 -31t31 -75zM325 1607q0 -44 -31.5 -75.5t-75.5 -31.5t-75 31.5t-31 75.5t31 75t75 31t75.5 -31t31.5 -75z" />
    <glyph glyph-name="CapDoubleAcute" horiz-adv-x="922" 
d="M828 1640l-298 -157q-18 -9 -31 -9q-12 0 -24 8.5t-12 21.5q0 10 6.5 21.5t16.5 17.5l270 199q5 4 12 4q9 0 21 -8t23 -23t17.5 -31.5t6.5 -26.5q0 -6 -2 -10.5t-6 -6.5zM488 1640l-298 -157q-18 -9 -31 -9q-12 0 -24 8.5t-12 21.5q0 10 6.5 21.5t16.5 17.5l270 199
q5 4 12 4q9 0 21 -8t23 -23t17.5 -31.5t6.5 -26.5q0 -6 -2 -10.5t-6 -6.5z" />
    <glyph glyph-name="CapDoubleAcute.comb" 
d="M460 1640l-298 -157q-18 -9 -31 -9q-12 0 -24 8.5t-12 21.5q0 10 6.5 21.5t16.5 17.5l270 199q5 4 12 4q9 0 21 -8t23 -23t17.5 -31.5t6.5 -26.5q0 -6 -2 -10.5t-6 -6.5zM120 1640l-298 -157q-18 -9 -31 -9q-12 0 -24 8.5t-12 21.5q0 10 6.5 21.5t16.5 17.5l270 199
q5 4 12 4q9 0 21 -8t23 -23t17.5 -31.5t6.5 -26.5q0 -6 -2 -10.5t-6 -6.5z" />
    <glyph glyph-name="CapDoubleGrave" horiz-adv-x="884" 
d="M777 1545q9 -8 15 -18t6 -21q0 -13 -11.5 -22.5t-25.5 -9.5t-31 9l-281 151q-6 2 -10.5 9.5t-4.5 16.5q0 18 15 40.5t29 30.5t23 8q8 0 15 -5zM433 1545q9 -8 15 -18t6 -21q0 -13 -11.5 -22.5t-25.5 -9.5t-31 9l-281 151q-6 2 -10.5 9.5t-4.5 16.5q0 18 15 40.5t29 30.5
t23 8q8 0 15 -5z" />
    <glyph glyph-name="CapDoubleGrave.comb" 
d="M222 1545q9 -8 15 -18t6 -21q0 -13 -11.5 -22.5t-25.5 -9.5t-31 9l-281 151q-6 2 -10.5 9.5t-4.5 16.5q0 18 15 40.5t29 30.5t23 8q8 0 15 -5zM-122 1545q9 -8 15 -18t6 -21q0 -13 -11.5 -22.5t-25.5 -9.5t-31 9l-281 151q-6 2 -10.5 9.5t-4.5 16.5q0 18 15 40.5t29 30.5
t23 8q8 0 15 -5z" />
    <glyph glyph-name="CapGrave" horiz-adv-x="804" 
d="M629 1545q9 -8 15 -18t6 -22t-11.5 -21.5t-25.5 -9.5t-31 9l-281 151q-6 2 -10.5 9.5t-4.5 21t15 36t29 30.5t22.5 8t15.5 -5z" />
    <glyph glyph-name="CapGrave.comb" 
d="M153 1545q9 -8 15 -18t6 -22t-11.5 -21.5t-25.5 -9.5t-31 9l-281 151q-6 2 -10.5 9.5t-4.5 21t15 36t29 30.5t22.5 8t15.5 -5z" />
    <glyph glyph-name="CapMacron" horiz-adv-x="756" 
d="M660 1651q28 0 28 -47t-32 -47h-578q-29 0 -29 47t29 47h582z" />
    <glyph glyph-name="CapMacron.comb" 
d="M306 1649q28 0 28 -47t-32 -47h-578q-29 0 -29 47t29 47h582z" />
    <glyph glyph-name="CapTilde" horiz-adv-x="827" 
d="M77 1525q29 43 50.5 68.5t67.5 53t92 27.5t135.5 -31.5t123.5 -31.5q61 0 133 72q2 2 6.5 2t13 -7t8.5 -11.5t-1 -6.5q-104 -158 -213 -158q-47 0 -138 33t-142 33t-109 -64q-3 -3 -7.5 -3t-12.5 8t-8 11t1 5z" />
    <glyph glyph-name="CapTilde.comb" 
d="M-307 1524q29 43 50.5 68.5t67.5 53t92 27.5t135.5 -31.5t123.5 -31.5q61 0 133 72q2 2 6.5 2t13 -7t8.5 -11.5t-1 -6.5q-104 -158 -213 -158q-47 0 -138 33t-142 33t-109 -64q-3 -3 -7.5 -3t-12.5 8t-8 11t1 5z" />
    <glyph glyph-name="Ccaron" unicode="&#x10c;" horiz-adv-x="1344" 
d="M1096 1740l-260 -249q-23 -22 -44.5 -22t-43.5 22l-260 249q-4 4 -4 10t8 14.5t14.5 8.5t10.5 -2l241 -139q16 -9 33.5 -9t34.5 9l246 139q2 1 7.5 1t12.5 -9t7 -14.5t-3 -8.5zM91 647q0 223 95.5 387.5t248.5 257.5t377 93q91 0 177 -15t241 -43q29 -134 29 -311
q-4 -16 -35.5 -16t-33.5 14q-28 300 -407 300q-204 0 -352.5 -184t-148.5 -423q0 -283 145 -471t353 -188q354 0 452 269q4 11 29 11t31.5 -5.5t6.5 -16.5q-37 -191 -90 -270q-32 -4 -77 -17q-147 -46 -376 -46q-178 0 -329.5 86t-243.5 237.5t-92 350.5z" />
    <glyph glyph-name="Ccedilla" unicode="&#xc7;" horiz-adv-x="1344" 
d="M858 -284q0 -83 -67.5 -132t-145.5 -49q-119 0 -119 72q0 53 51 53q23 0 58.5 -29.5t49.5 -29.5q56 0 56 63q0 67 -97 123q-24 12 -24 25.5t9 27.5l61 91q10 15 10 29.5t-24 16.5q-117 11 -258.5 89.5t-234 230t-92.5 350.5q0 223 95.5 387.5t248.5 257.5t377 93
q111 0 200 -17.5t218 -40.5q29 -134 29 -311q0 -16 -33.5 -16t-35.5 14q-28 300 -407 300q-204 0 -352.5 -184t-148.5 -423q0 -283 145 -471t353 -188q354 0 452 269q4 11 28.5 11t31.5 -5.5t7 -16.5q-37 -191 -90 -270q-32 -4 -77 -17q-133 -41 -306 -45q-35 -1 -53 -26
l-20 -28q-10 -12 -10 -25t19 -25q96 -71 96 -154z" />
    <glyph glyph-name="Ccircumflex" unicode="&#x108;" horiz-adv-x="1344" 
d="M1084 1507q3 -3 3 -8.5t-7 -14t-12 -8.5t-8 1l-246 139q-17 9 -34 9t-34 -9l-241 -139q-4 -2 -10.5 -2t-14.5 8t-8 14t4 10l260 250q22 22 44 22t44 -22zM91 647q0 223 95.5 387.5t248.5 257.5t377 93q91 0 177 -15t241 -43q29 -134 29 -311q-4 -16 -35.5 -16t-33.5 14
q-28 300 -407 300q-204 0 -352.5 -184t-148.5 -423q0 -283 145 -471t353 -188q354 0 452 269q4 11 29 11t31.5 -5.5t6.5 -16.5q-37 -191 -90 -270q-32 -4 -77 -17q-147 -46 -376 -46q-178 0 -329.5 86t-243.5 237.5t-92 350.5z" />
    <glyph glyph-name="Cdotaccent" unicode="&#x10a;" horiz-adv-x="1344" 
d="M908 1660q0 -57 -48 -90q-27 -19 -61 -19q-60 0 -90 50q-16 27 -16 59q0 63 49 91q26 15 57 15q59 0 91 -47q18 -27 18 -59zM91 647q0 223 95.5 387.5t248.5 257.5t377 93q91 0 177 -15t241 -43q29 -134 29 -311q-4 -16 -35.5 -16t-33.5 14q-28 300 -407 300
q-204 0 -352.5 -184t-148.5 -423q0 -283 145 -471t353 -188q354 0 452 269q4 11 29 11t31.5 -5.5t6.5 -16.5q-37 -191 -90 -270q-32 -4 -77 -17q-147 -46 -376 -46q-178 0 -329.5 86t-243.5 237.5t-92 350.5z" />
    <glyph glyph-name="D" unicode="D" horiz-adv-x="1525" 
d="M271 186v986q0 110 -189 110q-14 0 -14 38t14 38q140 -6 240 -6t209 3t172 3q311 0 520 -167t209 -463q0 -322 -183.5 -528.5t-497.5 -206.5q-48 0 -194.5 3.5t-244.5 3.5t-221 -7q-13 0 -13 37.5t13 38.5q180 0 180 117zM431 298q0 -149 60 -197t191 -48
q256 0 407.5 181t151.5 482q0 252 -177 416.5t-443 164.5q-95 0 -125.5 -8.5t-47.5 -36t-17 -71.5v-883z" />
    <glyph glyph-name="Dcaron" unicode="&#x10e;" horiz-adv-x="1525" 
d="M1028 1740l-260 -249q-23 -22 -44.5 -22t-43.5 22l-260 249q-4 4 -4 10t8 14.5t14.5 8.5t10.5 -2l241 -139q16 -9 33.5 -9t34.5 9l246 139q2 1 7.5 1t12.5 -9t7 -14.5t-3 -8.5zM271 186v986q0 110 -189 110q-14 0 -14 38t14 38q140 -6 240 -6t209 3t172 3q311 0 520 -167
t209 -463q0 -322 -183.5 -528.5t-497.5 -206.5q-48 0 -194.5 3.5t-244.5 3.5t-221 -7q-13 0 -13 37.5t13 38.5q180 0 180 117zM431 298q0 -149 60 -197t191 -48q256 0 407.5 181t151.5 482q0 252 -177 416.5t-443 164.5q-95 0 -125.5 -8.5t-47.5 -36t-17 -71.5v-883z" />
    <glyph glyph-name="Dcroat" unicode="&#x110;" horiz-adv-x="1525" 
d="M271 186v414q0 34 -34 34h-172q-13 0 -13 38t13 38h172q34 0 34 35v427q0 110 -189 110q-14 0 -14 38t14 38q140 -6 238 -6t204.5 3t178.5 3q303 0 516 -164t213 -465q0 -349 -193.5 -542.5t-487.5 -193.5q-68 0 -200.5 3.5t-231.5 3.5t-228 -7q-13 0 -13 38t13 38
q180 0 180 117zM431 298q0 -142 52 -193.5t199 -51.5q243 0 401 178t158 485q0 240 -170 410.5t-450 170.5q-120 0 -155 -23.5t-35 -92.5v-436q0 -35 35 -35h221q13 0 13 -38t-13 -38h-221q-35 0 -35 -34v-302z" />
    <glyph glyph-name="Delta" unicode="&#x2206;" horiz-adv-x="1194" 
d="M119 0q-65 0 -65 44q0 15 8 36l491 1284q9 23 66 23t65 -23l432 -1284q7 -20 7 -35q0 -45 -59 -45h-945zM222 238q0 -73 150 -73h406q98 0 98 68q0 24 -8 49l-280 877q-6 20 -18 20t-19 -20l-321 -881q-8 -25 -8 -40z" />
    <glyph glyph-name="E" unicode="E" horiz-adv-x="1235" 
d="M271 177v995q0 110 -187 110q-14 0 -14 38t14 38q140 -6 270 -6t350.5 3t312.5 3q51 0 61.5 -7t10.5 -20v-321q0 -17 -37.5 -17t-37.5 17q0 266 -258 272l-284 7q-41 0 -41 -48v-532q0 -33 28 -33h206q78 0 97.5 29t19.5 88v74q0 13 35 13t35 -13q-8 -71 -8 -214t8 -223
q0 -13 -35 -13t-35 13v82q0 43 -19.5 69t-97.5 26h-209q-25 0 -25 -31v-314q0 -113 65 -168q38 -32 91 -32l235 7q259 8 259 271q0 17 37.5 17t37.5 -17v-317q0 -24 -22 -27t-51 -3q-116 0 -355.5 3.5t-368.5 3.5t-275 -7q-14 0 -14 37.5t14 38.5q187 0 187 108z" />
    <glyph glyph-name="Eacute" unicode="&#xc9;" horiz-adv-x="1235" 
d="M852 1640l-298 -157q-18 -9 -30.5 -9t-24.5 8.5t-12 20t6.5 23t16.5 17.5l270 199q5 4 13 4t20 -8t23 -23t17.5 -31.5t6.5 -24.5t-2 -12.5t-6 -6.5zM271 177v995q0 110 -187 110q-14 0 -14 38t14 38q140 -6 270 -6t350.5 3t312.5 3q51 0 61.5 -7t10.5 -20v-321
q0 -17 -37.5 -17t-37.5 17q0 266 -258 272l-284 7q-41 0 -41 -48v-532q0 -33 28 -33h206q78 0 97.5 29t19.5 88v74q0 13 35 13t35 -13q-8 -71 -8 -214t8 -223q0 -13 -35 -13t-35 13v82q0 43 -19.5 69t-97.5 26h-209q-25 0 -25 -31v-314q0 -113 65 -168q38 -32 91 -32l235 7
q259 8 259 271q0 17 37.5 17t37.5 -17v-317q0 -24 -22 -27t-51 -3q-116 0 -355.5 3.5t-368.5 3.5t-275 -7q-14 0 -14 37.5t14 38.5q187 0 187 108z" />
    <glyph glyph-name="Ebreve" unicode="&#x114;" horiz-adv-x="1235" 
d="M904 1857q0 -275 -270.5 -275t-270.5 275q8 8 19.5 8t19.5 -8q35 -164 230 -164t233 164q8 8 19.5 8t19.5 -8zM271 177v995q0 110 -187 110q-14 0 -14 38t14 38q140 -6 270 -6t350.5 3t312.5 3q51 0 61.5 -7t10.5 -20v-321q0 -17 -37.5 -17t-37.5 17q0 266 -258 272
l-284 7q-41 0 -41 -48v-532q0 -33 28 -33h206q78 0 97.5 29t19.5 88v74q0 13 35 13t35 -13q-8 -71 -8 -214t8 -223q0 -13 -35 -13t-35 13v82q0 43 -19.5 69t-97.5 26h-209q-25 0 -25 -31v-314q0 -113 65 -168q38 -32 91 -32l235 7q259 8 259 271q0 17 37.5 17t37.5 -17v-317
q0 -24 -22 -27t-51 -3q-116 0 -355.5 3.5t-368.5 3.5t-275 -7q-14 0 -14 37.5t14 38.5q187 0 187 108z" />
    <glyph glyph-name="Ecaron" unicode="&#x11a;" horiz-adv-x="1235" 
d="M948 1740l-260 -249q-23 -22 -44.5 -22t-43.5 22l-260 249q-4 4 -4 10t8 14.5t14.5 8.5t10.5 -2l241 -139q16 -9 33.5 -9t34.5 9l246 139q2 1 7.5 1t12.5 -9t7 -14.5t-3 -8.5zM271 177v995q0 110 -187 110q-14 0 -14 38t14 38q140 -6 270 -6t350.5 3t312.5 3
q51 0 61.5 -7t10.5 -20v-321q0 -17 -37.5 -17t-37.5 17q0 266 -258 272l-284 7q-41 0 -41 -48v-532q0 -33 28 -33h206q78 0 97.5 29t19.5 88v74q0 13 35 13t35 -13q-8 -71 -8 -214t8 -223q0 -13 -35 -13t-35 13v82q0 43 -19.5 69t-97.5 26h-209q-25 0 -25 -31v-314
q0 -113 65 -168q38 -32 91 -32l235 7q259 8 259 271q0 17 37.5 17t37.5 -17v-317q0 -24 -22 -27t-51 -3q-116 0 -355.5 3.5t-368.5 3.5t-275 -7q-14 0 -14 37.5t14 38.5q187 0 187 108z" />
    <glyph glyph-name="Ecircumflex" unicode="&#xca;" horiz-adv-x="1235" 
d="M936 1507q3 -3 3 -8.5t-7 -14t-12 -8.5t-8 1l-246 139q-17 9 -34 9t-34 -9l-241 -139q-4 -2 -10.5 -2t-14.5 8t-8 14t4 10l260 250q22 22 44 22t44 -22zM271 177v995q0 110 -187 110q-14 0 -14 38t14 38q140 -6 270 -6t350.5 3t312.5 3q51 0 61.5 -7t10.5 -20v-321
q0 -17 -37.5 -17t-37.5 17q0 266 -258 272l-284 7q-41 0 -41 -48v-532q0 -33 28 -33h206q78 0 97.5 29t19.5 88v74q0 13 35 13t35 -13q-8 -71 -8 -214t8 -223q0 -13 -35 -13t-35 13v82q0 43 -19.5 69t-97.5 26h-209q-25 0 -25 -31v-314q0 -113 65 -168q38 -32 91 -32l235 7
q259 8 259 271q0 17 37.5 17t37.5 -17v-317q0 -24 -22 -27t-51 -3q-116 0 -355.5 3.5t-368.5 3.5t-275 -7q-14 0 -14 37.5t14 38.5q187 0 187 108z" />
    <glyph glyph-name="Edieresis" unicode="&#xcb;" horiz-adv-x="1235" 
d="M512 1608q0 -44 -31 -75.5t-75 -31.5t-75.5 31.5t-31.5 75.5t31.5 75t75.5 31t75 -31t31 -75zM954 1608q0 -44 -31.5 -75.5t-75.5 -31.5t-75 31.5t-31 75.5t31 75t75 31t75.5 -31t31.5 -75zM271 177v995q0 110 -187 110q-14 0 -14 38t14 38q140 -6 270 -6t350.5 3
t312.5 3q51 0 61.5 -7t10.5 -20v-321q0 -17 -37.5 -17t-37.5 17q0 266 -258 272l-284 7q-41 0 -41 -48v-532q0 -33 28 -33h206q78 0 97.5 29t19.5 88v74q0 13 35 13t35 -13q-8 -71 -8 -214t8 -223q0 -13 -35 -13t-35 13v82q0 43 -19.5 69t-97.5 26h-209q-25 0 -25 -31v-314
q0 -113 65 -168q38 -32 91 -32l235 7q259 8 259 271q0 17 37.5 17t37.5 -17v-317q0 -24 -22 -27t-51 -3q-116 0 -355.5 3.5t-368.5 3.5t-275 -7q-14 0 -14 37.5t14 38.5q187 0 187 108z" />
    <glyph glyph-name="Edotaccent" unicode="&#x116;" horiz-adv-x="1235" 
d="M742 1660q0 -57 -48 -90q-27 -19 -61 -19q-60 0 -90 50q-16 27 -16 59q0 63 49 91q26 15 57 15q59 0 91 -47q18 -27 18 -59zM271 177v995q0 110 -187 110q-14 0 -14 38t14 38q140 -6 270 -6t350.5 3t312.5 3q51 0 61.5 -7t10.5 -20v-321q0 -17 -37.5 -17t-37.5 17
q0 266 -258 272l-284 7q-41 0 -41 -48v-532q0 -33 28 -33h206q78 0 97.5 29t19.5 88v74q0 13 35 13t35 -13q-8 -71 -8 -214t8 -223q0 -13 -35 -13t-35 13v82q0 43 -19.5 69t-97.5 26h-209q-25 0 -25 -31v-314q0 -113 65 -168q38 -32 91 -32l235 7q259 8 259 271
q0 17 37.5 17t37.5 -17v-317q0 -24 -22 -27t-51 -3q-116 0 -355.5 3.5t-368.5 3.5t-275 -7q-14 0 -14 37.5t14 38.5q187 0 187 108z" />
    <glyph glyph-name="Egrave" unicode="&#xc8;" horiz-adv-x="1235" 
d="M779 1545q9 -8 15 -18t6 -22t-11.5 -21.5t-25.5 -9.5t-31 9l-281 151q-6 2 -10.5 9.5t-4.5 21t15 36t29 30.5t22.5 8t15.5 -5zM271 177v995q0 110 -187 110q-14 0 -14 38t14 38q140 -6 270 -6t350.5 3t312.5 3q51 0 61.5 -7t10.5 -20v-321q0 -17 -37.5 -17t-37.5 17
q0 266 -258 272l-284 7q-41 0 -41 -48v-532q0 -33 28 -33h206q78 0 97.5 29t19.5 88v74q0 13 35 13t35 -13q-8 -71 -8 -214t8 -223q0 -13 -35 -13t-35 13v82q0 43 -19.5 69t-97.5 26h-209q-25 0 -25 -31v-314q0 -113 65 -168q38 -32 91 -32l235 7q259 8 259 271
q0 17 37.5 17t37.5 -17v-317q0 -24 -22 -27t-51 -3q-116 0 -355.5 3.5t-368.5 3.5t-275 -7q-14 0 -14 37.5t14 38.5q187 0 187 108z" />
    <glyph glyph-name="Emacron" unicode="&#x112;" horiz-adv-x="1235" 
d="M924 1651q28 0 28 -47t-32 -47h-578q-29 0 -29 47t29 47h582zM271 177v995q0 110 -187 110q-14 0 -14 38t14 38q140 -6 270 -6t350.5 3t312.5 3q51 0 61.5 -7t10.5 -20v-321q0 -17 -37.5 -17t-37.5 17q0 266 -258 272l-284 7q-41 0 -41 -48v-532q0 -33 28 -33h206
q78 0 97.5 29t19.5 88v74q0 13 35 13t35 -13q-8 -71 -8 -214t8 -223q0 -13 -35 -13t-35 13v82q0 43 -19.5 69t-97.5 26h-209q-25 0 -25 -31v-314q0 -113 65 -168q38 -32 91 -32l235 7q259 8 259 271q0 17 37.5 17t37.5 -17v-317q0 -24 -22 -27t-51 -3q-116 0 -355.5 3.5
t-368.5 3.5t-275 -7q-14 0 -14 37.5t14 38.5q187 0 187 108z" />
    <glyph glyph-name="Eng" unicode="&#x14a;" horiz-adv-x="1482" 
d="M1287 120q0 -178 -9 -253q-18 -151 -97 -268t-239 -117q-47 0 -76 25.5t-29 64.5q0 65 72 65q43 0 82.5 -36.5t60.5 -36.5q50 0 108.5 90t58.5 186v181l-858 1083q-10 13 -21 13q-12 0 -12 -18v-913q0 -117 159 -117q15 0 15 -38t-15 -38q-81 7 -190.5 7t-206.5 -7
q-15 0 -15 38t15 38q167 0 167 117v924q0 106 -45.5 141.5t-142.5 35.5q-15 0 -15 38t15 38q46 -5 163 -5t127 -5q34 -16 55 -44l758 -977q10 -13 25 -13q22 0 22 33v819q0 116 -171 116q-14 0 -14 38t14 38q46 -5 180.5 -5t194.5 5q14 0 14 -38t-14 -38q-91 0 -113.5 -31.5
t-22.5 -84.5v-1051z" />
    <glyph glyph-name="Eogonek" unicode="&#x118;" horiz-adv-x="1235" 
d="M1102 -379q-42 -56 -90 -83q-49 -26 -116 -26q-88 0 -135 52q-47 53 -47 125q0 123 120 255q20 22 20 35q0 16 -32 16q-44 1 -94 1q-240 4 -369 4t-275 -7q-14 0 -14 37q0 38 14 39q187 0 187 108v995q0 110 -187 110q-14 0 -14 38t14 38q140 -6 270 -6t350 3
q221 3 313 3q51 0 61 -7q11 -7 11 -20v-321q0 -17 -37 -17q-38 0 -38 17q0 266 -258 272l-284 7q-41 0 -41 -48v-532q0 -33 28 -33h206q78 0 97 29q20 29 20 88v74q0 13 35 13t35 -13q-8 -71 -8 -214t8 -223q0 -13 -35 -13t-35 13v82q0 43 -20 69q-19 26 -97 26h-209
q-25 0 -25 -31v-314q0 -113 65 -168q38 -32 91 -32l235 7q259 8 259 271q0 17 37 17q38 0 38 -17v-317q0 -24 -22 -27t-51 -3q-120 0 -182 -102q-46 -76 -46 -140q0 -128 123 -128q60 0 103 34q21 -7 21 -36z" />
    <glyph glyph-name="Eth" unicode="&#xd0;" horiz-adv-x="1525" 
d="M271 186v414q0 34 -34 34h-172q-13 0 -13 38t13 38h172q34 0 34 35v427q0 110 -189 110q-14 0 -14 38t14 38q140 -6 238 -6t204.5 3t178.5 3q303 0 516 -164t213 -465q0 -349 -193.5 -542.5t-487.5 -193.5q-68 0 -200.5 3.5t-231.5 3.5t-228 -7q-13 0 -13 38t13 38
q180 0 180 117zM431 298q0 -142 52 -193.5t199 -51.5q243 0 401 178t158 485q0 240 -170 410.5t-450 170.5q-120 0 -155 -23.5t-35 -92.5v-436q0 -35 35 -35h221q13 0 13 -38t-13 -38h-221q-35 0 -35 -34v-302z" />
    <glyph glyph-name="Euro" unicode="&#x20ac;" horiz-adv-x="1261" 
d="M959 511h-655q48 -213 182 -327q111 -94 259 -94q138 0 230 40q45 19 166 90q6 4 9 4q19 0 31 -24q4 -8 4 -16q0 -9 -8 -16q-137 -113 -238 -154q-99 -41 -211 -41q-219 0 -392 132q-162 124 -216 313q-13 46 -19 93h-86q-20 0 -23 44l2 31q5 30 21 30h75v51q0 45 1 66
h-76q-20 0 -23 44l2 31q5 30 21 30h91q51 217 197 366q178 181 428 181q175 0 315 -71q61 -30 95 -67q45 -50 45 -86q0 -46 -44 -69q-21 -11 -45 -11q-42 0 -84 47l-57 68l-6 6q-75 76 -132 97q-41 15 -92 15q-198 0 -322 -175l-32 -52q-61 -111 -79 -249h666q19 0 22 -44
l-2 -32l-7 -20q-6 -9 -13 -9h-675v-21q0 -65 3 -96h672q19 0 22 -44l-2 -32l-7 -20q-6 -9 -13 -9z" />
    <glyph glyph-name="F" unicode="F" horiz-adv-x="1170" 
d="M271 186v986q0 110 -187 110q-14 0 -14 38t14 38q116 -5 288 -5t331 2.5t332 2.5q70 -1 73 -19v-329q0 -18 -38 -18t-38 18q0 255 -259 262l-301 10q-41 0 -41 -41v-494q0 -31 28 -31h164q75 0 96 30t21 100v117q0 13 35 13t35 -13q-8 -70 -8 -283.5t8 -284.5
q0 -13 -35 -13t-35 13v117q0 70 -25 99t-92 29h-167q-25 0 -25 -25v-429q0 -117 188 -117q13 0 13 -38t-13 -38q-89 7 -265 7t-263 -7q-13 0 -13 38t13 38q180 0 180 117z" />
    <glyph glyph-name="G" unicode="G" horiz-adv-x="1409" 
d="M91 667q0 242 180.5 480t499.5 238q164 0 305.5 -29t155.5 -29q19 -49 29 -308q0 -18 -34 -18t-35 13q0 111 -103.5 205.5t-312.5 94.5q-229 0 -361.5 -181.5t-132.5 -406.5q0 -306 149 -492t344 -186t273 47q22 16 22 78v190q0 115 -228 115q-14 0 -14 38t14 38
q56 -6 264 -6t265 6q15 0 15 -38t-15 -38q-141 0 -141 -115v-219q0 -67 37 -67q14 0 14 -23t-13 -23t-62.5 -5.5t-156 -24t-155.5 -23.5t-126 -5q-146 0 -328 86t-265.5 262.5t-83.5 345.5z" />
    <glyph glyph-name="Gbreve" unicode="&#x11e;" horiz-adv-x="1409" 
d="M1042 1857q0 -275 -270.5 -275t-270.5 275q8 8 19.5 8t19.5 -8q35 -164 230 -164t233 164q8 8 19.5 8t19.5 -8zM91 667q0 242 180.5 480t499.5 238q164 0 305.5 -29t155.5 -29q19 -49 29 -308q0 -18 -34 -18t-35 13q0 111 -103.5 205.5t-312.5 94.5q-229 0 -361.5 -181.5
t-132.5 -406.5q0 -306 149 -492t344 -186t273 47q22 16 22 78v190q0 115 -228 115q-14 0 -14 38t14 38q56 -6 264 -6t265 6q15 0 15 -38t-15 -38q-141 0 -141 -115v-219q0 -67 37 -67q14 0 14 -23t-13 -23t-62.5 -5.5t-156 -24t-155.5 -23.5t-126 -5q-146 0 -328 86
t-265.5 262.5t-83.5 345.5z" />
    <glyph glyph-name="Gcaron" unicode="&#x1e6;" horiz-adv-x="1409" 
d="M1072 1740l-260 -249q-23 -22 -44.5 -22t-43.5 22l-260 249q-4 4 -4 10t8 14.5t14.5 8.5t10.5 -2l241 -139q16 -9 33.5 -9t34.5 9l246 139q2 1 7.5 1t12.5 -9t7 -14.5t-3 -8.5zM91 667q0 242 180.5 480t499.5 238q164 0 305.5 -29t155.5 -29q19 -49 29 -308
q0 -18 -34 -18t-35 13q0 111 -103.5 205.5t-312.5 94.5q-229 0 -361.5 -181.5t-132.5 -406.5q0 -306 149 -492t344 -186t273 47q22 16 22 78v190q0 115 -228 115q-14 0 -14 38t14 38q56 -6 264 -6t265 6q15 0 15 -38t-15 -38q-141 0 -141 -115v-219q0 -67 37 -67
q14 0 14 -23t-13 -23t-62.5 -5.5t-156 -24t-155.5 -23.5t-126 -5q-146 0 -328 86t-265.5 262.5t-83.5 345.5z" />
    <glyph glyph-name="Gcircumflex" unicode="&#x11c;" horiz-adv-x="1409" 
d="M1076 1507q3 -3 3 -8.5t-7 -14t-12 -8.5t-8 1l-246 139q-17 9 -34 9t-34 -9l-241 -139q-4 -2 -10.5 -2t-14.5 8t-8 14t4 10l260 250q22 22 44 22t44 -22zM91 667q0 242 180.5 480t499.5 238q164 0 305.5 -29t155.5 -29q19 -49 29 -308q0 -18 -34 -18t-35 13
q0 111 -103.5 205.5t-312.5 94.5q-229 0 -361.5 -181.5t-132.5 -406.5q0 -306 149 -492t344 -186t273 47q22 16 22 78v190q0 115 -228 115q-14 0 -14 38t14 38q56 -6 264 -6t265 6q15 0 15 -38t-15 -38q-141 0 -141 -115v-219q0 -67 37 -67q14 0 14 -23t-13 -23t-62.5 -5.5
t-156 -24t-155.5 -23.5t-126 -5q-146 0 -328 86t-265.5 262.5t-83.5 345.5z" />
    <glyph glyph-name="Gcommaaccent" unicode="&#x122;" horiz-adv-x="1409" 
d="M1230 144q0 -67 37 -67q14 0 14 -23t-13 -23t-62 -5q-50 -6 -156 -24q-107 -19 -156 -24q-44 -4 -110 -5l-38 -53q-5 -7 -5 -14q0 -8 11 -16q108 -73 108 -158t-67 -135t-146 -50q-119 0 -119 72q0 53 51 53q23 0 59 -30q35 -29 49 -29q56 0 56 67q0 68 -106 124
q-19 10 -19 20q0 9 5 17l92 135q-125 13 -275 83q-182 86 -266 263q-83 176 -83 345q0 242 181 480q180 238 499 238q164 0 305 -29q142 -29 156 -29q19 -49 29 -308q0 -18 -34 -18t-35 13q0 111 -104 206q-103 94 -312 94q-229 0 -362 -182q-132 -181 -132 -406
q0 -306 149 -492t344 -186t273 47q22 16 22 78v190q0 115 -228 115q-14 0 -14 38t14 38q56 -6 264 -6t265 6q15 0 15 -38t-15 -38q-141 0 -141 -115v-219z" />
    <glyph glyph-name="Gdotaccent" unicode="&#x120;" horiz-adv-x="1409" 
d="M880 1660q0 -57 -48 -90q-27 -19 -61 -19q-60 0 -90 50q-16 27 -16 59q0 63 49 91q26 15 57 15q59 0 91 -47q18 -27 18 -59zM91 667q0 242 180.5 480t499.5 238q164 0 305.5 -29t155.5 -29q19 -49 29 -308q0 -18 -34 -18t-35 13q0 111 -103.5 205.5t-312.5 94.5
q-229 0 -361.5 -181.5t-132.5 -406.5q0 -306 149 -492t344 -186t273 47q22 16 22 78v190q0 115 -228 115q-14 0 -14 38t14 38q56 -6 264 -6t265 6q15 0 15 -38t-15 -38q-141 0 -141 -115v-219q0 -67 37 -67q14 0 14 -23t-13 -23t-62.5 -5.5t-156 -24t-155.5 -23.5t-126 -5
q-146 0 -328 86t-265.5 262.5t-83.5 345.5z" />
    <glyph glyph-name="H" unicode="H" horiz-adv-x="1620" 
d="M1371 186q0 -117 180 -117q13 0 13 -38t-13 -38q-160 7 -260 7t-258 -7q-13 0 -13 37.5t13 38.5q178 0 178 117v435q0 38 -39 38h-702q-39 0 -39 -38v-435q0 -117 180 -117q13 0 13 -38t-13 -38q-149 7 -253 7t-265 -7q-13 0 -13 37.5t13 38.5q178 0 178 117v986
q0 115 -189 115q-14 0 -14 38t14 38q44 -5 264 -5t265 5q13 0 13 -38t-13 -38q-180 0 -180 -115v-390q0 -39 39 -39h702q39 0 39 39v390q0 115 -189 115q-14 0 -14 38t14 38q44 -5 264 -5t265 5q13 0 13 -38t-13 -38q-180 0 -180 -115v-986z" />
    <glyph glyph-name="H18543" unicode="&#x25aa;" horiz-adv-x="1068" 
d="M86 860h855v-860h-855v860z" />
    <glyph glyph-name="H18551" unicode="&#x25ab;" horiz-adv-x="1068" 
d="M86 0v860h855v-860h-855zM167 82h693v696h-693v-696z" />
    <glyph glyph-name="Hbar" unicode="&#x126;" horiz-adv-x="1620" 
d="M1371 186q0 -117 180 -117q13 0 13 -38t-13 -38q-160 7 -260 7t-258 -7q-13 0 -13 37q0 38 13 39q178 0 178 117v435q0 38 -39 38h-702q-39 0 -39 -38v-435q0 -117 180 -117q13 0 13 -38t-13 -38q-149 7 -253 7q-105 0 -265 -7q-13 0 -13 37q0 38 13 39q178 0 178 117
v759q0 39 -41 39h-131q-16 0 -16 46t16 46h131q41 0 41 39v57q0 115 -189 115q-14 0 -14 38t14 38q45 -5 264 -5q220 0 265 5q13 0 13 -38t-13 -38q-180 0 -180 -115v-62q0 -34 38 -34h707q35 0 35 32v64q0 115 -189 115q-14 0 -14 38t14 38q45 -5 264 -5q220 0 265 5
q13 0 13 -38t-13 -38q-180 0 -180 -115v-67q0 -29 28 -29h124q17 0 17 -46t-19 -46h-121q-29 0 -29 -33v-765zM1174 984h-705q-38 0 -38 -41v-161q0 -39 39 -39h702q39 0 39 39v169q0 33 -37 33z" />
    <glyph glyph-name="Hcircumflex" unicode="&#x124;" horiz-adv-x="1620" 
d="M1124 1507q3 -3 3 -8.5t-7 -14t-12 -8.5t-8 1l-246 139q-17 9 -34 9t-34 -9l-241 -139q-4 -2 -10.5 -2t-14.5 8t-8 14t4 10l260 250q22 22 44 22t44 -22zM1371 186q0 -117 180 -117q13 0 13 -38t-13 -38q-160 7 -260 7t-258 -7q-13 0 -13 37.5t13 38.5q178 0 178 117v435
q0 38 -39 38h-702q-39 0 -39 -38v-435q0 -117 180 -117q13 0 13 -38t-13 -38q-149 7 -253 7t-265 -7q-13 0 -13 37.5t13 38.5q178 0 178 117v986q0 115 -189 115q-14 0 -14 38t14 38q44 -5 264 -5t265 5q13 0 13 -38t-13 -38q-180 0 -180 -115v-390q0 -39 39 -39h702
q39 0 39 39v390q0 115 -189 115q-14 0 -14 38t14 38q44 -5 264 -5t265 5q13 0 13 -38t-13 -38q-180 0 -180 -115v-986z" />
    <glyph glyph-name="I" unicode="I" horiz-adv-x="683" 
d="M271 186v986q0 115 -189 115q-14 0 -14 38t14 38q44 -5 264 -5t265 5q13 0 13 -38t-13 -38q-180 0 -180 -115v-986q0 -117 180 -117q13 0 13 -38t-13 -38q-86 7 -259 7t-259 -7q-13 0 -13 38t13 38q178 0 178 117z" />
    <glyph glyph-name="IJ" unicode="&#x132;" horiz-adv-x="1501" 
d="M265 186v986q0 115 -189 115q-14 0 -14 38t14 38q44 -5 264 -5t265 5q13 0 13 -38t-13 -38q-180 0 -180 -115v-986q0 -117 180 -117q13 0 13 -38t-13 -38q-86 7 -259 7t-259 -7q-13 0 -13 38t13 38q178 0 178 117zM1026 260v912q0 115 -190 115q-14 0 -14 38t14 38
q47 -5 265 -5t277 5q14 0 14 -38t-14 -38q-192 0 -192 -115v-538q0 -716 -71 -817.5t-155 -168.5t-193 -67q-54 0 -92 30.5t-38 90.5q0 31 29.5 56.5t76.5 25.5q60 0 101 -34t50 -67q70 24 101 114t31 463z" />
    <glyph glyph-name="Iacute" unicode="&#xcd;" horiz-adv-x="683" 
d="M621 1640l-298 -157q-18 -9 -30.5 -9t-24.5 8.5t-12 20t6.5 23t16.5 17.5l270 199q5 4 13 4t20 -8t23 -23t17.5 -31.5t6.5 -24.5t-2 -12.5t-6 -6.5zM271 186v986q0 115 -189 115q-14 0 -14 38t14 38q44 -5 264 -5t265 5q13 0 13 -38t-13 -38q-180 0 -180 -115v-986
q0 -117 180 -117q13 0 13 -38t-13 -38q-86 7 -259 7t-259 -7q-13 0 -13 38t13 38q178 0 178 117z" />
    <glyph glyph-name="Ibreve" unicode="&#x12c;" horiz-adv-x="683" 
d="M617 1857q0 -275 -270.5 -275t-270.5 275q8 8 19.5 8t19.5 -8q35 -164 230 -164t233 164q8 8 19.5 8t19.5 -8zM271 186v986q0 115 -189 115q-14 0 -14 38t14 38q44 -5 264 -5t265 5q13 0 13 -38t-13 -38q-180 0 -180 -115v-986q0 -117 180 -117q13 0 13 -38t-13 -38
q-86 7 -259 7t-259 -7q-13 0 -13 38t13 38q178 0 178 117z" />
    <glyph glyph-name="Icircumflex" unicode="&#xce;" horiz-adv-x="683" 
d="M646 1507q3 -3 3 -8.5t-7 -14t-12 -8.5t-8 1l-246 139q-17 9 -34 9t-34 -9l-241 -139q-4 -2 -10.5 -2t-14.5 8t-8 14t4 10l260 250q22 22 44 22t44 -22zM271 186v986q0 115 -189 115q-14 0 -14 38t14 38q44 -5 264 -5t265 5q13 0 13 -38t-13 -38q-180 0 -180 -115v-986
q0 -117 180 -117q13 0 13 -38t-13 -38q-86 7 -259 7t-259 -7q-13 0 -13 38t13 38q178 0 178 117z" />
    <glyph glyph-name="Idieresis" unicode="&#xcf;" horiz-adv-x="683" 
d="M232 1608q0 -44 -31 -75.5t-75 -31.5t-75.5 31.5t-31.5 75.5t31.5 75t75.5 31t75 -31t31 -75zM674 1608q0 -44 -31.5 -75.5t-75.5 -31.5t-75 31.5t-31 75.5t31 75t75 31t75.5 -31t31.5 -75zM271 186v986q0 115 -189 115q-14 0 -14 38t14 38q44 -5 264 -5t265 5
q13 0 13 -38t-13 -38q-180 0 -180 -115v-986q0 -117 180 -117q13 0 13 -38t-13 -38q-86 7 -259 7t-259 -7q-13 0 -13 38t13 38q178 0 178 117z" />
    <glyph glyph-name="Idotaccent" unicode="&#x130;" horiz-adv-x="683" 
d="M455 1660q0 -57 -48 -90q-27 -19 -61 -19q-60 0 -90 50q-16 27 -16 59q0 63 49 91q26 15 57 15q59 0 91 -47q18 -27 18 -59zM271 186v986q0 115 -189 115q-14 0 -14 38t14 38q44 -5 264 -5t265 5q13 0 13 -38t-13 -38q-180 0 -180 -115v-986q0 -117 180 -117q13 0 13 -38
t-13 -38q-86 7 -259 7t-259 -7q-13 0 -13 38t13 38q178 0 178 117z" />
    <glyph glyph-name="Igrave" unicode="&#xcc;" horiz-adv-x="683" 
d="M455 1545q9 -8 15 -18t6 -22t-11.5 -21.5t-25.5 -9.5t-31 9l-281 151q-6 2 -10.5 9.5t-4.5 21t15 36t29 30.5t22.5 8t15.5 -5zM271 186v986q0 115 -189 115q-14 0 -14 38t14 38q44 -5 264 -5t265 5q13 0 13 -38t-13 -38q-180 0 -180 -115v-986q0 -117 180 -117
q13 0 13 -38t-13 -38q-86 7 -259 7t-259 -7q-13 0 -13 38t13 38q178 0 178 117z" />
    <glyph glyph-name="Imacron" unicode="&#x12a;" horiz-adv-x="683" 
d="M572 1701q28 0 28 -47t-32 -47h-446q-29 0 -29 47t29 47h450zM271 186v986q0 115 -189 115q-14 0 -14 38t14 38q44 -5 264 -5t265 5q13 0 13 -38t-13 -38q-180 0 -180 -115v-986q0 -117 180 -117q13 0 13 -38t-13 -38q-86 7 -259 7t-259 -7q-13 0 -13 38t13 38
q178 0 178 117z" />
    <glyph glyph-name="Iogonek" unicode="&#x12e;" horiz-adv-x="683" 
d="M82 1287q-14 0 -14 38t14 38q45 -5 264 -5q220 0 265 5q13 0 13 -38t-13 -38q-180 0 -180 -115v-986q0 -117 180 -117q13 0 13 -38t-13 -38q-62 6 -167 7q-25 0 -45 -21q-141 -148 -141 -260q0 -128 123 -128q60 0 103 34q21 -7 21 -36q-42 -56 -91 -83q-48 -26 -115 -26
q-88 0 -135 52q-47 53 -47 125q0 153 185 320q13 11 13 17t-12 6q-137 -1 -210 -7q-13 0 -13 38t13 38q178 0 178 117v986q0 115 -189 115z" />
    <glyph glyph-name="Itilde" unicode="&#x128;" horiz-adv-x="683" 
d="M441 1553q-49 0 -137 34q-76 29 -117 29q-54 0 -115 -61q-4 -4 -8 -4t-8 4q-9 11 -9 16q0 1 1 2q92 143 201 143q44 0 137 -33q72 -26 106 -26q57 0 125 68q1 1 3 1q5 0 15 -8q10 -9 10 -20q0 -4 -1 -8q-14 -41 -87 -90q-71 -47 -116 -47zM271 186v986q0 115 -189 115
q-14 0 -14 38t14 38q44 -5 264 -5t265 5q13 0 13 -38t-13 -38q-180 0 -180 -115v-986q0 -117 180 -117q13 0 13 -38t-13 -38q-86 7 -259 7t-259 -7q-13 0 -13 38t13 38q178 0 178 117z" />
    <glyph glyph-name="J" unicode="J" horiz-adv-x="716" 
d="M292 260v912q0 115 -190 115q-14 0 -14 38t14 38q47 -5 265 -5t277 5q14 0 14 -38t-14 -38q-192 0 -192 -115v-538q0 -716 -71 -817.5t-155 -168.5t-193 -67q-54 0 -92 30.5t-38 90.5q0 31 29.5 56.5t76.5 25.5q60 0 101 -34t50 -67q70 24 101 114t31 463z" />
    <glyph glyph-name="Jcircumflex" unicode="&#x134;" horiz-adv-x="716" 
d="M672 1507q3 -3 3 -8.5t-7 -14t-12 -8.5t-8 1l-246 139q-17 9 -34 9t-34 -9l-241 -139q-4 -2 -10.5 -2t-14.5 8t-8 14t4 10l260 250q22 22 44 22t44 -22zM292 260v912q0 115 -190 115q-14 0 -14 38t14 38q47 -5 265 -5t277 5q14 0 14 -38t-14 -38q-192 0 -192 -115v-538
q0 -716 -71 -817.5t-155 -168.5t-193 -67q-54 0 -92 30.5t-38 90.5q0 31 29.5 56.5t76.5 25.5q60 0 101 -34t50 -67q70 24 101 114t31 463z" />
    <glyph glyph-name="K" unicode="K" horiz-adv-x="1335" 
d="M271 186v986q0 115 -189 115q-14 0 -14 38t14 38q45 -5 268 -5t269 5q13 0 13 -38t-13 -38q-188 0 -188 -115v-437q0 -23 13 -23q29 0 68 41t51 57l293 365q40 52 40 78q0 34 -65 34q-13 0 -13 38t13 38q45 -5 181 -5t182 5q14 0 14 -38t-14 -38q-85 0 -137 -34t-67 -52
l-358 -433q-5 -6 -5 -15t5 -15l458 -565q84 -104 246 -104q14 0 14 -38t-14 -38q-79 7 -269 7t-267 -7q-14 0 -14 37.5t14 38.5q96 0 96 59q0 24 -25 58l-269 353q-53 67 -94.5 86.5t-59.5 19.5q-17 0 -17 -22v-437q0 -117 180 -117q13 0 13 -38t-13 -38q-77 7 -260 7
t-260 -7q-13 0 -13 37.5t13 38.5q180 0 180 117z" />
    <glyph glyph-name="Kcommaaccent" unicode="&#x136;" horiz-adv-x="1335" 
d="M884 -272q0 -80 -73 -135q-62 -46 -140 -46q-119 0 -119 72q0 53 51 53q26 0 60 -28q37 -31 49 -31q55 0 55 63q0 80 -135 142l72 106q59 -16 116 -69q64 -60 64 -127zM271 186v986q0 115 -189 115q-14 0 -14 38t14 38q45 -5 268 -5t269 5q13 0 13 -38t-13 -38
q-188 0 -188 -115v-437q0 -23 13 -23q29 0 68 41t51 57l293 365q40 52 40 78q0 34 -65 34q-13 0 -13 38t13 38q45 -5 181 -5t182 5q14 0 14 -38t-14 -38q-85 0 -137 -34t-67 -52l-358 -433q-5 -6 -5 -15t5 -15l458 -565q84 -104 246 -104q14 0 14 -38t-14 -38q-79 7 -269 7
t-267 -7q-14 0 -14 37.5t14 38.5q96 0 96 59q0 24 -25 58l-269 353q-53 67 -94.5 86.5t-59.5 19.5q-17 0 -17 -22v-437q0 -117 180 -117q13 0 13 -38t-13 -38q-77 7 -260 7t-260 -7q-13 0 -13 37.5t13 38.5q180 0 180 117z" />
    <glyph glyph-name="L" unicode="L" horiz-adv-x="1344" 
d="M271 177v995q0 115 -189 115q-14 0 -14 38t14 38q46 -5 262 -5t261 5q13 0 13 -38t-13 -38q-174 0 -174 -115v-895q0 -51 14.5 -98.5t55 -82t108.5 -34.5l313 13q125 5 194.5 91t69.5 213q0 13 39 13t39 -13v-352q0 -26 -25 -30t-56 -4q-143 1 -432 4t-401 3t-255 -7
q-13 0 -13 38t13 38q176 0 176 108z" />
    <glyph glyph-name="Lacute" unicode="&#x139;" horiz-adv-x="1344" 
d="M616 1640l-298 -157q-18 -9 -30.5 -9t-24.5 8.5t-12 20t6.5 23t16.5 17.5l270 199q5 4 13 4t20 -8t23 -23t17.5 -31.5t6.5 -24.5t-2 -12.5t-6 -6.5zM271 177v995q0 115 -189 115q-14 0 -14 38t14 38q46 -5 262 -5t261 5q13 0 13 -38t-13 -38q-174 0 -174 -115v-895
q0 -51 14.5 -98.5t55 -82t108.5 -34.5l313 13q125 5 194.5 91t69.5 213q0 13 39 13t39 -13v-352q0 -26 -25 -30t-56 -4q-143 1 -432 4t-401 3t-255 -7q-13 0 -13 38t13 38q176 0 176 108z" />
    <glyph glyph-name="Lcaron" unicode="&#x13d;" horiz-adv-x="1344" 
d="M875 1470q0 -185 -84 -325q-20 -35 -44 -35q-6 0 -12 2q-21 8 -22 29q0 10 6 24q33 81 33 162q0 62 -19 124q-1 4 -1 7q0 27 68 32q15 1 26 2q49 -1 49 -22zM271 177v995q0 115 -189 115q-14 0 -14 38t14 38q46 -5 262 -5t261 5q13 0 13 -38t-13 -38q-174 0 -174 -115
v-895q0 -51 14.5 -98.5t55 -82t108.5 -34.5l313 13q125 5 194.5 91t69.5 213q0 13 39 13t39 -13v-352q0 -26 -25 -30t-56 -4q-143 1 -432 4t-401 3t-255 -7q-13 0 -13 38t13 38q176 0 176 108z" />
    <glyph glyph-name="Lcommaaccent" unicode="&#x13b;" horiz-adv-x="1344" 
d="M271 177v995q0 115 -189 115q-14 0 -14 38t14 38q46 -5 262 -5t261 5q13 0 13 -38t-13 -38q-174 0 -174 -115v-895q0 -51 15 -99q14 -47 54 -82q41 -34 109 -34l313 13q125 5 194 91q70 86 70 213q0 13 39 13t39 -13v-352q0 -26 -25 -30t-56 -4q-143 0 -302 3
q-159 4 -187 4q-26 0 -51 -36l-31 -43q-5 -7 -5 -15q0 -7 11 -15q108 -73 108 -158t-67 -135t-146 -50q-119 0 -119 72q0 53 51 53q23 0 59 -29q35 -30 49 -30q56 0 56 68q0 67 -106 123q-19 10 -19 19q0 10 5 18l76 112q13 19 13 32q0 14 -21 14h-207q-112 0 -255 -7
q-13 0 -13 38t13 38q176 0 176 108z" />
    <glyph glyph-name="Ldot" unicode="&#x13f;" horiz-adv-x="1344" 
d="M711 715q0 51 36 82t91 31t85 -37t30 -87.5t-34.5 -81t-87.5 -30.5t-86.5 36t-33.5 87zM271 177v995q0 115 -189 115q-14 0 -14 38t14 38q46 -5 262 -5t261 5q13 0 13 -38t-13 -38q-174 0 -174 -115v-895q0 -51 14.5 -98.5t55 -82t108.5 -34.5l313 13q125 5 194.5 91
t69.5 213q0 13 39 13t39 -13v-352q0 -26 -25 -30t-56 -4q-143 1 -432 4t-401 3t-255 -7q-13 0 -13 38t13 38q176 0 176 108z" />
    <glyph glyph-name="Lslash" unicode="&#x141;" horiz-adv-x="1344" 
d="M431 791l193 73q4 2 9 2q14 0 30 -49q8 -25 8 -39q0 -13 -8 -16l-232 -86v-399q0 -51 15 -99q14 -47 54 -82q41 -34 109 -34l313 13q125 5 194 91q70 86 70 213q0 13 39 13t39 -13v-352q0 -28 -25 -31t-56 -3t-376 3q-345 4 -457 4t-255 -7q-13 0 -13 38t13 38
q176 0 176 108v440l-155 -58q-5 -3 -14 -3q-13 0 -29 46q-9 25 -9 38t7 15l200 76v441q0 115 -189 115q-14 0 -14 38t14 38q45 -5 262 -5q216 0 261 5q13 0 13 -38t-13 -38q-174 0 -174 -115v-381z" />
    <glyph glyph-name="M" unicode="M" horiz-adv-x="1848" 
d="M228 186l59 944q1 11 1 26t-9.5 47t-52 58t-129.5 26q-13 0 -13 38t13 38q45 -5 149.5 -5t136 -15.5t51.5 -57.5l472 -1008q13 -27 22 -27t23 29l485 1012q22 46 56 56.5t132 10.5t146 5q14 0 14 -38t-14 -38q-85 0 -124.5 -27t-51.5 -63.5t-12 -90.5l7 -920
q1 -117 159 -117q14 0 14 -38t-14 -38q-75 7 -229 7t-239 -7q-14 0 -14 38t14 38q149 0 149 117l-4 853q0 13 -9 13t-14 -12l-506 -1046q-8 -17 -22 -17t-22 17l-464 1047q-8 17 -17 17t-10 -17l-51 -855v-18q0 -12 9.5 -38t48.5 -43.5t100 -17.5q14 0 14 -38t-14 -38
q-81 7 -197 7t-200 -7q-13 0 -13 38t13 38q150 0 157 117z" />
    <glyph glyph-name="N" unicode="N" horiz-adv-x="1482" 
d="M257 186v924q0 101 -45.5 139t-142.5 38q-13 0 -13 38t13 38q44 -5 149 -5t137 -7.5t59 -41.5l758 -977q10 -13 24 -13q23 0 23 33v819q0 116 -171 116q-14 0 -14 38t14 38q46 -5 188 -5t187 5q13 0 13 -38t-13 -38q-136 0 -136 -116v-1167q0 -25 -17 -25q-18 0 -42 30
l-867 1095q-11 13 -22 13t-11 -18v-913q0 -117 159 -117q13 0 13 -38t-13 -38q-81 7 -197 7t-200 -7q-14 0 -14 38t14 38q167 0 167 117z" />
    <glyph glyph-name="Nacute" unicode="&#x143;" horiz-adv-x="1482" 
d="M1008 1640l-298 -157q-18 -9 -30.5 -9t-24.5 8.5t-12 20t6.5 23t16.5 17.5l270 199q5 4 13 4t20 -8t23 -23t17.5 -31.5t6.5 -24.5t-2 -12.5t-6 -6.5zM257 186v924q0 101 -45.5 139t-142.5 38q-13 0 -13 38t13 38q44 -5 149 -5t137 -7.5t59 -41.5l758 -977q10 -13 24 -13
q23 0 23 33v819q0 116 -171 116q-14 0 -14 38t14 38q46 -5 188 -5t187 5q13 0 13 -38t-13 -38q-136 0 -136 -116v-1167q0 -25 -17 -25q-18 0 -42 30l-867 1095q-11 13 -22 13t-11 -18v-913q0 -117 159 -117q13 0 13 -38t-13 -38q-81 7 -197 7t-200 -7q-14 0 -14 38t14 38
q167 0 167 117z" />
    <glyph glyph-name="Ncaron" unicode="&#x147;" horiz-adv-x="1482" 
d="M1044 1740l-260 -249q-23 -22 -44.5 -22t-43.5 22l-260 249q-4 4 -4 10t8 14.5t14.5 8.5t10.5 -2l241 -139q16 -9 33.5 -9t34.5 9l246 139q2 1 7.5 1t12.5 -9t7 -14.5t-3 -8.5zM257 186v924q0 101 -45.5 139t-142.5 38q-13 0 -13 38t13 38q44 -5 149 -5t137 -7.5
t59 -41.5l758 -977q10 -13 24 -13q23 0 23 33v819q0 116 -171 116q-14 0 -14 38t14 38q46 -5 188 -5t187 5q13 0 13 -38t-13 -38q-136 0 -136 -116v-1167q0 -25 -17 -25q-18 0 -42 30l-867 1095q-11 13 -22 13t-11 -18v-913q0 -117 159 -117q13 0 13 -38t-13 -38
q-81 7 -197 7t-200 -7q-14 0 -14 38t14 38q167 0 167 117z" />
    <glyph glyph-name="Ncommaaccent" unicode="&#x145;" horiz-adv-x="1482" 
d="M964 -272q0 -80 -73 -135q-62 -46 -140 -46q-119 0 -119 72q0 53 51 53q26 0 60 -28q37 -31 49 -31q55 0 55 63q0 80 -135 142l72 106q59 -16 116 -69q64 -60 64 -127zM257 186v924q0 101 -45.5 139t-142.5 38q-13 0 -13 38t13 38q44 -5 149 -5t137 -7.5t59 -41.5
l758 -977q10 -13 24 -13q23 0 23 33v819q0 116 -171 116q-14 0 -14 38t14 38q46 -5 188 -5t187 5q13 0 13 -38t-13 -38q-136 0 -136 -116v-1167q0 -25 -17 -25q-18 0 -42 30l-867 1095q-11 13 -22 13t-11 -18v-913q0 -117 159 -117q13 0 13 -38t-13 -38q-81 7 -197 7
t-200 -7q-14 0 -14 38t14 38q167 0 167 117z" />
    <glyph glyph-name="Ntilde" unicode="&#xd1;" horiz-adv-x="1482" 
d="M433 1525q29 43 50.5 68.5t67.5 53t92 27.5t135.5 -31.5t123.5 -31.5q61 0 133 72q2 2 6.5 2t13 -7t8.5 -11.5t-1 -6.5q-104 -158 -213 -158q-47 0 -138 33t-142 33t-109 -64q-3 -3 -7.5 -3t-12.5 8t-8 11t1 5zM257 186v924q0 101 -45.5 139t-142.5 38q-13 0 -13 38
t13 38q44 -5 149 -5t137 -7.5t59 -41.5l758 -977q10 -13 24 -13q23 0 23 33v819q0 116 -171 116q-14 0 -14 38t14 38q46 -5 188 -5t187 5q13 0 13 -38t-13 -38q-136 0 -136 -116v-1167q0 -25 -17 -25q-18 0 -42 30l-867 1095q-11 13 -22 13t-11 -18v-913q0 -117 159 -117
q13 0 13 -38t-13 -38q-81 7 -197 7t-200 -7q-14 0 -14 38t14 38q167 0 167 117z" />
    <glyph glyph-name="O" unicode="O" horiz-adv-x="1461" 
d="M91 667q0 263 176 490.5t473 227.5q266 0 454.5 -208t188.5 -514q0 -256 -174 -473t-474 -217q-290 0 -467 205t-177 489zM282 726q0 -310 150 -494t317 -184q212 0 327.5 173t115.5 426q0 279 -145.5 473t-319.5 194q-210 0 -327.5 -181t-117.5 -407z" />
    <glyph glyph-name="OE" unicode="&#x152;" horiz-adv-x="1937" 
d="M91 667q0 244 170 468.5t480 224.5q45 0 112 -4t109 -4h327q94 0 220.5 3t209.5 3q73 0 73 -19v-329q0 -18 -37.5 -18t-37.5 18q0 266 -257 272l-285 7q-40 0 -40 -48v-530q0 -35 34 -35h198q117 0 117 117v74q0 14 35.5 14t35.5 -14q-7 -105 -7 -217t7 -220
q0 -15 -35.5 -15t-35.5 15v82q0 95 -117 95h-198q-34 0 -34 -34v-311q0 -63 18 -104t51.5 -68.5t92.5 -27.5l227 7q134 4 197 78.5t63 192.5q0 19 37.5 19t37.5 -19v-317q0 -17 -11.5 -23.5t-61.5 -6.5q-83 0 -334.5 3.5t-357.5 3.5h-44q-57 0 -151.5 -3.5t-160.5 -3.5
q-213 0 -350.5 82.5t-217 239t-79.5 352.5zM282 726q0 -114 33 -256.5t159.5 -272t281.5 -129.5q218 0 218 109v995q0 117 -233 117q-171 0 -262.5 -87.5t-144 -214t-52.5 -261.5z" />
    <glyph glyph-name="Oacute" unicode="&#xd3;" horiz-adv-x="1461" 
d="M947 1640l-298 -157q-18 -9 -30.5 -9t-24.5 8.5t-12 20t6.5 23t16.5 17.5l270 199q5 4 13 4t20 -8t23 -23t17.5 -31.5t6.5 -24.5t-2 -12.5t-6 -6.5zM91 667q0 263 176 490.5t473 227.5q266 0 454.5 -208t188.5 -514q0 -256 -174 -473t-474 -217q-290 0 -467 205t-177 489
zM282 726q0 -310 150 -494t317 -184q212 0 327.5 173t115.5 426q0 279 -145.5 473t-319.5 194q-210 0 -327.5 -181t-117.5 -407z" />
    <glyph glyph-name="Obreve" unicode="&#x14e;" horiz-adv-x="1461" 
d="M1010 1857q0 -275 -270.5 -275t-270.5 275q8 8 19.5 8t19.5 -8q35 -164 230 -164t233 164q8 8 19.5 8t19.5 -8zM91 667q0 263 176 490.5t473 227.5q266 0 454.5 -208t188.5 -514q0 -256 -174 -473t-474 -217q-290 0 -467 205t-177 489zM282 726q0 -310 150 -494t317 -184
q212 0 327.5 173t115.5 426q0 279 -145.5 473t-319.5 194q-210 0 -327.5 -181t-117.5 -407z" />
    <glyph glyph-name="Ocircumflex" unicode="&#xd4;" horiz-adv-x="1461" 
d="M1041 1507q3 -3 3 -8.5t-7 -14t-12 -8.5t-8 1l-246 139q-17 9 -34 9t-34 -9l-241 -139q-4 -2 -10.5 -2t-14.5 8t-8 14t4 10l260 250q22 22 44 22t44 -22zM91 667q0 263 176 490.5t473 227.5q266 0 454.5 -208t188.5 -514q0 -256 -174 -473t-474 -217q-290 0 -467 205
t-177 489zM282 726q0 -310 150 -494t317 -184q212 0 327.5 173t115.5 426q0 279 -145.5 473t-319.5 194q-210 0 -327.5 -181t-117.5 -407z" />
    <glyph glyph-name="Odieresis" unicode="&#xd6;" horiz-adv-x="1461" 
d="M627 1608q0 -44 -31 -75.5t-75 -31.5t-75.5 31.5t-31.5 75.5t31.5 75t75.5 31t75 -31t31 -75zM1069 1608q0 -44 -31.5 -75.5t-75.5 -31.5t-75 31.5t-31 75.5t31 75t75 31t75.5 -31t31.5 -75zM91 667q0 263 176 490.5t473 227.5q266 0 454.5 -208t188.5 -514
q0 -256 -174 -473t-474 -217q-290 0 -467 205t-177 489zM282 726q0 -310 150 -494t317 -184q212 0 327.5 173t115.5 426q0 279 -145.5 473t-319.5 194q-210 0 -327.5 -181t-117.5 -407z" />
    <glyph glyph-name="Ograve" unicode="&#xd2;" horiz-adv-x="1461" 
d="M802 1545q9 -8 15 -18t6 -22t-11.5 -21.5t-25.5 -9.5t-31 9l-281 151q-6 2 -10.5 9.5t-4.5 21t15 36t29 30.5t22.5 8t15.5 -5zM91 667q0 263 176 490.5t473 227.5q266 0 454.5 -208t188.5 -514q0 -256 -174 -473t-474 -217q-290 0 -467 205t-177 489zM282 726
q0 -310 150 -494t317 -184q212 0 327.5 173t115.5 426q0 279 -145.5 473t-319.5 194q-210 0 -327.5 -181t-117.5 -407z" />
    <glyph glyph-name="Ohorn" unicode="&#x1a0;" horiz-adv-x="1461" 
d="M1192 647q0 289 -159 492q-142 175 -300 175q-170 0 -281 -115q-103 -105 -147 -285q-23 -93 -23 -188q0 -336 179 -527q136 -151 288 -151q245 0 365 235q78 162 78 364zM1383 663q0 -220 -134 -419q-184 -271 -514 -271q-212 0 -383 126q-104 73 -177 213
q-84 164 -84 355q0 255 165 476q180 242 484 242q228 0 394 -147q125 0 144 17q10 9 10 30q0 30 -25 33q-5 1 -12 1q-53 0 -63 31q-3 11 -3 27q0 39 33 48q15 4 42 4q64 0 80 -25l8 -20q4 -17 4 -45q0 -92 -26 -120q-27 -30 -122 -34h-16q195 -213 195 -522z" />
    <glyph glyph-name="Ohungarumlaut" unicode="&#x150;" horiz-adv-x="1461" 
d="M1156 1640l-298 -157q-18 -9 -31 -9q-12 0 -24 8.5t-12 21.5q0 10 6.5 21.5t16.5 17.5l270 199q5 4 12 4q9 0 21 -8t23 -23t17.5 -31.5t6.5 -26.5q0 -6 -2 -10.5t-6 -6.5zM816 1640l-298 -157q-18 -9 -31 -9q-12 0 -24 8.5t-12 21.5q0 10 6.5 21.5t16.5 17.5l270 199
q5 4 12 4q9 0 21 -8t23 -23t17.5 -31.5t6.5 -26.5q0 -6 -2 -10.5t-6 -6.5zM91 667q0 263 176 490.5t473 227.5q266 0 454.5 -208t188.5 -514q0 -256 -174 -473t-474 -217q-290 0 -467 205t-177 489zM282 726q0 -310 150 -494t317 -184q212 0 327.5 173t115.5 426
q0 279 -145.5 473t-319.5 194q-210 0 -327.5 -181t-117.5 -407z" />
    <glyph glyph-name="Omacron" unicode="&#x14c;" horiz-adv-x="1461" 
d="M1036 1651q28 0 28 -47t-32 -47h-578q-29 0 -29 47t29 47h582zM91 667q0 263 176 490.5t473 227.5q266 0 454.5 -208t188.5 -514q0 -256 -174 -473t-474 -217q-290 0 -467 205t-177 489zM282 726q0 -310 150 -494t317 -184q212 0 327.5 173t115.5 426q0 279 -145.5 473
t-319.5 194q-210 0 -327.5 -181t-117.5 -407z" />
    <glyph glyph-name="Omega" unicode="&#x2126;" horiz-adv-x="1658" 
d="M1582 23q0 -23 -23 -29l-46 -1q-208 7 -569 7q-15 0 -15 15q0 4 1 8q2 24 18 34q119 83 213 246q119 208 119 417q0 184 -100 352q-84 138 -202 201q-77 41 -156 41q-203 0 -331 -161q-102 -130 -119 -307q-2 -27 -2 -53q0 -312 156 -547q75 -113 177 -189q17 -12 17 -40
q0 -17 -11 -17q-385 0 -572 -7l-46 1q-22 6 -22 29v317q0 17 38 17q37 0 37 -17q0 -181 137 -244q53 -24 122 -27l195 -7q-178 105 -291 276q-127 189 -127 402q0 196 121 367q121 173 314 242q102 36 212 36q230 0 406 -147q47 -38 86 -85q138 -166 151 -380q1 -19 1 -38
q0 -237 -213 -485q-65 -75 -142 -141q-28 -25 -57 -47l188 7q177 9 235 141q25 56 25 130q0 17 38 17q37 0 37 -17v-317z" />
    <glyph glyph-name="Oslash" unicode="&#xd8;" horiz-adv-x="1461" 
d="M91 667q0 263 176 491q176 227 473 227q235 0 410 -163l86 103q4 4 10 4q12 0 36 -19q23 -19 23 -33q0 -4 -2 -8l-93 -110q173 -203 173 -496q0 -256 -174 -473t-474 -217q-240 0 -403 140l-100 -119q-3 -3 -7 -3q-12 0 -36 23t-24 32q0 3 4 8l102 121q-180 206 -180 492
zM282 726q0 -252 99 -420l674 803q-148 205 -328 205q-210 0 -327 -181q-118 -181 -118 -407zM432 232q150 -184 317 -184q212 0 327 173q116 173 116 426q0 218 -89 384z" />
    <glyph glyph-name="Oslashacute" unicode="&#x1fe;" horiz-adv-x="1461" 
d="M958 1640l-298 -157q-18 -9 -30.5 -9t-24.5 8.5t-12 20t6.5 23t16.5 17.5l270 199q5 4 13 4t20 -8t23 -23t17.5 -31.5t6.5 -24.5t-2 -12.5t-6 -6.5zM91 667q0 263 176 491q176 227 473 227q235 0 410 -163l86 103q4 4 10 4q12 0 36 -19q23 -19 23 -33q0 -4 -2 -8
l-93 -110q173 -203 173 -496q0 -256 -174 -473t-474 -217q-240 0 -403 140l-100 -119q-3 -3 -7 -3q-12 0 -36 23t-24 32q0 3 4 8l102 121q-180 206 -180 492zM282 726q0 -252 99 -420l674 803q-148 205 -328 205q-210 0 -327 -181q-118 -181 -118 -407zM432 232
q150 -184 317 -184q212 0 327 173q116 173 116 426q0 218 -89 384z" />
    <glyph glyph-name="Otilde" unicode="&#xd5;" horiz-adv-x="1461" 
d="M397 1525q29 43 50.5 68.5t67.5 53t92 27.5t135.5 -31.5t123.5 -31.5q61 0 133 72q2 2 6.5 2t13 -7t8.5 -11.5t-1 -6.5q-104 -158 -213 -158q-47 0 -138 33t-142 33t-109 -64q-3 -3 -7.5 -3t-12.5 8t-8 11t1 5zM91 667q0 263 176 490.5t473 227.5q266 0 454.5 -208
t188.5 -514q0 -256 -174 -473t-474 -217q-290 0 -467 205t-177 489zM282 726q0 -310 150 -494t317 -184q212 0 327.5 173t115.5 426q0 279 -145.5 473t-319.5 194q-210 0 -327.5 -181t-117.5 -407z" />
    <glyph glyph-name="P" unicode="P" horiz-adv-x="1164" 
d="M271 186v986q0 115 -189 115q-13 0 -13 35.5t13 35.5q116 -5 226 -5t194 2.5t142 2.5q202 0 337 -99t135 -279t-131 -282t-347 -102q-120 0 -145.5 3t-32.5 3t-18 -4t-11 -29v-383q0 -117 186 -117q13 0 13 -38t-13 -38q-77 7 -262 7t-262 -7q-13 0 -13 37.5t13 38.5
q178 0 178 117zM431 707q0 -34 43.5 -41.5t101.5 -7.5q368 0 368 326q0 129 -103 220.5t-274 91.5h-89q-47 0 -47 -31v-558z" />
    <glyph glyph-name="PoisonSign" horiz-adv-x="786" 
d="M486 1223l-59 -60l-171 171l-168 -171l-61 60l169 171l-169 169l61 61l168 -171l171 171l59 -61l-170 -169z" />
    <glyph glyph-name="Q" unicode="Q" horiz-adv-x="1474" 
d="M91 667q2 266 178.5 492t470.5 226q279 0 461 -213.5t182 -508.5q0 -195 -107.5 -375.5t-253.5 -249.5q-17 -8 -17 -21t14 -24q77 -60 241.5 -139t387.5 -138q14 -4 14 -19.5t-3.5 -35.5t-21.5 -20q-575 125 -1136 368q-175 76 -292.5 246.5t-117.5 411.5zM282 708
q0 -287 149 -474t318 -187q226 0 334.5 180t108.5 437q0 261 -140 455.5t-319 194.5q-198 0 -324.5 -162t-126.5 -444z" />
    <glyph glyph-name="R" unicode="R" horiz-adv-x="1405" 
d="M271 186v986q0 110 -189 110q-14 0 -14 38t14 38q116 -5 212 -5t193 2.5t157 2.5q230 0 361 -96.5t131 -277.5q0 -277 -267 -348q-13 -4 -13 -23t80.5 -144.5t231.5 -289.5t246 -164q14 0 14 -17.5t-14 -18.5q-42 -4 -67 -4q-171 0 -262 67.5t-165.5 161t-160.5 224
t-114 149.5t-83.5 19t-77.5 2.5t-30 2.5t-15.5 -5t-7.5 -17v-393q0 -117 194 -117q13 0 13 -38t-13 -38q-77 7 -267 7t-267 -7q-13 0 -13 37.5t13 38.5q180 0 180 117zM431 705q0 -31 38 -39t107 -8q387 0 387 326q0 131 -105 221.5t-291 90.5h-89q-47 0 -47 -31v-560z" />
    <glyph glyph-name="Racute" unicode="&#x154;" horiz-adv-x="1405" 
d="M860 1640l-298 -157q-18 -9 -30.5 -9t-24.5 8.5t-12 20t6.5 23t16.5 17.5l270 199q5 4 13 4t20 -8t23 -23t17.5 -31.5t6.5 -24.5t-2 -12.5t-6 -6.5zM271 186v986q0 110 -189 110q-14 0 -14 38t14 38q116 -5 212 -5t193 2.5t157 2.5q230 0 361 -96.5t131 -277.5
q0 -277 -267 -348q-13 -4 -13 -23t80.5 -144.5t231.5 -289.5t246 -164q14 0 14 -17.5t-14 -18.5q-42 -4 -67 -4q-171 0 -262 67.5t-165.5 161t-160.5 224t-114 149.5t-83.5 19t-77.5 2.5t-30 2.5t-15.5 -5t-7.5 -17v-393q0 -117 194 -117q13 0 13 -38t-13 -38q-77 7 -267 7
t-267 -7q-13 0 -13 37.5t13 38.5q180 0 180 117zM431 705q0 -31 38 -39t107 -8q387 0 387 326q0 131 -105 221.5t-291 90.5h-89q-47 0 -47 -31v-560z" />
    <glyph glyph-name="Rcaron" unicode="&#x158;" horiz-adv-x="1405" 
d="M912 1740l-260 -249q-23 -22 -44.5 -22t-43.5 22l-260 249q-4 4 -4 10t8 14.5t14.5 8.5t10.5 -2l241 -139q16 -9 33.5 -9t34.5 9l246 139q2 1 7.5 1t12.5 -9t7 -14.5t-3 -8.5zM271 186v986q0 110 -189 110q-14 0 -14 38t14 38q116 -5 212 -5t193 2.5t157 2.5
q230 0 361 -96.5t131 -277.5q0 -277 -267 -348q-13 -4 -13 -23t80.5 -144.5t231.5 -289.5t246 -164q14 0 14 -17.5t-14 -18.5q-42 -4 -67 -4q-171 0 -262 67.5t-165.5 161t-160.5 224t-114 149.5t-83.5 19t-77.5 2.5t-30 2.5t-15.5 -5t-7.5 -17v-393q0 -117 194 -117
q13 0 13 -38t-13 -38q-77 7 -267 7t-267 -7q-13 0 -13 37.5t13 38.5q180 0 180 117zM431 705q0 -31 38 -39t107 -8q387 0 387 326q0 131 -105 221.5t-291 90.5h-89q-47 0 -47 -31v-560z" />
    <glyph glyph-name="Rcommaaccent" unicode="&#x156;" horiz-adv-x="1405" 
d="M989 -272q0 -80 -73 -135q-62 -46 -140 -46q-119 0 -119 72q0 53 51 53q26 0 60 -28q37 -31 49 -31q55 0 55 63q0 80 -135 142l72 106q59 -16 116 -69q64 -60 64 -127zM271 186v986q0 110 -189 110q-14 0 -14 38t14 38q116 -5 212 -5t193 2.5t157 2.5q230 0 361 -96.5
t131 -277.5q0 -277 -267 -348q-13 -4 -13 -23t80.5 -144.5t231.5 -289.5t246 -164q14 0 14 -17.5t-14 -18.5q-42 -4 -67 -4q-171 0 -262 67.5t-165.5 161t-160.5 224t-114 149.5t-83.5 19t-77.5 2.5t-30 2.5t-15.5 -5t-7.5 -17v-393q0 -117 194 -117q13 0 13 -38t-13 -38
q-77 7 -267 7t-267 -7q-13 0 -13 37.5t13 38.5q180 0 180 117zM431 705q0 -31 38 -39t107 -8q387 0 387 326q0 131 -105 221.5t-291 90.5h-89q-47 0 -47 -31v-560z" />
    <glyph glyph-name="S" unicode="S" horiz-adv-x="1042" 
d="M137 1050q0 144 110.5 239.5t277.5 95.5q104 0 190.5 -20.5t99.5 -20.5t16 1q28 -101 38 -258q0 -14 -16.5 -19t-32.5 -5t-20 14q-21 110 -93.5 175.5t-205.5 65.5q-100 0 -162 -66.5t-62 -156.5q0 -233 295 -293q372 -76 372 -412q0 -190 -109.5 -303.5t-280.5 -113.5
q-120 0 -191.5 21t-185.5 79q-49 155 -49 273q0 11 4 24t34 13t31 -9q9 -129 111.5 -227.5t274.5 -98.5q92 0 157.5 72t65.5 184q0 236 -264 296q-404 94 -405 450z" />
    <glyph glyph-name="Sacute" unicode="&#x15a;" horiz-adv-x="1042" 
d="M816 1640l-298 -157q-18 -9 -30.5 -9t-24.5 8.5t-12 20t6.5 23t16.5 17.5l270 199q5 4 13 4t20 -8t23 -23t17.5 -31.5t6.5 -24.5t-2 -12.5t-6 -6.5zM137 1050q0 144 110.5 239.5t277.5 95.5q104 0 190.5 -20.5t99.5 -20.5t16 1q28 -101 38 -258q0 -14 -16.5 -19t-32.5 -5
t-20 14q-21 110 -93.5 175.5t-205.5 65.5q-100 0 -162 -66.5t-62 -156.5q0 -233 295 -293q372 -76 372 -412q0 -190 -109.5 -303.5t-280.5 -113.5q-120 0 -191.5 21t-185.5 79q-49 155 -49 273q0 11 4 24t34 13t31 -9q9 -129 111.5 -227.5t274.5 -98.5q92 0 157.5 72
t65.5 184q0 236 -264 296q-404 94 -405 450z" />
    <glyph glyph-name="Scaron" unicode="&#x160;" horiz-adv-x="1042" 
d="M828 1740l-260 -249q-23 -22 -44.5 -22t-43.5 22l-260 249q-4 4 -4 10t8 14.5t14.5 8.5t10.5 -2l241 -139q16 -9 33.5 -9t34.5 9l246 139q2 1 7.5 1t12.5 -9t7 -14.5t-3 -8.5zM137 1050q0 144 110.5 239.5t277.5 95.5q104 0 190.5 -20.5t99.5 -20.5t16 1q28 -101 38 -258
q0 -14 -16.5 -19t-32.5 -5t-20 14q-21 110 -93.5 175.5t-205.5 65.5q-100 0 -162 -66.5t-62 -156.5q0 -233 295 -293q372 -76 372 -412q0 -190 -109.5 -303.5t-280.5 -113.5q-120 0 -191.5 21t-185.5 79q-49 155 -49 273q0 11 4 24t34 13t31 -9q9 -129 111.5 -227.5
t274.5 -98.5q92 0 157.5 72t65.5 184q0 236 -264 296q-404 94 -405 450z" />
    <glyph glyph-name="Scedilla" unicode="&#x15e;" horiz-adv-x="1042" 
d="M137 1050q0 144 111 240q110 95 277 95q104 0 191 -21q86 -20 99 -20t16 1q28 -101 38 -258q0 -14 -17 -19q-16 -5 -32 -5t-20 14q-21 110 -94 175q-72 66 -205 66q-100 0 -162 -66q-62 -67 -62 -157q0 -233 295 -293q372 -76 372 -412q0 -187 -100 -294
q-100 -106 -241 -121l-40 -55q-5 -7 -5 -14q0 -8 11 -16q108 -73 108 -158t-67 -135t-146 -50q-119 0 -119 72q0 53 51 53q23 0 58 -30q36 -29 50 -29q56 0 56 67q0 68 -106 124q-19 10 -19 20q0 9 5 17l90 132q-103 2 -171 22t-182 78q-49 155 -49 273q0 11 4 24t34 13
t31 -9q9 -129 111 -228q103 -98 275 -98q92 0 157 72q66 72 66 184q0 236 -264 296q-404 94 -405 450z" />
    <glyph glyph-name="Scircumflex" unicode="&#x15c;" horiz-adv-x="1042" 
d="M836 1507q3 -3 3 -8.5t-7 -14t-12 -8.5t-8 1l-246 139q-17 9 -34 9t-34 -9l-241 -139q-4 -2 -10.5 -2t-14.5 8t-8 14t4 10l260 250q22 22 44 22t44 -22zM137 1050q0 144 110.5 239.5t277.5 95.5q104 0 190.5 -20.5t99.5 -20.5t16 1q28 -101 38 -258q0 -14 -16.5 -19
t-32.5 -5t-20 14q-21 110 -93.5 175.5t-205.5 65.5q-100 0 -162 -66.5t-62 -156.5q0 -233 295 -293q372 -76 372 -412q0 -190 -109.5 -303.5t-280.5 -113.5q-120 0 -191.5 21t-185.5 79q-49 155 -49 273q0 11 4 24t34 13t31 -9q9 -129 111.5 -227.5t274.5 -98.5
q92 0 157.5 72t65.5 184q0 236 -264 296q-404 94 -405 450z" />
    <glyph glyph-name="Scommaaccent" unicode="&#x218;" horiz-adv-x="1042" 
d="M695 -325q0 -190 -186 -329q-28 -21 -60 -40l-9 -1q-15 5 -24 23l-2 9l2 2q144 105 152 235v13q0 39 -33 56l-38 18q-63 34 -64 102q0 72 73 85q14 3 29 3q76 0 125 -66q35 -49 35 -110zM137 1050q0 144 110.5 239.5t277.5 95.5q104 0 190.5 -20.5t99.5 -20.5t16 1
q28 -101 38 -258q0 -14 -16.5 -19t-32.5 -5t-20 14q-21 110 -93.5 175.5t-205.5 65.5q-100 0 -162 -66.5t-62 -156.5q0 -233 295 -293q372 -76 372 -412q0 -190 -109.5 -303.5t-280.5 -113.5q-120 0 -191.5 21t-185.5 79q-49 155 -49 273q0 11 4 24t34 13t31 -9
q9 -129 111.5 -227.5t274.5 -98.5q92 0 157.5 72t65.5 184q0 236 -264 296q-404 94 -405 450z" />
    <glyph glyph-name="T" unicode="T" horiz-adv-x="1321" 
d="M576 186v1050q0 46 -48 46h-152q-265 0 -265 -276q0 -14 -38 -14t-38 14v319q0 33 78 33q101 0 264 -2.5t279 -2.5t278 2.5t275 2.5q78 0 78 -33v-319q0 -14 -38 -14t-38 14q0 276 -262 276h-162q-51 0 -51 -46v-1050q0 -117 189 -117q14 0 14 -38t-14 -38q-92 7 -273 7
t-273 -7q-14 0 -14 38t14 38q197 0 197 117z" />
    <glyph glyph-name="T.alt" horiz-adv-x="1585" 
d="M713 186v1050q0 46 -48 46l-289 -10q-265 -9 -265 -266q0 -14 -38 -14t-38 14v319q0 33 78 33q130 0 293 -2q164 -3 385 -3t394 3q173 2 289 2q76 0 77 -33v-319q0 -14 -38 -14t-38 14q0 257 -262 266l-289 10q-51 0 -51 -46v-1050q0 -117 189 -117q14 0 14 -38t-14 -38
q-78 7 -273 7t-273 -7q-14 0 -14 38t14 38q197 0 197 117z" />
    <glyph glyph-name="Tbar" unicode="&#x166;" horiz-adv-x="1321" 
d="M1060 551q17 0 17 -57q0 -58 -19 -58h-299q-23 0 -23 -28v-222q0 -117 189 -117q14 0 14 -38t-14 -38q-92 7 -273 7t-273 -7q-14 0 -14 38t14 38q197 0 197 117v228q0 22 -23 22h-295q-16 0 -16 58q0 57 16 57h298q20 0 20 19v666q0 46 -48 46h-152q-265 0 -265 -276
q0 -14 -38 -14t-38 14v319q0 33 78 33q101 0 264 -2q163 -3 279 -3t278 3q162 2 275 2q78 0 78 -33v-319q0 -14 -38 -14t-38 14q0 276 -262 276h-162q-51 0 -51 -46v-661q0 -24 22 -24h302z" />
    <glyph glyph-name="Tcaron" unicode="&#x164;" horiz-adv-x="1321" 
d="M965 1740l-260 -249q-23 -22 -44.5 -22t-43.5 22l-260 249q-4 4 -4 10t8 14.5t14.5 8.5t10.5 -2l241 -139q16 -9 33.5 -9t34.5 9l246 139q2 1 7.5 1t12.5 -9t7 -14.5t-3 -8.5zM576 186v1050q0 46 -48 46h-152q-265 0 -265 -276q0 -14 -38 -14t-38 14v319q0 33 78 33
q101 0 264 -2.5t279 -2.5t278 2.5t275 2.5q78 0 78 -33v-319q0 -14 -38 -14t-38 14q0 276 -262 276h-162q-51 0 -51 -46v-1050q0 -117 189 -117q14 0 14 -38t-14 -38q-92 7 -273 7t-273 -7q-14 0 -14 38t14 38q197 0 197 117z" />
    <glyph glyph-name="Tcommaaccent" unicode="&#x162;" horiz-adv-x="1321" 
d="M576 186v1050q0 46 -48 46h-152q-265 0 -265 -276q0 -14 -38 -14t-38 14v319q0 33 89.5 33t252.5 -2.5t279 -2.5t278 2.5t257.5 2.5t95.5 -33v-319q0 -14 -38 -14t-38 14q0 276 -262 276h-162q-51 0 -51 -46v-1050q0 -117 189 -117q14 0 14 -38t-14 -38q-84 6 -241 7
l-53 -73q-5 -7 -5 -15q0 -7 11 -15q108 -73 108 -158t-67 -135t-146 -50q-119 0 -119 72q0 53 51 53q23 0 58 -29q36 -30 50 -30q56 0 56 68q0 67 -106 123q-19 10 -19 19q0 10 5 18l103 152q-151 -1 -232 -7q-14 0 -14 38t14 38q197 0 197 117z" />
    <glyph glyph-name="Theta" unicode="&#x398;" horiz-adv-x="1461" 
d="M91 622q0 223 176 448t473 225q266 0 454.5 -205.5t188.5 -471.5q0 -256 -174 -450.5t-474 -194.5q-290 0 -467 182.5t-177 466.5zM282 681q0 -310 150 -471.5t317 -161.5q212 0 327.5 150.5t115.5 403.5q0 239 -145.5 430.5t-319.5 191.5q-210 0 -327.5 -178.5
t-117.5 -364.5zM609 570q-117 0 -144 -115q-3 -12 -39.5 -12t-36.5 8.5t11.5 41.5t42.5 164t31 173q0 13 38 13t38 -9t-2.5 -20.5t-2.5 -33t19 -44t76 -22.5l202 1q117 1 144 115q3 12 39.5 12t36.5 -8.5t-11.5 -43.5t-42.5 -163.5t-31 -171.5q0 -13 -38 -13t-38 9.5t2.5 23
t2.5 32t-19.5 41t-75.5 22.5h-202z" />
    <glyph glyph-name="Thorn" unicode="&#xde;" horiz-adv-x="1157" 
d="M1070 741q0 -258 -183.5 -487t-467.5 -271q-38 -6 -39 -45v-213q0 -58 -86 -124l-150 -117q-5 -4 -14 -4q-31 0 -54.5 30.5t-23.5 45t7 20.5l109 90q52 43 52 101v1339q0 135 -176 135q-14 0 -14 38t14 38q99 0 275 61q25 7 38 7q31 0 31 -20t-4 -64t-4 -113v-51
q0 -31 15 -31q9 0 24 10q68 46 111 80.5t97.5 82.5t116.5 48q72 0 122 -49t93.5 -114.5t77 -180.5t33.5 -242zM879 741q0 121 -70.5 295.5t-145.5 174.5q-18 0 -36 -15q-107 -95 -145.5 -122t-70 -44.5t-31.5 -45.5v-894q0 -31 27 -32q208 0 340 215.5t132 467.5z" />
    <glyph glyph-name="Thorn.nordic" horiz-adv-x="1164" 
d="M944 724q0 129 -100 217q-106 95 -277 95h-89q-47 0 -47 -28v-561q0 -35 33 -40q63 -9 112 -9q368 0 368 326zM1116 724q0 -184 -132 -286q-130 -102 -346 -102q-120 0 -174 6q-8 1 -17 -2q-16 -6 -16 -31v-123q0 -117 180 -117q13 0 13 -38t-13 -38q-115 7 -273 7
t-245 -7q-12 0 -13 38t13 38q178 0 178 117v986q0 115 -189 115q-14 0 -14 38t14 38q59 -5 265 -5t264 5q13 0 13 -38t-13 -38q-105 0 -140 -24q-40 -26 -40 -91v-52q0 -22 27 -22h186q202 0 330 -93q142 -104 142 -281z" />
    <glyph glyph-name="U" unicode="U" horiz-adv-x="1497" 
d="M256 539v633q0 115 -185 115q-13 0 -13 38t13 38q44 -5 276 -5t278 5q13 0 13 -38t-13 -38q-206 0 -206 -115v-631q0 -301 104.5 -397t259.5 -96q193 0 294.5 100.5t101.5 338.5v685q0 115 -188 115q-13 0 -13 38t13 38q45 -5 239 -5t239 5q13 0 13 -38t-13 -38
q-180 0 -180 -115v-443q0 -352 -52.5 -475.5t-166 -202t-312.5 -78.5q-191 0 -300.5 62.5t-155.5 188t-46 315.5z" />
    <glyph glyph-name="Uacute" unicode="&#xda;" horiz-adv-x="1497" 
d="M1025 1640l-298 -157q-18 -9 -30.5 -9t-24.5 8.5t-12 20t6.5 23t16.5 17.5l270 199q5 4 13 4t20 -8t23 -23t17.5 -31.5t6.5 -24.5t-2 -12.5t-6 -6.5zM256 539v633q0 115 -185 115q-13 0 -13 38t13 38q44 -5 276 -5t278 5q13 0 13 -38t-13 -38q-206 0 -206 -115v-631
q0 -301 104.5 -397t259.5 -96q193 0 294.5 100.5t101.5 338.5v685q0 115 -188 115q-13 0 -13 38t13 38q45 -5 239 -5t239 5q13 0 13 -38t-13 -38q-180 0 -180 -115v-443q0 -352 -52.5 -475.5t-166 -202t-312.5 -78.5q-191 0 -300.5 62.5t-155.5 188t-46 315.5z" />
    <glyph glyph-name="Ubreve" unicode="&#x16c;" horiz-adv-x="1497" 
d="M1040 1857q0 -275 -270.5 -275t-270.5 275q8 8 19.5 8t19.5 -8q35 -164 230 -164t233 164q8 8 19.5 8t19.5 -8zM256 539v633q0 115 -185 115q-13 0 -13 38t13 38q44 -5 276 -5t278 5q13 0 13 -38t-13 -38q-206 0 -206 -115v-631q0 -301 104.5 -397t259.5 -96
q193 0 294.5 100.5t101.5 338.5v685q0 115 -188 115q-13 0 -13 38t13 38q45 -5 239 -5t239 5q13 0 13 -38t-13 -38q-180 0 -180 -115v-443q0 -352 -52.5 -475.5t-166 -202t-312.5 -78.5q-191 0 -300.5 62.5t-155.5 188t-46 315.5z" />
    <glyph glyph-name="Ucircumflex" unicode="&#xdb;" horiz-adv-x="1497" 
d="M1076 1507q3 -3 3 -8.5t-7 -14t-12 -8.5t-8 1l-246 139q-17 9 -34 9t-34 -9l-241 -139q-4 -2 -10.5 -2t-14.5 8t-8 14t4 10l260 250q22 22 44 22t44 -22zM256 539v633q0 115 -185 115q-13 0 -13 38t13 38q44 -5 276 -5t278 5q13 0 13 -38t-13 -38q-206 0 -206 -115v-631
q0 -301 104.5 -397t259.5 -96q193 0 294.5 100.5t101.5 338.5v685q0 115 -188 115q-13 0 -13 38t13 38q45 -5 239 -5t239 5q13 0 13 -38t-13 -38q-180 0 -180 -115v-443q0 -352 -52.5 -475.5t-166 -202t-312.5 -78.5q-191 0 -300.5 62.5t-155.5 188t-46 315.5z" />
    <glyph glyph-name="Udieresis" unicode="&#xdc;" horiz-adv-x="1497" 
d="M684 1608q0 -44 -31 -75.5t-75 -31.5t-75.5 31.5t-31.5 75.5t31.5 75t75.5 31t75 -31t31 -75zM1126 1608q0 -44 -31.5 -75.5t-75.5 -31.5t-75 31.5t-31 75.5t31 75t75 31t75.5 -31t31.5 -75zM256 539v633q0 115 -185 115q-13 0 -13 38t13 38q44 -5 276 -5t278 5
q13 0 13 -38t-13 -38q-206 0 -206 -115v-631q0 -301 104.5 -397t259.5 -96q193 0 294.5 100.5t101.5 338.5v685q0 115 -188 115q-13 0 -13 38t13 38q45 -5 239 -5t239 5q13 0 13 -38t-13 -38q-180 0 -180 -115v-443q0 -352 -52.5 -475.5t-166 -202t-312.5 -78.5
q-191 0 -300.5 62.5t-155.5 188t-46 315.5z" />
    <glyph glyph-name="Ugrave" unicode="&#xd9;" horiz-adv-x="1497" 
d="M904 1545q9 -8 15 -18t6 -22t-11.5 -21.5t-25.5 -9.5t-31 9l-281 151q-6 2 -10.5 9.5t-4.5 21t15 36t29 30.5t22.5 8t15.5 -5zM256 539v633q0 115 -185 115q-13 0 -13 38t13 38q44 -5 276 -5t278 5q13 0 13 -38t-13 -38q-206 0 -206 -115v-631q0 -301 104.5 -397
t259.5 -96q193 0 294.5 100.5t101.5 338.5v685q0 115 -188 115q-13 0 -13 38t13 38q45 -5 239 -5t239 5q13 0 13 -38t-13 -38q-180 0 -180 -115v-443q0 -352 -52.5 -475.5t-166 -202t-312.5 -78.5q-191 0 -300.5 62.5t-155.5 188t-46 315.5z" />
    <glyph glyph-name="Uhorn" unicode="&#x1af;" horiz-adv-x="1497" 
d="M1627 1452q0 -164 -153 -164q-182 0 -185 -116v-282q0 -279 -11 -436q-16 -239 -159 -366q-130 -115 -361 -115q-157 0 -255 40q-166 68 -215 255q-32 131 -32 271v633q0 115 -185 115q-16 0 -16 38t16 38q44 -5 269 -5q239 0 285 5q13 0 13 -38t-13 -38q-122 0 -164 -27
t-42 -88v-631q0 -201 36 -291q14 -35 36 -64q80 -112 220 -132q39 -6 84 -6q156 0 251 74q18 14 35 31q98 96 98 334v685q0 115 -188 115q-13 0 -13 38t13 38q45 -5 243 -5l229 1h13q72 0 83 20q4 8 4 20q-8 30 -37 33q-53 0 -63 31q-3 11 -3 27q0 39 31 48q16 4 44 4
q63 0 80 -25l8 -20q4 -17 4 -45z" />
    <glyph glyph-name="Uhungarumlaut" unicode="&#x170;" horiz-adv-x="1497" 
d="M1188 1640l-298 -157q-18 -9 -31 -9q-12 0 -24 8.5t-12 21.5q0 10 6.5 21.5t16.5 17.5l270 199q5 4 12 4q9 0 21 -8t23 -23t17.5 -31.5t6.5 -26.5q0 -6 -2 -10.5t-6 -6.5zM848 1640l-298 -157q-18 -9 -31 -9q-12 0 -24 8.5t-12 21.5q0 10 6.5 21.5t16.5 17.5l270 199
q5 4 12 4q9 0 21 -8t23 -23t17.5 -31.5t6.5 -26.5q0 -6 -2 -10.5t-6 -6.5zM256 539v633q0 115 -185 115q-13 0 -13 38t13 38q44 -5 276 -5t278 5q13 0 13 -38t-13 -38q-206 0 -206 -115v-631q0 -301 104.5 -397t259.5 -96q193 0 294.5 100.5t101.5 338.5v685q0 115 -188 115
q-13 0 -13 38t13 38q45 -5 239 -5t239 5q13 0 13 -38t-13 -38q-180 0 -180 -115v-443q0 -352 -52.5 -475.5t-166 -202t-312.5 -78.5q-191 0 -300.5 62.5t-155.5 188t-46 315.5z" />
    <glyph glyph-name="Umacron" unicode="&#x16a;" horiz-adv-x="1497" 
d="M1064 1651q28 0 28 -47t-32 -47h-578q-29 0 -29 47t29 47h582zM256 539v633q0 115 -185 115q-13 0 -13 38t13 38q44 -5 276 -5t278 5q13 0 13 -38t-13 -38q-206 0 -206 -115v-631q0 -301 104.5 -397t259.5 -96q193 0 294.5 100.5t101.5 338.5v685q0 115 -188 115
q-13 0 -13 38t13 38q45 -5 239 -5t239 5q13 0 13 -38t-13 -38q-180 0 -180 -115v-443q0 -352 -52.5 -475.5t-166 -202t-312.5 -78.5q-191 0 -300.5 62.5t-155.5 188t-46 315.5z" />
    <glyph glyph-name="Uogonek" unicode="&#x172;" horiz-adv-x="1497" 
d="M256 539v633q0 115 -185 115q-13 0 -13 38t13 38q44 -5 276 -5t278 5q13 0 13 -38t-13 -38q-206 0 -206 -115v-631q0 -301 104.5 -397t259.5 -96q193 0 294.5 100.5t101.5 338.5v685q0 115 -188 115q-13 0 -13 38t13 38q45 -5 239 -5t239 5q13 0 13 -38t-13 -38
q-180 0 -180 -115v-443q0 -361 -58 -489.5t-171 -193.5t-202.5 -132.5t-89.5 -179.5q0 -111 123 -111q60 0 103 34q21 -7 21 -36q-42 -56 -90.5 -82.5t-115.5 -26.5q-88 0 -135 52.5t-47 124.5q0 139 199 263q20 13 20 18.5t-9 5.5t-27 -1.5t-52 -1.5q-191 0 -300.5 62.5
t-155.5 188t-46 315.5z" />
    <glyph glyph-name="Uring" unicode="&#x16e;" horiz-adv-x="1497" 
d="M974 1668q0 -91 -72 -149q-57 -46 -132 -46q-105 0 -163 75q-39 50 -42 120q0 96 77 153q55 41 128 41q94 0 154 -66q50 -61 50 -128zM878 1668q0 74 -49 109q-26 18 -59 18q-59 0 -90 -55q-19 -33 -19 -72q0 -71 48 -107q27 -20 61 -20q64 0 94 61q14 29 14 66zM256 539
v633q0 115 -185 115q-13 0 -13 38t13 38q44 -5 276 -5t278 5q13 0 13 -38t-13 -38q-206 0 -206 -115v-631q0 -301 104.5 -397t259.5 -96q193 0 294.5 100.5t101.5 338.5v685q0 115 -188 115q-13 0 -13 38t13 38q45 -5 239 -5t239 5q13 0 13 -38t-13 -38q-180 0 -180 -115
v-443q0 -352 -52.5 -475.5t-166 -202t-312.5 -78.5q-191 0 -300.5 62.5t-155.5 188t-46 315.5z" />
    <glyph glyph-name="Utilde" unicode="&#x168;" horiz-adv-x="1497" 
d="M485 1525q29 43 50.5 68.5t67.5 53t92 27.5t135.5 -31.5t123.5 -31.5q61 0 133 72q2 2 6.5 2t13 -7t8.5 -11.5t-1 -6.5q-104 -158 -213 -158q-47 0 -138 33t-142 33t-109 -64q-3 -3 -7.5 -3t-12.5 8t-8 11t1 5zM256 539v633q0 115 -185 115q-13 0 -13 38t13 38
q44 -5 276 -5t278 5q13 0 13 -38t-13 -38q-206 0 -206 -115v-631q0 -301 104.5 -397t259.5 -96q193 0 294.5 100.5t101.5 338.5v685q0 115 -188 115q-13 0 -13 38t13 38q45 -5 239 -5t239 5q13 0 13 -38t-13 -38q-180 0 -180 -115v-443q0 -352 -52.5 -475.5t-166 -202
t-312.5 -78.5q-191 0 -300.5 62.5t-155.5 188t-46 315.5z" />
    <glyph glyph-name="V" unicode="V" horiz-adv-x="1287" 
d="M180 1172q-40 115 -147 115q-13 0 -13 38t13 38q44 -5 228 -5t230 5q13 0 13 -38t-13 -38q-143 0 -143 -74q0 -17 7 -41l304 -880q7 -20 17 -20t19 22l319 869q10 33 10 46q0 78 -102 78q-14 0 -14 38t14 38q46 -5 194 -5t194 5q14 0 14 -38t-14 -38q-154 0 -187 -86
l-476 -1214q-10 -25 -26 -25q-17 0 -32 44z" />
    <glyph glyph-name="W" unicode="W" horiz-adv-x="1971" 
d="M180 1172q-51 115 -147 115q-13 0 -13 38t13 38q45 -5 213 -5t215 5q13 0 13 -38t-13 -38q-113 0 -113 -57q0 -24 15 -58l395 -880q9 -19 18.5 -19t18.5 21l145 317q8 18 8 39.5t-10 44.5l-214 477q-52 115 -137 115q-13 0 -13 38t13 38q44 -5 208 -5t210 5q13 0 13 -38
t-13 -38q-113 0 -113 -55q0 -24 16 -60l116 -259q11 -23 19 -23t19 25l113 248q17 37 17 63q0 61 -100 61q-14 0 -14 38t14 38q46 -5 190 -5t189 5q13 0 13 -38t-13 -38q-149 0 -188 -86l-175 -388q-11 -25 -11 -43.5t7 -34.5l199 -443q10 -19 19 -19t17 21l396 869
q17 37 17 62q0 62 -99 62q-13 0 -13 38t13 38q47 -5 180 -5t179 5q14 0 14 -38t-14 -38q-130 0 -169 -86l-542 -1194q-17 -36 -28 -36t-26 35l-228 512q-8 16 -16 16t-15 -16l-232 -512q-15 -35 -25.5 -35t-27.5 35z" />
    <glyph glyph-name="Wacute" unicode="&#x1e82;" horiz-adv-x="1971" 
d="M1304 1640l-298 -157q-18 -9 -30.5 -9t-24.5 8.5t-12 20t6.5 23t16.5 17.5l270 199q5 4 13 4t20 -8t23 -23t17.5 -31.5t6.5 -24.5t-2 -12.5t-6 -6.5zM180 1172q-51 115 -147 115q-13 0 -13 38t13 38q45 -5 213 -5t215 5q13 0 13 -38t-13 -38q-113 0 -113 -57
q0 -24 15 -58l395 -880q9 -19 18.5 -19t18.5 21l145 317q8 18 8 39.5t-10 44.5l-214 477q-52 115 -137 115q-13 0 -13 38t13 38q44 -5 208 -5t210 5q13 0 13 -38t-13 -38q-113 0 -113 -55q0 -24 16 -60l116 -259q11 -23 19 -23t19 25l113 248q17 37 17 63q0 61 -100 61
q-14 0 -14 38t14 38q46 -5 190 -5t189 5q13 0 13 -38t-13 -38q-149 0 -188 -86l-175 -388q-11 -25 -11 -43.5t7 -34.5l199 -443q10 -19 19 -19t17 21l396 869q17 37 17 62q0 62 -99 62q-13 0 -13 38t13 38q47 -5 180 -5t179 5q14 0 14 -38t-14 -38q-130 0 -169 -86
l-542 -1194q-17 -36 -28 -36t-26 35l-228 512q-8 16 -16 16t-15 -16l-232 -512q-15 -35 -25.5 -35t-27.5 35z" />
    <glyph glyph-name="Wcircumflex" unicode="&#x174;" horiz-adv-x="1971" 
d="M1332 1507q3 -3 3 -8.5t-7 -14t-12 -8.5t-8 1l-246 139q-17 9 -34 9t-34 -9l-241 -139q-4 -2 -10.5 -2t-14.5 8t-8 14t4 10l260 250q22 22 44 22t44 -22zM180 1172q-51 115 -147 115q-13 0 -13 38t13 38q45 -5 213 -5t215 5q13 0 13 -38t-13 -38q-113 0 -113 -57
q0 -24 15 -58l395 -880q9 -19 18.5 -19t18.5 21l145 317q8 18 8 39.5t-10 44.5l-214 477q-52 115 -137 115q-13 0 -13 38t13 38q44 -5 208 -5t210 5q13 0 13 -38t-13 -38q-113 0 -113 -55q0 -24 16 -60l116 -259q11 -23 19 -23t19 25l113 248q17 37 17 63q0 61 -100 61
q-14 0 -14 38t14 38q46 -5 190 -5t189 5q13 0 13 -38t-13 -38q-149 0 -188 -86l-175 -388q-11 -25 -11 -43.5t7 -34.5l199 -443q10 -19 19 -19t17 21l396 869q17 37 17 62q0 62 -99 62q-13 0 -13 38t13 38q47 -5 180 -5t179 5q14 0 14 -38t-14 -38q-130 0 -169 -86
l-542 -1194q-17 -36 -28 -36t-26 35l-228 512q-8 16 -16 16t-15 -16l-232 -512q-15 -35 -25.5 -35t-27.5 35z" />
    <glyph glyph-name="Wdieresis" unicode="&#x1e84;" horiz-adv-x="1971" 
d="M903 1608q0 -44 -31 -75.5t-75 -31.5t-75.5 31.5t-31.5 75.5t31.5 75t75.5 31t75 -31t31 -75zM1345 1608q0 -44 -31.5 -75.5t-75.5 -31.5t-75 31.5t-31 75.5t31 75t75 31t75.5 -31t31.5 -75zM180 1172q-51 115 -147 115q-13 0 -13 38t13 38q45 -5 213 -5t215 5
q13 0 13 -38t-13 -38q-113 0 -113 -57q0 -24 15 -58l395 -880q9 -19 18.5 -19t18.5 21l145 317q8 18 8 39.5t-10 44.5l-214 477q-52 115 -137 115q-13 0 -13 38t13 38q44 -5 208 -5t210 5q13 0 13 -38t-13 -38q-113 0 -113 -55q0 -24 16 -60l116 -259q11 -23 19 -23t19 25
l113 248q17 37 17 63q0 61 -100 61q-14 0 -14 38t14 38q46 -5 190 -5t189 5q13 0 13 -38t-13 -38q-149 0 -188 -86l-175 -388q-11 -25 -11 -43.5t7 -34.5l199 -443q10 -19 19 -19t17 21l396 869q17 37 17 62q0 62 -99 62q-13 0 -13 38t13 38q47 -5 180 -5t179 5q14 0 14 -38
t-14 -38q-130 0 -169 -86l-542 -1194q-17 -36 -28 -36t-26 35l-228 512q-8 16 -16 16t-15 -16l-232 -512q-15 -35 -25.5 -35t-27.5 35z" />
    <glyph glyph-name="Wgrave" unicode="&#x1e80;" horiz-adv-x="1971" 
d="M1096 1545q9 -8 15 -18t6 -22t-11.5 -21.5t-25.5 -9.5t-31 9l-281 151q-6 2 -10.5 9.5t-4.5 21t15 36t29 30.5t22.5 8t15.5 -5zM180 1172q-51 115 -147 115q-13 0 -13 38t13 38q45 -5 213 -5t215 5q13 0 13 -38t-13 -38q-113 0 -113 -57q0 -24 15 -58l395 -880
q9 -19 18.5 -19t18.5 21l145 317q8 18 8 39.5t-10 44.5l-214 477q-52 115 -137 115q-13 0 -13 38t13 38q44 -5 208 -5t210 5q13 0 13 -38t-13 -38q-113 0 -113 -55q0 -24 16 -60l116 -259q11 -23 19 -23t19 25l113 248q17 37 17 63q0 61 -100 61q-14 0 -14 38t14 38
q46 -5 190 -5t189 5q13 0 13 -38t-13 -38q-149 0 -188 -86l-175 -388q-11 -25 -11 -43.5t7 -34.5l199 -443q10 -19 19 -19t17 21l396 869q17 37 17 62q0 62 -99 62q-13 0 -13 38t13 38q47 -5 180 -5t179 5q14 0 14 -38t-14 -38q-130 0 -169 -86l-542 -1194q-17 -36 -28 -36
t-26 35l-228 512q-8 16 -16 16t-15 -16l-232 -512q-15 -35 -25.5 -35t-27.5 35z" />
    <glyph glyph-name="Wynndotsub" horiz-adv-x="1194" 
d="M845 -300q0 -57 -48 -90q-27 -19 -61 -19q-60 0 -90 50q-16 27 -16 59q0 63 49 91q26 15 57 15q59 0 91 -47q18 -27 18 -59zM230 -224v1399q0 110 -188 110q-13 0 -13 38t13 38q183 -3 292.5 -3t321 1.5t418.5 1.5q68 0 68 -55q0 -12 -7 -21l-725 -1203q-19 -42 -19 -99
v-248q0 -71 -134 -173l-109 -81q-4 -2 -9 -2q-17 0 -45 31q-22 27 -22 48q0 10 7 17q151 116 151 201zM391 266q0 -26 14 -26q13 0 24 18l618 1002q4 6 4 10q0 17 -19 17q-28 -2 -172 -2h-436q-33 0 -33 -37v-982z" />
    <glyph glyph-name="X" unicode="X" horiz-adv-x="1330" 
d="M243 1179q-45 67 -93 87t-131 21q-13 0 -13 38t13 38q45 -5 277 -5t280 5q14 0 14 -38t-14 -38q-139 0 -139 -57q0 -25 22 -59l210 -327q11 -16 22 -16t23 16l241 319q38 50 38 78q0 46 -87 46q-14 0 -14 38t14 38q44 -5 198 -5t201 5q13 0 13 -38t-13 -38
q-117 0 -171 -41t-141 -154l-240 -314q-11 -14 -11 -28t9 -28l346 -536q76 -117 240 -117q13 0 13 -38t-13 -38q-77 7 -257 7t-256 -7q-14 0 -14 38t14 38q114 0 114 53q0 26 -29 69l-264 392q-11 17 -20.5 17t-21.5 -17l-204 -281q-95 -131 -95 -182t120 -51q14 0 14 -38
t-14 -38q-74 7 -220 7t-233 -7q-13 0 -13 38t13 38q161 0 226 86l374 496q8 11 8 21.5t-12 28.5z" />
    <glyph glyph-name="Xdotsub" horiz-adv-x="1330" 
d="M734 -300q0 -57 -48 -90q-27 -19 -61 -19q-60 0 -90 50q-16 27 -16 59q0 63 49 91q26 15 57 15q59 0 91 -47q18 -27 18 -59zM243 1179q-45 67 -93 87t-131 21q-13 0 -13 38t13 38q45 -5 277 -5t280 5q14 0 14 -38t-14 -38q-139 0 -139 -57q0 -25 22 -59l210 -327
q11 -16 22 -16t23 16l241 319q38 50 38 78q0 46 -87 46q-14 0 -14 38t14 38q44 -5 198 -5t201 5q13 0 13 -38t-13 -38q-117 0 -171 -41t-141 -154l-240 -314q-11 -14 -11 -28t9 -28l346 -536q76 -117 240 -117q13 0 13 -38t-13 -38q-77 7 -257 7t-256 -7q-14 0 -14 38t14 38
q114 0 114 53q0 26 -29 69l-264 392q-11 17 -20.5 17t-21.5 -17l-204 -281q-95 -131 -95 -182t120 -51q14 0 14 -38t-14 -38q-74 7 -220 7t-233 -7q-13 0 -13 38t13 38q161 0 226 86l374 496q8 11 8 21.5t-12 28.5z" />
    <glyph glyph-name="Y" unicode="Y" horiz-adv-x="1235" 
d="M175 1172q-70 115 -188 115q-13 0 -13 38t13 38q45 -5 237 -5t239 5q13 0 13 -38t-13 -38q-121 0 -121 -57q0 -23 21 -58l281 -472q8 -14 15.5 -14t16.5 14l298 463q27 42 27 71q0 53 -111 53q-14 0 -14 38t14 38q46 -5 198 -5t197 5q13 0 13 -38t-13 -38
q-139 0 -211 -109l-308 -473q-65 -100 -71 -129.5t-6 -86.5v-303q0 -117 164 -117q13 0 13 -38t-13 -38q-75 7 -244 7t-244 -7q-13 0 -13 38t13 38q164 0 164 117v301q0 101 -28 147z" />
    <glyph glyph-name="Yacute" unicode="&#xdd;" horiz-adv-x="1235" 
d="M909 1640l-298 -157q-18 -9 -30.5 -9t-24.5 8.5t-12 20t6.5 23t16.5 17.5l270 199q5 4 13 4t20 -8t23 -23t17.5 -31.5t6.5 -24.5t-2 -12.5t-6 -6.5zM175 1172q-70 115 -188 115q-13 0 -13 38t13 38q45 -5 237 -5t239 5q13 0 13 -38t-13 -38q-121 0 -121 -57q0 -23 21 -58
l281 -472q8 -14 15.5 -14t16.5 14l298 463q27 42 27 71q0 53 -111 53q-14 0 -14 38t14 38q46 -5 198 -5t197 5q13 0 13 -38t-13 -38q-139 0 -211 -109l-308 -473q-65 -100 -71 -129.5t-6 -86.5v-303q0 -117 164 -117q13 0 13 -38t-13 -38q-75 7 -244 7t-244 -7q-13 0 -13 38
t13 38q164 0 164 117v301q0 101 -28 147z" />
    <glyph glyph-name="Ycircumflex" unicode="&#x176;" horiz-adv-x="1235" 
d="M944 1507q3 -3 3 -8.5t-7 -14t-12 -8.5t-8 1l-246 139q-17 9 -34 9t-34 -9l-241 -139q-4 -2 -10.5 -2t-14.5 8t-8 14t4 10l260 250q22 22 44 22t44 -22zM175 1172q-70 115 -188 115q-13 0 -13 38t13 38q45 -5 237 -5t239 5q13 0 13 -38t-13 -38q-121 0 -121 -57
q0 -23 21 -58l281 -472q8 -14 15.5 -14t16.5 14l298 463q27 42 27 71q0 53 -111 53q-14 0 -14 38t14 38q46 -5 198 -5t197 5q13 0 13 -38t-13 -38q-139 0 -211 -109l-308 -473q-65 -100 -71 -129.5t-6 -86.5v-303q0 -117 164 -117q13 0 13 -38t-13 -38q-75 7 -244 7t-244 -7
q-13 0 -13 38t13 38q164 0 164 117v301q0 101 -28 147z" />
    <glyph glyph-name="Ydieresis" unicode="&#x178;" horiz-adv-x="1235" 
d="M516 1608q0 -44 -31 -75.5t-75 -31.5t-75.5 31.5t-31.5 75.5t31.5 75t75.5 31t75 -31t31 -75zM958 1608q0 -44 -31.5 -75.5t-75.5 -31.5t-75 31.5t-31 75.5t31 75t75 31t75.5 -31t31.5 -75zM175 1172q-70 115 -188 115q-13 0 -13 38t13 38q45 -5 237 -5t239 5
q13 0 13 -38t-13 -38q-121 0 -121 -57q0 -23 21 -58l281 -472q8 -14 15.5 -14t16.5 14l298 463q27 42 27 71q0 53 -111 53q-14 0 -14 38t14 38q46 -5 198 -5t197 5q13 0 13 -38t-13 -38q-139 0 -211 -109l-308 -473q-65 -100 -71 -129.5t-6 -86.5v-303q0 -117 164 -117
q13 0 13 -38t-13 -38q-75 7 -244 7t-244 -7q-13 0 -13 38t13 38q164 0 164 117v301q0 101 -28 147z" />
    <glyph glyph-name="Ygrave" unicode="&#x1ef2;" horiz-adv-x="1235" 
d="M732 1545q9 -8 15 -18t6 -22t-11.5 -21.5t-25.5 -9.5t-31 9l-281 151q-6 2 -10.5 9.5t-4.5 21t15 36t29 30.5t22.5 8t15.5 -5zM175 1172q-70 115 -188 115q-13 0 -13 38t13 38q45 -5 237 -5t239 5q13 0 13 -38t-13 -38q-121 0 -121 -57q0 -23 21 -58l281 -472
q8 -14 15.5 -14t16.5 14l298 463q27 42 27 71q0 53 -111 53q-14 0 -14 38t14 38q46 -5 198 -5t197 5q13 0 13 -38t-13 -38q-139 0 -211 -109l-308 -473q-65 -100 -71 -129.5t-6 -86.5v-303q0 -117 164 -117q13 0 13 -38t-13 -38q-75 7 -244 7t-244 -7q-13 0 -13 38t13 38
q164 0 164 117v301q0 101 -28 147z" />
    <glyph glyph-name="Yoghdotsub" horiz-adv-x="993" 
d="M556 -300q0 -57 -48 -90q-27 -19 -61 -19q-60 0 -90 50q-16 27 -16 59q0 63 49 91q26 15 57 15q59 0 91 -47q18 -27 18 -59zM882 479q0 -274 -237 -416q-199 -120 -505 -120q-14 0 -14 32t14 32q224 0 394 123q167 122 167 286q0 256 -200 256q-70 0 -184 -72
q-11 -6 -20 15q-8 20 1 25q156 95 238 173q63 60 86 168q9 43 9 85q0 216 -217 216q-124 0 -190 -96q-56 -85 -56 -216q0 -15 -38 -15q-37 0 -37 15v392q0 14 37 14q38 0 38 -14q0 -71 58 -71q15 0 99 46q89 49 174 49q116 0 202 -57q102 -66 102 -186q0 -118 -95 -257
q-28 -41 -53 -66q-6 -6 -6 -15q0 -18 16 -25q143 -77 193 -190q24 -54 24 -111z" />
    <glyph glyph-name="Yoghflatdot" horiz-adv-x="1071" 
d="M583 -301q0 -57 -48 -90q-27 -19 -61 -19q-60 0 -90 50q-16 27 -16 59q0 63 49 91q26 15 57 15q59 0 91 -47q18 -27 18 -59zM91 180q0 30 29 49t50 19q60 0 126 -100t165 -100q155 0 231 107t76 259q0 392 -221 392q-159 0 -276 -111q-2 -2 -3 -2q-13 0 -33.5 32.5
t-20.5 38t1 7.5q105 50 257 177q146 116 244 227q10 10 10 19q0 21 -21 21h-367q-81 0 -116.5 -32.5t-66.5 -107.5q-1 -2 -12 -1t-10 7l35 246q4 24 19 25h514q60 0 111.5 2t77.5 2q34 0 34 -34q0 -15 -7 -26q-161 -222 -378 -394q-29 -21 -29 -31q0 -4 86 -4
q141 0 247.5 -101.5t106.5 -314.5t-136.5 -345.5t-404.5 -132.5q-124 0 -221 56.5t-97 150.5z" />
    <glyph glyph-name="Z" unicode="Z" horiz-adv-x="1241" 
d="M83 24q0 13 10 27l875 1198q9 12 9 21q0 21 -31 21h-554q-55 0 -102 -61t-71.5 -123.5t-43.5 -129.5q-2 -7 -24 -7t-25 14q33 213 33 363q0 18 37 18q97 -9 147 -9h481q152 0 368 8q25 0 25 -14t-14 -32l-863 -1200q-9 -12 -9 -24q0 -25 30 -25q435 0 640 13
q80 5 141 121t69 149q3 7 11 7t23.5 -6.5t15.5 -16.5q-48 -236 -48 -353q0 -13 -15 -16q-35 10 -55 12q-187 21 -660 21h-365q-35 0 -35 24z" />
    <glyph glyph-name="Zacute" unicode="&#x179;" horiz-adv-x="1241" 
d="M916 1640l-298 -157q-18 -9 -30.5 -9t-24.5 8.5t-12 20t6.5 23t16.5 17.5l270 199q5 4 13 4t20 -8t23 -23t17.5 -31.5t6.5 -24.5t-2 -12.5t-6 -6.5zM83 24q0 13 10 27l875 1198q9 12 9 21q0 21 -31 21h-554q-55 0 -102 -61t-71.5 -123.5t-43.5 -129.5q-2 -7 -24 -7
t-25 14q33 213 33 363q0 18 37 18q97 -9 147 -9h481q152 0 368 8q25 0 25 -14t-14 -32l-863 -1200q-9 -12 -9 -24q0 -25 30 -25q435 0 640 13q80 5 141 121t69 149q3 7 11 7t23.5 -6.5t15.5 -16.5q-48 -236 -48 -353q0 -13 -15 -16q-35 10 -55 12q-187 21 -660 21h-365
q-35 0 -35 24z" />
    <glyph glyph-name="Zcaron" unicode="&#x17d;" horiz-adv-x="1241" 
d="M972 1740l-260 -249q-23 -22 -44.5 -22t-43.5 22l-260 249q-4 4 -4 10t8 14.5t14.5 8.5t10.5 -2l241 -139q16 -9 33.5 -9t34.5 9l246 139q2 1 7.5 1t12.5 -9t7 -14.5t-3 -8.5zM83 24q0 13 10 27l875 1198q9 12 9 21q0 21 -31 21h-554q-55 0 -102 -61t-71.5 -123.5
t-43.5 -129.5q-2 -7 -24 -7t-25 14q33 213 33 363q0 18 37 18q97 -9 147 -9h481q152 0 368 8q25 0 25 -14t-14 -32l-863 -1200q-9 -12 -9 -24q0 -25 30 -25q435 0 640 13q80 5 141 121t69 149q3 7 11 7t23.5 -6.5t15.5 -16.5q-48 -236 -48 -353q0 -13 -15 -16q-35 10 -55 12
q-187 21 -660 21h-365q-35 0 -35 24z" />
    <glyph glyph-name="Zdotaccent" unicode="&#x17b;" horiz-adv-x="1241" 
d="M764 1660q0 -57 -48 -90q-27 -19 -61 -19q-60 0 -90 50q-16 27 -16 59q0 63 49 91q26 15 57 15q59 0 91 -47q18 -27 18 -59zM83 24q0 13 10 27l875 1198q9 12 9 21q0 21 -31 21h-554q-55 0 -102 -61t-71.5 -123.5t-43.5 -129.5q-2 -7 -24 -7t-25 14q33 213 33 363
q0 18 37 18q97 -9 147 -9h481q152 0 368 8q25 0 25 -14t-14 -32l-863 -1200q-9 -12 -9 -24q0 -25 30 -25q435 0 640 13q80 5 141 121t69 149q3 7 11 7t23.5 -6.5t15.5 -16.5q-48 -236 -48 -353q0 -13 -15 -16q-35 10 -55 12q-187 21 -660 21h-365q-35 0 -35 24z" />
    <glyph glyph-name="a" unicode="a" horiz-adv-x="797" 
d="M481 199v215q0 22 -14 22q-7 0 -60 -26q-170 -85 -170 -222q0 -49 31.5 -79.5t87.5 -30.5q40 0 82.5 42.5t42.5 78.5zM780 123q22 -3 29 -30q0 -3 -1 -5q-41 -69 -76 -90t-92 -21q-105 0 -142 136q-76 -76 -121 -106t-132 -30q-56 0 -93 31t-52.5 71.5t-15.5 82.5
t20 82.5t58.5 73t66.5 47.5l232 129q20 11 20 32v181q0 88 -133 88q-97 0 -135 -50q-5 -7 -15 -93q-12 -99 -69 -99q-55 0 -55 56t40.5 112.5t69.5 73.5q128 75 246 75q71 0 137.5 -40t66.5 -99v-532q0 -115 67 -115q19 0 72 37q3 2 7 2z" />
    <glyph glyph-name="a.sc" horiz-adv-x="1003" 
d="M141 150l252 663q9 23 9 27.5t-7.5 12t-7.5 17t23.5 18.5t68.5 36.5t60 27.5q22 0 31.5 -35.5t33.5 -109.5l238 -668q32 -80 137 -80q14 0 14 -32.5t-14 -32.5q-61 6 -175 6t-175 -6q-15 0 -15 32.5t15 32.5q65 0 65 46q0 15 -6 34l-67 203q-7 16 -25 16h-283
q-16 0 -22 -18l-76 -203q-5 -14 -5 -26q0 -52 100 -52q14 0 14 -32.5t-15 -32.5q-61 6 -153.5 6t-153.5 -6q-14 0 -14 32.5t14 32.5q104 0 139 91zM328 440q-11 -22 14 -22h225q27 0 19 24l-107 318q-4 14 -16 14t-17 -12z" />
    <glyph glyph-name="aacute" unicode="&#xe1;" horiz-adv-x="797" 
d="M599 1336l-179 -285q-18 -29 -46 -29t-28 37q0 12 5 22l135 307q6 13 25 13q34 0 62 -22.5t28 -35.5q0 -3 -2 -7zM481 199v215q0 22 -14 22q-7 0 -60 -26q-170 -85 -170 -222q0 -49 31.5 -79.5t87.5 -30.5q40 0 82.5 42.5t42.5 78.5zM780 123q22 -3 29 -30q0 -3 -1 -5
q-41 -69 -76 -90t-92 -21q-105 0 -142 136q-76 -76 -121 -106t-132 -30q-56 0 -93 31t-52.5 71.5t-15.5 82.5t20 82.5t58.5 73t66.5 47.5l232 129q20 11 20 32v181q0 88 -133 88q-97 0 -135 -50q-5 -7 -15 -93q-12 -99 -69 -99q-55 0 -55 56t40.5 112.5t69.5 73.5
q128 75 246 75q71 0 137.5 -40t66.5 -99v-532q0 -115 67 -115q19 0 72 37q3 2 7 2z" />
    <glyph glyph-name="aacute.sc" horiz-adv-x="1003" 
d="M141 150l252 663q9 23 9 27.5t-7.5 12t-7.5 17t23.5 18.5t68.5 36.5t60 27.5q22 0 31.5 -35.5t33.5 -109.5l238 -668q32 -80 137 -80q14 0 14 -32.5t-14 -32.5q-61 6 -175 6t-175 -6q-15 0 -15 32.5t15 32.5q65 0 65 46q0 15 -6 34l-67 203q-7 16 -25 16h-283
q-16 0 -22 -18l-76 -203q-5 -14 -5 -26q0 -52 100 -52q14 0 14 -32.5t-15 -32.5q-61 6 -153.5 6t-153.5 -6q-14 0 -14 32.5t14 32.5q104 0 139 91zM328 440q-11 -22 14 -22h225q27 0 19 24l-107 318q-4 14 -16 14t-17 -12zM392 1099q-25 0 -25 15q0 19 9 34l170 239
q8 9 18 12q30 7 51 -16q19 -20 24 -43q4 -22 -7 -32l-216 -195q-13 -11 -24 -14z" />
    <glyph glyph-name="abreve" unicode="&#x103;" horiz-adv-x="797" 
d="M666 1354q0 -275 -270.5 -275t-270.5 275q8 8 19.5 8t19.5 -8q35 -164 230 -164t233 164q8 8 19.5 8t19.5 -8zM481 199v215q0 22 -14 22q-7 0 -60 -26q-170 -85 -170 -222q0 -49 31.5 -79.5t87.5 -30.5q40 0 82.5 42.5t42.5 78.5zM780 123q22 -3 29 -30q0 -3 -1 -5
q-41 -69 -76 -90t-92 -21q-105 0 -142 136q-76 -76 -121 -106t-132 -30q-56 0 -93 31t-52.5 71.5t-15.5 82.5t20 82.5t58.5 73t66.5 47.5l232 129q20 11 20 32v181q0 88 -133 88q-97 0 -135 -50q-5 -7 -15 -93q-12 -99 -69 -99q-55 0 -55 56t40.5 112.5t69.5 73.5
q128 75 246 75q71 0 137.5 -40t66.5 -99v-532q0 -115 67 -115q19 0 72 37q3 2 7 2z" />
    <glyph glyph-name="acircumflex" unicode="&#xe2;" horiz-adv-x="797" 
d="M641 1015q0 -23 -29 -23q-3 0 -6 4l-184 217q-22 25 -30 25t-29 -25l-185 -217q-3 -4 -8 -4q-27 0 -27 23l211 375q16 28 38 28t38 -28zM481 199v215q0 22 -14 22q-7 0 -60 -26q-170 -85 -170 -222q0 -49 31.5 -79.5t87.5 -30.5q40 0 82.5 42.5t42.5 78.5zM780 123
q22 -3 29 -30q0 -3 -1 -5q-41 -69 -76 -90t-92 -21q-105 0 -142 136q-76 -76 -121 -106t-132 -30q-56 0 -93 31t-52.5 71.5t-15.5 82.5t20 82.5t58.5 73t66.5 47.5l232 129q20 11 20 32v181q0 88 -133 88q-97 0 -135 -50q-5 -7 -15 -93q-12 -99 -69 -99q-55 0 -55 56
t40.5 112.5t69.5 73.5q128 75 246 75q71 0 137.5 -40t66.5 -99v-532q0 -115 67 -115q19 0 72 37q3 2 7 2z" />
    <glyph glyph-name="acircumflex.sc" horiz-adv-x="1003" 
d="M141 150l252 663q9 23 9 27.5t-7.5 12t-7.5 17t23.5 18.5t68.5 36.5t60 27.5q22 0 31.5 -35.5t33.5 -109.5l238 -668q32 -80 137 -80q14 0 14 -32.5t-14 -32.5q-61 6 -175 6t-175 -6q-15 0 -15 32.5t15 32.5q65 0 65 46q0 15 -6 34l-67 203q-7 16 -25 16h-283
q-16 0 -22 -18l-76 -203q-5 -14 -5 -26q0 -52 100 -52q14 0 14 -32.5t-15 -32.5q-61 6 -153.5 6t-153.5 -6q-14 0 -14 32.5t14 32.5q104 0 139 91zM328 440q-11 -22 14 -22h225q27 0 19 24l-107 318q-4 14 -16 14t-17 -12zM720 1122q2 -3 2 -8.5t-5 -14t-10 -8.5q-2 0 -4 1
l-167 149q-12 9 -23 9q-12 0 -24 -9l-163 -151q-3 -2 -5 -2q-7 0 -12.5 8t-5.5 14.5t3 10.5l176 254q16 23 30 23q15 0 30 -22z" />
    <glyph glyph-name="acute" unicode="&#xb4;" horiz-adv-x="569" 
d="M400 1336l-179 -285q-18 -29 -46 -29t-28 37q0 12 5 22l135 307q6 13 25 13q34 0 62 -22.5t28 -35.5q0 -3 -2 -7z" />
    <glyph glyph-name="acutecomb" unicode="&#x301;" 
d="M204 1336l-179 -285q-18 -29 -41 -29q-33 0 -33 37q0 12 5 22l135 307q6 13 25 13q34 0 70 -29q20 -16 20 -29q0 -3 -2 -7z" />
    <glyph glyph-name="acutecomb.sc" 
d="M-82 1100q-25 0 -25 15q0 19 9 34l170 239q8 9 18 12q30 7 51 -16q19 -20 24 -43q4 -22 -7 -32l-216 -195q-13 -11 -24 -14z" />
    <glyph glyph-name="adieresis" unicode="&#xe4;" horiz-adv-x="797" 
d="M310 1156q0 -45 -31.5 -76.5t-76.5 -31.5t-76.5 31.5t-31.5 76.5t31.5 76.5t76.5 31.5t76.5 -31.5t31.5 -76.5zM691 1156q0 -45 -31.5 -76.5t-76 -31.5t-76 31.5t-31.5 76.5t31.5 76.5t76 31.5t76 -31.5t31.5 -76.5zM481 199v215q0 22 -14 22q-7 0 -60 -26
q-170 -85 -170 -222q0 -49 31.5 -79.5t87.5 -30.5q40 0 82.5 42.5t42.5 78.5zM780 123q22 -3 29 -30q0 -3 -1 -5q-41 -69 -76 -90t-92 -21q-105 0 -142 136q-76 -76 -121 -106t-132 -30q-56 0 -93 31t-52.5 71.5t-15.5 82.5t20 82.5t58.5 73t66.5 47.5l232 129q20 11 20 32
v181q0 88 -133 88q-97 0 -135 -50q-5 -7 -15 -93q-12 -99 -69 -99q-55 0 -55 56t40.5 112.5t69.5 73.5q128 75 246 75q71 0 137.5 -40t66.5 -99v-532q0 -115 67 -115q19 0 72 37q3 2 7 2z" />
    <glyph glyph-name="adieresis.sc" horiz-adv-x="1003" 
d="M238.5 1266q28.5 29 69 29t69.5 -29t29 -69.5t-29 -69t-69.5 -28.5t-69 28.5t-28.5 69t28.5 69.5zM618.5 1266q28.5 29 69.5 29t69.5 -29t28.5 -69.5t-28.5 -69t-69.5 -28.5t-69.5 28.5t-28.5 69t28.5 69.5zM141 150l252 663q9 23 9 27.5t-7.5 12t-7.5 17t23.5 18.5
t68.5 36.5t60 27.5q22 0 31.5 -35.5t33.5 -109.5l238 -668q32 -80 137 -80q14 0 14 -32.5t-14 -32.5q-61 6 -175 6t-175 -6q-15 0 -15 32.5t15 32.5q65 0 65 46q0 15 -6 34l-67 203q-7 16 -25 16h-283q-16 0 -22 -18l-76 -203q-5 -14 -5 -26q0 -52 100 -52q14 0 14 -32.5
t-15 -32.5q-61 6 -153.5 6t-153.5 -6q-14 0 -14 32.5t14 32.5q104 0 139 91zM328 440q-11 -22 14 -22h225q27 0 19 24l-107 318q-4 14 -16 14t-17 -12z" />
    <glyph glyph-name="ae" unicode="&#xe6;" horiz-adv-x="1145" 
d="M66 160q0 110 61 165t200.5 114t139.5 98v112q0 144 -135 144q-106 0 -137 -52q-12 -97 -30 -146q-16 -42 -59 -42q-61 0 -61 53q0 103 119.5 183.5t231.5 80.5t173 -84q13 -18 20 -18t34 23q99 79 213 79t187 -42t73 -99q0 -34 -35 -51l-416 -172q-35 -14 -35 -104
q0 -104 75 -206t175 -102q116 0 209 76q11 11 26 0t15 -20.5t-4 -16.5q-112 -156 -330 -156q-148 0 -239 142q-14 18 -18 18t-17 -16q-105 -131 -219 -131q-217 0 -217 170zM628 593q0 -22 29 -11l269 108q32 12 32 41t-46.5 53.5t-80.5 24.5q-70 0 -120.5 -53.5
t-73.5 -122.5q-9 -25 -9 -40zM219 180q0 -106 115 -106q49 0 103.5 59t54.5 86q-7 33 -27 170q-5 35 -21 35q-8 0 -22 -6q-203 -90 -203 -238z" />
    <glyph glyph-name="ae.sc" horiz-adv-x="1310" 
d="M80 145l393 664q12 22 12 35q0 8 -8 16t-49 8q-14 0 -14 32t14 32q131 -4 270.5 -4t245.5 2t161.5 2t64 -7t8.5 -36v-195q0 -12 -35 -12t-35 12q0 80 -51 126t-107 48l-192 4q-21 0 -21 -28v-355q0 -20 21 -20h184q53 0 53 121q0 16 33 16t33 -16q-6 -37 -6 -144.5
t6 -144.5q0 -14 -33 -14t-33 14q0 111 -53 111h-184q-21 0 -21 -23v-201q0 -55 27 -95t82 -40l168 6q45 2 97 48.5t52 123.5q0 13 35 13t35 -13v-196q0 -24 -17.5 -32.5t-39 -8.5t-185.5 3t-305.5 3t-200.5 -6q-14 0 -14 32.5t14 32.5q56 0 80.5 14.5t24.5 59.5v258
q0 21 -19 21h-237q-21 0 -25 -13l-149 -270q-19 -32 -19 -46t14.5 -19t98.5 -5q16 0 16 -32.5t-16 -32.5q-61 6 -155.5 6t-155.5 -6q-17 0 -17 32.5t17 32.5q51 0 78.5 18.5t58.5 67.5zM365 489q-5 -8 -1.5 -14t11.5 -6h194q21 0 21 20v342q0 15 -9.5 15t-19.5 -15z" />
    <glyph glyph-name="aeacute" unicode="&#x1fd;" horiz-adv-x="1145" 
d="M797 1336l-179 -285q-18 -29 -46 -29t-28 37q0 12 5 22l135 307q6 13 25 13q34 0 62 -22.5t28 -35.5q0 -3 -2 -7zM66 160q0 110 61 165t200.5 114t139.5 98v112q0 144 -135 144q-106 0 -137 -52q-12 -97 -30 -146q-16 -42 -59 -42q-61 0 -61 53q0 103 119.5 183.5
t231.5 80.5t173 -84q13 -18 20 -18t34 23q99 79 213 79t187 -42t73 -99q0 -34 -35 -51l-416 -172q-35 -14 -35 -104q0 -104 75 -206t175 -102q116 0 209 76q11 11 26 0t15 -20.5t-4 -16.5q-112 -156 -330 -156q-148 0 -239 142q-14 18 -18 18t-17 -16q-105 -131 -219 -131
q-217 0 -217 170zM628 593q0 -22 29 -11l269 108q32 12 32 41t-46.5 53.5t-80.5 24.5q-70 0 -120.5 -53.5t-73.5 -122.5q-9 -25 -9 -40zM219 180q0 -106 115 -106q49 0 103.5 59t54.5 86q-7 33 -27 170q-5 35 -21 35q-8 0 -22 -6q-203 -90 -203 -238z" />
    <glyph glyph-name="afii301" unicode="&#x200d;" 
 />
    <glyph glyph-name="afii57929" unicode="&#x2bc;" horiz-adv-x="389" 
d="M332 1305q0 -190 -186 -329q-28 -21 -60 -40l-9 -1q-15 5 -24 23l-2 9l2 2q144 105 152 235v13q0 39 -33 56l-38 18q-63 34 -64 102q0 72 73 85q14 3 29 3q76 0 125 -66q35 -49 35 -110z" />
    <glyph glyph-name="afii61664" unicode="&#x200c;" 
 />
    <glyph glyph-name="afii64937" unicode="&#x2bd;" horiz-adv-x="389" 
d="M332 969l2 -6q-2 -11 -14 -22l-11 -6h-9l-1 1q-181 111 -230 265q-16 51 -16 104q0 82 61 136q44 40 99 40q85 0 99 -64l3 -24q-3 -74 -72 -106q-36 -17 -37 -17q-26 -17 -26 -53q0 -134 152 -248z" />
    <glyph glyph-name="agrave" unicode="&#xe0;" horiz-adv-x="797" 
d="M465 1081q4 -11 4 -20q0 -39 -35 -39q-23 0 -41 29l-168 271q-4 5 -4 13q0 26 40 45q22 11 41 11q24 0 31 -16zM481 199v215q0 22 -14 22q-7 0 -60 -26q-170 -85 -170 -222q0 -49 31.5 -79.5t87.5 -30.5q40 0 82.5 42.5t42.5 78.5zM780 123q22 -3 29 -30q0 -3 -1 -5
q-41 -69 -76 -90t-92 -21q-105 0 -142 136q-76 -76 -121 -106t-132 -30q-56 0 -93 31t-52.5 71.5t-15.5 82.5t20 82.5t58.5 73t66.5 47.5l232 129q20 11 20 32v181q0 88 -133 88q-97 0 -135 -50q-5 -7 -15 -93q-12 -99 -69 -99q-55 0 -55 56t40.5 112.5t69.5 73.5
q128 75 246 75q71 0 137.5 -40t66.5 -99v-532q0 -115 67 -115q19 0 72 37q3 2 7 2z" />
    <glyph glyph-name="agrave.sc" horiz-adv-x="1003" 
d="M603 1114l-216 195q-11 10 -7 32q5 23 24 43q21 23 51 16q10 -3 17 -12l171 -239q9 -14 9 -34q0 -15 -25 -15q-11 3 -24 14zM141 150l252 663q9 23 9 27.5t-7.5 12t-7.5 17t23.5 18.5t68.5 36.5t60 27.5q22 0 31.5 -35.5t33.5 -109.5l238 -668q32 -80 137 -80
q14 0 14 -32.5t-14 -32.5q-61 6 -175 6t-175 -6q-15 0 -15 32.5t15 32.5q65 0 65 46q0 15 -6 34l-67 203q-7 16 -25 16h-283q-16 0 -22 -18l-76 -203q-5 -14 -5 -26q0 -52 100 -52q14 0 14 -32.5t-15 -32.5q-61 6 -153.5 6t-153.5 -6q-14 0 -14 32.5t14 32.5q104 0 139 91z
M328 440q-11 -22 14 -22h225q27 0 19 24l-107 318q-4 14 -16 14t-17 -12z" />
    <glyph glyph-name="amacron" unicode="&#x101;" horiz-adv-x="797" 
d="M606 1198q28 0 28 -47t-32 -47h-446q-29 0 -29 47t29 47h450zM481 199v215q0 22 -14 22q-7 0 -60 -26q-170 -85 -170 -222q0 -49 31.5 -79.5t87.5 -30.5q40 0 82.5 42.5t42.5 78.5zM780 123q22 -3 29 -30q0 -3 -1 -5q-41 -69 -76 -90t-92 -21q-105 0 -142 136
q-76 -76 -121 -106t-132 -30q-56 0 -93 31t-52.5 71.5t-15.5 82.5t20 82.5t58.5 73t66.5 47.5l232 129q20 11 20 32v181q0 88 -133 88q-97 0 -135 -50q-5 -7 -15 -93q-12 -99 -69 -99q-55 0 -55 56t40.5 112.5t69.5 73.5q128 75 246 75q71 0 137.5 -40t66.5 -99v-532
q0 -115 67 -115q19 0 72 37q3 2 7 2z" />
    <glyph glyph-name="amacron.sc" horiz-adv-x="1003" 
d="M732 1198q28 0 28 -47t-32 -47h-446q-29 0 -29 47t29 47h450zM141 150l252 663q9 23 9 27.5t-7.5 12t-7.5 17t23.5 18.5t68.5 36.5t60 27.5q22 0 31.5 -35.5t33.5 -109.5l238 -668q32 -80 137 -80q14 0 14 -32.5t-14 -32.5q-61 6 -175 6t-175 -6q-15 0 -15 32.5t15 32.5
q65 0 65 46q0 15 -6 34l-67 203q-7 16 -25 16h-283q-16 0 -22 -18l-76 -203q-5 -14 -5 -26q0 -52 100 -52q14 0 14 -32.5t-15 -32.5q-61 6 -153.5 6t-153.5 -6q-14 0 -14 32.5t14 32.5q104 0 139 91zM328 440q-11 -22 14 -22h225q27 0 19 24l-107 318q-4 14 -16 14t-17 -12z
" />
    <glyph glyph-name="ampersand" unicode="&#x26;" horiz-adv-x="1704" 
d="M76 356q0 258 205 377l149 86q-172 124 -172 264q0 121 89 205t210 84q127 0 202 -72t75 -184q0 -130 -125 -203l-89 -51q214 -155 402 -430l92 118q148 192 148 247t-152 55q-15 0 -15 28t15 29q56 -6 238 -6t241 6q17 -1 17 -29t-17 -28q-103 0 -155 -36t-184 -208
l-185 -239l70 -103q129 -190 311 -190q121 0 192 78q7 7 22.5 -6t7.5 -23q-104 -154 -345 -154q-157 0 -348 281q-216 -279 -479 -279q-192 0 -306 111t-114 272zM395 1135q0 -110 174 -236q129 75 129 223q0 91 -42 140t-107 49q-69 -1 -111 -55t-43 -121zM221 422
q1 -152 97 -238t237 -86q209 0 377 217q-188 277 -450 467q-261 -151 -261 -360z" />
    <glyph glyph-name="ampersand.sc" horiz-adv-x="1181" 
d="M88 250q0 106 60 170q61 65 174 110q-113 82 -113 181q0 90 69 149q68 60 158 60t150 -52q59 -53 59 -135q0 -57 -31 -94q-32 -37 -92 -70q135 -96 244 -247q70 98 100 151q11 20 11 35q0 41 -82 41q-10 0 -10 33q0 34 10 34q25 -4 170 -4t174 4q10 0 10 -34
q0 -33 -10 -33q-63 0 -105 -19q-43 -20 -62 -42q-18 -23 -59 -82q-25 -35 -110 -146q109 -170 237 -170q86 0 131 45q8 8 25 -8q16 -16 8 -25q-92 -120 -256 -120q-131 0 -243 149q-154 -149 -312 -149q-150 0 -227 83q-78 83 -78 185zM514 737q0 53 -24 85q-25 32 -64 32
q-35 0 -56 -33q-20 -33 -20 -78q0 -72 115 -135q49 57 49 129zM236 276q0 -90 57 -154q57 -63 158 -63q59 0 109 33t110 92q-51 88 -131 172t-158 136q-145 -75 -145 -216z" />
    <glyph glyph-name="angleleft" unicode="&#x2329;" horiz-adv-x="674" 
d="M657 -377h-108l-438 899l438 899h108l-440 -899z" />
    <glyph glyph-name="angleright" unicode="&#x232a;" horiz-adv-x="674" 
d="M571 522l-438 -899h-108l438 899l-438 899h108z" />
    <glyph glyph-name="aogonek" unicode="&#x105;" horiz-adv-x="797" 
d="M729 -381q-83 -107 -203 -107q-93 0 -140 52.5t-47 140.5q0 73 60 147.5t169 136.5q11 6 12 14t-9 13q-49 24 -69 83q-2 7 -6.5 7t-10.5 -6q-67 -66 -110 -94.5t-115 -28.5q-71 0 -108 31t-52.5 71.5t-15.5 82.5q0 89 78 156q38 31 67 47l232 129q20 11 20 32v181
q0 88 -133 88q-99 0 -135 -50q-5 -7 -16 -99.5t-67 -92.5t-56 56t40.5 112.5t69.5 73.5q128 75 246 75q71 0 137.5 -40t66.5 -99v-532q0 -115 67 -115q23 0 80 34q8 5 21 -14t6 -24q-198 -128 -262.5 -202.5t-64.5 -142.5q0 -56 35.5 -84.5t89.5 -28.5q53 0 105 36
q8 0 16 -15t2 -24zM481 199v215q0 22 -14 22q-7 0 -60 -26q-170 -85 -170 -222q0 -49 31.5 -79.5t79.5 -30.5t90.5 42.5t42.5 78.5z" />
    <glyph glyph-name="aogonek.sc" horiz-adv-x="1003" 
d="M328 440q-11 -22 14 -22h225q27 0 19 24l-107 318q-4 14 -16 14t-17 -12zM141 150l252 663q9 23 9 26q0 6 -6 12q-23 23 10 36q28 10 73 37q45 28 60 28q22 0 32 -41q9 -30 33 -104l238 -668q32 -80 137 -80q14 0 14 -33q0 -32 -14 -32q-51 5 -140 6q-130 -141 -130 -249
q0 -128 123 -128q60 0 103 34q21 -7 21 -36q-42 -56 -91 -83q-48 -26 -115 -26q-88 0 -135 52q-47 53 -47 125q0 149 174 310q-70 -1 -113 -5q-15 0 -15 32q0 33 15 33q65 0 65 47q0 14 -6 33l-67 203q-7 16 -25 16h-283q-16 0 -22 -18l-76 -203q-5 -14 -5 -26
q0 -52 100 -52q14 0 14 -33q0 -32 -15 -32q-61 6 -153 6q-93 0 -154 -6q-14 0 -14 32q0 33 14 33q104 0 139 91z" />
    <glyph glyph-name="approxequal" unicode="&#x2248;" horiz-adv-x="961" 
d="M924 647q-89 -137 -242 -137q-43 0 -72 8l-262 76q-33 10 -80 10q-57 0 -98 -29l-51 -51q-9 -10 -19 -22q-4 -4 -8 -4q-17 0 -41 18q-26 20 -26 29v4q101 137 256 137q43 0 86 -12l264 -74q24 -4 35 -4q122 0 192 94q4 4 10 4q21 0 44 -22q12 -11 12 -21v-4zM924 383
q-90 -139 -242 -139q-43 0 -72 8l-262 76q-44 12 -80 12q-60 0 -98 -31q-32 -26 -70 -73q-5 -5 -8 -5q-16 0 -41 19q-26 20 -26 29v4q101 137 256 137q43 0 86 -12l264 -74q13 -4 35 -4q122 0 192 94q4 4 10 4q20 0 44 -22q12 -12 12 -21v-2z" />
    <glyph glyph-name="aring" unicode="&#xe5;" horiz-adv-x="797" 
d="M481 199v215q0 22 -14 22q-7 0 -60 -26q-170 -85 -170 -222q0 -49 31.5 -79.5t87.5 -30.5q40 0 82.5 42.5t42.5 78.5zM780 123q22 -3 29 -30q0 -3 -1 -5q-41 -69 -76 -90t-92 -21q-105 0 -142 136q-76 -76 -121 -106t-132 -30q-56 0 -93 31t-52.5 71.5t-15.5 82.5
t20 82.5t58.5 73t66.5 47.5l232 129q20 11 20 32v181q0 88 -133 88q-97 0 -135 -50q-5 -7 -15 -93q-12 -99 -69 -99q-55 0 -55 56t40.5 112.5t69.5 73.5q128 75 246 75q71 0 137.5 -40t66.5 -99v-532q0 -115 67 -115q19 0 72 37q3 2 7 2zM591 1165q0 -91 -72 -149
q-57 -46 -132 -46q-105 0 -163 75q-39 50 -42 120q0 96 77 153q55 41 128 41q94 0 154 -66q50 -61 50 -128zM495 1165q0 74 -49 109q-26 18 -59 18q-59 0 -90 -55q-19 -33 -19 -72q0 -71 48 -107q27 -20 61 -20q64 0 94 61q14 29 14 66z" />
    <glyph glyph-name="aring.sc" horiz-adv-x="1004" 
d="M705 1231q0 -105 -91 -163q-51 -32 -114 -32q-119 0 -178 97q-27 45 -27 98q0 105 91 162q51 32 114 32q119 0 177 -96q28 -46 28 -98zM608 1231q0 87 -66 118q-20 9 -42 9q-70 0 -99 -73q-10 -25 -10 -54q0 -88 67 -118q20 -9 42 -9q74 0 100 74q8 25 8 53zM2 -6
q-14 0 -14 32q0 33 14 33q105 0 139 91l252 663q8 20 8 27q0 6 -4 10q-11 12 -11 20t10 13q4 2 10 4q28 9 83 45q34 20 50 20q22 0 32 -41q8 -31 33 -104l238 -668q12 -34 49.5 -57t87.5 -23q13 0 13 -33q0 -32 -13 -32q-61 6 -175 6t-175 -6q-14 0 -14 32q0 33 14 33
q65 0 65 46q0 15 -6 34l-67 203q-7 16 -25 16h-283q-16 0 -22 -18l-76 -203q-5 -14 -5 -25q0 -51 99 -53q14 0 14 -33q0 -32 -14 -32q-61 6 -153 6t-154 -6zM586 442l-107 318q-7 21 -23 12q-6 -3 -10 -10l-118 -322q-10 -22 14 -22h225q28 0 19 24z" />
    <glyph glyph-name="aringacute" unicode="&#x1fb;" horiz-adv-x="797" 
d="M481 199v215q0 22 -14 22q-7 0 -60 -26q-170 -85 -170 -222q0 -49 31.5 -79.5t87.5 -30.5q40 0 82.5 42.5t42.5 78.5zM780 123q22 -3 29 -30q0 -3 -1 -5q-41 -69 -76 -90t-92 -21q-105 0 -142 136q-76 -76 -121 -106t-132 -30q-56 0 -93 31t-52.5 71.5t-15.5 82.5
t20 82.5t58.5 73t66.5 47.5l232 129q20 11 20 32v181q0 88 -133 88q-97 0 -135 -50q-5 -7 -15 -93q-12 -99 -69 -99q-55 0 -55 56t40.5 112.5t69.5 73.5q128 75 246 75q71 0 137.5 -40t66.5 -99v-532q0 -115 67 -115q19 0 72 37q3 2 7 2zM593 1165q0 -91 -72 -149
q-57 -46 -132 -46q-105 0 -163 75q-39 50 -42 120q0 96 77 153q55 41 128 41q94 0 154 -66q50 -61 50 -128zM497 1165q0 74 -49 109q-26 18 -59 18q-59 0 -90 -55q-19 -33 -19 -72q0 -71 48 -107q27 -20 61 -20q64 0 94 61q14 29 14 66zM584 1801l-179 -285q-18 -29 -46 -29
t-28 37q0 12 5 22l135 307q6 13 25 13q34 0 62 -22.5t28 -35.5q0 -3 -2 -7z" />
    <glyph glyph-name="arrowdown" unicode="&#x2193;" horiz-adv-x="1024" 
d="M872 76q12 0 12 -38t-12 -52l-322 -388q-22 -26 -43.5 -26t-41.5 26l-313 386q-12 15 -12 51.5t12 36.5l310 -240v1616q1 12 50.5 12t49.5 -12v-1616z" />
    <glyph glyph-name="arrowleft" unicode="&#x2190;" horiz-adv-x="2048" 
d="M492 876q15 12 51.5 12t36.5 -12l-240 -309h1616q12 -1 12 -51t-12 -50h-1616l243 -309q0 -12 -38 -12t-52 12l-388 321q-26 22 -25.5 43.5t25.5 42.5z" />
    <glyph glyph-name="arrowright" unicode="&#x2192;" horiz-adv-x="2048" 
d="M1942 555q26 -22 26 -43.5t-26 -42.5l-387 -312q-15 -12 -51.5 -12t-36.5 12l240 309h-1616q-12 1 -12 51t12 50h1616l-243 309q0 12 38 12t52 -12z" />
    <glyph glyph-name="arrowup" unicode="&#x2191;" horiz-adv-x="1024" 
d="M562 -416q-1 -12 -50.5 -12t-49.5 12v1616l-310 -243q-12 0 -12 38t12 52l322 388q22 26 43.5 25.5t41.5 -25.5l313 -387q12 -15 12 -51.5t-12 -36.5l-310 240v-1616z" />
    <glyph glyph-name="asciicircum" unicode="^" horiz-adv-x="1096" 
d="M985 535h-135l-301 682l-303 -682h-140l390 837h104z" />
    <glyph glyph-name="asciitilde" unicode="~" horiz-adv-x="676" 
d="M27 376q99 146 209 146q42 0 140 -35t131 -35q66 0 119 64q3 3 8 3q4 0 12 -6q7 -6 7 -11q0 -4 -3 -8q-99 -146 -209 -146q-42 0 -140 35t-131 35q-66 0 -119 -64q-3 -3 -7 -3q-5 0 -12 6q-8 6 -8 11q0 4 3 8z" />
    <glyph glyph-name="asterisk" unicode="*" horiz-adv-x="807" 
d="M367 694v287l-244 -138l-37 61l246 140l-246 142l37 61l244 -139v276h71v-278l244 141l37 -61l-244 -142l244 -140l-37 -61l-244 138v-287h-71z" />
    <glyph glyph-name="at" unicode="@" horiz-adv-x="1556" 
d="M92 600q0 346 241 565t568 219q280 0 442 -156.5t162 -375.5q0 -201 -144.5 -347.5t-385.5 -146.5q-91 0 -111 25q-12 15 -12 39q0 27 44 159l5 15l-8 4q-181 -240 -303 -240q-92 0 -92 127q0 153 126.5 340t278.5 187q52 0 101 -41l16 51q6 18 48 18t42 -18l-141 -492
q-10 -36 -10 -60q0 -46 42 -46q179 0 297.5 117t118.5 301q0 206 -147 338.5t-367 132.5q-317 0 -493.5 -209.5t-176.5 -503.5q0 -218 145.5 -390.5t465.5 -172.5q144 0 317 72q7 3 16 -16t1 -23q-166 -105 -396 -105q-280 0 -485 164t-205 469zM608 512q0 -70 45 -70
q53 0 169 132q41 47 61 77q47 71 76 173l22 77q0 64 -98 64q-103 0 -189 -168.5t-86 -284.5z" />
    <glyph glyph-name="atilde" unicode="&#xe3;" horiz-adv-x="797" 
d="M468 1050q-49 0 -137 34q-76 29 -117 29q-54 0 -115 -61q-4 -4 -8 -4t-8 4q-9 11 -9 16q0 1 1 2q92 143 201 143q44 0 137 -33q72 -26 106 -26q57 0 125 68q1 1 3 1q5 0 15 -8q10 -9 10 -20q0 -4 -1 -8q-14 -41 -87 -90q-71 -47 -116 -47zM481 199v215q0 22 -14 22
q-7 0 -60 -26q-170 -85 -170 -222q0 -49 31.5 -79.5t87.5 -30.5q40 0 82.5 42.5t42.5 78.5zM780 123q22 -3 29 -30q0 -3 -1 -5q-41 -69 -76 -90t-92 -21q-105 0 -142 136q-76 -76 -121 -106t-132 -30q-56 0 -93 31t-52.5 71.5t-15.5 82.5t20 82.5t58.5 73t66.5 47.5l232 129
q20 11 20 32v181q0 88 -133 88q-97 0 -135 -50q-5 -7 -15 -93q-12 -99 -69 -99q-55 0 -55 56t40.5 112.5t69.5 73.5q128 75 246 75q71 0 137.5 -40t66.5 -99v-532q0 -115 67 -115q19 0 72 37q3 2 7 2z" />
    <glyph glyph-name="atilde.sc" horiz-adv-x="1003" 
d="M783 1251q-99 -152 -203 -152q-39 0 -128.5 31.5t-125.5 31.5q-63 0 -115 -61q-3 -4 -7 -4q-6 0 -14 8q-5 5 -5 10q0 3 2 4q92 143 200 144q47 0 126.5 -30t117.5 -30q57 0 116 59l9 9q3 3 6 3q7 0 17 -11q5 -5 5 -9q0 -2 -1 -3zM141 150l252 663q9 23 9 27.5t-7.5 12
t-7.5 17t23.5 18.5t68.5 36.5t60 27.5q22 0 31.5 -35.5t33.5 -109.5l238 -668q32 -80 137 -80q14 0 14 -32.5t-14 -32.5q-61 6 -175 6t-175 -6q-15 0 -15 32.5t15 32.5q65 0 65 46q0 15 -6 34l-67 203q-7 16 -25 16h-283q-16 0 -22 -18l-76 -203q-5 -14 -5 -26
q0 -52 100 -52q14 0 14 -32.5t-15 -32.5q-61 6 -153.5 6t-153.5 -6q-14 0 -14 32.5t14 32.5q104 0 139 91zM328 440q-11 -22 14 -22h225q27 0 19 24l-107 318q-4 14 -16 14t-17 -12z" />
    <glyph glyph-name="b" unicode="b" horiz-adv-x="1001" 
d="M930 430q0 -218 -111.5 -335.5t-294.5 -117.5q-59 0 -155 46q-24 10 -58 10t-96 -56q-3 -2 -9 -2t-21 6q-31 12 -31 19q4 61 4 260v918q0 133 -92 133q-17 0 -17 27.5t17 27.5q25 0 105 41t100.5 59.5t32.5 18.5t13 -25l-6 -124v-500q0 -27 13 -27q9 0 20 6q94 55 176 55
q176 0 293 -131.5t117 -308.5zM756 414q0 156 -76.5 266.5t-198.5 110.5q-86 0 -147 -50q-23 -18 -23 -94v-346q0 -81 75.5 -172.5t171.5 -91.5t147 110.5t51 266.5z" />
    <glyph glyph-name="b.sc" horiz-adv-x="907" 
d="M829 254q0 -118 -86 -189t-280 -71q-64 0 -104 3t-90.5 3t-196.5 -6q-15 0 -15 32.5t15 32.5q43 0 76.5 20.5t33.5 59.5v654q0 75 -116 75q-17 0 -17 32t17 32q122 -4 171.5 -4t126 2t95.5 2q139 0 223 -61.5t84 -172.5q0 -116 -125 -182q-27 -14 0 -22q74 -25 131 -89.5
t57 -150.5zM618 696q0 183 -276 183q-12 0 -12 -21v-311q0 -15 20.5 -17t28.5 -2q239 0 239 168zM666 254q0 59 -36 111.5t-107.5 75t-174.5 22.5q-18 0 -18 -25v-266q0 -39 28.5 -80t94.5 -41q60 0 105 14t76.5 50t31.5 139z" />
    <glyph glyph-name="backslash" unicode="\" horiz-adv-x="717" 
d="M713 25v-7q-5 -9 -29 -20q-36 -16 -55 -16q-15 0 -17 6l-608 1444q-2 2 -2 6q0 14 30 30q32 15 56 15q16 0 18 -8z" />
    <glyph glyph-name="bar" unicode="|" horiz-adv-x="537" 
d="M354 -334h-121v1768h121v-1768z" />
    <glyph glyph-name="beta" unicode="&#x3b2;" horiz-adv-x="956" 
d="M99 -204v1064q0 216 119 344.5t311 128.5q119 0 196 -87t77 -193q0 -167 -183 -271q-32 -19 -32 -26.5t28 -14.5q254 -51 254 -327q0 -174 -124.5 -305.5t-323.5 -131.5q-97 0 -169 28v-209q0 -78 119 -78q15 0 15 -28.5t-15 -28.5q-77 8 -192.5 8t-196.5 -8
q-17 0 -17 28.5t17 28.5q117 0 117 78zM252 120q66 -67 222 -67q99 0 162 98.5t63 236.5q0 128 -74.5 216t-148.5 89q-74 0 -125 -16q-14 -4 -14 38t14 42l53 3q92 5 169 76t77 196q0 81 -53.5 138t-142.5 57q-77 0 -139.5 -62t-62.5 -139v-906z" />
    <glyph glyph-name="braceleft" unicode="{" horiz-adv-x="784" 
d="M715 -319q-224 0 -289 25q-64 24 -102 89q-37 65 -37 187v442q0 176 -211 176q-10 0 -10 18q0 17 10 17q211 0 211 172v338q0 163 41 237t124 92q82 19 263 19q14 0 14 -23q0 -24 -14 -24q-156 0 -223 -52q-68 -52 -68 -186v-243q0 -173 -12 -213q-12 -39 -46 -76
q-33 -38 -106 -55v-7q67 -12 102 -48q36 -35 49 -84q13 -50 13 -189v-277q0 -172 63 -230t228 -58q14 0 14 -24q0 -23 -14 -23z" />
    <glyph glyph-name="braceright" unicode="}" horiz-adv-x="821" 
d="M719 600q-211 0 -211 -176v-442q0 -135 -49 -206q-49 -70 -137 -82q-89 -13 -242 -13q-14 0 -14 23q0 24 14 24q165 0 228 58t63 230v277q0 143 15 192t48 83t101 46v7q-77 18 -109 56t-44 79q-11 40 -11 209v243q0 136 -70 187t-221 51q-14 0 -14 24q0 23 14 23
q170 0 260 -17q89 -16 128 -95q40 -79 40 -236v-338q0 -172 211 -172q10 0 10 -17q0 -18 -10 -18z" />
    <glyph glyph-name="bracketleft" unicode="[" horiz-adv-x="725" 
d="M666 -354h-357q-22 0 -22 22v1843q0 19 20 19h359q17 0 17 -39t-17 -39h-220q-20 0 -20 -22v-1678q0 -28 14 -28h226q17 0 17 -39t-17 -39z" />
    <glyph glyph-name="bracketright" unicode="]" horiz-adv-x="739" 
d="M452 -332q0 -22 -22 -22h-377q-23 0 -23 39t21 39h250q12 0 12 24v1682q0 22 -18 22h-224q-24 0 -24 39t20 39h365q20 0 20 -19v-1843z" />
    <glyph glyph-name="breve" unicode="&#x2d8;" horiz-adv-x="737" 
d="M639 1354q0 -275 -270.5 -275t-270.5 275q8 8 19.5 8t19.5 -8q35 -164 230 -164t233 164q8 8 19.5 8t19.5 -8z" />
    <glyph glyph-name="brokenbar" unicode="&#xa6;" horiz-adv-x="537" 
d="M354 834h-121v538h121v-538zM354 111h-121v536h121v-536z" />
    <glyph glyph-name="bullet" unicode="&#x2022;" horiz-adv-x="815" 
d="M143 760q0 117 90 190q78 62 189 62q118 0 191 -88q61 -75 61 -183q0 -109 -74 -180q-72 -72 -178 -72q-135 0 -214 89q-65 73 -65 182z" />
    <glyph glyph-name="c" unicode="c" horiz-adv-x="817" 
d="M743 152q11 5 24.5 -15.5t13.5 -28.5q0 -6 -5 -11q-26 -23 -107 -71t-223 -49q-146 0 -253 117t-107 302t122 329.5t315 144.5q196 0 233 -73q6 -12 6 -41q0 -19 -22 -46.5t-39 -27.5t-27 14q-78 107 -173 107t-173 -102.5t-79 -260.5q0 -158 89.5 -254t191.5 -96
q77 0 213 62z" />
    <glyph glyph-name="c.sc" horiz-adv-x="966" 
d="M926 219q-4 -31 -26.5 -97.5t-43.5 -96.5q-49 -9 -61 -13q-107 -30 -244 -30q-211 0 -351.5 134t-140.5 328q0 218 141.5 362t364.5 144q97 0 252 -32q25 -5 53 -5q13 -26 21 -104t8 -121q0 -12 -31.5 -14t-33.5 10q-25 207 -273 207q-160 0 -248 -118t-88 -290
q0 -114 32 -202t83 -137.5t106.5 -74t112.5 -24.5q238 0 301 191q4 14 36 5.5t30 -22.5z" />
    <glyph glyph-name="cacute" unicode="&#x107;" horiz-adv-x="817" 
d="M694 1336l-179 -285q-18 -29 -46 -29t-28 37q0 12 5 22l135 307q6 13 25 13q34 0 62 -22.5t28 -35.5q0 -3 -2 -7zM743 152q11 5 24.5 -15.5t13.5 -28.5q0 -6 -5 -11q-26 -23 -107 -71t-223 -49q-146 0 -253 117t-107 302t122 329.5t315 144.5q196 0 233 -73q6 -12 6 -41
q0 -19 -22 -46.5t-39 -27.5t-27 14q-78 107 -173 107t-173 -102.5t-79 -260.5q0 -158 89.5 -254t191.5 -96q77 0 213 62z" />
    <glyph glyph-name="cacute.sc" horiz-adv-x="966" 
d="M513 1022q-31 -7 -25 15q-3 17 9 34l170 239q8 9 18 12q30 7 51 -16q19 -20 24 -43q4 -22 -7 -32l-216 -195q-13 -11 -24 -14zM926 219q-4 -31 -26.5 -97.5t-43.5 -96.5q-49 -9 -61 -13q-107 -30 -244 -30q-211 0 -351.5 134t-140.5 328q0 218 141.5 362t364.5 144
q97 0 252 -32q25 -5 53 -5q13 -26 21 -104t8 -121q0 -12 -31.5 -14t-33.5 10q-25 207 -273 207q-160 0 -248 -118t-88 -290q0 -114 32 -202t83 -137.5t106.5 -74t112.5 -24.5q238 0 301 191q4 14 36 5.5t30 -22.5z" />
    <glyph glyph-name="caron" unicode="&#x2c7;" horiz-adv-x="797" 
d="M639 1421l-209 -371q-16 -28 -38 -28t-38 28l-209 371l-2 4q0 23 27 23q5 0 8 -4l185 -217q21 -25 29 -25t30 25l184 217q3 4 6 4q29 0 29 -23z" />
    <glyph glyph-name="caron.alt" horiz-adv-x="569" 
d="M603 1470q0 -185 -84 -325q-20 -35 -44 -35q-6 0 -12 2q-21 8 -22 29q0 10 6 24q33 81 33 162q0 62 -19 124q-1 4 -1 7q0 27 68 32q15 1 26 2q49 -1 49 -22z" />
    <glyph glyph-name="caron.sc" horiz-adv-x="803" 
d="M190 1314q-3 3 -3 8.5t5.5 14t10.5 8.5q2 0 3 -1l168 -149q12 -9 23 -9q12 0 23 10l164 150q3 2 5 2q7 0 12 -8t5 -14t-2 -10l-176 -255q-15 -23 -30 -23t-30 22z" />
    <glyph glyph-name="ccaron" unicode="&#x10d;" horiz-adv-x="817" 
d="M743 152q11 5 24.5 -15.5t13.5 -28.5q0 -6 -5 -11q-26 -23 -107 -71t-223 -49q-146 0 -253 117t-107 302t122 329.5t315 144.5q196 0 233 -73q6 -12 6 -41q0 -19 -22 -46.5t-39 -27.5t-27 14q-78 107 -173 107t-173 -102.5t-79 -260.5q0 -158 89.5 -254t191.5 -96
q77 0 213 62zM739 1421l-209 -371q-16 -28 -38 -28t-38 28l-209 371l-2 4q0 23 27 23q5 0 8 -4l185 -217q21 -25 29 -25t30 25l184 217q3 4 6 4q29 0 29 -23z" />
    <glyph glyph-name="ccaron.sc" horiz-adv-x="966" 
d="M346 1314q-3 3 -3 8.5t5.5 14t10.5 8.5q2 0 3 -1l168 -149q12 -9 23 -9q12 0 23 10l164 150q3 2 5 2q7 0 12 -8t5 -14t-2 -10l-176 -255q-15 -23 -30 -23t-30 22zM926 219q-4 -31 -26.5 -97.5t-43.5 -96.5q-49 -9 -61 -13q-107 -30 -244 -30q-211 0 -351.5 134
t-140.5 328q0 218 141.5 362t364.5 144q97 0 252 -32q25 -5 53 -5q13 -26 21 -104t8 -121q0 -12 -31.5 -14t-33.5 10q-25 207 -273 207q-160 0 -248 -118t-88 -290q0 -114 32 -202t83 -137.5t106.5 -74t112.5 -24.5q238 0 301 191q4 14 36 5.5t30 -22.5z" />
    <glyph glyph-name="ccedilla" unicode="&#xe7;" horiz-adv-x="817" 
d="M743 152q11 5 24.5 -15.5t13.5 -28.5q0 -6 -5 -11q-26 -23 -107 -72q-77 -45 -207 -48l-54 -75q127 -78 127 -174q0 -83 -77 -137q-60 -44 -136 -44q-119 0 -119 72q0 53 51 53q23 0 57 -28q37 -31 51 -31q56 0 56 63q0 80 -135 142l110 163q-115 18 -201 113
q-106 117 -106 302t122 329.5t315 144.5q196 0 233 -73q6 -12 6 -41q0 -19 -22 -46.5t-39 -27.5t-27 14q-78 107 -173 107t-173.5 -102t-78.5 -260.5t89.5 -254.5t191.5 -96q77 0 213 62z" />
    <glyph glyph-name="ccedilla.sc" horiz-adv-x="966" 
d="M651 -272q0 -83 -78 -138q-61 -43 -135 -43q-89 0 -113 47q-6 12 -6 25q0 30 25 46q12 7 26 7q21 0 65 -35q30 -24 43 -24q38 0 51 35q5 12 5 28q0 80 -135 142l112 165q-183 12 -311 133q-140 134 -141 328q0 218 141.5 362t364.5 144q92 0 252 -32q25 -5 53 -5
q13 -26 21 -104t8 -121q0 -12 -31.5 -14t-33.5 10q-25 207 -273 207q-160 0 -248 -118t-88 -290q0 -114 32 -202t83 -137.5t106.5 -74t112.5 -24.5q238 0 301 191q4 14 36 5.5t30 -22.5q-4 -31 -26.5 -97.5t-43.5 -96.5q-49 -9 -61 -13q-95 -27 -213 -30l-58 -80
q79 -48 111 -111q16 -32 16 -63z" />
    <glyph glyph-name="ccircumflex" unicode="&#x109;" horiz-adv-x="817" 
d="M711 1015q0 -23 -29 -23q-3 0 -6 4l-184 217q-22 25 -30 25t-29 -25l-185 -217q-3 -4 -8 -4q-27 0 -27 23l211 375q16 28 38 28t38 -28zM743 152q11 5 24.5 -15.5t13.5 -28.5q0 -6 -5 -11q-26 -23 -107 -71t-223 -49q-146 0 -253 117t-107 302t122 329.5t315 144.5
q196 0 233 -73q6 -12 6 -41q0 -19 -22 -46.5t-39 -27.5t-27 14q-78 107 -173 107t-173 -102.5t-79 -260.5q0 -158 89.5 -254t191.5 -96q77 0 213 62z" />
    <glyph glyph-name="cdotaccent" unicode="&#x10b;" horiz-adv-x="809" 
d="M603 1157q0 -57 -48 -90q-27 -19 -61 -19q-60 0 -90 50q-16 27 -16 59q0 63 49 91q26 15 57 15q59 0 91 -47q18 -27 18 -59zM743 152q11 5 24.5 -15.5t13.5 -28.5q0 -6 -5 -11q-26 -23 -107 -71t-223 -49q-146 0 -253 117t-107 302t122 329.5t315 144.5q196 0 233 -73
q6 -12 6 -41q0 -19 -22 -46.5t-39 -27.5t-27 14q-78 107 -173 107t-173 -102.5t-79 -260.5q0 -158 89.5 -254t191.5 -96q77 0 213 62z" />
    <glyph glyph-name="cdotaccent.sc" horiz-adv-x="966" 
d="M663 1157q0 -57 -48 -90q-27 -19 -61 -19q-60 0 -90 50q-16 27 -16 59q0 63 49 91q26 15 57 15q59 0 91 -47q18 -27 18 -59zM926 219q-4 -31 -26.5 -97.5t-43.5 -96.5q-49 -9 -61 -13q-107 -30 -244 -30q-211 0 -351.5 134t-140.5 328q0 218 141.5 362t364.5 144
q97 0 252 -32q25 -5 53 -5q13 -26 21 -104t8 -121q0 -12 -31.5 -14t-33.5 10q-25 207 -273 207q-160 0 -248 -118t-88 -290q0 -114 32 -202t83 -137.5t106.5 -74t112.5 -24.5q238 0 301 191q4 14 36 5.5t30 -22.5z" />
    <glyph glyph-name="cedilla" unicode="&#xb8;" horiz-adv-x="737" 
d="M406 0h73l-58 -80q-5 -7 -5 -14q0 -8 11 -16q108 -73 108 -158t-67 -135t-146 -50q-119 0 -119 72q0 53 51 53q23 0 58 -30q36 -29 50 -29q56 0 56 67q0 68 -106 124q-19 10 -19 20q0 9 5 17z" />
    <glyph glyph-name="cent" unicode="&#xa2;" horiz-adv-x="829" 
d="M545 1305q2 10 22 10q66 0 66 -27l-31 -175q130 -12 160 -70q6 -12 6 -36t-22 -51q-22 -28 -39 -28t-27 14q-44 60 -93 86l-120 -681q34 -11 69 -11q77 0 213 62q2 1 5 1q10 -1 20 -17q13 -20 13 -27t-5 -12q-26 -23 -107 -71t-230 -49l-33 -190q-2 -10 -27 -10
q-63 0 -63 24l34 190q-108 34 -186 137t-78 278q0 176 119 317t300 147zM384 395l116 654q-92 -4 -168 -105q-76 -100 -76 -243t50 -215q49 -73 78 -91z" />
    <glyph glyph-name="cent.oldstyle" horiz-adv-x="829" 
d="M84 393q0 195 120 338t306 148l33 188q1 10 22 10q10 0 25 -3q45 -7 43 -23l-31 -177q135 -14 164 -69q6 -17 6 -33q0 -30 -22 -56t-40 -26q-14 0 -26 15q-55 68 -98 88l-119 -680q37 -14 76 -15q65 0 108 12t99 48q14 9 32 -20q9 -14 9 -23q0 -7 -5 -11
q-81 -66 -162 -92t-165 -26h-15l-32 -191q-1 -10 -22 -9q-10 0 -25 2q-45 7 -43 24l34 188q-121 35 -196.5 140.5t-75.5 252.5zM258 444q0 -180 125 -282l115 649q-88 -4 -164 -105.5t-76 -261.5z" />
    <glyph glyph-name="chi" unicode="&#x3c7;" horiz-adv-x="1124" 
d="M267 870q147 0 193 -205l74 -304l245 481q7 14 84 14t77 -14l-353 -693l70 -275q39 -155 76.5 -212.5t103.5 -57.5q70 0 106.5 56t48.5 161q1 6 28.5 6t27.5 -9v-66q-8 -103 -65.5 -178.5t-140.5 -75.5q-166 0 -232 277l-70 285l-264 -516q-14 -27 -85.5 -27t-71.5 28
l369 726l-74 295q-29 115 -61.5 157.5t-89.5 42.5q-58 0 -89.5 -45.5t-47.5 -174.5q-1 -6 -28.5 -6t-27.5 9q3 158 56.5 239.5t140.5 81.5z" />
    <glyph glyph-name="chighoverline" horiz-adv-x="817" 
d="M821 1701q28 0 28 -47t-32 -47h-817q-29 0 -29 47t29 47h821zM743 152q11 5 24.5 -15.5t13.5 -28.5q0 -6 -5 -11q-26 -23 -108 -71q-80 -48 -222 -49q-146 0 -253 117t-107 302t122 329.5t315 144.5q196 0 233 -73q6 -12 6 -41q0 -19 -22 -46.5t-39 -27.5t-27 14
q-78 107 -173 107t-173 -102q-78 -103 -79 -261q0 -158 89.5 -254t191.5 -96q77 0 213 62z" />
    <glyph glyph-name="circumflex" unicode="&#x2c6;" horiz-adv-x="797" 
d="M641 1015q0 -23 -29 -23q-3 0 -6 4l-184 217q-22 25 -30 25t-29 -25l-185 -217q-3 -4 -8 -4q-27 0 -27 23l211 375q16 28 38 28t38 -28z" />
    <glyph glyph-name="cmedoverline" horiz-adv-x="817" 
d="M0 1118q-16 0 -16 58t16 58h817q17 0 17 -58t-17 -58h-817zM743 152q11 5 24.5 -15.5t13.5 -28.5q0 -6 -5 -11q-26 -23 -108 -71q-80 -48 -222 -49q-146 0 -253 117t-107 302t122 329.5t315 144.5q196 0 233 -73q6 -12 6 -41q0 -19 -22 -46.5t-39 -27.5t-27 14
q-78 107 -173 107t-173 -102q-78 -103 -79 -261q0 -158 89.5 -254t191.5 -96q77 0 213 62z" />
    <glyph glyph-name="colon" unicode=":" horiz-adv-x="594" 
d="M215 98q0 51 36 82t91 31t85 -37t30 -87.5t-34.5 -81t-87.5 -30.5t-86.5 36t-33.5 87zM215 740q0 50 36.5 81t91 31t84.5 -37t30 -87.5t-34 -81t-87 -30.5t-87 36t-34 88z" />
    <glyph glyph-name="colon.alt" horiz-adv-x="695" 
d="M316 98q0 51 36 82t91 31t85 -37t30 -87.5t-34.5 -81t-87.5 -30.5t-86.5 36t-33.5 87zM316 740q0 50 36.5 81t91 31t84.5 -37t30 -87.5t-34 -81t-87 -30.5t-87 36t-34 88z" />
    <glyph glyph-name="comma" unicode="," horiz-adv-x="520" 
d="M121 139q0 58 55 84q26 13 60 13q79 0 128.5 -62.5t49.5 -134.5q0 -129 -77 -230.5t-141 -140.5t-69 -39q-25 0 -25 27q0 4 38.5 43.5t85 103t46.5 140.5q0 49 -34 61q-117 45 -117 135z" />
    <glyph glyph-name="copyright" unicode="&#xa9;" horiz-adv-x="1442" 
d="M347 744q0 116 53 206q52 91 136 142t207 51q46 0 137 -16q92 -16 94 -16q15 -74 15 -171q0 -9 -17 -9q-18 0 -20 8q-15 165 -224 165q-112 0 -194 -102q-82 -101 -82 -244q0 -144 80 -248q80 -103 194 -103q195 0 249 148q2 6 15 6q14 0 19 -4q2 -2 2 -8
q-21 -105 -49 -148q-18 -2 -42 -10q-81 -25 -207 -25q-98 0 -181 48q-84 47 -134 130q-51 84 -51 200zM2 748q0 299 211 510q211 210 510 210t510 -210q211 -211 211 -510t-211 -510t-510 -211t-510 211t-211 510zM72 755q0 -263 184 -461t460 -198q275 0 466 192
q192 191 192 460q0 270 -190 460q-191 191 -461 191t-461 -191q-190 -190 -190 -453z" />
    <glyph glyph-name="currency" unicode="&#xa4;" horiz-adv-x="1024" 
d="M80 668q0 148 88 260l-80 80q-2 2 -2 6q0 14 33 47t47 33q4 0 6 -2l80 -78q112 88 260 88q147 0 262 -88l78 78q2 2 6 2q14 0 47 -33t33 -47q0 -4 -2 -6l-78 -78q88 -115 88 -263t-88 -261l78 -78q3 -3 3 -7q0 -14 -35 -47q-34 -32 -47 -32q-3 0 -5 2l-78 78
q-116 -89 -260 -89t-262 91l-80 -80q-2 -2 -5 -2q-13 0 -47 32q-35 33 -35 47q0 4 3 7l80 80q-88 112 -88 260zM168 668q0 -144 100 -245q101 -101 246 -101q144 0 245 101t101 243t-103 245t-245 103q-141 0 -242 -102q-102 -101 -102 -244z" />
    <glyph glyph-name="d" unicode="d" horiz-adv-x="1012" 
d="M66 411q0 189 132 324t343 135q70 0 114 -14q12 -4 19 -4q14 0 14 25v294q0 140 -92 140q-17 0 -17 27.5t17 27.5q25 0 96.5 36.5t103 59.5t42 23t10.5 -11t-3.5 -64t-3.5 -98v-1081q0 -149 82 -149q11 0 29 3t21 3t6.5 -6t6 -18t2.5 -22.5t-6.5 -10.5t-51.5 -8.5
t-131 -29t-94 -26.5q-17 0 -17 49v41q0 23 -11.5 23t-27.5 -14q-94 -89 -196 -89q-197 0 -292 122.5t-95 311.5zM688 199v469q0 75 -22 94q-59 49 -148 49q-134 0 -211.5 -111.5t-77.5 -259.5t83 -257t192 -109q78 0 131 41t53 84z" />
    <glyph glyph-name="d.sc" horiz-adv-x="1102" 
d="M1042 498q0 -238 -140 -371t-355 -133q-45 0 -115 3t-188 3q-41 0 -101.5 -3t-70.5 -3q-15 0 -15 32.5t15 32.5q41 0 75.5 19.5t34.5 60.5v654q0 75 -116 75q-17 0 -17 32t17 32q122 -4 186 -4q72 0 144.5 2t117.5 2q227 0 377.5 -116t150.5 -318zM874 492
q0 149 -107.5 268t-309.5 119q-31 0 -58.5 1t-48 -11.5t-20.5 -43.5v-637q0 -49 11 -78.5t39 -42t50.5 -15.5t69.5 -3q172 0 273 120t101 323z" />
    <glyph glyph-name="dagger" unicode="&#x2020;" horiz-adv-x="956" 
d="M963 872q0 -26 -57 -59q-32 -20 -60 -26l-19 -3q-12 0 -55 13q-152 43 -256 47q0 -142 90 -242q-73 -113 -86 -370q-4 -89 -4 -316v-303h-76v123l-8 529v1q-16 246 -84 336q92 92 92 242q-123 -1 -258 -47q-39 -13 -53 -13q-34 0 -88 34q-47 30 -47 54q0 30 51 66
q43 29 76 29q44 0 155 -29q103 -26 164 -31q-6 82 -28 170q-27 109 -27 148q0 64 38 123q27 43 54 43q38 0 69 -67q23 -51 23 -99q0 -59 -23 -150q0 -3 -1 -6q-23 -88 -29 -162q20 1 199 39q95 21 121 21q37 0 85 -37q42 -31 42 -58z" />
    <glyph glyph-name="daggerdbl" unicode="&#x2021;" horiz-adv-x="956" 
d="M836 37q-33 0 -215 39q-82 17 -105 18q7 -79 29 -160q24 -92 24 -155q0 -61 -33 -119l-16 -24q-21 -23 -43 -23q-40 0 -70 71q-22 51 -22 95q0 41 27 149q22 86 28 166q-43 -1 -170 -31q-90 -22 -105 -24q-19 -2 -44 -2q-46 0 -92 38q-35 29 -35 56q0 31 63 64
q44 24 72 24q19 0 53 -12q130 -46 258 -47q0 210 -92 362q92 125 92 322q-123 -1 -258 -47q-39 -13 -53 -13q-34 0 -88 34q-47 30 -47 54q0 30 51 66q43 29 76 29q44 0 155 -29q103 -26 164 -31q-6 82 -28 170q-27 109 -27 148q0 63 35 121q27 45 57 45q42 0 72 -71
q20 -49 20 -95q0 -59 -21 -143q-1 -7 -3 -13q-23 -80 -29 -162q46 1 166 31q96 25 98 25q24 4 56 4q38 0 87 -38q34 -27 39 -50l1 -7q0 -27 -59 -61q-48 -27 -77 -27q-15 0 -45 10q-5 1 -10 3q-152 43 -256 47q0 -192 90 -320q-50 -79 -77 -234q-13 -72 -13 -130
q114 4 256 47q38 12 55 12q39 0 92 -35q44 -28 44 -53q0 -35 -57 -70q-41 -21 -70 -24z" />
    <glyph glyph-name="dcaron" unicode="&#x10f;" horiz-adv-x="1012" 
d="M1101 1470q0 -185 -84 -325q-20 -35 -44 -35q-6 0 -12 2q-21 8 -22 29q0 10 6 24q33 81 33 162q0 62 -19 124q-1 4 -1 7q0 27 68 32q15 1 26 2q49 -1 49 -22zM66 411q0 189 132 324t343 135q70 0 114 -14q12 -4 19 -4q14 0 14 25v294q0 140 -92 140q-17 0 -17 27.5
t17 27.5q25 0 96.5 36.5t103 59.5t42 23t10.5 -11t-3.5 -64t-3.5 -98v-1081q0 -149 82 -149q11 0 29 3t21 3t6.5 -6t6 -18t2.5 -22.5t-6.5 -10.5t-51.5 -8.5t-131 -29t-94 -26.5q-17 0 -17 49v41q0 23 -11.5 23t-27.5 -14q-94 -89 -196 -89q-197 0 -292 122.5t-95 311.5z
M688 199v469q0 75 -22 94q-59 49 -148 49q-134 0 -211.5 -111.5t-77.5 -259.5t83 -257t192 -109q78 0 131 41t53 84z" />
    <glyph glyph-name="dcaron.sc" horiz-adv-x="1102" 
d="M277 1313q-3 3 -3 8.5t5.5 14t10.5 8.5q2 0 3 -1l168 -149q12 -9 23 -9q12 0 23 10l164 150q3 2 5 2q7 0 12 -8t5 -14t-2 -10l-176 -255q-15 -23 -30 -23t-30 22zM1042 498q0 -238 -140 -371t-355 -133q-45 0 -115 3t-188 3q-41 0 -101.5 -3t-70.5 -3q-15 0 -15 32.5
t15 32.5q41 0 75.5 19.5t34.5 60.5v654q0 75 -116 75q-17 0 -17 32t17 32q122 -4 186 -4q72 0 144.5 2t117.5 2q227 0 377.5 -116t150.5 -318zM874 492q0 149 -107.5 268t-309.5 119q-31 0 -58.5 1t-48 -11.5t-20.5 -43.5v-637q0 -49 11 -78.5t39 -42t50.5 -15.5t69.5 -3
q172 0 273 120t101 323z" />
    <glyph glyph-name="dcroat" unicode="&#x111;" horiz-adv-x="1012" 
d="M688 199v469q0 75 -22 94q-59 49 -148 49q-134 0 -212 -111q-77 -112 -77 -260t83 -257t192 -109q78 0 131 41t53 84zM66 411q0 189 132 324t343 135q70 0 114 -14q12 -4 19 -4q14 0 14 25v171q0 19 -20 19h-209q-16 0 -16 43t16 43h210q19 0 19 18q0 140 -92 140
q-17 0 -17 27q0 28 17 28q25 0 96 36q72 37 104 60q31 23 42 23q10 0 10 -11t-4 -64q-3 -53 -3 -98v-144q0 -15 19 -15h193q15 0 15 -43t-15 -43h-193q-19 0 -19 -14v-822q0 -149 82 -149q11 0 29 3t21 3t7 -6q3 -6 6 -18q2 -12 2 -22q0 -11 -6 -11q-7 0 -52 -9
q-45 -8 -131 -28q-86 -21 -94 -27q-17 0 -17 49v41q0 23 -12 23q-11 0 -27 -14q-94 -89 -196 -89q-197 0 -292 123q-95 122 -95 311z" />
    <glyph glyph-name="degree" unicode="&#xb0;" horiz-adv-x="713" 
d="M82 1047q0 119 81 191.5t205 72.5q104 0 183.5 -73.5t79.5 -205.5q0 -106 -78 -178t-211 -72q-113 0 -186.5 77t-73.5 188zM197 1047q0 -79 41 -136t134 -57q53 0 98 54q46 54 46 158q0 54 -40 113.5t-136 59.5q-54 0 -98.5 -54.5t-44.5 -137.5z" />
    <glyph glyph-name="dhighoverline" horiz-adv-x="1012" 
d="M1016 1701q28 0 28 -47t-32 -47h-1012q-29 0 -29 47t29 47h1016zM842 231q0 -149 82 -149q22 0 47 6q12 2 18 -37q2 -19 -6 -20q-37 -5 -153.5 -31.5t-124.5 -32.5q-17 0 -17 49v41q0 23 -11.5 23t-27.5 -14q-94 -89 -196 -89q-197 0 -292 122.5t-95 311.5t132 324
t343 135q70 0 114 -14q12 -4 19 -4q14 0 14 25v294q0 140 -92 140q-17 0 -17 27.5t17 27.5q25 0 98 36.5t103.5 59.5t40.5 23q11 0 10 -15l-6 -108v-1131zM688 199v469q0 75 -22 94q-59 49 -148 49q-134 0 -211.5 -111.5t-77.5 -259.5t83 -257t192 -109q78 0 131 41t53 84z
" />
    <glyph glyph-name="dieresis" unicode="&#xa8;" horiz-adv-x="797" 
d="M325 1156q0 -45 -31.5 -76.5t-76.5 -31.5t-76.5 31.5t-31.5 76.5t31.5 76.5t76.5 31.5t76.5 -31.5t31.5 -76.5zM706 1156q0 -45 -31.5 -76.5t-76 -31.5t-76 31.5t-31.5 76.5t31.5 76.5t76 31.5t76 -31.5t31.5 -76.5z" />
    <glyph glyph-name="divide" unicode="&#xf7;" horiz-adv-x="1051" 
d="M420 710q0 43 30.5 73.5t73.5 30.5t73.5 -30.5t30.5 -73.5t-30.5 -73.5t-73.5 -30.5t-73.5 30.5t-30.5 73.5zM420 132q0 43 30.5 73.5t73.5 30.5t73.5 -30.5t30.5 -73.5t-30.5 -73.5t-73.5 -30.5t-73.5 30.5t-30.5 73.5zM934 371h-815v100h815v-100z" />
    <glyph glyph-name="dollar" unicode="$" horiz-adv-x="987" 
d="M122 351q0 8 1 14q4 17 33 17t30 -7q12 -125 90 -202q79 -77 183 -99v536l-125 58q-205 95 -205 348q0 115 93 209q92 94 237 104v137q0 15 43 15t43 -15v-137q84 -5 160 -21t81 -16q24 -81 35 -220q2 -18 2 -26q0 -9 -13 -14q-14 -6 -31 -6t-21 14q-22 105 -85 162
q-63 58 -128 64v-488q197 -61 273 -149q77 -88 77 -240q0 -178 -100 -283q-100 -106 -250 -110v-146q0 -16 -43 -16t-43 16v146q-87 6 -145 28q-57 21 -146 64q-46 138 -46 263zM262 1057q0 -113 56 -165q57 -53 141 -83v459q-99 -12 -148 -69t-49 -142zM545 66q78 0 149 60
q70 60 70 167q0 192 -219 282v-509z" />
    <glyph glyph-name="dollar.oldstyle" horiz-adv-x="821" 
d="M530 852l126 -15q10 0 18 1q13 -66 13 -108q0 -43 -1 -60q-2 -16 -35 -20q-33 -5 -33 5q-6 70 -53 109q-20 20 -49 29l-67 -289q243 -62 243 -225q0 -129 -97 -212t-233 -83h-32l-29 -119q-4 -17 -32 -9q-55 15 -50 27l25 111q-51 10 -142 51q-14 41 -14 107q0 67 4 86
q4 14 36 14t32 -10v-28q0 -24 26 -72q25 -48 76 -74l72 315q-71 27 -116 61q-76 58 -76 145q0 69 26 117q27 49 94 96q66 48 180 52l29 127q4 6 23 6q20 0 42 -9q21 -9 19 -17zM432 803q-72 -4 -114 -45q-51 -50 -51 -108q0 -78 102 -120zM342 43q12 -2 55 -2t105 44t62 135
q0 52 -32 75q-41 29 -118 57z" />
    <glyph glyph-name="dotaccent" unicode="&#x2d9;" horiz-adv-x="737" 
d="M478 1157q0 -57 -48 -90q-27 -19 -61 -19q-60 0 -90 50q-16 27 -16 59q0 63 49 91q26 15 57 15q59 0 91 -47q18 -27 18 -59z" />
    <glyph glyph-name="dotbelowcomb" unicode="&#x323;" 
d="M111 -301q0 -57 -48 -90q-27 -19 -61 -19q-60 0 -90 50q-16 27 -16 59q0 63 49 91q26 15 57 15q59 0 91 -47q18 -27 18 -59z" />
    <glyph glyph-name="dotlessi" unicode="&#x131;" horiz-adv-x="524" 
d="M467 -8q-76 8 -187 8t-192 -8q-14 0 -14 28q0 29 14 29q113 0 113 78v444q0 138 -92 138q-17 0 -17 28t17 28q33 0 97 34q65 34 98 59t44 25q12 0 12 -16q-6 -108 -6 -166v-574q0 -78 113 -78q14 0 14 -29q0 -28 -14 -28z" />
    <glyph glyph-name="e" unicode="e" horiz-adv-x="838" 
d="M85 431q0 178 113.5 308.5t254.5 130.5t228 -98t87 -160t-51 -63h-449q-30 0 -30 -66q0 -160 76.5 -274.5t211.5 -114.5q101 0 201 60q5 3 11 3q12 0 21 -11q7 -7 7 -21q0 -5 -4 -8q-158 -140 -311 -140t-259.5 138t-106.5 316zM261 630q0 -14 24 -14h321q15 0 15 17
q0 44 -54.5 111t-113.5 67q-65 0 -112.5 -43.5t-76.5 -122.5q-3 -8 -3 -15z" />
    <glyph glyph-name="e.sc" horiz-adv-x="899" 
d="M834 39q0 -31 -12 -38q-13 -7 -68 -7q-9 0 -235 3t-261 3q-2 0 -186 -6q-15 0 -15 32q0 33 15 33q110 0 110 80v654q0 75 -116 75q-17 0 -17 32t17 32q122 -4 188 -4q152 0 306 2q153 2 163 2q47 0 59 -6q13 -6 13 -29v-211q0 -12 -35 -12t-35 12q0 78 -50 125t-104 49
l-223 8q-18 0 -18 -28v-348q0 -21 20 -21h154q84 0 84 61v70q0 16 36 16q35 0 35 -16q-4 -24 -4 -160q0 -131 4 -155q0 -17 -35 -17q-36 0 -36 17v59q0 62 -84 62h-154q-20 0 -20 -21v-235q0 -46 39 -70q39 -23 92 -23l149 4q154 5 154 173q0 12 35 12t35 -12v-197z" />
    <glyph glyph-name="eacute" unicode="&#xe9;" horiz-adv-x="838" 
d="M606 1336l-179 -285q-18 -29 -46 -29t-28 37q0 12 5 22l135 307q6 13 25 13q34 0 62 -22.5t28 -35.5q0 -3 -2 -7zM85 431q0 178 113.5 308.5t254.5 130.5t228 -98t87 -160t-51 -63h-449q-30 0 -30 -66q0 -160 76.5 -274.5t211.5 -114.5q101 0 201 60q5 3 11 3
q12 0 21 -11q7 -7 7 -21q0 -5 -4 -8q-158 -140 -311 -140t-259.5 138t-106.5 316zM261 630q0 -14 24 -14h321q15 0 15 17q0 44 -54.5 111t-113.5 67q-65 0 -112.5 -43.5t-76.5 -122.5q-3 -8 -3 -15z" />
    <glyph glyph-name="eacute.sc" horiz-adv-x="899" 
d="M402 1099q-25 0 -25 15q0 19 9 34l170 239q8 9 18 12q30 7 51 -16q19 -20 24 -43q4 -22 -7 -32l-216 -195q-13 -11 -24 -14zM834 39q0 -31 -12 -38q-13 -7 -68 -7q-9 0 -235 3t-261 3q-2 0 -186 -6q-15 0 -15 32q0 33 15 33q110 0 110 80v654q0 75 -116 75q-17 0 -17 32
t17 32q122 -4 188 -4q152 0 306 2q153 2 163 2q47 0 59 -6q13 -6 13 -29v-211q0 -12 -35 -12t-35 12q0 78 -50 125t-104 49l-223 8q-18 0 -18 -28v-348q0 -21 20 -21h154q84 0 84 61v70q0 16 36 16q35 0 35 -16q-4 -24 -4 -160q0 -131 4 -155q0 -17 -35 -17q-36 0 -36 17v59
q0 62 -84 62h-154q-20 0 -20 -21v-235q0 -46 39 -70q39 -23 92 -23l149 4q154 5 154 173q0 12 35 12t35 -12v-197z" />
    <glyph glyph-name="ebreve" unicode="&#x115;" horiz-adv-x="838" 
d="M718 1354q0 -275 -270.5 -275t-270.5 275q8 8 19.5 8t19.5 -8q35 -164 230 -164t233 164q8 8 19.5 8t19.5 -8zM85 431q0 178 113.5 308.5t254.5 130.5t228 -98t87 -160t-51 -63h-449q-30 0 -30 -66q0 -160 76.5 -274.5t211.5 -114.5q101 0 201 60q5 3 11 3q12 0 21 -11
q7 -7 7 -21q0 -5 -4 -8q-158 -140 -311 -140t-259.5 138t-106.5 316zM261 630q0 -14 24 -14h321q15 0 15 17q0 44 -54.5 111t-113.5 67q-65 0 -112.5 -43.5t-76.5 -122.5q-3 -8 -3 -15z" />
    <glyph glyph-name="ecaron" unicode="&#x11b;" horiz-adv-x="838" 
d="M85 431q0 178 113.5 308.5t254.5 130.5t228 -98t87 -160t-51 -63h-449q-30 0 -30 -66q0 -160 76.5 -274.5t211.5 -114.5q101 0 201 60q5 3 11 3q12 0 21 -11q7 -7 7 -21q0 -5 -4 -8q-158 -140 -311 -140t-259.5 138t-106.5 316zM261 630q0 -14 24 -14h321q15 0 15 17
q0 44 -54.5 111t-113.5 67q-65 0 -112.5 -43.5t-76.5 -122.5q-3 -8 -3 -15zM698 1421l-209 -371q-16 -28 -38 -28t-38 28l-209 371l-2 4q0 23 27 23q5 0 8 -4l185 -217q21 -25 29 -25t30 25l184 217q3 4 6 4q29 0 29 -23z" />
    <glyph glyph-name="ecaron.sc" horiz-adv-x="899" 
d="M250 1314q-3 3 -3 8.5t5.5 14t10.5 8.5q2 0 3 -1l168 -149q12 -9 23 -9q12 0 23 10l164 150q3 2 5 2q7 0 12 -8t5 -14t-2 -10l-176 -255q-15 -23 -30 -23t-30 22zM834 39q0 -31 -12 -38q-13 -7 -68 -7q-9 0 -235 3t-261 3q-2 0 -186 -6q-15 0 -15 32q0 33 15 33
q110 0 110 80v654q0 75 -116 75q-17 0 -17 32t17 32q122 -4 188 -4q152 0 306 2q153 2 163 2q47 0 59 -6q13 -6 13 -29v-211q0 -12 -35 -12t-35 12q0 78 -50 125t-104 49l-223 8q-18 0 -18 -28v-348q0 -21 20 -21h154q84 0 84 61v70q0 16 36 16q35 0 35 -16q-4 -24 -4 -160
q0 -131 4 -155q0 -17 -35 -17q-36 0 -36 17v59q0 62 -84 62h-154q-20 0 -20 -21v-235q0 -46 39 -70q39 -23 92 -23l149 4q154 5 154 173q0 12 35 12t35 -12v-197z" />
    <glyph glyph-name="ecircumflex" unicode="&#xea;" horiz-adv-x="838" 
d="M704 1015q0 -23 -29 -23q-3 0 -6 4l-184 217q-22 25 -30 25t-29 -25l-185 -217q-3 -4 -8 -4q-27 0 -27 23l211 375q16 28 38 28t38 -28zM85 431q0 178 113.5 308.5t254.5 130.5t228 -98t87 -160t-51 -63h-449q-30 0 -30 -66q0 -160 76.5 -274.5t211.5 -114.5
q101 0 201 60q5 3 11 3q12 0 21 -11q7 -7 7 -21q0 -5 -4 -8q-158 -140 -311 -140t-259.5 138t-106.5 316zM261 630q0 -14 24 -14h321q15 0 15 17q0 44 -54.5 111t-113.5 67q-65 0 -112.5 -43.5t-76.5 -122.5q-3 -8 -3 -15z" />
    <glyph glyph-name="ecircumflex.sc" horiz-adv-x="899" 
d="M668 1121q2 -3 2 -8.5t-5 -14t-10 -8.5q-2 0 -4 1l-167 149q-12 9 -23 9q-12 0 -24 -9l-163 -151q-3 -2 -5 -2q-7 0 -12.5 8t-5.5 14.5t3 10.5l176 254q16 23 30 23q15 0 30 -22zM834 39q0 -31 -12 -38q-13 -7 -68 -7q-9 0 -235 3t-261 3q-2 0 -186 -6q-15 0 -15 32
q0 33 15 33q110 0 110 80v654q0 75 -116 75q-17 0 -17 32t17 32q122 -4 188 -4q152 0 306 2q153 2 163 2q47 0 59 -6q13 -6 13 -29v-211q0 -12 -35 -12t-35 12q0 78 -50 125t-104 49l-223 8q-18 0 -18 -28v-348q0 -21 20 -21h154q84 0 84 61v70q0 16 36 16q35 0 35 -16
q-4 -24 -4 -160q0 -131 4 -155q0 -17 -35 -17q-36 0 -36 17v59q0 62 -84 62h-154q-20 0 -20 -21v-235q0 -46 39 -70q39 -23 92 -23l149 4q154 5 154 173q0 12 35 12t35 -12v-197z" />
    <glyph glyph-name="edieresis" unicode="&#xeb;" horiz-adv-x="838" 
d="M349 1156q0 -45 -31.5 -76.5t-76.5 -31.5t-76.5 31.5t-31.5 76.5t31.5 76.5t76.5 31.5t76.5 -31.5t31.5 -76.5zM730 1156q0 -45 -31.5 -76.5t-76 -31.5t-76 31.5t-31.5 76.5t31.5 76.5t76 31.5t76 -31.5t31.5 -76.5zM85 431q0 178 113.5 308.5t254.5 130.5t228 -98
t87 -160t-51 -63h-449q-30 0 -30 -66q0 -160 76.5 -274.5t211.5 -114.5q101 0 201 60q5 3 11 3q12 0 21 -11q7 -7 7 -21q0 -5 -4 -8q-158 -140 -311 -140t-259.5 138t-106.5 316zM261 630q0 -14 24 -14h321q15 0 15 17q0 44 -54.5 111t-113.5 67q-65 0 -112.5 -43.5
t-76.5 -122.5q-3 -8 -3 -15z" />
    <glyph glyph-name="edieresis.sc" horiz-adv-x="899" 
d="M211.5 1266q28.5 29 69 29t69.5 -29t29 -69.5t-29 -69t-69.5 -28.5t-69 28.5t-28.5 69t28.5 69.5zM591.5 1266q28.5 29 69.5 29t69.5 -29t28.5 -69.5t-28.5 -69t-69.5 -28.5t-69.5 28.5t-28.5 69t28.5 69.5zM834 39q0 -31 -12 -38q-13 -7 -68 -7q-9 0 -235 3t-261 3
q-2 0 -186 -6q-15 0 -15 32q0 33 15 33q110 0 110 80v654q0 75 -116 75q-17 0 -17 32t17 32q122 -4 188 -4q152 0 306 2q153 2 163 2q47 0 59 -6q13 -6 13 -29v-211q0 -12 -35 -12t-35 12q0 78 -50 125t-104 49l-223 8q-18 0 -18 -28v-348q0 -21 20 -21h154q84 0 84 61v70
q0 16 36 16q35 0 35 -16q-4 -24 -4 -160q0 -131 4 -155q0 -17 -35 -17q-36 0 -36 17v59q0 62 -84 62h-154q-20 0 -20 -21v-235q0 -46 39 -70q39 -23 92 -23l149 4q154 5 154 173q0 12 35 12t35 -12v-197z" />
    <glyph glyph-name="edotaccent" unicode="&#x117;" horiz-adv-x="838" 
d="M85 431q0 178 113.5 308.5t254.5 130.5t228 -98t87 -160t-51 -63h-449q-30 0 -30 -66q0 -160 76.5 -274.5t211.5 -114.5q101 0 201 60q5 3 11 3q12 0 21 -11q7 -7 7 -21q0 -5 -4 -8q-158 -140 -311 -140t-259.5 138t-106.5 316zM261 630q0 -14 24 -14h321q15 0 15 17
q0 44 -54.5 111t-113.5 67q-65 0 -112.5 -43.5t-76.5 -122.5q-3 -8 -3 -15zM567 1157q0 -57 -48 -90q-27 -19 -61 -19q-60 0 -90 50q-16 27 -16 59q0 63 49 91q26 15 57 15q59 0 91 -47q18 -27 18 -59z" />
    <glyph glyph-name="egrave" unicode="&#xe8;" horiz-adv-x="838" 
d="M534 1081q4 -11 4 -20q0 -39 -35 -39q-23 0 -41 29l-168 271q-4 5 -4 13q0 26 40 45q22 11 41 11q24 0 31 -16zM85 431q0 178 113.5 308.5t254.5 130.5t228 -98t87 -160t-51 -63h-449q-30 0 -30 -66q0 -160 76.5 -274.5t211.5 -114.5q101 0 201 60q5 3 11 3q12 0 21 -11
q7 -7 7 -21q0 -5 -4 -8q-158 -140 -311 -140t-259.5 138t-106.5 316zM261 630q0 -14 24 -14h321q15 0 15 17q0 44 -54.5 111t-113.5 67q-65 0 -112.5 -43.5t-76.5 -122.5q-3 -8 -3 -15z" />
    <glyph glyph-name="egrave.sc" horiz-adv-x="899" 
d="M514 1113l-216 195q-11 10 -7 32q5 23 24 43q21 23 51 16q10 -3 17 -12l171 -239q9 -14 9 -34q0 -15 -25 -15q-11 3 -24 14zM834 39q0 -31 -12 -38q-13 -7 -68 -7q-9 0 -235 3t-261 3q-2 0 -186 -6q-15 0 -15 32q0 33 15 33q110 0 110 80v654q0 75 -116 75q-17 0 -17 32
t17 32q122 -4 188 -4q152 0 306 2q153 2 163 2q47 0 59 -6q13 -6 13 -29v-211q0 -12 -35 -12t-35 12q0 78 -50 125t-104 49l-223 8q-18 0 -18 -28v-348q0 -21 20 -21h154q84 0 84 61v70q0 16 36 16q35 0 35 -16q-4 -24 -4 -160q0 -131 4 -155q0 -17 -35 -17q-36 0 -36 17v59
q0 62 -84 62h-154q-20 0 -20 -21v-235q0 -46 39 -70q39 -23 92 -23l149 4q154 5 154 173q0 12 35 12t35 -12v-197z" />
    <glyph glyph-name="eight" unicode="8" horiz-adv-x="956" 
d="M477 -16q-171 0 -272 94t-101 237q0 209 273 353q-127 82 -166 141q-70 93 -70 199q0 134 96 229.5t240 95.5q169 0 250.5 -86t81.5 -209q0 -208 -227 -327q270 -173 270 -379q0 -154 -110.5 -251t-264.5 -97zM258 1075q0 -128 159 -246q33 -25 111 -75q142 100 142 243
q0 121 -61 190.5t-156 69.5q-102 0 -148.5 -59.5t-46.5 -122.5zM709 260q0 128 -86.5 211t-159.5 134l-29 20q-174 -101 -174 -289q0 -112 69.5 -198.5t178.5 -86.5q101 0 151 66.5t50 142.5z" />
    <glyph glyph-name="eight.oldstyle" horiz-adv-x="815" 
d="M76 256q0 80 49 154.5t104.5 112.5t96.5 73q-99 74 -168.5 168t-69.5 186q0 79 47.5 159t126 121.5t188.5 41.5q100 0 191.5 -75t91.5 -187t-45 -197.5t-178 -161.5q139 -102 184 -185t45 -185q0 -142 -92 -227t-213 -85q-164 0 -261 79t-97 208zM242 992
q0 -91 64.5 -172t150.5 -130q57 51 85.5 112.5t33 97.5t4.5 84q0 101 -44 163.5t-118 62.5q-66 0 -121 -63.5t-55 -154.5zM231 281q0 -125 56.5 -186.5t124.5 -61.5q172 0 172 207q0 180 -209 317q-70 -53 -107 -129t-37 -147z" />
    <glyph glyph-name="eight.supold" horiz-adv-x="509" 
d="M50 667q0 97 139 204q-132 94 -132 207q0 78 57.5 138t165.5 60q62 0 119 -45t57 -111q-1 -148 -128 -217q130 -93 131 -221q0 -86 -57.5 -137t-144.5 -51t-147 48t-60 125zM159 1108q0 -49 38.5 -97t84.5 -77q72 65 72 185q0 45 -25.5 82.5t-66.5 37.5q-40 0 -71.5 -37
t-31.5 -94zM159 682q0 -76 30.5 -112.5t67.5 -36.5q93 0 93 124q0 98 -116 182q-75 -60 -75 -157z" />
    <glyph glyph-name="emacron" unicode="&#x113;" horiz-adv-x="838" 
d="M685 1198q28 0 28 -47t-32 -47h-446q-29 0 -29 47t29 47h450zM85 431q0 178 113.5 308.5t254.5 130.5t228 -98t87 -160t-51 -63h-449q-30 0 -30 -66q0 -160 76.5 -274.5t211.5 -114.5q101 0 201 60q5 3 11 3q12 0 21 -11q7 -7 7 -21q0 -5 -4 -8q-158 -140 -311 -140
t-259.5 138t-106.5 316zM261 630q0 -14 24 -14h321q15 0 15 17q0 44 -54.5 111t-113.5 67q-65 0 -112.5 -43.5t-76.5 -122.5q-3 -8 -3 -15z" />
    <glyph glyph-name="emacron.sc" horiz-adv-x="899" 
d="M672 1198q28 0 28 -47t-32 -47h-446q-29 0 -29 47t29 47h450zM834 39q0 -31 -12 -38q-13 -7 -68 -7q-9 0 -235 3t-261 3q-2 0 -186 -6q-15 0 -15 32q0 33 15 33q110 0 110 80v654q0 75 -116 75q-17 0 -17 32t17 32q122 -4 188 -4q152 0 306 2q153 2 163 2q47 0 59 -6
q13 -6 13 -29v-211q0 -12 -35 -12t-35 12q0 78 -50 125t-104 49l-223 8q-18 0 -18 -28v-348q0 -21 20 -21h154q84 0 84 61v70q0 16 36 16q35 0 35 -16q-4 -24 -4 -160q0 -131 4 -155q0 -17 -35 -17q-36 0 -36 17v59q0 62 -84 62h-154q-20 0 -20 -21v-235q0 -46 39 -70
q39 -23 92 -23l149 4q154 5 154 173q0 12 35 12t35 -12v-197z" />
    <glyph glyph-name="emdash" unicode="&#x2014;" horiz-adv-x="2048" 
d="M2017 473h-1986q-21 0 -24 47l2 32q6 34 22 34h1986q21 0 24 -47l-2 -32l-6 -22q-7 -12 -16 -12z" />
    <glyph glyph-name="emptyset" unicode="&#x2205;" horiz-adv-x="1638" 
d="M1518 678q0 -289 -205 -493.5t-494 -204.5q-261 0 -457 170l-198 -197l-70 70l199 196q-172 198 -172 459q0 289 204.5 493.5t493.5 204.5q262 0 457 -172l201 201l69 -70l-200 -200q172 -195 172 -457zM1206 1135q-166 143 -387 143q-247 0 -423.5 -176.5t-176.5 -423.5
q0 -221 143 -387zM1419 678q0 221 -143 387l-844 -844q166 -143 387 -143q247 0 423.5 176.5t176.5 423.5z" />
    <glyph glyph-name="endash" unicode="&#x2013;" horiz-adv-x="1024" 
d="M993 473h-962q-21 0 -24 47l2 32q6 34 22 34h962q21 0 24 -47l-2 -32l-6 -22l-8 -9q-4 -3 -8 -3z" />
    <glyph glyph-name="eng" unicode="&#x14b;" horiz-adv-x="1057" 
d="M201 127v447q0 128 -84 128q-17 0 -17 28t17 28q38 0 87.5 30t86.5 62.5t52 32.5q14 0 13 -31l-2 -73q-1 -21 14 -21q8 0 15 6q107 106 259 106q148 0 221 -147q33 -66 33 -248v-348q0 -278 -34.5 -396.5t-114.5 -202t-211 -83.5q-51 0 -86.5 29.5t-35.5 72.5q0 22 24 43
t54 21q49 0 88.5 -39t64.5 -39q98 0 98 213v784q0 84 -14.5 142.5t-45.5 83t-109 24.5q-42 0 -76 -17t-66.5 -40.5t-55 -58t-22.5 -74.5v-463q0 -78 107 -78q14 0 14 -28.5t-14 -28.5q-77 8 -186.5 8t-188.5 -8q-14 0 -14 28.5t14 28.5q115 0 115 78z" />
    <glyph glyph-name="eogonek" unicode="&#x119;" horiz-adv-x="838" 
d="M85 431q0 178 113 309q114 130 255 130t228 -98t87 -160q0 -63 -51 -63h-449q-30 0 -30 -66q0 -160 76 -275q77 -114 212 -114q101 0 201 60q6 4 12 4q11 0 19 -13q9 -13 9 -20q-1 -5 -5 -8q-51 -35 -102 -86q-50 -51 -95 -127t-45 -155q0 -126 124 -126q58 0 103 34
q2 2 5 2q7 0 14 -10q7 -9 7 -15q0 -7 -5 -13q-44 -57 -92 -83q-47 -26 -114 -26q-88 0 -135 52q-47 53 -47 125q0 138 156 277q14 12 14 17t-6 5q-7 0 -18 -3q-37 -8 -75 -8q-153 0 -259 138q-107 138 -107 316zM621 633q0 44 -55 111q-54 67 -113 67q-65 0 -112 -43
q-47 -44 -77 -123q-3 -8 -3 -15q0 -14 24 -14h321q15 0 15 17z" />
    <glyph glyph-name="eogonek.alt" horiz-adv-x="838" 
d="M768 612q0 -62 -51 -63h-449q-30 0 -30 -66q0 -171 74 -285.5t204 -114.5q102 0 211 71q5 3 11 3q12 0 21 -11q7 -7 7 -21q0 -5 -4 -8q-65 -58 -146.5 -101t-143 -110.5t-61.5 -154.5q0 -128 123 -128q60 0 103 34q21 -7 21 -36q-42 -56 -90.5 -82.5t-115.5 -26.5
q-88 0 -135 52.5t-47 124.5q0 135 134 256q32 29 -15 38q-123 25 -213.5 152.5t-90.5 295.5q0 178 113.5 308.5t254.5 130.5t228 -98t87 -160zM621 633q0 44 -54.5 111t-113.5 67q-65 0 -112 -43.5t-77 -122.5q-3 -8 -3 -15q0 -14 24 -14h321q15 0 15 17z" />
    <glyph glyph-name="eogonek.enlargedalt" horiz-adv-x="943" 
d="M718 753q0 53 -65 133q-65 79 -135 79q-97 0 -162 -77q-66 -76 -66 -138q0 -17 28 -17h382q18 0 18 20zM873 719q0 -66 -61 -66h-514q-36 0 -36 -78q0 -205 94 -342t249 -137q111 0 225 83q23 16 36 -6t0 -34q-84 -77 -178 -129q-93 -52 -160 -132q-67 -79 -67 -183
q0 -142 131 -142q67 0 116 41q7 6 19 -10t4 -28q-44 -60 -98 -90q-54 -29 -127 -29q-95 0 -142 57q-48 57 -48 135q0 84 83 198q47 64 100 109q40 34 -18 38q-161 12 -267 166q-113 166 -113 379q0 197 125 357q124 159 290 159q170 0 264 -117q93 -116 93 -199z" />
    <glyph glyph-name="eogonek.sc" horiz-adv-x="899" 
d="M834 39q0 -31 -12 -38q-6 -3 -38 -6q-107 -11 -158 -95.5t-51 -148.5q0 -128 123 -128q60 0 103 34q21 -7 21 -36q-42 -56 -90.5 -82.5t-115.5 -26.5q-88 0 -135 52.5t-47 124.5q0 123 120 255q20 22 20 37t-37 16q-9 0 -111.5 1.5t-175 1.5t-178.5 -6q-15 0 -15 32.5
t15 32.5q110 0 110 80v654q0 75 -116 75q-17 0 -17 32t17 32q122 -4 231 -4t262.5 2t163.5 2q47 0 59.5 -6t12.5 -29v-211q0 -12 -35 -12t-35 12q0 78 -50 125t-104 49l-223 8q-18 0 -18 -28v-348q0 -21 20 -21h154q84 0 84 61v70q0 16 35.5 16t35.5 -16q-4 -24 -4 -157.5
t4 -157.5q0 -17 -35.5 -17t-35.5 17v59q0 62 -84 62h-154q-20 0 -20 -21v-235q0 -46 39 -69.5t92 -23.5l149 4q154 5 154 173q0 12 35 12t35 -12v-197z" />
    <glyph glyph-name="equal" unicode="=" horiz-adv-x="1024" 
d="M907 596h-788v100h788v-100zM907 330h-788v100h788v-100z" />
    <glyph glyph-name="eth" unicode="&#xf0;" horiz-adv-x="1020" 
d="M80 434q0 170 133 303t299 133q12 0 12 8q0 9 -6 15q-101 88 -208 154q-7 5 -16 5q-8 0 -20 -10l-182 -146q-5 -5 -8 -5q-4 0 -13 8t-69 98q-9 13 -9 19t3 6q4 0 12 -2l74 -19q6 -1 18 -1t31 14l86 65q8 6 8 13q0 6 -12 14q-60 37 -190 102q-12 6 -12 17t4 23
q10 32 24 32q55 0 248 -116q10 -5 22 -5t19 6l307 246q2 2 5 2q4 0 9 -3q35 -28 88 -91q14 -17 14 -22t-7 -5q-3 0 -7 1l-73 18q-16 4 -29 4q-26 0 -45 -15l-203 -165q-12 -10 -12 -17q0 -6 10 -12q173 -101 285 -192q112 -90 193 -219t81 -259q0 -199 -110 -329
q-111 -130 -310 -130q-186 0 -315 131q-129 132 -129 326zM254 430q0 -173 81 -280t187 -107q93 0 170 106q78 106 78 281q0 171 -83 276t-167 105q-97 0 -182 -107q-84 -106 -84 -274z" />
    <glyph glyph-name="eth.alt" horiz-adv-x="1020" 
d="M80 434q0 170 133 303t299 133q12 0 12 8q0 9 -6 15q-30 27 -208 154q-7 5 -16 5q-8 0 -20 -10l-164 -131q-2 -2 -4 -2q-1 0 -5 2q-14 6 -76 105q-9 14 -9 20t5 5l84 -21q23 -6 49 13l63 46q8 6 8 13q0 6 -12 14q-48 33 -108 62q-20 10 -5 48q16 38 30 31q67 -28 157 -83
q10 -6 22 -6q12 1 19 7l307 246q2 2 5 2q4 0 9 -3q35 -28 88 -91q14 -17 14 -22q0 -7 -14 -4l-73 18q-16 4 -29 4q-26 0 -45 -15l-203 -165q-12 -10 -12 -17q0 -6 10 -12q173 -101 285 -192q112 -90 193 -219t81 -259q0 -199 -110 -329q-111 -130 -310 -130q-186 0 -315 131
q-129 132 -129 326zM254 430q0 -173 81 -280t187 -107q93 0 170 106q78 106 78 281q0 171 -83 276t-167 105q-97 0 -182 -107q-84 -106 -84 -274z" />
    <glyph glyph-name="eth.nordic" horiz-adv-x="992" 
d="M924 426q0 -180 -111 -314q-111 -135 -307 -135q-175 0 -298 142q-124 142 -124 309q0 168 125 305t295 137q108 0 196 -52q-60 176 -158 306l-212 -153q-7 -5 -28 21q-20 27 -10 34l209 151q-114 141 -270 258q-13 10 1 34q15 24 29 15q195 -124 321 -248l208 150
q9 6 28 -22q18 -27 10 -33l-199 -143q145 -157 220 -347t75 -415zM761 420q0 144 -26 273q-130 118 -227 118q-98 0 -180 -107q-81 -107 -81 -283t81 -277q82 -101 176 -101t176 99q81 100 81 278z" />
    <glyph glyph-name="eth.nordicenlarged" horiz-adv-x="827" 
d="M841 769q0 173 -163 173q-123 0 -267.5 -230.5t-144.5 -447.5q0 -194 173 -194q125 0 263.5 235.5t138.5 463.5zM1002 801q0 -380 -160.5 -607t-429.5 -227q-294 0 -294 405q0 269 187.5 471t389.5 202q54 0 134 -25q-23 151 -68 275l-197 -101q-12 -5 -38 40.5t-11 51.5
l206 105q-43 91 -101 163q-13 18 34 50.5t62 15.5q74 -74 129 -165l207 105q13 7 32 -31.5t19 -48.5t-2 -12l-207 -105q108 -235 108 -562z" />
    <glyph glyph-name="eth.sc" horiz-adv-x="1116" 
d="M182 139v269q0 20 -18 20h-123q-16 0 -16 33t16 33h123q18 0 18 18v281q0 75 -116 75q-14 0 -14 32t14 32q123 -4 196 -4q72 0 140 2q67 2 112 2q227 0 378 -116q150 -116 150 -318q0 -238 -140 -371t-355 -133q-45 0 -109 3q-65 3 -150 3q-84 0 -216 -6q-13 0 -13 32
q0 33 13 33q43 0 76 21q34 20 34 59zM330 188q0 -49 11 -78q11 -30 39 -42q28 -13 50 -16q23 -3 70 -3q172 0 273 120t101 323q0 150 -108 268q-107 119 -309 119q-35 0 -63 1q-29 0 -46 -12q-18 -12 -18 -43v-313q0 -18 18 -18h158q14 0 14 -33t-14 -33h-158q-18 0 -18 -20
v-220z" />
    <glyph glyph-name="exclam" unicode="!" horiz-adv-x="520" 
d="M260 211q61 0 91 -37t30 -87.5t-34.5 -81t-87.5 -30.5t-86.5 36t-33.5 87t30 82t91 31zM166 1275q0 56 30.5 90t67.5 34q103 0 103 -111q0 -63 -31 -354.5t-43 -497.5q-1 -16 -33 -16t-33 16q-8 199 -34.5 491t-26.5 348z" />
    <glyph glyph-name="exclam.alt" horiz-adv-x="621" 
d="M361 211q61 0 91 -37t30 -87.5t-34.5 -81t-87.5 -30.5t-86.5 36t-33.5 87t30 82t91 31zM267 1275q0 56 30.5 90t67.5 34q103 0 103 -111q0 -63 -31 -354.5t-43 -497.5q-2 -16 -34 -16t-32 16q-8 199 -34.5 491t-26.5 348z" />
    <glyph glyph-name="exclam.sc" horiz-adv-x="520" 
d="M151 86q0 45 32 77t77 32t77 -32t32 -77t-32 -77t-77 -32t-77 32t-32 77zM367 885q0 -8 -19 -125q-18 -117 -36 -252q-17 -135 -19 -191q0 -10 -33 -10t-33 10q-2 70 -31 307q-30 238 -30 261q0 33 28 57q29 23 70 23q45 0 74 -19q29 -20 29 -61z" />
    <glyph glyph-name="exclamdown" unicode="&#xa1;" horiz-adv-x="520" 
d="M260 634q-62 0 -92 37t-30 87q0 51 35 82q35 30 88 30t86 -36t33 -87t-30 -82t-90 -31zM152 -443q0 63 31 355q31 291 43 497q2 16 34 16t32 -16q8 -199 35 -491t27 -348t-31 -90t-67 -34q-104 0 -104 111z" />
    <glyph glyph-name="exclamdown.sc" horiz-adv-x="520" 
d="M154 806q0 45 32 77q31 32 76 32q46 0 78 -32t32 -77t-32 -77t-78 -32q-45 0 -76 32q-32 32 -32 77zM166 12q0 23 30 260q29 238 31 308q0 10 33 10t33 -10q2 -55 19 -190q18 -134 36 -252q19 -118 19 -126q0 -41 -28 -60q-28 -18 -75 -18q-41 0 -70 24q-28 24 -28 54z
" />
    <glyph glyph-name="f" unicode="f" horiz-adv-x="584" 
d="M201 127v600q0 37 -37 37h-74q-15 0 -15 27.5t15 27.5q111 0 111 86v19q0 250 141 406.5t330 156.5q53 0 96 -13q42 -13 66 -39q24 -25 24 -67q0 -30 -27.5 -57t-58.5 -27q-56 0 -101.5 54.5t-99.5 54.5q-106 0 -161.5 -85t-55.5 -207v-214q0 -37 37 -37h203q15 0 15 -43
t-15 -43h-203q-37 0 -37 -37v-600q0 -78 148 -78q14 0 14 -28.5t-14 -28.5q-85 8 -211 8t-207 -8q-14 0 -14 28.5t14 28.5q117 0 117 78z" />
    <glyph glyph-name="f.alt" horiz-adv-x="584" 
d="M201 127v600q0 37 -37 37h-74q-15 0 -15 28q0 27 15 27q111 0 111 86v84q0 206 107 352q106 146 261 146q93 0 137 -33q43 -32 43 -76q0 -38 -27 -61q-28 -23 -59 -23q-54 0 -82 50q-28 49 -93 49q-55 0 -94 -69q-40 -68 -40 -158v-279q0 -37 37 -37h203q15 0 15 -43
t-15 -43h-203q-37 0 -37 -37v-600q0 -78 148 -78q14 0 14 -29q0 -28 -14 -28q-85 8 -211 8t-207 -8q-14 0 -14 28q0 29 14 29q117 0 117 78z" />
    <glyph glyph-name="f.sc" horiz-adv-x="858" 
d="M795 686q0 -12 -35 -12t-35 12q0 78 -50 125t-104 49q-26 0 -113 4t-110 4q-18 0 -18 -28v-322q0 -20 20 -20h154q63 0 63 61v94q0 15 36 15t36 -15q-4 -24 -4 -186q0 -168 4 -193q0 -16 -36 -16t-36 16v99q0 61 -63 61h-154q-20 0 -20 -20v-275q0 -49 27.5 -64.5
t76.5 -15.5q17 0 17 -32.5t-17 -32.5q-61 6 -181 6t-181 -6q-15 0 -15 32.5t15 32.5q110 0 110 80v654q0 75 -116 75q-17 0 -17 32t17 32q122 -4 231 -4t262.5 2t163.5 2q47 0 59.5 -6t12.5 -29v-211z" />
    <glyph glyph-name="f_eth.nordic" horiz-adv-x="1575" 
d="M1508 426q0 -180 -111 -314q-111 -135 -307 -135q-175 0 -298 142q-124 142 -124 309q0 168 125 305t295 137q108 0 196 -52q-60 176 -158 306l-212 -153q-7 -5 -28 21q-20 27 -10 34l209 151q-114 141 -270 258q-13 10 1 34q15 24 29 15q195 -124 321 -248l208 150
q9 6 28 -22q18 -27 10 -33l-199 -143q145 -157 220 -347t75 -415zM1345 420q0 144 -26 273q-130 118 -227 118q-98 0 -180 -107q-81 -107 -81 -283t81 -277q82 -101 176 -101t176 99q81 100 81 278zM201 127v600q0 37 -37 37h-74q-15 0 -15 28q0 27 15 27q111 0 111 86v84
q0 206 107 352q106 146 261 146q93 0 137 -33q43 -32 43 -76q0 -38 -27 -61q-28 -23 -59 -23q-54 0 -82 50q-28 49 -93 49q-55 0 -94 -69q-40 -68 -40 -158v-279q0 -37 37 -37h203q15 0 15 -43t-15 -43h-203q-37 0 -37 -37v-600q0 -78 148 -78q14 0 14 -29q0 -28 -14 -28
q-85 8 -211 8t-207 -8q-14 0 -14 28q0 29 14 29q117 0 117 78z" />
    <glyph glyph-name="f_f.alt" horiz-adv-x="1119" 
d="M890 887q0 -37 37 -37h202q15 0 15 -43t-15 -43h-202q-37 0 -37 -37v-600q0 -78 145 -78q15 0 15 -28.5t-15 -28.5q-85 8 -209 8q-125 0 -205 -8q-15 0 -15 28.5t15 28.5q116 0 116 78v600q0 37 -37 37h-307q-37 0 -37 -37v-600q0 -78 117 -78q14 0 14 -28.5t-14 -28.5
q-80 8 -193 8q-114 0 -194 -8q-16 0 -16 28.5t16 28.5q117 0 117 78v600q0 37 -37 37h-72q-14 0 -14 27.5t14 27.5h2q107 0 107 101v14q0 138 63 256t170.5 189t237.5 71q103 0 193 -79q100 116 237 116q94 0 138 -33q42 -31 42 -76q0 -38 -27 -61t-59 -23q-54 0 -82 49.5
t-92 49.5q-55 0 -94.5 -68.5t-39.5 -158.5v-279zM785 1240q-41 61 -87 88.5t-125 27.5q-84 0 -133.5 -45.5t-66.5 -127.5t-17 -188v-108q0 -37 37 -37h307q37 0 37 37v102q0 139 48 251z" />
    <glyph glyph-name="f_thorn.nordic" horiz-adv-x="1572" 
d="M203 127v600q0 37 -33 37h-76q-14 0 -14 27.5t14 27.5q109 0 109 123v33q0 116 78.5 254.5t189.5 198t223 59.5q88 0 152 -33q31 31 45 31q17 0 14 -19q-6 -46 -6 -70v-608q0 -20 16 -20q9 0 18 8q106 94 187 94q158 0 277.5 -129.5t119.5 -302.5q0 -217 -109.5 -339
t-304.5 -122q-110 0 -167 19q-6 2 -11 2q-26 0 -26 -33v-381q0 -86 151 -86q14 0 14 -28.5t-14 -28.5q-99 8 -225 8q-101 0 -195 -8q-14 0 -14 28.5t14 28.5q115 0 115 84v1592q0 100 -35 176q-20 43 -116 43q-117 0 -177.5 -92t-60.5 -343v-71q0 -37 37 -37h201
q15 0 15 -43t-15 -43h-201q-37 0 -37 -37v-600q0 -78 117 -78q14 0 14 -28.5t-14 -28.5q-80 8 -193.5 8t-193.5 -8q-16 0 -16 28.5t16 28.5q117 0 117 78zM1343 420q0 368 -264 368q-84 0 -160 -100q-20 -26 -20 -94v-389q0 -164 260 -164q84 0 134 114t50 265z" />
    <glyph glyph-name="figuredash" unicode="&#x2012;" horiz-adv-x="1024" 
d="M993 473h-962q-21 0 -24 47l2 32q6 34 22 34h962q21 0 24 -47l-2 -32l-6 -22l-8 -9q-4 -3 -8 -3z" />
    <glyph glyph-name="five" unicode="5" horiz-adv-x="956" 
d="M813 496q0 -215 -133.5 -363.5t-345.5 -148.5q-141 0 -191.5 42t-50.5 85q0 82 82 82q39 0 108 -62.5t136 -62.5q112 0 185 108.5t73 229.5q0 208 -141 291q-78 46 -191 46q-50 0 -129 -18h-13q-15 0 -15 23q0 5 1 10l93 530q5 29 32 29h471q7 0 7 -17q0 -53 -26 -107
q-9 -19 -15 -19h-383q-29 0 -33 -27l-43 -234q-3 -23 12 -23l80 5q233 0 347 -139q83 -101 83 -260z" />
    <glyph glyph-name="five.oldstyle" horiz-adv-x="772" 
d="M111 500q0 57 35 144q36 87 90 165q34 45 81 45h400q31 0 7 -60q-24 -59 -58 -59h-310q-67 0 -109 -43t-42 -95t45 -79q184 -115 259 -226q75 -112 75 -249q0 -133 -117 -303t-264 -242q-15 -8 -31 12q-16 19 -6 29q71 61 134 138q62 77 96 152t34 179q0 76 -30 142
q-31 65 -64 97t-96 81q-63 50 -96 84t-33 88z" />
    <glyph glyph-name="five.supold" horiz-adv-x="465" 
d="M61 813q0 69 81 185q21 27 48 27h240q19 0 2.5 -39.5t-32.5 -39.5h-176q-44 0 -67.5 -23.5t-23.5 -52.5q0 -30 68.5 -72t113.5 -110t45 -149t-67.5 -179t-170.5 -148q-10 -5 -19 6.5t-3 17.5q23 20 67 74.5t64.5 98.5t20.5 99q0 69 -23 108.5t-79.5 84.5t-72.5 62t-16 50
z" />
    <glyph glyph-name="fiveeighths" unicode="&#x215d;" horiz-adv-x="1482" 
d="M1415 209q0 -95 -73 -157q-74 -61 -175 -61q-103 0 -171 54q-74 58 -74 156q0 107 152 196q-130 80 -130 197q0 87 66 148q63 58 157 58q109 0 171 -59q51 -50 51 -130q0 -108 -127 -181q153 -91 153 -221zM1261 588q0 84 -41 125q-27 27 -67 27q-53 0 -80 -47
q-15 -27 -15 -61q0 -82 138 -163q65 37 65 119zM1284 169q0 99 -147 189q-78 -45 -78 -147q0 -70 38 -118q35 -47 89 -47q55 0 82 53q16 32 16 70zM522 824q0 -116 -70 -202q-90 -110 -240 -110q-88 0 -134 31q-33 22 -33 56q0 32 21 48q19 13 47 13q37 0 64 -31
q44 -52 86 -52q64 0 107 65q37 55 37 118q0 92 -63 142q-50 41 -126 41q-39 0 -82 -12q-10 -3 -16 -3q-22 0 -19 20q26 167 57 331q6 33 42 33h301q4 0 4 -12q0 -11 -3 -33q-10 -67 -22 -67h-249q-21 0 -22 -9q-14 -56 -19 -114q-1 -10 9 -8q25 4 43 4q139 0 215 -76
q65 -66 65 -173zM1247 1389l-891 -1354q-7 -11 -35 9t-22 30l888 1351q3 5 11 5q13 0 34 -16t15 -25z" />
    <glyph glyph-name="florin" unicode="&#x192;" horiz-adv-x="584" 
d="M201 -254v981q0 37 -37 37h-74q-15 0 -15 28q0 27 15 27q111 0 111 86v19q0 256 143 410q144 153 328 153q85 0 136 -31q50 -30 50 -79q0 -41 -28 -67q-29 -26 -58 -26q-56 0 -102 54q-45 55 -99 55q-105 0 -161 -85q-56 -86 -56 -207v-214q0 -37 37 -37h203q15 0 15 -43
t-15 -43h-203q-37 0 -37 -37v-668q0 -309 -96 -461q-96 -153 -262 -153q-54 0 -90 29q-35 29 -35 67q0 35 25 53q26 17 53 17q49 0 89 -39t64 -39q99 0 99 213z" />
    <glyph glyph-name="four" unicode="4" horiz-adv-x="956" 
d="M870 391h-116q-23 0 -23 -20v-244q0 -78 121 -78q14 0 14 -28.5t-14 -28.5q-77 8 -216 8t-216 -8q-14 0 -14 28.5t14 28.5q158 0 158 78v244q0 20 -21 20h-477q-67 0 -67 37q0 11 7 28q11 26 39 64l222 301q14 19 419 604q9 13 39 13q58 0 58 -31l-647 -897
q-8 -11 -8 -19q0 -14 26 -14h389q21 0 21 21v444q0 15 76.5 15t76.5 -15v-444q0 -21 23 -21h116q18 0 18 -43t-18 -43z" />
    <glyph glyph-name="four.oldstyle" horiz-adv-x="966" 
d="M940 53h-172q-31 0 -36 -6t-5 -43v-371q0 -24 -78 -24t-78 24v371q0 37 -5 43t-36 6h-471q-12 1 -19 17q-3 8 -3 13q0 6 4 11l633 776q14 17 28 17q25 0 25 -23v-657q0 -41 5 -48t36 -7h172q18 0 18 -50q0 -49 -18 -49zM571 207v389q0 51 -30 8l-326 -411q-8 -10 -8 -25
q0 -16 31 -16h292q31 0 36 7t5 48z" />
    <glyph glyph-name="four.supold" horiz-adv-x="565" 
d="M558 534h-114q-9 0 -9 -19v-219q0 -16 -50 -16t-50 16v219q0 19 -11 19h-291q-23 0 -23 17t9 29l365 448q17 21 34 21t17 -40v-381q0 -17 9 -17h114q13 0 13 -38.5t-13 -38.5zM335 628v217q0 11 -3.5 11t-8.5 -6l-179 -219q-4 -5 -4 -12.5t15 -7.5h169q11 0 11 17z" />
    <glyph glyph-name="fraction" unicode="&#x2044;" horiz-adv-x="1182" 
d="M1156 1149l-1070 -1145h-9q-1 0 -5 1q-20 8 -45 35q-19 22 -19 34q0 4 2 6l1066 1144q1 3 5 3l11 -2q22 -9 48 -37q18 -20 18 -33z" />
    <glyph glyph-name="g" unicode="g" horiz-adv-x="948" 
d="M59 -308q0 100 187 234q16 14 16 22q-2 11 -20 15q-136 39 -136 148q0 51 114 131q10 7 23.5 15t13.5 20t-15 22q-146 93 -146 239t100.5 239t227.5 93t214 -38.5t138 -38.5h172q15 0 15 -43t-15 -43h-166q4 -37 4 -109q0 -145 -94 -241.5t-262 -96.5q-33 0 -76 4
q-21 0 -43 -14q-69 -45 -69 -100q0 -80 149 -80h254q297 0 297 -228q0 -170 -159.5 -285.5t-354.5 -115.5q-181 0 -275 70.5t-94 180.5zM219 -252q0 -98 73 -157.5t211 -59.5t227 66.5t89 160.5q0 187 -244 187h-184q-35 0 -61 -19q-111 -80 -111 -178zM250 569
q0 -109 66 -179.5t145 -70.5q170 0 170 224q0 172 -86 237q-41 31 -110 31t-127 -66.5t-58 -175.5z" />
    <glyph glyph-name="g.sc" horiz-adv-x="1036" 
d="M975 328q-49 0 -61.5 -10.5t-12.5 -43.5v-163q0 -33 29 -33q16 0 16 -27.5t-16 -27.5q-70 0 -135 -15q-125 -26 -244 -26q-213 0 -352.5 134t-139.5 328q0 215 141.5 360.5t364.5 145.5q97 0 252 -32q25 -5 53 -5q13 -26 21 -104t8 -121q0 -12 -31.5 -14t-33.5 10
q-25 207 -273 207q-160 0 -248 -118t-88 -290q0 -114 32 -202t83 -137.5t106.5 -74t112.5 -24.5q100 0 152 18q43 17 43 46v165q0 35 -19.5 44.5t-111.5 9.5q-17 0 -17 31.5t17 31.5q41 -4 176 -4t176 4q16 0 16 -31.5t-16 -31.5z" />
    <glyph glyph-name="gamma" unicode="&#x3b3;" horiz-adv-x="768" 
d="M2 608q0 133 52.5 199.5t131.5 66.5q78 0 137.5 -59t95.5 -370q28 -231 31 -250l72 225q91 300 100 424q0 25 53 25t53 -19q-35 -232 -240 -727l-26 -62q14 -128 14 -224q0 -267 -100 -267q-72 0 -72 112q0 83 59 256l41 121q-35 234 -52 320l-36 195q-19 86 -52 142
t-90 56q-88 0 -117 -118q-6 -21 -9 -46q0 -12 -23 -12t-23 12z" />
    <glyph glyph-name="gbreve" unicode="&#x11f;" horiz-adv-x="948" 
d="M59 -308q0 100 187 234q16 14 16 22q-2 11 -20 15q-136 39 -136 148q0 51 114 131q10 7 23.5 15t13.5 20t-15 22q-146 93 -146 239t100.5 239t227.5 93t214 -38.5t138 -38.5h172q15 0 15 -43t-15 -43h-166q4 -37 4 -109q0 -145 -94 -241.5t-262 -96.5q-33 0 -76 4
q-21 0 -43 -14q-69 -45 -69 -100q0 -80 149 -80h254q297 0 297 -228q0 -170 -159.5 -285.5t-354.5 -115.5q-181 0 -275 70.5t-94 180.5zM219 -252q0 -98 73 -157.5t211 -59.5t227 66.5t89 160.5q0 187 -244 187h-184q-35 0 -61 -19q-111 -80 -111 -178zM250 569
q0 -109 66 -179.5t145 -70.5q170 0 170 224q0 172 -86 237q-41 31 -110 31t-127 -66.5t-58 -175.5zM701 1354q0 -275 -270.5 -275t-270.5 275q8 8 19.5 8t19.5 -8q35 -164 230 -164t233 164q8 8 19.5 8t19.5 -8z" />
    <glyph glyph-name="gcaron" unicode="&#x1e7;" horiz-adv-x="948" 
d="M689 1421l-209 -371q-16 -28 -38 -28t-38 28l-209 371l-2 4q0 23 27 23q5 0 8 -4l185 -217q21 -25 29 -25t30 25l184 217q3 4 6 4q29 0 29 -23zM59 -308q0 100 187 234q16 14 16 22q-2 11 -20 15q-136 39 -136 148q0 51 114 131q10 7 23.5 15t13.5 20t-15 22
q-146 93 -146 239t100.5 239t227.5 93t214 -38.5t138 -38.5h172q15 0 15 -43t-15 -43h-166q4 -37 4 -109q0 -145 -94 -241.5t-262 -96.5q-33 0 -76 4q-21 0 -43 -14q-69 -45 -69 -100q0 -80 149 -80h254q297 0 297 -228q0 -170 -159.5 -285.5t-354.5 -115.5
q-181 0 -275 70.5t-94 180.5zM219 -252q0 -98 73 -157.5t211 -59.5t227 66.5t89 160.5q0 187 -244 187h-184q-35 0 -61 -19q-111 -80 -111 -178zM250 569q0 -109 66 -179.5t145 -70.5q170 0 170 224q0 172 -86 237q-41 31 -110 31t-127 -66.5t-58 -175.5z" />
    <glyph glyph-name="gcaron.sc" horiz-adv-x="1036" 
d="M358 1314q-3 3 -3 8.5t5.5 14t10.5 8.5q2 0 3 -1l168 -149q12 -9 23 -9q12 0 23 10l164 150q3 2 5 2q7 0 12 -8t5 -14t-2 -10l-176 -255q-15 -23 -30 -23t-30 22zM975 328q-49 0 -61.5 -10.5t-12.5 -43.5v-163q0 -33 29 -33q16 0 16 -27.5t-16 -27.5q-70 0 -135 -15
q-125 -26 -244 -26q-213 0 -352.5 134t-139.5 328q0 215 141.5 360.5t364.5 145.5q97 0 252 -32q25 -5 53 -5q13 -26 21 -104t8 -121q0 -12 -31.5 -14t-33.5 10q-25 207 -273 207q-160 0 -248 -118t-88 -290q0 -114 32 -202t83 -137.5t106.5 -74t112.5 -24.5q100 0 152 18
q43 17 43 46v165q0 35 -19.5 44.5t-111.5 9.5q-17 0 -17 31.5t17 31.5q41 -4 176 -4t176 4q16 0 16 -31.5t-16 -31.5z" />
    <glyph glyph-name="gcircumflex" unicode="&#x11d;" horiz-adv-x="948" 
d="M701 1015q0 -23 -29 -23q-3 0 -6 4l-184 217q-22 25 -30 25t-29 -25l-185 -217q-3 -4 -8 -4q-27 0 -27 23l211 375q16 28 38 28t38 -28zM59 -308q0 100 187 234q16 14 16 22q-2 11 -20 15q-136 39 -136 148q0 51 114 131q10 7 23.5 15t13.5 20t-15 22q-146 93 -146 239
t100.5 239t227.5 93t214 -38.5t138 -38.5h172q15 0 15 -43t-15 -43h-166q4 -37 4 -109q0 -145 -94 -241.5t-262 -96.5q-33 0 -76 4q-21 0 -43 -14q-69 -45 -69 -100q0 -80 149 -80h254q297 0 297 -228q0 -170 -159.5 -285.5t-354.5 -115.5q-181 0 -275 70.5t-94 180.5z
M219 -252q0 -98 73 -157.5t211 -59.5t227 66.5t89 160.5q0 187 -244 187h-184q-35 0 -61 -19q-111 -80 -111 -178zM250 569q0 -109 66 -179.5t145 -70.5q170 0 170 224q0 172 -86 237q-41 31 -110 31t-127 -66.5t-58 -175.5z" />
    <glyph glyph-name="gcommaaccent" unicode="&#x123;" horiz-adv-x="948" 
d="M59 -308q0 100 187 234q16 14 16 22q-2 11 -20 15q-136 39 -136 148q0 51 114 131q10 7 23.5 15t13.5 20t-15 22q-146 93 -146 239t100.5 239t227.5 93t214 -38.5t138 -38.5h172q15 0 15 -43t-15 -43h-166q4 -37 4 -109q0 -145 -94 -241.5t-262 -96.5q-33 0 -76 4
q-21 0 -43 -14q-69 -45 -69 -100q0 -80 149 -80h254q297 0 297 -228q0 -170 -159.5 -285.5t-354.5 -115.5q-181 0 -275 70.5t-94 180.5zM219 -252q0 -98 73 -157.5t211 -59.5t227 66.5t89 160.5q0 187 -244 187h-184q-35 0 -61 -19q-111 -80 -111 -178zM250 569
q0 -109 66 -179.5t145 -70.5q170 0 170 224q0 172 -86 237q-41 31 -110 31t-127 -66.5t-58 -175.5zM538 1494q-96 -94 -126 -156q-22 -46 -22 -94q0 -45 31 -57q84 -33 100 -83q5 -17 5 -36q0 -88 -103 -88q-72 0 -121 62q-39 50 -39 114q0 209 246 365l9 1q15 -4 21 -19v-8
z" />
    <glyph glyph-name="gdotaccent" unicode="&#x121;" horiz-adv-x="948" 
d="M566 1157q0 -57 -48 -90q-27 -19 -61 -19q-60 0 -90 50q-16 27 -16 59q0 63 49 91q26 15 57 15q59 0 91 -47q18 -27 18 -59zM59 -308q0 100 187 234q16 14 16 22q-2 11 -20 15q-136 39 -136 148q0 51 114 131q10 7 23.5 15t13.5 20t-15 22q-146 93 -146 239t100.5 239
t227.5 93t214 -38.5t138 -38.5h172q15 0 15 -43t-15 -43h-166q4 -37 4 -109q0 -145 -94 -241.5t-262 -96.5q-33 0 -76 4q-21 0 -43 -14q-69 -45 -69 -100q0 -80 149 -80h254q297 0 297 -228q0 -170 -159.5 -285.5t-354.5 -115.5q-181 0 -275 70.5t-94 180.5zM219 -252
q0 -98 73 -157.5t211 -59.5t227 66.5t89 160.5q0 187 -244 187h-184q-35 0 -61 -19q-111 -80 -111 -178zM250 569q0 -109 66 -179.5t145 -70.5q170 0 170 224q0 172 -86 237q-41 31 -110 31t-127 -66.5t-58 -175.5z" />
    </font>
</defs>
</svg>
