<?xml version="1.0" standalone="no"?>
<!DOCTYPE svg PUBLIC "-//W3C//DTD SVG 1.1//EN" "http://www.w3.org/Graphics/SVG/1.1/DTD/svg11.dtd" >
<svg xmlns="http://www.w3.org/2000/svg" xmlns:xlink="http://www.w3.org/1999/xlink" version="1.1">
<metadata></metadata>
<defs>
<font id="junicoderxregular" horiz-adv-x="2307" >
<font-face units-per-em="2048" ascent="1638" descent="-410" />
<missing-glyph horiz-adv-x="581" />
<glyph unicode="&#x2e;&#x2e;" horiz-adv-x="1105" d="M145 100q0 71 60 103q31 16 72 16q67 0 101 -57q18 -31 18 -70q0 -68 -56 -101q-28 -17 -63 -17q-77 0 -114 58q-18 30 -18 68zM697 100q0 71 60 103q31 16 72 16q67 0 101 -57q18 -31 18 -70q0 -68 -56 -101q-28 -17 -63 -17q-77 0 -113 58q-19 30 -19 68z" />
<glyph unicode="&#x2e;&#x2e;&#x2e;" horiz-adv-x="1654" d="M145 102q0 53 37 85t94.5 32t88.5 -38.5t31 -91t-36 -84t-91 -31.5t-89.5 37.5t-34.5 90.5zM697 102q0 53 37.5 85t94.5 32t88 -38.5t31 -91t-35.5 -84t-91 -31.5t-90 37.5t-34.5 90.5zM1230 102q0 53 37.5 85t95 32t88.5 -38.5t31 -91t-36 -84t-91 -31.5t-90 37.5 t-35 90.5z" />
<glyph unicode="&#x21;&#x21;" horiz-adv-x="915" d="M145 102q0 53 31 85t94 32q64 0 95 -38.5t31 -91t-36 -84t-91 -31.5t-89.5 37.5t-34.5 90.5zM173 1326q0 58 31.5 93.5t70.5 35.5q107 0 107 -115q0 -66 -32.5 -369t-44.5 -518q-1 -16 -35 -16q-33 0 -34 16q-8 207 -35.5 511t-27.5 362zM515 102q0 53 31 85t95 32 q63 0 94 -38.5t31 -91t-35.5 -84t-91 -31.5t-90 37.5t-34.5 90.5zM543 1326q0 58 31.5 93.5t70.5 35.5q107 0 107 -115q0 -66 -32.5 -369t-44.5 -518q-1 -16 -34 -16q-34 0 -35 16q-8 207 -35.5 511t-27.5 362z" />
<glyph unicode="&#x3f;&#x3f;" horiz-adv-x="1339" d="M219 1331q0 85 88 85q135 0 254 -136q119 -146 122 -313q0 -152 -85 -196l-172 -92q-77 -43 -77 -93q0 -59 21 -130q0 -16 -23 -20q-15 -1 -24 7q-78 141 -78 219q0 93 119 158l109 58q121 64 121 157q0 207 -304 207q-71 0 -71 89zM230 89q0 72 53 111q31 22 71 22 q66 0 103 -59q20 -33 20 -74q0 -69 -56 -104q-31 -17 -67 -17q-64 0 -101 51q-23 32 -23 70zM764 1331q0 85 88 85q135 0 254 -136q119 -146 122 -313q0 -152 -85 -196l-172 -92q-77 -43 -77 -93q0 -59 21 -130q0 -16 -23 -20q-15 -1 -24 7q-78 141 -78 219q0 93 119 158 l109 58q121 64 121 157q0 207 -304 207q-71 0 -71 89zM775 89q0 72 53 111q31 22 71 22q66 0 103 -59q20 -33 20 -74q0 -69 -56 -104q-31 -17 -67 -17q-64 0 -101 51q-23 32 -23 70z" />
<glyph unicode="&#x3f;&#x21;" horiz-adv-x="1193" d="M219 1331q0 85 88 85q135 0 254 -136q119 -146 122 -313q0 -152 -85 -196l-172 -92q-77 -43 -77 -93q0 -59 21 -130q0 -16 -23 -20q-15 -1 -24 7q-78 141 -78 219q0 93 119 158l109 58q121 64 121 157q0 207 -304 207q-71 0 -71 89zM230 89q0 72 53 111q31 22 71 22 q66 0 103 -59q20 -33 20 -74q0 -69 -56 -104q-31 -17 -67 -17q-64 0 -101 51q-23 32 -23 70zM818 102q0 53 31.5 85t94.5 32q64 0 95 -38.5t31 -91t-36 -84t-91 -31.5t-90 37.5t-35 90.5zM847 1326q0 58 31.5 93.5t69.5 35.5q108 0 108 -115q0 -66 -32.5 -369t-44.5 -518 q-1 -16 -35 -16q-33 0 -34 16q-8 207 -35.5 511t-27.5 362z" />
<glyph unicode="&#x21;&#x3f;" horiz-adv-x="1127" d="M145 102q0 53 31 85t94 32q64 0 95 -38.5t31 -91t-36 -84t-91 -31.5t-89.5 37.5t-34.5 90.5zM173 1326q0 58 31.5 93.5t70.5 35.5q107 0 107 -115q0 -66 -32.5 -369t-44.5 -518q-1 -16 -35 -16q-33 0 -34 16q-8 207 -35.5 511t-27.5 362zM544 1331q0 85 87 85 q135 0 254 -136q120 -146 123 -313q0 -152 -86 -196l-171 -92q-77 -43 -77 -93q0 -59 21 -130q0 -16 -23 -20q-16 -1 -24 7q-78 141 -78 219q0 93 118 158l110 58q120 64 120 157q0 207 -303 207q-71 0 -71 89zM554 89q0 72 53 111q32 22 71 22q67 0 103 -59q21 -33 21 -74 q0 -69 -56 -104q-32 -17 -68 -17q-63 0 -101 51q-23 32 -23 70z" />
<glyph unicode="&#x17f;b" horiz-adv-x="1626" d="M90 21.5q0 29.5 16 29.5q122 0 122 79v577q0 35 -32 35h-78q-17 0 -17 28.5t17 28.5q46 0 78 48t32 114q0 230 138 407.5t352 177.5q64 0 127.5 -31.5t63.5 -102.5v-543q0 -28 12.5 -28t21.5 7q87 57 183 57q185 0 306 -137t121 -321q0 -223 -116 -347t-307 -124 q-46 0 -161 48q-25 10 -60 10q-23 0 -100 -58q-2 -1 -6 -1q-12 0 -34.5 9.5t-22.5 15.5q4 135 4 270v951q0 228 -136 228q-102 0 -164.5 -85t-62.5 -326v-906q0 -81 121 -81q16 0 16 -29.5t-16 -29.5q-85 8 -196 8q-121 0 -206 -8q-16 0 -16 29.5zM909 313 q0 -84 78.5 -179.5t183.5 -95.5q96 0 148.5 115.5t52.5 281.5q0 158 -79.5 273t-206.5 115q-90 0 -153 -52q-24 -19 -24 -98v-360z" />
<glyph unicode="&#x17f;h" horiz-adv-x="1679" d="M90 21.5q0 29.5 16 29.5q122 0 122 79v577q0 35 -32 35h-78q-17 0 -17 28.5t17 28.5q46 0 78 48t32 114q0 256 142 420.5t348 164.5q64 0 127.5 -33t63.5 -111v-579q0 -26 17 -26q9 0 17 8q100 100 251 100t228 -110t77 -224v-439q0 -81 132 -81q14 0 14 -29.5t-14 -29.5 q-85 8 -206 8t-203 -8q-15 0 -15 29.5t15 29.5q118 0 118 81v437q0 101 -61.5 171.5t-149.5 70.5q-87 0 -153.5 -53t-66.5 -104v-522q0 -81 115 -81q15 0 15 -29.5t-15 -29.5q-109 8 -213 8t-187 -8q-15 0 -15 29.5t15 29.5q126 0 126 81v1089q0 228 -136 228 q-102 0 -164.5 -82.5t-62.5 -328.5v-906q0 -81 121 -81q16 0 16 -29.5t-16 -29.5q-85 8 -196 8q-121 0 -206 -8q-16 0 -16 29.5z" />
<glyph unicode="&#x17f;i" horiz-adv-x="1078" d="M70 21.5q0 29.5 17 29.5q122 0 122 81v588q0 22 -26 22h-89q-16 0 -16 28.5t16 28.5q36 0 75.5 38.5t39.5 123.5q0 262 146.5 423.5t343.5 161.5q128 0 174 -59q19 -25 19 -63t-33 -63.5t-56 -25.5q-58 0 -105.5 57t-103.5 57q-96 0 -161 -79t-65 -328v-910 q0 -81 150 -81q16 0 16 -29.5t-16 -29.5q-86 8 -216 8t-215 -8q-17 0 -17 29.5zM204 -312q0 66 51 95q27 15 59 15q61 0 95 -49q18 -28 18 -61q0 -59 -49 -94q-29 -19 -64 -19q-62 0 -94 52q-16 28 -16 61zM611 21q0 30 15 30q117 0 117 81v462q0 143 -96 143q-17 0 -17 29 q0 30 17 30q35 0 101 35q68 35 102 61t46 26t12 -16q-6 -113 -6 -173v-597q0 -81 118 -81q14 0 14 -30q0 -29 -14 -29q-79 8 -195 8q-115 0 -199 -8q-15 0 -15 29z" />
<glyph unicode="&#x17f;k" horiz-adv-x="1579" d="M90 21.5q0 29.5 16 29.5q122 0 122 79v577q0 35 -32 35h-78q-17 0 -17 28.5t17 28.5q46 0 78 48t32 114q0 230 138 407.5t352 177.5q64 -1 128 -32q62 -31 62 -102v-869q0 -49 49 -45q52 5 68 24l205 230q27 30 27 49q0 34 -99 34q-15 0 -15 27.5t15 27.5q95 -6 197 -6 t181 6q15 0 15 -27.5t-15 -27.5q-96 0 -169 -71l-222 -213q-20 -19 -20 -35.5t18 -36.5l334 -381q40 -47 134 -47q15 0 15 -29.5t-15 -29.5q-99 8 -210 8t-209 -8q-15 0 -15 29.5t15 29.5q85 0 85 30q0 14 -32 51l-230 264q-17 20 -35 26q-21 6 -36.5 6t-25.5 -8t-10 -36 v-252q0 -81 124 -81q14 0 14 -29.5t-14 -29.5q-108 8 -206 8q-99 0 -198 -8q-13 0 -13 29t13 30q120 9 120 81l2 1089q0 228 -136 228q-102 0 -164.5 -85t-62.5 -326v-906q0 -81 121 -81q16 0 16 -29.5t-16 -29.5q-85 8 -196 8q-121 0 -206 -8q-16 0 -16 29.5z" />
<glyph unicode="&#x17f;l" horiz-adv-x="1111" d="M90 21q0 30 16 30q122 0 122 79v577q0 35 -32 35h-78q-17 0 -17 28q0 29 17 29q46 0 78 48t32 114q0 230 138 408q138 177 352 177q104 0 167 -38q33 21 40 28q7 8 19 8q13 0 13 -15q-6 -71 -6 -179v-1218q0 -81 123 -81q16 0 16 -30q0 -29 -16 -29q-85 8 -201 8 q-117 0 -202 -8q-16 0 -16 29q0 30 16 30q120 0 120 81v1095q0 222 -156 222q-125 0 -187 -85q-61 -85 -61 -326v-906q0 -81 121 -81q16 0 16 -30q0 -29 -16 -29q-85 8 -200 8q-117 0 -202 -8q-16 0 -16 29z" />
<glyph unicode="&#x17f;&#x17f;" horiz-adv-x="1109" d="M95 21.5q0 29.5 13 29.5q122 0 122 79v586q0 26 -25 26h-85q-17 0 -17 28.5t17 28.5q48 0 79 48.5t31 113.5q0 229 142.5 388t347.5 159q114 0 192 -98q143 136 321 136q147 0 185 -76q9 -19 9 -41q0 -55 -59 -85q-17 -9 -31 -9q-61 0 -106 57t-103 57q-100 0 -162.5 -82 t-62.5 -332v-903q0 -80 147 -81q14 0 14 -28.5t-14 -30.5q-85 8 -214 8t-214 -8q-14 0 -14 29.5t14 29.5q122 0 122 79v588q0 22 -26 24h-88q-16 0 -16 28.5t16 28.5q51 0 82.5 48.5t31.5 113.5q0 195 71 317q-56 109 -143 127q-25 5 -56 5q-101 0 -163.5 -78.5 t-62.5 -275.5v-924q0 -81 122 -81q13 0 13 -28.5t-13 -30.5q-86 8 -202.5 8t-201.5 -8q-13 0 -13 29.5z" />
<glyph unicode="&#x17f;&#x17f;i" horiz-adv-x="1636" d="M95 21.5q0 29.5 13 29.5q122 0 122 79v586q0 26 -25 26h-85q-17 0 -17 28.5t17 28.5q48 0 79 48.5t31 113.5q0 229 142.5 388t347.5 159q114 0 192 -98q143 136 321 136q147 0 185 -76q9 -19 9 -41q0 -55 -59 -85q-17 -9 -31 -9q-61 0 -106 57t-103 57q-100 0 -162.5 -82 t-62.5 -332v-903q0 -80 147 -81q14 0 14 -28.5t-14 -30.5q-85 8 -214 8t-214 -8q-14 0 -14 29.5t14 29.5q122 0 122 79v588q0 22 -26 24h-88q-16 0 -16 28.5t16 28.5q51 0 82.5 48.5t31.5 113.5q0 195 71 317q-56 109 -143 127q-25 5 -56 5q-101 0 -163.5 -78.5 t-62.5 -275.5v-924q0 -81 122 -81q13 0 13 -28.5t-13 -30.5q-86 8 -202.5 8t-201.5 -8q-13 0 -13 29.5zM1167 21q0 30 15 30q117 0 117 81v462q0 143 -96 143q-17 0 -17 29q0 30 17 30q35 0 101 35q68 35 102 61t46 26t12 -16q-6 -113 -6 -173v-597q0 -81 118 -81 q14 0 14 -30q0 -29 -14 -29q-79 8 -195 8q-115 0 -199 -8q-15 0 -15 29z" />
<glyph unicode="&#x17f;&#x17f;l" horiz-adv-x="1643" d="M95 21q0 30 13 30q122 0 122 79v586q0 26 -25 26h-85q-17 0 -17 28q0 29 17 29q48 0 83 55q27 42 27 107q0 227 136 379q151 168 354 168q114 0 192 -98q143 136 343 136q77 0 147 -38q34 21 40 28q9 8 19 8q13 0 13 -15q-7 -71 -7 -179v-1218q0 -81 124 -81q14 0 14 -30 q0 -29 -14 -29q-85 8 -195 8q-124 0 -209 -8q-14 0 -14 29q0 30 14 30q121 0 121 81v1095q0 174 -71 207q-31 15 -87 15q-125 0 -183 -77q-64 -88 -64 -337v-903q0 -80 147 -81q14 0 14 -28q0 -29 -14 -31q-85 8 -214 8t-214 -8q-14 0 -14 29q0 30 14 30q122 0 122 79v588 q0 22 -26 24h-88q-16 0 -16 28q0 29 16 29q51 0 87 55q27 42 27 107q0 195 71 317q-56 109 -143 127q-25 5 -56 5q-104 0 -165 -77q-61 -82 -61 -277v-924q0 -81 122 -81q13 0 13 -28q0 -29 -13 -31q-86 8 -202 8q-117 0 -202 -8q-13 0 -13 29z" />
<glyph unicode="&#x17f;&#xe4;" horiz-adv-x="1626" d="M73 21q0 30 14 30q122 0 122 81v624q0 39 -38 39h-77q-16 0 -16 29q0 28 16 28q115 0 115 89v20q0 260 130 422q131 163 301 163q48 0 93 -13q45 -14 70 -40q24 -27 24 -70q0 -31 -28 -60q-29 -28 -62 -28q-55 0 -105 57q-51 57 -97 57q-65 0 -116 -89q-51 -88 -51 -215 v-1013q0 -81 154 -81q15 0 15 -30q0 -29 -15 -29q-88 8 -219 8t-216 -8q-14 0 -14 29zM644 427q0 197 137 337q137 141 357 141q69 0 117 -20t65 -35q25 26 68 46q44 22 57 22q12 0 12 -15q-6 -71 -6 -141v-522q0 -184 73 -184q20 0 68 34q13 9 26 -13q14 -21 14 -28t-4 -9 q-86 -59 -172 -59q-83 0 -114 50q-33 49 -46 92q-112 -147 -250 -147q-205 0 -303 128q-99 127 -99 323zM813 458q0 -154 87 -268q86 -113 199 -113q81 0 137 43q55 42 55 87v488q0 55 3 95q-68 52 -194 52t-206 -115q-81 -115 -81 -269zM821 1202q0 47 32 79q33 34 79 34 q47 0 79 -34q33 -32 33 -79t-33 -79q-32 -33 -79 -33q-46 0 -79 33q-32 32 -32 79zM1217 1202q0 47 33 79q32 34 79 34t79 -34q33 -32 33 -79t-33 -79q-32 -33 -79 -33t-79 33q-33 32 -33 79z" />
<glyph unicode="&#x17f;&#xf6;" horiz-adv-x="1609" d="M73 21q0 30 14 30q122 0 122 81v624q0 39 -38 39h-77q-16 0 -16 29q0 28 16 28q115 0 115 89v20q0 260 130 422q131 163 301 163q48 0 93 -13q45 -14 70 -40q24 -27 24 -70q0 -31 -28 -60q-29 -28 -62 -28q-55 0 -105 57q-51 57 -97 57q-65 0 -116 -89q-51 -88 -51 -215 v-1013q0 -81 154 -81q15 0 15 -30q0 -29 -15 -29q-88 8 -219 8t-216 -8q-14 0 -14 29zM662 445q0 175 130 317q129 143 310 143t308 -142q126 -143 126 -326t-115 -323q-115 -138 -308 -138q-194 0 -323 147q-128 147 -128 322zM821 1202q0 47 32 79q33 34 79 34 q47 0 79 -34q33 -32 33 -79t-33 -79q-32 -33 -79 -33q-46 0 -79 33q-32 32 -32 79zM832 439q0 -185 85 -289q85 -105 182 -105t182 105q86 106 86 289t-84 293q-83 111 -183 111t-184 -109q-84 -110 -84 -295zM1217 1202q0 47 33 79q32 34 79 34t79 -34q33 -32 33 -79 t-33 -79q-32 -33 -79 -33t-79 33q-33 32 -33 79z" />
<glyph unicode="&#x17f;p" horiz-adv-x="1616" d="M70 21q0 30 17 30q122 0 122 81v588q0 22 -26 22h-89q-16 0 -16 28q0 29 16 29q36 0 76 38q39 39 39 124q0 262 147 424q146 161 353 161q133 0 222 -98q88 -98 88 -233q0 -147 -103 -291v-104q0 -21 17 -21q9 0 19 8q110 98 194 98q117 0 214 -71q98 -72 148 -160 q50 -90 51 -239q0 -206 -113 -333q-115 -126 -318 -126q-114 0 -173 20q-7 2 -12 2q-27 0 -27 -34v-397q0 -89 157 -89q15 0 15 -29q0 -30 -15 -30q-88 8 -220 8q-133 0 -217 -8q-14 0 -14 30q0 29 14 29q120 0 120 87v1039q0 129 -89 129q-18 0 -18 28q0 29 18 29 q54 0 107 83q54 82 74 157q19 74 19 145q0 156 -69 221q-70 65 -162 65q-127 0 -203 -91q-65 -79 -65 -328v-910q0 -81 150 -81q16 0 16 -30q0 -29 -16 -29q-86 8 -216 8t-215 -8q-17 0 -17 29zM916 213q0 -170 197 -170q145 0 206 115q59 116 59 279q0 383 -275 383 q-87 0 -166 -104q-21 -28 -21 -98v-405z" />
<glyph unicode="&#x17f;ti" horiz-adv-x="1742" d="M74 21q0 30 15 30q122 0 122 79v634q0 26 -26 26h-85q-15 0 -15 23q0 24 15 24q56 0 90 70q21 43 21 92q0 129 64 261q62 132 181 208q119 78 266 78q124 0 168 -68q45 -69 45 -210v-392q0 -45 43 -45h363q88 0 147 44q60 43 71 43q12 0 12 -16q-6 -113 -6 -173v-597 q0 -81 118 -81q14 0 14 -30q0 -29 -14 -29q-79 8 -195 8q-115 0 -199 -8q-15 0 -15 29q0 30 15 30q117 0 117 81v462q0 143 -96 143h-332q-43 0 -43 -41v-366q0 -125 34 -189t119 -64q53 0 120 44q22 -5 22 -35q0 -3 -2 -5q-87 -105 -230 -105q-122 0 -172 64 q-50 63 -50 182v474q0 41 -42 41h-76q-14 0 -14 24q0 23 14 23q55 0 87 36q30 36 30 81v326q0 132 -35 177t-122 45q-248 0 -248 -306v-1011q0 -81 122 -81q16 0 16 -30q0 -29 -16 -29q-83 8 -201 8t-202 -8q-15 0 -15 29zM1353 1203q0 47 32 78q31 33 78 33t80 -33 q34 -31 34 -78t-34 -80q-33 -33 -80 -33t-78 33q-32 33 -32 80z" />
<glyph unicode="&#x17f;tr" horiz-adv-x="1947" d="M74 21q0 30 15 30q122 0 122 79v634q0 26 -26 26h-85q-15 0 -15 23q0 24 15 24q56 0 90 70q21 43 21 92q0 129 64 261q62 132 181 208q119 78 266 78q124 0 168 -68q45 -69 45 -210v-392q0 -45 43 -45h363q88 0 147 44q60 43 67 43q14 0 14 -26q-4 -51 -4 -93t14 -42 t29 21q88 127 221 127q34 0 55 -12q23 -11 42 -35q18 -24 18 -70q0 -12 -11 -35q-10 -24 -32 -40t-44 -16t-70 25q-47 26 -71 26q-63 -1 -107 -64q-44 -62 -44 -170v-382q0 -81 118 -81q14 0 14 -30q0 -29 -14 -29q-79 8 -195 8q-115 0 -199 -8q-15 0 -15 29q0 30 15 30 q117 0 117 81v462q0 143 -96 143h-332q-43 0 -43 -41v-366q0 -124 34 -189q34 -64 118 -64q53 0 120 44q22 -5 22 -35q0 -3 -2 -5q-93 -105 -230 -105q-121 0 -171 64t-50 182v474q0 41 -42 41h-76q-14 0 -14 24q0 23 14 23q55 0 87 36q30 36 30 81v326q0 132 -35 177 t-122 45q-248 0 -248 -306v-1011q0 -81 122 -81q16 0 16 -30q0 -29 -16 -29q-83 8 -201 8t-202 -8q-15 0 -15 29z" />
<glyph unicode="&#x17f;&#xfc;" horiz-adv-x="1651" d="M73 21q0 30 14 30q122 0 122 81v624q0 39 -38 39h-77q-16 0 -16 29q0 28 16 28q115 0 115 89v20q0 260 130 422q131 163 301 163q48 0 93 -13q45 -14 70 -40q24 -27 24 -70q0 -31 -28 -60q-29 -28 -62 -28q-55 0 -105 57q-51 57 -97 57q-65 0 -116 -89q-51 -88 -51 -215 v-1013q0 -81 154 -81q15 0 15 -30q0 -29 -15 -29q-88 8 -219 8t-216 -8q-14 0 -14 29zM625 843q0 30 16 30q110 0 176 9q68 9 88 9t20 -16q-9 -112 -9 -158v-370q0 -119 41 -195q41 -75 127 -75q91 0 162 54t71 131v399q0 153 -116 153q-15 0 -15 29q0 30 15 30q128 0 188 9 t72 9q21 0 21 -28q-6 -62 -6 -144v-483q0 -151 85 -151l49 7q18 2 23 -29q1 -8 1 -15q0 -15 -8 -16q-30 -3 -143 -28q-112 -26 -142 -37q-4 -1 -8 -1q-16 0 -16 46v47q0 25 -13 25q-11 0 -28 -15q-99 -93 -243 -93q-109 0 -193 110q-84 111 -84 227v348q0 153 -115 153 q-16 0 -16 29zM821 1202q0 47 32 79q33 34 79 34q47 0 79 -34q33 -32 33 -79t-33 -79q-32 -33 -79 -33q-46 0 -79 33q-32 32 -32 79zM1217 1202q0 47 33 79q32 34 79 34t79 -34q33 -32 33 -79t-33 -79q-32 -33 -79 -33t-79 33q-33 32 -33 79z" />
<glyph unicode="&#xa787;&#xa787;" horiz-adv-x="1546" d="M21 799q0 7 34 89q23 53 39 79q5 9 19 9q39 0 40 -19q0 -3 -1 -6q-7 -25 -7 -44q0 -40 42 -40h872q259 0 393 17q24 0 24 -50t-22 -50h-351q-42 0 -74 -45q-84 -114 -84 -296q0 -127 61.5 -228.5t147.5 -101.5q78 0 234 208q4 5 13 5q25 0 37 -15l4 -9l-1 -6 q-41 -102 -88.5 -177.5t-110.5 -109t-144 -33.5q-102 0 -180 69t-109 161q-40 -81 -81 -132.5t-99.5 -74.5t-122.5 -23q-138 0 -229.5 124.5t-91.5 266.5q0 146 38 232.5t103 146.5q13 12 13 23q0 15 -32 15h-273q-13 0 -13 15zM354 443q0 -127 61 -228.5t148 -101.5 q75 0 219 189q-5 32 -5 65q0 142 36.5 229t103.5 150q14 12 14 23q0 15 -32 15h-387q-43 0 -75 -45q-83 -114 -83 -296z" />
<glyph unicode="&#x17f;j" horiz-adv-x="1068" d="M70 21.5q0 29.5 17 29.5q122 0 122 81v588q0 22 -26 22h-89q-16 0 -16 28.5t16 28.5q36 0 75.5 38.5t39.5 123.5q0 262 146.5 423.5t343.5 161.5q128 0 174 -59q19 -25 19 -63t-33 -63.5t-56 -25.5q-58 0 -105.5 57t-103.5 57q-96 0 -161 -79t-65 -328v-910 q0 -81 150 -81q16 0 16 -29.5t-16 -29.5q-86 8 -216 8t-215 -8q-17 0 -17 29.5zM399 -477q0 46 45 65q17 7 36 7q51 0 92 -40q43 -41 68 -41q103 0 103 222v817q0 177 -92 177q-16 0 -16 28q0 30 16 30q50 0 172 84q23 15 36 27q21 19 34 19q18 0 20 -28l-10 -213 q-1 -31 -1 -61v-555q0 -339 -115 -502q-82 -114 -200 -132q-27 -4 -58 -4q-66 0 -106 40q-24 26 -24 60z" />
<glyph unicode="&#x17f;s" horiz-adv-x="1310" d="M70 21.5q0 29.5 17 29.5q122 0 122 81v588q0 22 -26 22h-89q-16 0 -16 28.5t16 28.5q36 0 75.5 38.5t39.5 123.5q0 262 146.5 423.5t343.5 161.5q128 0 174 -59q19 -25 19 -63t-33 -63.5t-56 -25.5q-58 0 -105.5 57t-103.5 57q-96 0 -161 -79t-65 -328v-910 q0 -81 150 -81q16 0 16 -29.5t-16 -29.5q-86 8 -216 8t-215 -8q-17 0 -17 29.5zM656 215v47q0 16 24.5 16t26.5 -16q5 -40 67.5 -130.5t186.5 -90.5q61 0 114 38.5t53 110.5q0 73 -44.5 117.5t-159.5 75t-184 98t-69 171.5q0 106 87.5 179.5t221.5 73.5t215 -38 q32 -87 32 -176v-12q0 -14 -23 -14t-26 14q-10 56 -70 109t-140 53t-129 -39t-49 -105q0 -63 35 -97.5t174 -74.5t195 -101t56 -168q0 -84 -43.5 -150t-119.5 -99t-160 -33q-163 0 -250 62q-21 66 -21 179z" />
<glyph unicode="&#x17f;&#x17f;k" horiz-adv-x="2147" d="M95 21q0 30 13 30q122 0 122 79v586q0 26 -25 26h-85q-15 0 -15 28q0 29 15 29q48 0 83 55q27 42 27 107q0 227 136 379q151 168 354 168q114 0 192 -98q143 136 343 136q77 0 147 -38q34 21 40 28q9 8 19 8q13 0 13 -15q-7 -71 -7 -179v-807q0 -45 48 -45q43 0 70 24 l205 230q27 30 27 49q0 34 -100 34q-15 0 -15 28q0 27 15 27q96 -6 198 -6t181 6q14 0 14 -27q0 -28 -14 -28q-96 0 -170 -71l-221 -213q-20 -19 -20 -35q0 -17 17 -37l334 -381q41 -47 134 -47q15 0 15 -30q0 -29 -15 -29q-98 8 -210 8q-111 0 -209 -8q-14 0 -14 29 q0 30 14 30q86 0 86 30q0 14 -33 51l-229 264q-17 19 -38 26q-20 6 -35 6q-16 0 -25 -8q-10 -8 -10 -36v-252q0 -81 124 -81q15 0 15 -30q0 -29 -15 -29q-108 8 -206 8q-97 0 -196 -8q-14 0 -14 29q0 30 14 30q119 0 119 81v1095q0 174 -71 207q-31 15 -87 15 q-125 0 -183 -77q-64 -88 -64 -337v-903q0 -81 147 -81q14 0 14 -28q0 -29 -14 -31q-85 8 -223 8q-120 0 -205 -8q-14 0 -14 29q0 30 14 30q122 0 122 79v588q0 24 -26 24h-88q-14 0 -14 28q0 29 14 29q51 0 87 55q27 42 27 107q0 195 71 317q-56 109 -143 127q-25 5 -56 5 q-104 0 -165 -77q-61 -81 -61 -277v-924q0 -81 122 -81q13 0 13 -30q0 -29 -13 -29q-86 8 -203 8q-116 0 -201 -8q-13 0 -13 29z" />
<glyph unicode="&#x17f;&#x17f;t" horiz-adv-x="1808" d="M93 21q0 30 15 30q122 0 122 79v586q0 26 -25 26h-85q-17 0 -17 28q0 29 17 29q48 0 83 55q27 41 27 107q0 227 136 379q151 168 354 168q114 0 193 -100q34 34 84 67q50 32 116 52q66 19 141 19q124 0 169 -69q44 -70 44 -209v-339q0 -45 43 -45h254q14 0 14 -47 t-14 -47h-254q-43 0 -43 -41v-419q1 -120 33 -186q32 -67 136 -67q53 0 121 44q21 -5 21 -35q0 -3 -2 -5q-87 -105 -230 -105q-138 0 -188 64q-50 63 -50 182v527q0 41 -41 41h-76q-15 0 -15 23q0 24 15 24q55 0 86 37q31 35 31 80v273q0 131 -35 177q-35 45 -123 45 q-247 0 -247 -306v-1011q0 -81 121 -81q16 0 16 -30q0 -29 -16 -29q-83 8 -200 8q-119 0 -202 -8q-16 0 -16 29q0 30 16 30q122 0 122 79v634q0 26 -26 26h-86q-14 0 -14 23q0 24 14 24q56 0 91 70q21 43 21 92q0 75 21 147q21 73 50 132q-32 63 -77 97q-45 35 -122 35 q-104 0 -165 -77q-61 -81 -61 -277v-924q0 -81 122 -81q15 0 15 -30q0 -29 -15 -29q-86 8 -202 8q-117 0 -202 -8q-15 0 -15 29z" />
<glyph unicode="&#xfb00;" horiz-adv-x="1162" d="M73 21q0 30 16 30q122 0 122 81v624q0 39 -38 39h-75q-15 0 -15 29q0 28 15 28h2q111 0 111 105v14q0 144 66 267q65 122 176 196q113 74 248 74q98 0 185 -70q30 -24 47 -45q141 153 322 153q97 0 146 -34q49 -33 49 -89q0 -36 -31 -62t-59 -26q-62 0 -108 57t-101 57 q-101 0 -163 -80q-62 -79 -62 -308v-139q0 -38 38 -38h210q16 0 16 -45q0 -44 -16 -44h-210q-38 0 -38 -39v-624q0 -81 150 -81q16 0 16 -30q0 -29 -16 -29q-88 8 -217 8q-130 0 -213 -8q-16 0 -16 29q0 30 16 30q120 0 120 81v624q0 39 -38 39h-319q-39 0 -39 -39v-624 q0 -81 122 -81q14 0 14 -30q0 -29 -14 -29q-83 8 -201 8t-202 -8q-16 0 -16 29zM370 922q0 -38 39 -38h319q38 0 38 38v39q0 154 71 295q-54 91 -105 123q-51 31 -136 31q-87 0 -138 -48q-52 -46 -70 -132q-18 -85 -18 -195v-113z" />
<glyph unicode="&#xfb01;" horiz-adv-x="1109" d="M73 21q0 30 16 30q122 0 122 81v624q0 39 -34 39h-81q-15 0 -15 29q0 28 15 28q115 0 115 87v22q0 252 153 418q152 167 347 167q236 0 236 -117q0 -40 -28 -67q-29 -27 -61 -27q-61 0 -107 57t-144 57q-122 0 -180 -107q-57 -109 -57 -358v-62q0 -38 39 -38h321 q54 0 121 17q65 17 77 17q10 0 10 -28q-6 -93 -6 -157v-601q0 -81 115 -81q17 0 17 -30q0 -29 -17 -29q-87 8 -185 8t-206 -8q-15 0 -15 29q0 30 15 30q117 0 117 81v543q0 120 -43 120h-321q-39 0 -39 -39v-624q0 -81 122 -81q14 0 14 -30q0 -29 -14 -29q-97 8 -197 8 q-101 0 -206 -8q-16 0 -16 29z" />
<glyph unicode="&#xfb02;" horiz-adv-x="1109" d="M73 21q0 30 16 30q122 0 122 81v624q0 39 -34 39h-79q-15 0 -15 29q0 28 15 28q113 0 113 128v34q0 121 82 265q81 144 197 206q115 61 232 61q90 0 157 -34q32 32 47 32q14 0 14 -19q-6 -48 -6 -73v-1320q0 -81 124 -81q14 0 14 -30q0 -29 -14 -29q-80 8 -201 8t-205 -8 q-16 0 -16 29q0 30 16 30q123 0 123 81v624q0 39 -38 39h-328q-39 0 -39 -39v-624q0 -81 122 -81q14 0 14 -30q0 -29 -14 -29q-83 8 -201 8t-202 -8q-16 0 -16 29zM370 922q0 -38 39 -38h328q38 0 38 38v299q0 137 -37 183q-35 45 -120 45q-122 0 -185 -96t-63 -357v-74z " />
<glyph unicode="&#xfb03;" horiz-adv-x="1666" d="M73 21q0 30 16 30q122 0 122 81v624q0 39 -38 39h-75q-15 0 -15 29q0 28 15 28q113 0 113 119q0 208 141 373q139 164 349 164q93 0 185 -71q28 -22 47 -44q141 153 355 153q90 0 152 -32q63 -31 63 -81t-35 -74q-33 -24 -55 -24q-62 0 -108 57t-146 57t-167 -91 q-66 -90 -66 -421v-15q0 -38 38 -38h303q89 0 193 31q11 3 14 3q19 0 19 -28q-6 -115 -6 -223v-535q0 -81 115 -81q14 0 14 -30q0 -29 -14 -29q-79 8 -188 8q-107 0 -203 -8q-15 0 -15 29q0 30 15 30q117 0 117 81v519q0 104 -27 130q-13 14 -36 14h-301q-38 0 -38 -39v-624 q0 -81 121 -81q17 0 17 -30q0 -29 -17 -29q-97 8 -200 8q-102 0 -201 -8q-16 0 -16 29q0 30 16 30q120 0 120 81v624q0 39 -38 39h-319q-39 0 -39 -39v-624q0 -81 122 -81q14 0 14 -30q0 -29 -14 -29q-98 8 -201 8t-202 -8q-16 0 -16 29zM370 922q0 -38 39 -38h319 q38 0 38 38v39q0 154 71 295q-52 86 -101 120q-50 34 -140 34q-83 0 -134 -44q-50 -45 -71 -123t-21 -306v-15z" />
<glyph unicode="&#xfb04;" horiz-adv-x="1668" d="M73 21q0 30 16 30q122 0 122 81v624q0 39 -38 39h-75q-15 0 -15 29q0 28 15 28q113 0 113 119q0 215 143 376q142 161 347 161q98 0 185 -70q30 -24 47 -45q141 153 322 153q119 0 178 -34l35 28q6 4 12 4q13 0 13 -15l-6 -155v-1242q0 -81 123 -81q16 0 16 -30 q0 -29 -16 -29q-80 8 -200 8t-204 -8q-14 0 -14 29q0 30 14 30q122 0 122 81v624q0 39 -38 39h-326q-38 0 -38 -39v-624q0 -81 123 -81q15 0 15 -30q0 -29 -15 -29q-83 8 -201 8q-119 0 -202 -8q-16 0 -16 29q0 30 16 30q120 0 120 81v624q0 39 -38 39h-319q-39 0 -39 -39 v-624q0 -81 122 -81q14 0 14 -30q0 -29 -14 -29q-83 8 -201 8t-202 -8q-16 0 -16 29zM370 922q0 -38 39 -38h319q38 0 38 38v39q0 154 71 295q-56 91 -107 123q-50 31 -134 31q-121 0 -174 -85q-52 -84 -52 -317v-86zM926 922q0 -38 38 -38h326q38 0 38 38v296 q0 116 -14 150q-36 81 -152 81q-108 0 -172 -93q-64 -91 -64 -419v-15z" />
<glyph unicode="&#x17f;t" horiz-adv-x="1276" d="M74 21.5q0 29.5 15 29.5q122 0 122 79v634q0 26 -26 26h-85q-15 0 -15 23.5t15 23.5q56 0 90 70q21 43 21 92q0 129 63 261t182 209t266 77q124 0 168.5 -69.5t44.5 -208.5v-339q0 -45 43 -45h253q15 0 15 -47t-15 -47h-253q-43 0 -43 -41v-419q0 -120 31.5 -186.5 t136.5 -66.5q53 1 121 44q22 -5 22 -35q0 -3 -2 -5q-88 -105 -230 -105q-138 0 -188 63.5t-50 182.5v527q0 41 -42 41h-76q-14 0 -14 23.5t14 23.5q55 0 86.5 36t31.5 81v273q0 131 -35.5 176.5t-122.5 45.5q-248 0 -248 -306v-1011q0 -81 122 -81q16 0 16 -29.5t-16 -29.5 q-83 8 -201 8t-202 -8q-15 0 -15 29.5z" />
<glyph unicode="Qu" horiz-adv-x="2610" d="M95 694q2 276 185.5 511t489.5 235q290 0 479 -222t189 -528q0 -203 -111.5 -391t-263.5 -259q-18 -9 -18.5 -23.5t15.5 -23.5q206 -122 601 -195t883 -38q13 1 12 -27t-25 -33q-224 -33 -451 -33q-384 0 -828.5 106t-730.5 236q-185 85 -306.5 259t-119.5 426zM293 736 q0 -298 155 -492.5t331 -194.5q235 0 348 187t113 455q0 271 -146 473.5t-332 202.5q-206 0 -337.5 -168.5t-131.5 -462.5zM1583 843.5q0 29.5 15 29.5q110 0 177 9t87 9t19 -16q-8 -128 -8 -158v-370q0 -119 41 -194.5t126 -75.5q92 0 162.5 54t70.5 131v399 q0 153 -115 153q-16 0 -16 29.5t16 29.5q128 0 188 9t72 9q23 0 21 -28q-6 -90 -6 -144v-483q0 -161 85 -151l49 7q17 2 23 -29q1 -8 1 -15q0 -15 -9 -16q-29 -3 -141.5 -28.5t-143.5 -36.5q-3 -1 -7 -1q-17 0 -17 46v47q0 25 -11.5 25t-28.5 -15q-99 -93 -243 -93 q-110 0 -193 110.5t-83 226.5v348q0 153 -116 153q-15 0 -15 29.5z" />
<glyph unicode="f&#xf0;" horiz-adv-x="1668" d="M73 21q0 30 14 30q122 0 122 81v624q0 39 -38 39h-77q-16 0 -16 29q0 28 16 28q115 0 115 89v88q0 214 111 366q111 151 272 151q96 0 142 -34q45 -33 45 -79q0 -39 -28 -63q-29 -24 -61 -24q-57 0 -86 52q-29 51 -96 51q-58 0 -98 -72q-42 -71 -42 -164v-291 q0 -38 39 -38h211q15 0 15 -45q0 -44 -15 -44h-211q-39 0 -39 -39v-624q0 -81 154 -81q15 0 15 -30q0 -29 -15 -29q-88 8 -219 8t-216 -8q-14 0 -14 29zM615 1069q0 6 5 5l87 -22q25 -6 51 14l75 56q8 6 8 12q0 8 -12 16q-61 40 -97 57q-21 11 -6 47q16 38 32 36 q19 -2 148 -79q10 -7 21 -6q14 0 21 7l320 255q2 3 5 3q4 0 9 -4q37 -29 92 -94q14 -18 14 -23q0 -7 -14 -4l-76 18q-17 5 -30 5q-27 0 -47 -16l-211 -172q-13 -10 -13 -16q0 -8 11 -14q180 -105 296 -199q117 -94 201 -228t84 -270q0 -207 -114 -342q-116 -135 -323 -135 q-193 0 -327 136q-134 138 -134 339q0 177 138 315q138 139 311 139q12 0 12 8q0 9 -6 16q-88 79 -216 160q-8 5 -14 5q-11 0 -24 -10l-180 -145q-2 -2 -3 -2q-2 0 -6 2q-15 6 -79 109q-9 15 -9 21zM872 447q0 -180 84 -291t194 -111q97 0 177 110q81 110 81 292 q0 178 -86 287t-174 109q-101 0 -189 -111q-87 -110 -87 -285z" />
<glyph unicode="fft" horiz-adv-x="1863" d="M73 21.5q0 29.5 16 29.5q122 0 122 81v624q0 39 -38 39h-75q-15 0 -15 28.5t15 28.5q113 0 113 105v14q0 144 65.5 266.5t177.5 196.5t247 74q73 0 137.5 -37.5t94.5 -77.5q141 153 323 153q97 0 146 -33.5t49 -89.5q0 -36 -31 -62t-59 -26q-62 0 -108 57t-101 57 q-101 0 -163 -79.5t-62 -308.5v-139q0 -38 38 -38h301q95 0 144 58t66 99q4 9 14.5 9t21.5 -5t11 -14v-102q0 -45 42 -45h254q15 0 15 -47t-15 -47h-254q-42 0 -42 -41v-419q0 -137 39 -195t129 -58q54 0 112 41q15 10 23 -4.5t8 -22t-3 -10.5q-87 -105 -228 -105 q-130 0 -185 56.5t-55 189.5v531q0 42 -41 42h-357q-38 0 -38 -39v-624q0 -81 150 -81q16 0 16 -29.5t-16 -29.5q-104 8 -217.5 8t-212.5 -8q-16 0 -16 29.5t16 29.5q121 0 121 81v624q0 39 -39 39h-320q-39 0 -39 -39v-624q0 -81 122 -81q14 0 14 -29.5t-14 -29.5 q-98 8 -200.5 8t-202.5 -8q-16 0 -16 29.5zM370 922q0 -38 39 -38h320q39 0 39 38v39q0 154 70 295q-53 91 -105 122.5t-137 31.5q-87 0 -138.5 -47t-69.5 -132.5t-18 -195.5v-113z" />
<glyph unicode="ff&#xfc;" horiz-adv-x="2242" d="M73 21q0 30 16 30q122 0 122 81v624q0 39 -38 39h-75q-15 0 -15 29q0 28 15 28h2q111 0 111 105v14q0 144 66 267q65 122 176 196q113 74 248 74q114 0 217 -99q123 137 279 137q49 0 93 -13q44 -14 69 -41q25 -26 25 -69q0 -31 -29 -60q-29 -28 -60 -28q-55 0 -105 57 q-51 57 -99 57q-65 0 -115 -89q-51 -88 -51 -215v-223q0 -36 39 -38q164 -11 270 -11q107 0 173 9q67 9 87 9q19 0 19 -16q-8 -128 -8 -158v-370q0 -116 41 -195q40 -75 125 -75q92 0 164 54q71 54 71 131v399q0 153 -116 153q-16 0 -16 29q1 30 16 30q128 0 188 9 q59 9 72 9q21 0 21 -28q-7 -90 -7 -144v-483q0 -99 33 -133q14 -19 42 -19q11 0 22 2l39 6q22 3 22 -29q0 -29 -8 -31q-29 -3 -141 -28q-128 -29 -144 -37q-2 -1 -6 -1q-17 0 -17 46v47q0 25 -12 25q-13 0 -29 -15q-100 -93 -244 -93q-109 0 -192 110q-82 111 -82 227v348 q0 153 -113 153q-112 0 -270 -19q-39 -6 -39 -39v-624q0 -81 153 -81q15 0 15 -30q0 -29 -15 -29q-88 8 -219 8q-130 0 -215 -8q-15 0 -15 29q0 30 15 30q122 0 122 81v624q0 39 -38 39h-319q-39 0 -39 -39v-624q0 -81 122 -81q14 0 14 -30q0 -29 -14 -29q-83 8 -201 8 t-202 -8q-16 0 -16 29zM370 922q0 -38 39 -38h319q38 0 38 57v20q0 179 62 312q-32 53 -81 94q-52 43 -145 43t-144 -48q-52 -46 -70 -132q-18 -85 -18 -195v-113zM1390 1202q0 47 33 79q32 34 79 34t79 -34q32 -32 32 -79t-32 -79q-32 -33 -79 -33t-79 33q-33 32 -33 79z M1786 1202q0 47 33 79q33 34 80 34t79 -34q32 -32 32 -79t-32 -79q-32 -33 -79 -33t-80 33q-33 32 -33 79z" />
<glyph unicode="ffy" horiz-adv-x="2036" d="M73 21.5q0 29.5 16 29.5q122 0 122 81v633q0 39 -38 39h-75q-15 0 -15 27t15 27q113 0 113 105v8q0 144 65.5 266.5t177.5 196.5t247 74q72 0 136 -37t96 -78q141 153 323 153q97 0 146 -33.5t49 -89.5q0 -36 -31 -62t-59 -26q-62 0 -108 57t-101 57q-101 0 -163 -79.5 t-62 -308.5v-132q0 -39 38 -39h159q60 -6 192 -6t194 6q15 0 15 -27.5t-15 -27.5q-100 0 -100 -57q0 -18 4 -30l181 -524q12 -33 26 -33q16 0 29 35l203 522q7 15 7 27q0 60 -135 60q-14 0 -14 27.5t14 27.5q60 -6 170 -6t170 6q15 0 15 -27.5t-15 -27.5q-100 0 -130 -75 l-459 -1195q-26 -66 -76.5 -103t-108.5 -37q-42 0 -68 26t-26 53q1 79 99 79q99 0 125 65l99 250q12 29 12 41q0 14 -14 53l-268 768q-26 75 -126 75q-67 0 -132 -19t-65 -51v-633q0 -81 150 -81q16 0 16 -29.5t-16 -29.5q-104 8 -217.5 8t-212.5 -8q-16 0 -16 29.5t16 29.5 q121 0 121 81v633q0 39 -39 39h-320q-39 0 -39 -39v-633q0 -81 122 -81q14 0 14 -29.5t-14 -29.5q-98 8 -200.5 8t-202.5 -8q-16 0 -16 29.5zM370 929q0 -39 39 -39h320q39 0 39 39v32q0 154 70 295q-53 91 -105 122.5t-137 31.5q-87 0 -138.5 -47t-69.5 -132.5t-18 -195.5 v-106z" />
<glyph unicode="fj" horiz-adv-x="1109" d="M73 21.5q0 29.5 16 29.5q122 0 122 81v624q0 39 -34 39h-81q-15 0 -15 28.5t15 28.5q115 0 115 87v22q0 252 152.5 418.5t347.5 166.5q236 0 236 -117q0 -40 -28.5 -67t-60.5 -27q-61 0 -106 57t-145 57q-117 0 -177 -100t-60 -365v-62q0 -38 39 -38h321q79 0 173 30 q12 4 22 4q13 0 13 -28q-6 -93 -6 -157v-672q0 -327 -100.5 -482.5t-270.5 -155.5q-51 0 -90.5 28.5t-39.5 71.5q0 35 26 53.5t55 18.5q51 0 91.5 -40.5t67.5 -40.5q103 0 103 222l-1 939q0 120 -43 120h-321q-39 0 -39 -39v-624q0 -81 122 -81q14 0 14 -29.5t-14 -29.5 q-95 8 -198.5 8t-204.5 -8q-16 0 -16 29.5z" />
<glyph unicode="f&#xf6;" horiz-adv-x="1642" d="M73 21q0 30 14 30q122 0 122 81v624q0 39 -38 39h-77q-16 0 -16 29q0 28 16 28q115 0 115 89v20q0 260 130 422q131 163 301 163q48 0 93 -13q45 -14 70 -41q24 -26 24 -69q0 -31 -28 -60q-29 -28 -62 -28q-55 0 -105 57q-51 57 -97 57q-65 0 -116 -89q-51 -88 -51 -215 v-223q0 -38 39 -38h598q62 21 131 21q181 0 306 -142q126 -142 126 -326q0 -183 -115 -323q-116 -138 -309 -138q-192 0 -320 148q-129 147 -129 321q0 175 130 317q15 17 32 33h-450q-39 0 -39 -39v-624q0 -81 154 -81q15 0 15 -30q0 -29 -15 -29q-88 8 -219 8t-216 -8 q-14 0 -14 29zM843 1202q0 47 33 79q33 34 80 34t80 -34q32 -32 32 -79t-32 -79q-33 -33 -80 -33t-80 33q-33 32 -33 79zM864 439q0 -184 84 -289q86 -105 184 -105q97 0 183 105q84 105 84 289q0 183 -83 293q-84 111 -182 111q-100 0 -186 -109q-84 -110 -84 -295z M1241 1202q0 47 32 79q33 34 79 34q47 0 79 -34q33 -32 33 -79t-33 -79q-32 -33 -79 -33q-46 0 -79 33q-32 32 -32 79z" />
<glyph unicode="fr" horiz-adv-x="1331" d="M73 21.5q0 29.5 14 29.5q122 0 122 81v624q0 39 -38 39h-77q-16 0 -16 28.5t16 28.5q115 0 115 89v20q0 260 146.5 422.5t343.5 162.5q55 0 100 -13q43 -14 68 -41q25 -26 25 -69q0 -31 -28.5 -59.5t-60.5 -28.5q-58 0 -105.5 57t-103.5 57q-110 0 -168 -88.5t-58 -215.5 v-223q0 -38 39 -38h375q61 0 103.5 17t49.5 17q19 0 18 -26q-5 -77 -5 -106t14.5 -29t28.5 21q93 127 222 127q33 0 55 -11.5t40.5 -35.5t18.5 -70q0 -12 -10.5 -35.5t-32 -39.5t-44 -16t-70 25.5t-71.5 25.5q-63 0 -107 -63t-44 -171v-382q0 -81 158 -81q14 0 14 -29.5 t-14 -29.5q-88 8 -219 8t-217 -8q-15 0 -15 29.5t15 29.5q119 0 119 81v663h-382q-39 0 -39 -39v-624q0 -81 154 -81q15 0 15 -29.5t-15 -29.5q-88 8 -219 8t-216 -8q-14 0 -14 29.5z" />
<glyph unicode="ft" horiz-adv-x="1308" d="M73 21.5q0 29.5 14 29.5q122 0 122 81v624q0 39 -38 39h-77q-16 0 -16 28.5t16 28.5q115 0 115 89v20q0 260 146.5 422.5t343.5 162.5q55 0 100 -13q43 -14 68 -41q25 -26 25 -69q0 -31 -28.5 -59.5t-60.5 -28.5q-58 0 -105.5 57t-103.5 57q-110 0 -168 -88.5t-58 -215.5 v-223q0 -38 39 -38h273q132 0 179.5 62.5t60.5 98.5q5 10 15 10t21 -5.5t11 -14.5v-102q0 -45 43 -45h254q14 0 14 -46.5t-14 -46.5h-254q-43 0 -43 -42v-423q0 -137 39 -195t130 -58q54 0 112 41q15 10 22.5 -4.5t7.5 -22t-2 -10.5q-90 -105 -229 -105q-130 0 -184.5 56.5 t-54.5 189.5v531q0 42 -42 42h-359q-39 0 -39 -39v-624q0 -81 154 -81q15 0 15 -29.5t-15 -29.5q-88 8 -219 8t-216 -8q-14 0 -14 29.5z" />
<glyph unicode="fty" horiz-adv-x="2179" d="M73 21.5q0 29.5 14 29.5q122 0 122 81v626q0 39 -38 39h-77q-16 0 -16 28.5t16 28.5q115 0 115 89v18q0 260 146.5 422.5t343.5 162.5q55 0 100 -13q43 -14 68 -41q25 -26 25 -69q0 -31 -28.5 -59.5t-60.5 -28.5q-58 0 -105.5 57t-103.5 57q-110 0 -168 -88.5t-58 -215.5 v-220q0 -39 39 -39h273q133 0 179 60q45 59 61 99q5 10 15 10t21 -5.5t11 -14.5v-100q0 -45 43 -45h258q59 -6 191 -6t195 6q14 0 14 -27.5t-14 -27.5q-100 0 -100 -57q0 -18 4 -30l181 -524q11 -33 26 -33t29 35l203 522q6 15 6 27q0 60 -134 60q-15 0 -15 27.5t15 27.5 q59 -6 169.5 -6t170.5 6q15 0 15 -27.5t-15 -27.5q-101 0 -130 -75l-460 -1195q-26 -66 -76.5 -103t-108.5 -37q-41 0 -67 26t-26 53q1 79 98 79q99 0 125 65l100 250q11 29 11 41q0 14 -13 53l-268 768q-26 75 -123.5 75t-200.5 -19t-103 -61v-425q0 -137 39 -195t130 -58 q54 0 112 41q15 10 22.5 -4.5t7.5 -22t-2 -10.5q-90 -105 -229 -105q-130 0 -184.5 56.5t-54.5 189.5v533q0 42 -42 42h-359q-39 0 -39 -39v-626q0 -81 154 -81q15 0 15 -29.5t-15 -29.5q-88 8 -219 8t-216 -8q-14 0 -14 29.5z" />
<glyph unicode="f&#xfe;" horiz-adv-x="1539" d="M73 21q0 30 16 30q122 0 122 81v624q0 39 -34 39h-79q-15 0 -15 29q0 28 15 28q113 0 113 128v34q0 121 82 265q81 144 197 206q115 61 232 61q91 0 158 -34q32 32 47 32q14 0 14 -19q-6 -48 -6 -73v-623q0 -26 10 -26q11 0 23 14q75 88 173 88q135 0 232 -96 q97 -97 97 -268q0 -231 -164 -385q-164 -153 -340 -177q-31 -4 -31 -32v-382q0 -60 -60 -81l-183 -63q-1 -1 -5 -1q-11 0 -17 12q-8 14 -8 28q0 12 7 16l83 55q23 16 23 60v1630q-1 106 -37 183q-20 45 -120 45q-122 0 -185 -96t-63 -357v-74q0 -38 39 -38h209q15 0 15 -45 q0 -44 -15 -44h-209q-39 0 -39 -39v-624q0 -81 122 -81q14 0 14 -30q0 -29 -14 -29q-83 8 -201 8t-202 -8q-16 0 -16 29zM935 94q0 -41 25 -41q52 0 134 53q83 52 139 162t56 222q0 146 -43 242q-43 97 -128 97t-158 -122q-25 -41 -25 -98v-515z" />
<glyph unicode="f&#xfc;" horiz-adv-x="1683" d="M73 21q0 30 14 30q122 0 122 81v624q0 39 -38 39h-77q-16 0 -16 29q0 28 16 28q115 0 115 89v20q0 260 130 422q131 163 301 163q48 0 93 -13q45 -14 70 -41q24 -26 24 -69q0 -31 -28 -60q-29 -28 -62 -28q-55 0 -105 57q-51 57 -97 57q-65 0 -116 -89q-51 -88 -51 -215 v-223q0 -36 39 -38q164 -11 270 -11t174 9q66 9 86 9t20 -16q-9 -128 -9 -158v-370q0 -120 42 -195q40 -75 125 -75q91 0 162 54q72 54 72 131v399q0 153 -116 153q-15 0 -15 29q0 30 15 30q128 0 188 9t72 9q21 0 21 -28q-6 -90 -6 -144v-483q0 -152 75 -152q5 0 10 1l49 7 q18 2 23 -29q1 -8 1 -15q0 -15 -8 -16q-29 -3 -142 -28q-113 -26 -143 -37q-3 -1 -7 -1q-17 0 -17 46v47q0 25 -12 25t-29 -15q-98 -93 -243 -93q-109 0 -192 110q-84 111 -84 227v348q0 153 -112 153t-270 -19q-39 -6 -39 -39v-624q0 -81 154 -81q15 0 15 -30 q0 -29 -15 -29q-88 8 -219 8t-216 -8q-14 0 -14 29zM833 1202q0 47 32 79q34 34 79 34q47 0 79 -34q34 -32 34 -79t-34 -79q-32 -33 -79 -33q-45 0 -79 33q-32 32 -32 79zM1229 1202q0 47 34 79q32 34 79 34q46 0 79 -34q33 -32 33 -79t-33 -79q-33 -33 -79 -33 q-47 0 -79 33q-34 32 -34 79z" />
<glyph unicode="fy" horiz-adv-x="1478" d="M73 21q0 30 14 30q122 0 122 81v632q0 39 -38 39h-77q-16 0 -16 27q0 28 16 28q115 0 115 89v14q0 260 130 422q131 163 301 163q48 0 93 -13q45 -14 70 -41q24 -26 24 -69q0 -31 -28 -60q-29 -28 -62 -28q-55 0 -105 57q-51 57 -97 57q-65 0 -116 -89q-51 -88 -51 -215 v-216q0 -39 39 -39h160q59 -6 191 -6t195 6q14 0 14 -27q0 -28 -14 -28q-100 0 -100 -57q0 -18 4 -30l181 -524q11 -33 26 -33q16 0 29 35l203 522q6 15 6 27q0 60 -134 60q-15 0 -15 28q0 27 15 27q59 -6 169 -6q111 0 171 6q15 0 15 -27q0 -28 -15 -28q-101 0 -130 -75 l-460 -1195q-26 -66 -76 -104q-51 -36 -109 -36q-41 0 -67 26t-26 53q1 79 98 79q99 0 125 65l100 250q11 29 11 41q0 14 -13 53l-268 768q-26 75 -126 75q-62 0 -130 -19q-69 -18 -69 -52v-632q0 -81 154 -81q15 0 15 -30q0 -29 -15 -29q-88 8 -219 8t-216 -8q-14 0 -14 29 z" />
<glyph horiz-adv-x="1064" d="M71 -137v1705h898v-1705h-898zM297 1331q0 -89 71 -89q304 0 304 -207q0 -93 -121 -157l-110 -58q-119 -65 -119 -158q0 -78 79 -219q9 -8 23 -7q23 4 23 20q-21 71 -21 130q0 50 77 93l173 92q85 44 85 196q-2 167 -122 313q-119 136 -254 136q-88 0 -88 -85zM308 89 q0 -38 23 -70q37 -51 100 -51q37 0 68 17q56 35 56 104q0 41 -20 74q-38 59 -104 59q-40 0 -71 -22q-52 -39 -52 -111z" />
<glyph unicode="&#xd;" horiz-adv-x="581" />
<glyph unicode=" "  horiz-adv-x="581" />
<glyph unicode="&#x09;" horiz-adv-x="581" />
<glyph unicode="&#xa0;" horiz-adv-x="581" />
<glyph unicode="!" horiz-adv-x="645" d="M250 102q0 53 31 85t94 32q64 0 95 -38.5t31 -91t-35.5 -84t-91 -31.5t-90 37.5t-34.5 90.5zM278 1326q0 58 31.5 93.5t70.5 35.5q107 0 107 -115q0 -66 -32.5 -369t-44.5 -518q-2 -16 -36 -16q-33 0 -33 16q-8 207 -35.5 511t-27.5 362z" />
<glyph unicode="&#x22;" horiz-adv-x="788" d="M126 1451q0 89 99 89q98 0 98 -87q0 -43 -19 -168q-20 -124 -42 -303q-1 -9 -36 -9q-36 0 -37 9q-21 176 -41 301q-22 127 -22 168zM468 1452q0 89 99 89t99 -87q0 -43 -20 -168q-20 -124 -42 -303q-1 -9 -36 -9q-36 0 -37 9q-20 176 -42 302q-21 126 -21 167z" />
<glyph unicode="#" horiz-adv-x="707" d="M59 277v89h173l66 246h-149v89h172l63 228h91l-62 -228h168l62 228h94l-62 -228h128v-89h-151l-66 -246h127v-89h-152l-73 -271h-92l73 271h-168l-73 -271h-94l75 271h-150zM323 366h169l66 246h-168z" />
<glyph unicode="$" horiz-adv-x="853" d="M92 158q0 70 4 90q4 14 37 14t33 -10v-29q0 -25 27 -75q26 -50 79 -77l75 327q-73 28 -120 64q-79 60 -79 151q0 71 27 121q28 51 97 100q69 50 188 54l30 132q4 6 24 6q21 0 43 -9t20 -18l-26 -113l131 -16q11 0 19 2q13 -69 13 -113q0 -45 -1 -62q-2 -17 -36 -21 q-34 -5 -34 5q-7 73 -55 114q-21 20 -51 30l-70 -301q253 -64 253 -234q0 -134 -101 -220q-101 -87 -243 -87h-33l-30 -123q-4 -18 -33 -10q-57 16 -52 28l26 116q-53 10 -148 53q-14 42 -14 111zM278 676q0 -81 106 -125l65 284q-75 -4 -118 -47q-53 -52 -53 -112zM356 45 q12 -2 57 -2t109 45q65 46 65 141q0 54 -34 78q-42 30 -122 59z" />
<glyph unicode="%" horiz-adv-x="1269" d="M69 677q0 149 88 237q62 62 152 62q152 0 214 -160q26 -66 26 -139q0 -159 -95 -243q-59 -52 -145 -52q-145 0 -210 150q-30 70 -30 145zM213 679q0 -210 78 -234q9 -2 18 -2q98 0 98 236q-11 224 -98 235q-96 0 -96 -235zM319 -15l608 1009q9 13 55 -20q18 -13 14 -19 l-608 -1012q-7 -14 -52 21q-21 15 -17 21zM773 283q0 149 90 237q62 59 151 59q154 0 215 -159q25 -65 25 -137q0 -158 -93 -243q-61 -55 -147 -55q-144 0 -210 151q-31 71 -31 147zM918 283q0 -236 96 -236q98 0 98 236q-11 223 -98 235q-96 -15 -96 -235z" />
<glyph unicode="&#x26;" horiz-adv-x="881" d="M28 747q0 2 1 4q13 25 41 114q22 69 32 117q2 10 25 10q15 0 26 -6q12 -7 9 -19q-2 -8 -2 -22q0 -61 72 -61q343 0 467 21q25 4 38 4q41 0 41 -51q-9 -142 -9 -206v-916q0 -224 -144 -288q-55 -25 -127 -25q-54 0 -219 30q-14 2 -14 33q0 43 25 39q68 -13 119 -13 q135 0 177 90q23 51 23 142v1016q0 39 -38 39h-394q-63 0 -92 -64q-7 -15 -36 -5q-21 7 -21 17z" />
<glyph unicode="'" horiz-adv-x="438" d="M122 1451q0 89 98 89q99 0 99 -87q0 -43 -19 -168q-20 -124 -42 -303q-1 -9 -36 -9q-36 0 -37 9q-21 176 -41 301q-22 127 -22 168z" />
<glyph unicode="(" horiz-adv-x="807" d="M166 612q0 272 143 581q95 207 281 384q16 14 40 14q19 0 37 -17q6 -8 6 -13q0 -18 -19 -38q-343 -360 -343 -911q0 -546 347 -913q15 -14 15 -36q0 -13 -26 -26l-17 -5q-20 0 -40 16q-201 181 -300 384q-124 250 -124 580z" />
<glyph unicode=")" horiz-adv-x="781" d="M128 -337q0 18 19 36q343 356 343 913q0 552 -345 908q-17 17 -17 41q0 13 25 25q10 5 18 5q23 0 40 -14q202 -190 300 -386q123 -251 123 -579q0 -273 -142 -582q-100 -213 -281 -382q-17 -16 -40 -16q-20 0 -37 19q-6 6 -6 12z" />
<glyph unicode="*" horiz-adv-x="839" d="M89 940l256 146l-256 147l39 64l254 -145v287h74v-289l253 147l39 -64l-254 -147l254 -146l-39 -63l-253 143v-298h-74v298l-254 -143z" />
<glyph unicode="+" horiz-adv-x="1064" d="M124 386v104h347v349h125v-349h347v-104h-347v-386h-125v386h-347z" />
<glyph unicode="," horiz-adv-x="540" d="M106 -358q0 4 40 45.5t88.5 107.5t48.5 146q0 51 -35 63q-122 47 -122 141q0 60 57 87q27 13 62 13q83 0 134.5 -65t51.5 -139q0 -135 -80.5 -240.5t-147 -146t-71.5 -40.5q-26 0 -26 28z" />
<glyph unicode="-" horiz-adv-x="860" d="M103 566q0 60 17 60h615q18 0 18 -60t-20 -60h-613q-17 0 -17 60z" />
<glyph unicode="." horiz-adv-x="540" d="M145 102q0 53 37 85t94.5 32t88.5 -38.5t31 -91t-36 -84t-91 -31.5t-89.5 37.5t-34.5 90.5z" />
<glyph unicode="/" horiz-adv-x="874" d="M4 -268l764 1800q3 6 14 6q20 0 46 -11q45 -20 45 -37v-3l-767 -1802q-2 -5 -10 -5q-15 0 -48 15q-44 22 -44 35v2z" />
<glyph unicode="0" horiz-adv-x="994" d="M73 693q0 316 112 504.5t313 188.5q207 0 315.5 -202t108.5 -515q0 -293 -111.5 -489.5t-317.5 -196.5t-313 196.5t-107 513.5zM254 717q0 -234 25 -377l375 887q-53 92 -154 92q-128 0 -187 -187.5t-59 -414.5zM332 176q68 -123 162 -123q115 0 179 145t64 458 q0 212 -32 400z" />
<glyph unicode="1" horiz-adv-x="677" d="M128 21.5q0 29.5 17 29.5q121 0 121 81v620q0 83 -121 83q-17 0 -17 27.5t17 27.5q64 -6 211 -6q132 0 195 6q16 0 16 -27.5t-16 -27.5q-51 0 -87 -21q-36 -19 -36 -62v-620q0 -40 36 -60q36 -21 87 -21q16 0 16 -29.5t-16 -29.5q-84 8 -195 8q-126 0 -211 -8 q-17 0 -17 29.5z" />
<glyph unicode="2" horiz-adv-x="1004" d="M106 656q18 41 46.5 84.5t62 80.5t95.5 60.5t150 23.5q91 0 170 -52t79 -148q0 -156 -123 -298q-9 -9 -83.5 -92t-118.5 -136q-26 -30 -21 -42.5t52 -12.5h360q30 0 55.5 12.5t48 44.5t30 43.5t26.5 50.5q8 15 36 4t21 -25q-65 -144 -106 -262q-86 8 -130 8h-433 q-89 0 -174 -8q-27 -2 -37 16t16 39q86 59 188.5 165t166.5 206.5t64 175.5q0 85 -44.5 136.5t-106.5 51.5q-95 0 -143 -37.5t-91 -112.5q-9 -14 -36.5 -2.5t-19.5 26.5z" />
<glyph unicode="3" horiz-adv-x="809" d="M73 -321q0 25 15.5 43t37.5 18q19 0 50 -12.5t54 -12.5q109 0 201.5 98t92.5 262q0 102 -51 176.5t-154 74.5q-27 0 -62 -19.5t-59 -36.5q-15 -8 -31 20.5t-1 37.5q45 21 101 55t106.5 68.5t83.5 86.5t33 110q0 70 -41.5 111.5t-118.5 41.5q-98 0 -190 -110q-8 -10 -25 2 t-13 23q30 68 119.5 128.5t187.5 60.5q95 0 168 -53t73 -164q0 -102 -146 -206q-67 -47 -33 -58q222 -72 222 -271q0 -110 -50 -201t-135.5 -166.5t-190 -126.5t-155.5 -51q-44 0 -66.5 22.5t-22.5 48.5z" />
<glyph unicode="4" horiz-adv-x="1004" d="M38 86q0 7 5 12l658 807q15 17 29 17q26 0 26 -23v-684q0 -42 5 -50q5 -7 38 -7h179q18 0 18 -52q0 -51 -18 -51h-179q-33 0 -38 -6t-5 -45v-386q0 -25 -81 -25t-81 25v386q0 39 -5 45q-6 6 -38 6h-490q-12 1 -19 18q-4 8 -4 13zM215 175q0 -17 33 -17h303q32 0 38 7 q5 8 5 50v405q0 53 -31 8l-339 -427q-9 -11 -9 -26z" />
<glyph unicode="5" horiz-adv-x="802" d="M115 520q0 59 37 150q37 90 93 171q36 47 85 47h416q32 0 7 -62t-60 -62h-323q-69 0 -113 -44q-44 -45 -44 -99t47 -82q191 -120 269 -235q78 -117 78 -259q0 -139 -121 -315q-122 -177 -275 -252q-15 -8 -32 12t-6 31q73 63 139 143q64 80 100 158q35 78 35 186 q0 79 -31 148q-32 68 -67 101q-34 33 -99 84q-66 52 -100 87q-35 36 -35 92z" />
<glyph unicode="6" horiz-adv-x="1059" d="M120 447q0 102 53.5 259t176.5 286.5t266.5 213t375.5 151.5q18 4 26 -17t-10 -28q-213 -79 -375 -213t-275 -375q-13 -25 1 -31q13 -8 33 10q92 81 202 81q139 0 244 -101.5t105 -286.5q0 -91 -55.5 -203t-154 -168.5t-231.5 -56.5q-117 0 -203.5 55t-132.5 166.5 t-46 257.5zM281 372q0 -114 71.5 -224t210.5 -110q47 0 105 34.5t86 103.5t28 161q0 127 -63 228.5t-166 101.5q-122 0 -197 -87.5t-75 -207.5z" />
<glyph unicode="7" horiz-adv-x="876" d="M53 662q41 109 45 188q4 38 53 38h629q24 0 38.5 -12t14.5 -26q0 -9 -4 -17l-584 -1242q-9 -19 -49 -1t-32 36l509 1071q9 19 9 28q0 39 -48 39h-370q-45 0 -72.5 -15.5t-40.5 -33.5t-45 -74q-8 -15 -32.5 -3t-20.5 24z" />
<glyph unicode="8" horiz-adv-x="847" d="M79 266q0 83 51 160.5t108.5 117t100.5 76.5q-103 77 -175 174.5t-72 193.5q0 82 49 165.5t131 126.5t196 43q104 0 199 -78t95 -195q0 -116 -46.5 -205t-185.5 -168q145 -106 192 -192.5t47 -192.5q0 -147 -96 -235.5t-222 -88.5q-170 0 -271 82t-101 216zM240 292 q0 -130 59 -194t129 -64q179 0 179 216q0 187 -217 329q-73 -55 -111.5 -134t-38.5 -153zM252 1032q0 -95 67 -179t156 -135q60 53 89.5 117t34 101t4.5 87q0 105 -45.5 170t-122.5 65q-69 0 -126 -66t-57 -160z" />
<glyph unicode="9" horiz-adv-x="1010" d="M84.5 -463.5q-7.5 20.5 11.5 28.5q145 64 257 155.5t205 208.5t130 218q9 28 -4 33t-32 -12q-91 -81 -203 -81q-138 0 -243.5 101.5t-105.5 286.5q0 87 54 201t155.5 170.5t231.5 56.5q139 -1 224.5 -69.5t122.5 -177t37 -232.5q0 -103 -55 -259.5t-176 -286.5 t-247 -206.5t-339 -150.5q-16 -5 -23.5 15.5zM262 535q0 -128 63 -229t165 -101q124 0 197 88.5t73 206.5q0 126 -69 229.5t-209 103.5q-43 0 -105 -40t-88.5 -109.5t-26.5 -148.5z" />
<glyph unicode=":" horiz-adv-x="722" d="M329 102q0 53 37.5 85t94.5 32t88 -38.5t31 -91t-35.5 -84t-91 -31.5t-90 37.5t-34.5 90.5zM329 770q0 52 38 84t94.5 32t87.5 -38.5t31 -91t-35 -84t-90.5 -31.5t-90.5 37.5t-35 91.5z" />
<glyph unicode=";" horiz-adv-x="722" d="M286 -358q0 4 2 6l99 107q76 95 76 186q0 51 -36 63q-121 47 -121 141q0 60 57 87q27 13 62 13q83 0 139 -70q46 -60 46 -134q0 -162 -131 -303q-72 -78 -161 -122q-2 -2 -4 -2q-28 0 -28 28zM296 770q0 70 61 103q31 16 71 16q68 0 101 -57q19 -31 19 -71 q0 -67 -56 -101q-28 -16 -64 -16q-76 0 -113 58q-19 30 -19 68z" />
<glyph unicode="&#x3c;" horiz-adv-x="1064" d="M120 390v96l827 394v-124l-675 -315v-4l675 -317v-122z" />
<glyph unicode="=" horiz-adv-x="1064" d="M124 343v104h819v-104h-819zM124 620v104h819v-104h-819z" />
<glyph unicode="&#x3e;" horiz-adv-x="1064" d="M118 -2v122l674 317v4l-674 315v124l827 -394v-96z" />
<glyph unicode="?" horiz-adv-x="887" d="M324 1331q0 85 88 85q135 0 254 -136q119 -146 122 -313q0 -152 -85 -196l-172 -92q-77 -43 -77 -93q0 -59 21 -130q0 -16 -23 -20q-15 -1 -24 7q-78 141 -78 219q0 93 119 158l109 58q121 64 121 157q0 207 -304 207q-71 0 -71 89zM335 89q0 72 53 111q31 22 71 22 q66 0 103 -59q20 -33 20 -74q0 -69 -56 -104q-31 -17 -67 -17q-64 0 -101 51q-23 32 -23 70z" />
<glyph unicode="@" horiz-adv-x="1618" d="M96 624q0 360 250.5 587.5t590.5 227.5q291 0 459.5 -162.5t168.5 -390.5q0 -209 -150 -361.5t-401 -152.5q-95 0 -115 26q-13 16 -13 41q0 28 46 165l5 16l-8 4q-189 -250 -315 -250q-96 0 -96 132q0 160 131.5 354.5t289.5 194.5q54 0 105 -43l17 53q6 19 49.5 19 t43.5 -19l-146 -512q-11 -37 -11 -62q0 -48 44 -48q186 0 309.5 121.5t123.5 313.5q0 214 -153 352t-382 138q-330 0 -513.5 -218t-183.5 -524q0 -227 151.5 -406t484.5 -179q150 0 329 74q8 4 17 -16t1 -24q-173 -109 -412 -109q-291 0 -504 170.5t-213 487.5zM632 532 q0 -72 47 -72q55 0 176 137q43 49 63 80q49 74 79 180l23 80q0 67 -102 67q-107 0 -196.5 -175.5t-89.5 -296.5z" />
<glyph unicode="A" horiz-adv-x="1453" d="M-4 32.5q0 39.5 13 39.5q104 0 145 36q30 27 58 101l430 1124l-286 -10q-276 -13 -276 -277q0 -16 -39.5 -16t-39.5 16v332q0 34 39 34h44l400 -5h1h408l457 5h7q57 0 75 -22q5 -6 5 -12v-332q0 -16 -39.5 -16t-39.5 16q0 264 -276 277l-235 10h-7l382 -1140 q41 -121 200 -121q15 0 15 -40t-15 -39q-86 7 -242 7t-238 -7q-14 -1 -14 39t14 40q103 0 103 70q0 25 -8 51l-105 326q-11 33 -46 33h-423q-28 0 -42 -36l-117 -327q-10 -26 -10 -41q0 -76 157 -76q13 0 13 -39.5t-13 -39.5q-66 7 -222 7t-220 -7q-13 0 -13 39.5zM466 636 q3 -12 25 -12h373q24 0 25 15l-2 13l-176 553q-6 21 -17 21q-13 0 -21 -21l-205 -553z" />
<glyph unicode="B" horiz-adv-x="1191" d="M61 1366.5q0 30.5 21 30.5q31 0 125 51t113 73.5t35 22.5t15 -31l-7 -153v-325q0 -33 17 -33q10 0 24 7q116 67 218 67q217 0 349.5 -162t132.5 -382q0 -269 -125.5 -414.5t-351.5 -145.5q-59 0 -182 56q-26 13 -61 13q-41 0 -118 -69q-3 -2 -10.5 -2.5t-26.5 6.5 q-39 16 -39 24q6 80 6 321v851q0 164 -114 164q-21 0 -21 30.5zM363 363q0 -100 93.5 -213.5t213.5 -113.5q119 0 181.5 142t62.5 335q0 192 -94.5 334.5t-246.5 142.5q-103 0 -182 -61q-28 -22 -28 -117v-449z" />
<glyph unicode="C" horiz-adv-x="1235" d="M72 1373q0 39 13 39q142 -3 295 -3q100 0 281 1q182 2 344 2q33 0 38 -7q2 -3 2 -27v-204q0 -15 -45 -15q-44 0 -44 15q0 135 -129 147q-135 12 -336 12q-43 0 -43 -48v-979q0 -242 185 -242h159q76 0 162 67q111 86 111 227q0 16 44 16q43 0 43 -16v-332q0 -23 -13 -29 q-12 -4 -74 -4q-83 0 -255 3.5t-370 3.5q-134 0 -341 -7q-16 0 -16 39q0 40 16 40q183 0 183 112v1035q0 114 -197 114q-13 0 -13 40z" />
<glyph unicode="D" horiz-adv-x="1519" d="M44 1342q25 30 53 89.5t43 105.5q4 11 24 11q53 0 53 -19q0 -2 -1 -5q-10 -42 -10 -56q0 -56 89 -56h514q251 0 440 -197.5t189 -524.5q0 -267 -181 -492.5t-493 -225.5q-301 0 -485 213t-184 509q1 211 134 394q133 181 258 235h-418q-38 1 -25 19zM293 755 q0 -322 156 -513.5t330 -191.5q220 0 340.5 180t120.5 443q0 262 -124 452q-158 198 -384 198h-92q-128 -54 -237.5 -214.5t-109.5 -353.5z" />
<glyph unicode="E" horiz-adv-x="1311" d="M94 694q0 256 140 458q132 192 332 257q94 31 194 31q152 0 303 -65q79 -34 124 -78q46 -45 46 -90q0 -44 -44 -70q-22 -13 -48 -13q-43 0 -70 32q-82 96 -114 125q-94 86 -202 86q-195 0 -325 -170q-133 -173 -133 -355q0 -44 41 -44h830q14 0 14 -40q0 -39 -14 -39 h-830q-41 0 -41 -44q0 -212 107 -369q149 -212 336 -212q186 0 293 48q74 34 154 87q6 4 9 4q20 0 32 -25q4 -8 4 -17t-8 -16q-133 -104 -204 -141q-121 -62 -263 -62q-251 0 -422 148q-241 208 -241 574z" />
<glyph unicode="F" horiz-adv-x="1200" d="M31 1330.5q0 39.5 15 39.5q102 0 286 63q21 7 39 7q35 0 33 -41q-9 -76 -9 -163v-102q0 -33 21 -33q20 0 37 19q136 146 230 205q132 81 224 81q148 0 200 -99q26 -49 26 -106q0 -84 -64 -141q-25 -23 -74 -23q-80 0 -133 75q-55 76 -99 76q-136 0 -257 -151 q-111 -137 -111 -240v-323q0 -55 53 -55h467q27 0 27 -45.5t-27 -45.5h-467q-52 0 -53 -51v-563q0 -59 -89 -129l-156 -122q-5 -4 -15 -4q-34 0 -63 40q-18 24 -18 42q0 12 7 18l114 94q54 44 54 105v1392q0 75 -79 117q-46 24 -104 24q-15 0 -15 39.5z" />
<glyph unicode="G" horiz-adv-x="1246" d="M67 88q0 140 142.5 268.5t336.5 161.5q19 3 18.5 12t-15.5 19q-185 117 -197 127q-98 81 -98 162q0 92 340 432q14 13 14 22q0 12 -28 13h-476q-37 1 -25 18q25 30 53 90t44 106q3 11 24 11q52 0 52 -22l-11 -57q0 -56 90 -56h326q127 0 261 4.5t269 12.5q30 0 30 -53.5 t-30 -53.5h-388q-48 0 -80 -37l-101 -122q-155 -185 -155 -291q0 -91 153 -204q33 -24 76 -49l344 -203q170 -101 170 -303q0 -221 -161 -359t-392 -138q-216 0 -401 162t-185 327zM262 88q0 -135 118.5 -273.5t275.5 -138.5q146 0 249 142t103 278q0 131 -102.5 240 t-285.5 109q-167 0 -262.5 -107t-95.5 -250z" />
<glyph unicode="H" horiz-adv-x="1371" d="M72 1330.5q0 39.5 13 39.5q102 0 277 61q29 9 44 9q37 0 38 -37q-9 -99 -9 -184v-91q0 -24 14 -24q9 0 19 11q113 98 303 98q210 0 347 -137q173 -171 173 -403q0 -334 -195 -533q-146 -147 -301 -147q-35 0 -97 75q-64 78 -78 78q-46 0 -104 -235q-5 -12 -25 -12 q-48 0 -48 24v5q39 181 61 233q56 125 140 125q60 0 137 -95q74 -93 99 -93q68 0 139 158q73 168 73 400q0 184 -95 322q-109 156 -296 156q-125 0 -242 -147q-24 -30 -24 -75v-396q0 -205 -91 -339q-51 -77 -169 -181q-3 -3 -10 -3q-25 0 -54 39q-17 26 -17 44q0 9 5 13 q56 41 112 141q56 102 56 176v744q0 84 -85 122q-43 19 -97 19q-13 0 -13 39.5z" />
<glyph unicode="I" horiz-adv-x="626" d="M92 21q0 32 17 32q140 0 140 97v568q0 158 -104 158q-21 0 -21 31t21 31q43 0 228 142q18 13 28 13q22 0 22 -26q-7 -130 -7 -162v-755q0 -97 140 -97q17 0 17 -32q0 -31 -17 -31q-94 10 -212 10q-117 0 -235 -10q-17 0 -17 31zM190 1448q0 56 35 85q35 30 82 30 q58 0 88 -34q30 -36 30 -81q0 -52 -36 -86t-82 -34q-55 0 -87 35q-30 36 -30 85z" />
<glyph unicode="J" horiz-adv-x="618" d="M-155 -460q0 44 29 66t68 22q60 0 100 -55q39 -56 89 -56q123 0 123 278v871q0 210 -109 210q-20 0 -20 31t20 31q48 0 125 54t100 77q25 24 41 24q24 0 24 -33q-14 -297 -14 -328v-550q0 -381 -106 -570t-315 -189q-67 0 -110 36q-45 38 -45 81zM190 1448q0 56 35 85 q35 30 82 30q58 0 88 -34q30 -36 30 -81q0 -52 -36 -86t-82 -34q-55 0 -87 35q-30 36 -30 85z" />
<glyph unicode="K" horiz-adv-x="1126" d="M75 21q0 30 14 30q120 0 120 81v1086q0 145 -96 145q-17 0 -17 26q0 32 17 32q58 0 194 91q23 16 34 24q15 10 19 10q15 0 14 -19q-6 -98 -6 -159v-825q0 -45 41 -45q53 0 77 24l257 252q132 129 225 129q60 0 94 -45q21 -27 21 -59q0 -56 -43 -88q-22 -16 -49 -16 q-18 0 -74 30q-38 21 -62 21q-46 0 -83 -36l-167 -159q-19 -19 -19 -35q0 -7 17 -37l196 -320q62 -103 163 -103q70 0 133 46q9 5 22 -16q11 -20 3 -27q-102 -83 -263 -83q-139 0 -219 139l-163 281q-18 32 -77 32q-30 0 -30 -44v-252q0 -81 124 -81q14 0 14 -29 q0 -30 -14 -30q-108 8 -197.5 8t-205.5 -8q-14 0 -14 29z" />
<glyph unicode="L" horiz-adv-x="626" d="M86 21q0 32 18 32q145 0 145 97v1013q0 173 -114 173q-21 0 -21 31q0 30 21 30q49 0 135 57t108 74q21 16 34 16q11 0 11 -18q-7 -90 -7 -120v-1256q0 -97 148 -97q17 0 17 -32q0 -31 -17 -31q-96 10 -228 10t-232 -10q-18 0 -18 31z" />
<glyph unicode="M" horiz-adv-x="2017" d="M95 742q0 267 154 482q156 217 367 217q160 0 305 -125q37 -33 90 -88q19 -21 32.5 -21t27.5 17q184 217 381 217q231 0 360 -223q108 -192 108 -473q0 -364 -237 -590q-153 -141 -193 -141t-48 73q-6 76 -30 76q-54 0 -113 -246q-2 -9 -18 -9q-34 0 -52 15q-5 4 -5 11 q87 393 184 393q39 0 90 -63q20 -28 40 -70q13 -26 22 -26q44 0 101 173q61 187 61 404q0 231 -81 391q-93 183 -225 183q-168 0 -292 -157q-34 -43 -34 -101v-755q0 -135 -12 -292q-1 -16 -70.5 -16t-71.5 16q-12 148 -12 292v655q0 121 -122 255q-118 132 -239 132 q-85 0 -153 -95q-95 -135 -112 -367q-5 -66 -5 -147q0 -215 87 -390q64 -127 146 -194q15 -9 31 -9q10 0 70 12q14 3 21 3q20 0 22 -15q0 -30 -37 -93q-36 -59 -57 -59q-4 0 -7 2q-229 126 -336 274q-138 187 -138 472z" />
<glyph unicode="N" horiz-adv-x="1279" d="M89 21q0 32 17 32q143 0 143 97v568q0 158 -104 158q-21 0 -21 31t21 31q61 0 125 54q66 55 91 78t40 23q18 0 18 -38l-3 -91q0 -26 18 -26q11 0 18 7q131 131 314 131q68 0 143 -44q75 -46 116 -141q41 -94 41 -303v-438q0 -97 142 -97q18 0 18 -32q0 -31 -18 -31 q-94 10 -213 10q-118 0 -234 -10q-16 0 -16 31q0 32 16 32q137 0 137 97v519q0 197 -61 266q-37 43 -136 43h-26q-61 0 -155 -66q-104 -73 -104 -169v-593q0 -97 133 -97q17 0 17 -32q0 -31 -17 -31q-112 10 -220 10q-109 0 -223 -10q-17 0 -17 31z" />
<glyph unicode="O" horiz-adv-x="1185" d="M104 525q0 212 143 381.5t354 169.5q219 0 358 -169t139 -380q0 -225 -126 -390t-369 -165q-216 0 -357.5 175.5t-141.5 377.5zM283 520q0 -216 101 -345.5t217 -129.5q117 0 217.5 129.5t100.5 345.5q0 220 -99 356t-217 136t-219 -134.5t-101 -357.5z" />
<glyph unicode="P" horiz-adv-x="1215" d="M56 -551q0 31 17 31q142 0 142 104v1142q0 154 -106 154q-21 0 -21 30t21 30q37 0 114 50q75 50 101 77q26 26 49 26q16 0 16 -33l-5 -84q0 -25 16 -25q17 0 26 9q104 116 231 116q138 0 254 -86q117 -85 166 -203q49 -117 49 -269q0 -244 -123 -395q-125 -151 -367 -151 q-136 0 -206 23q-8 2 -14 3q-32 -4 -32 -42v-369q0 -106 187 -107q18 0 18 -31q0 -32 -18 -32q-105 10 -253 10q-146 0 -245 -10q-17 0 -17 32zM384 245q0 -202 235 -202q173 0 244 141q71 142 71 336q0 464 -327 464q-104 0 -198 -124q-25 -32 -25 -116v-499z" />
<glyph unicode="Q" horiz-adv-x="1207" d="M82 520q0 257 138 407q140 149 331 149q162 0 306 -72l126 68q28 -2 39 -16q13 -16 9 -40q-34 -34 -34 -370v-1061q0 -104 165 -104q17 0 17 -32q0 -31 -17 -31q-103 9 -241 9t-257 -9q-17 0 -17 31q0 32 17 32q165 0 165 106v367q0 46 -24 46l-16 -2q-195 -26 -252 -26 q-225 0 -339 140q-116 142 -116 408zM261 539q0 -213 80 -356q81 -141 197 -141q291 0 291 202v539q0 46 -18 74q-82 131 -188 131q-362 0 -362 -449z" />
<glyph unicode="R" horiz-adv-x="994" d="M6 33q0 11 12 20q474 495 618 827q40 91 40 198q0 104 -67 166q-65 60 -159 60q-154 0 -266 -196q-9 -16 -38 3q-30 17 -23 30q60 124 170 211q109 88 244 88q153 0 245 -100q93 -100 93 -250q0 -148 -100 -291q-98 -142 -204 -260l-307 -345q-18 -18 -18 -30 q0 -16 33 -16l693 1q35 0 22 -36l-38 -108q-5 -13 -45 -13q-136 8 -449 8q-314 0 -411 -8h-7q-38 0 -38 41z" />
<glyph unicode="S" horiz-adv-x="1083" d="M109 347q0 222 251 334q10 5 10 16t-14 17q-192 98 -210 319q-4 28 -4 59q0 135 125 256q102 92 279 92q108 0 214 -24q74 -18 97 -18q4 0 7 1q29 -104 40 -269q2 -23 -38 -23q-31 0 -34 13q-53 251 -306 251q-131 0 -196 -93q-42 -58 -42 -139q0 -136 82 -202 q52 -42 204 -97l169 -61q90 -33 151 -104q88 -101 88 -269q0 -224 -150 -349q-104 -85 -256 -85q-229 0 -360 134q-107 107 -107 241zM291 338q0 -100 80 -183q100 -105 235 -105q95 0 167 79q65 69 65 171t-64.5 192t-271.5 154q-15 5 -26 5q-14 0 -29 -9 q-156 -92 -156 -304z" />
<glyph unicode="T" horiz-adv-x="1397" d="M44 1323q25 30 53 89q28 61 43 107q4 11 24 11q53 0 53 -20q0 -2 -1 -5q-10 -42 -10 -54q0 -56 89 -56h514q52 0 173.5 4.5t355.5 12.5q31 0 31 -54q0 -53 -31 -53h-584q-138 -24 -284 -158q-177 -163 -177 -412q0 -283 165 -483q163 -202 347 -202q313 0 399 280 q3 11 25 11q23 0 31 -8q4 -3 4 -15q-34 -198 -79 -281q-29 -4 -69 -17q-130 -48 -332 -48q-307 0 -498 207t-191 494q0 339 225 525q79 65 167 107h-418q-38 1 -25 18z" />
<glyph unicode="U" horiz-adv-x="1237" d="M59 1007q0 31 19 31q130 0 199 11q68 12 92 12t24 -20q-10 -152 -10 -188v-440q0 -142 50 -238q49 -97 148 -97q121 0 194 64q84 72 84 156v497q0 182 -137 182q-19 0 -19 30q0 31 19 31q152 0 212 11q60 12 76 12q24 0 24 -33q-8 -109 -8 -173v-574q0 -181 94 -181l67 9 q20 3 27 -34q2 -11 1 -18q0 -17 -10 -19q-34 -4 -158 -34q-123 -30 -159 -44q-3 -1 -9 -1q-20 0 -20 56v56q0 30 -15 29q-13 0 -33 -18q-117 -110 -290 -110q-130 0 -217 131q-89 131 -89 269v423q0 182 -137 182q-19 0 -19 30z" />
<glyph unicode="V" horiz-adv-x="1241" d="M30 1375.5q0 39.5 14 39.5q190 -3 304 -3t334 1.5t435 1.5q71 0 71 -57q0 -12 -8 -22l-754 -1251q-19 -43 -19 -103v-258q0 -73 -140 -180l-113 -84q-4 -2 -9 -2q-18 0 -47 32q-23 28 -23 50q0 11 7 18q157 121 157 209v1455q0 114 -195 114q-14 0 -14 39.5zM407 277 q0 -27 14 -27t25 18l643 1042q4 7 4 11q0 17 -20 17q-29 -2 -179 -2h-453q-34 0 -34 -38v-1021z" />
<glyph unicode="W" horiz-adv-x="1241" d="M30 1375.5q0 39.5 14 39.5q190 -3 304 -3t334 1.5t435 1.5q71 0 71 -57q0 -12 -8 -22l-754 -1251q-19 -43 -19 -103v-258q0 -73 -140 -180l-113 -84q-4 -2 -9 -2q-18 0 -47 32q-23 28 -23 50q0 11 7 18q157 121 157 209v1455q0 114 -195 114q-14 0 -14 39.5zM407 277 q0 -27 14 -27t25 18l643 1042q4 7 4 11q0 17 -20 17q-29 -2 -179 -2h-453q-34 0 -34 -38v-1021z" />
<glyph unicode="X" horiz-adv-x="1114" d="M6 21.5q0 31.5 17 31.5q111 0 178 84l283 357q11 16 11 30q0 19 -4 25l-260 365q-63 88 -118 88q-17 0 -17 29t17 29q89 -8 199 -8t200 8q17 0 17 -29t-17 -29q-94 0 -94 -46q0 -29 17 -56l146 -235q12 -19 25 -19q12 0 26 19l163 215q29 38 29 71q0 51 -101 51 q-18 0 -18 29t18 29q88 -8 175.5 -8t178.5 8q17 0 17 -29t-17 -29q-78 0 -150 -90l-246 -300q-19 -24 -19 -43q0 -18 7 -27l264 -385q72 -104 180 -104q17 0 17 -31.5t-17 -31.5q-111 10 -226.5 10t-235.5 -10q-18 0 -18 31.5t18 31.5q120 0 120 42q0 18 -25 58l-180 283 q-11 15 -22.5 15t-21.5 -15l-189 -263q-37 -51 -37 -84q0 -36 80 -36q18 0 18 -31.5t-18 -31.5q-116 10 -179.5 10t-173.5 -10q-17 0 -17 31.5z" />
<glyph unicode="Y" horiz-adv-x="966" d="M-4 940q0 33 16 33q43 -4 177 -4t177 4q18 0 18 -33t-18 -33q-77 0 -77 -38q0 -17 14 -44l185 -297q12 -26 28 0l197 289q15 27 15 46q0 44 -74 44q-15 0 -15 33t15 33q43 -4 159 -4t158 4q17 0 17 -33t-17 -33q-40 0 -68 -8q-27 -9 -57 -40q-31 -30 -41 -46 q-10 -14 -51 -71l-175 -252q-23 -34 -30 -53q-6 -20 -7 -40q-1 -18 -1 -41v-211q0 -47 23 -66q24 -18 82 -18q14 0 14 -34q0 -33 -14 -33q-65 6 -182 6t-181 -6q-15 0 -15 33q0 34 15 34q60 0 83 18q22 17 22 66v209q0 46 -5 62q-7 15 -42 72l-211 337q-53 82 -118 82 q-16 0 -16 33zM525 -312q0 66 51 95q27 15 59 15q62 0 95 -49q19 -28 19 -61q0 -59 -50 -94q-28 -19 -64 -19q-62 0 -93 52q-17 28 -17 61zM572 1726q0 66 51 95q27 16 59 16q62 0 95 -49q19 -28 19 -62q0 -59 -50 -93q-28 -20 -64 -20q-62 0 -93 52q-17 28 -17 61z" />
<glyph unicode="Z" horiz-adv-x="879" d="M70 17v3q0 6 1 8l481 910q11 20 11 28q0 23 -37 23h-185q-93 0 -161 -133l-50 -98q-6 -20 -26 -54q-3 -5 -18 -2q-11 3 -10 9l46 324q6 45 28 41l128 -19q27 -5 94 -5h400q18 0 18 -11q0 -6 -6 -18l-481 -901q-8 -14 -8 -23q0 -22 40.5 -27t94 -5t129.5 9.5t125 61.5 q71 75 119 207q4 13 29 7q21 -6 21 -16v-2q-38 -283 -38 -334q0 -33 -34 -33q-4 0 -94 19q-63 14 -108 14h-490q-19 0 -19 17z" />
<glyph unicode="[" horiz-adv-x="754" d="M298 -345v1916q0 20 21 20h374q17 0 17 -40.5t-17 -40.5h-229q-21 0 -21 -23v-1745q0 -29 15 -29h235q17 0 17 -40.5t-17 -40.5h-372q-23 0 -23 23z" />
<glyph unicode="\" horiz-adv-x="872" d="M2 1496q0 16 31 31q34 15 59 15q15 0 18 -8l758 -1811v-7q-5 -9 -30 -21q-37 -16 -57 -16q-15 0 -18 6l-759 1804q-2 2 -2 7z" />
<glyph unicode="]" horiz-adv-x="768" d="M31 -327.5q0 40.5 22 40.5h260q13 0 13 25v1749q0 23 -19 23h-233q-25 0 -25 40.5t21 40.5h379q21 0 21 -20v-1916q0 -23 -23 -23h-392q-24 0 -24 40.5z" />
<glyph unicode="^" horiz-adv-x="1139" d="M110 556l406 871h108l400 -871h-140l-313 710l-315 -710h-146z" />
<glyph unicode="_" horiz-adv-x="1064" d="M0 -160h1065v-106h-1065v106z" />
<glyph unicode="`" horiz-adv-x="591" d="M226 1388q0 27 41 47q23 12 43 12q25 0 32 -17l137 -306q5 -11 5 -21q0 -40 -37 -40q-24 0 -42 30l-175 282q-4 5 -4 13z" />
<glyph unicode="a" horiz-adv-x="938" d="M88 748q0 69 35.5 140t87.5 101t129 58.5t169 28.5q88 0 158.5 -51.5t70.5 -119.5v-659q0 -142 83 -142q39 0 89 46l8 2q26 -3 33 -23l4 -14q1 -2 -1 -6q-51 -85 -94.5 -111t-101.5 -26q-115 0 -165 167q-95 -93 -156.5 -130t-153.5 -37q-93 0 -136 65t-43 163 q0 93 59 162.5t121 103.5l263 146q24 13 24 39v224q0 120 -164 120q-119 0 -166 -66q-7 -11 -21 -134q-12 -111 -73 -111q-59 0 -59 64zM269 233q0 -62 32 -106t84 -44q64 0 125 59.5t61 103.5v274q0 27 -17 27q-9 0 -17 -5q-123 -60 -176 -106q-92 -81 -92 -203z" />
<glyph unicode="b" horiz-adv-x="1191" d="M61 1366.5q0 30.5 21 30.5q31 0 125 51t113 73.5t35 22.5t15 -31l-7 -153v-325q0 -33 17 -33q10 0 24 7q116 67 218 67q217 0 349.5 -162t132.5 -382q0 -269 -125.5 -414.5t-351.5 -145.5q-59 0 -182 56q-26 13 -61 13q-41 0 -118 -69q-3 -2 -10.5 -2.5t-26.5 6.5 q-39 16 -39 24q6 80 6 321v851q0 164 -114 164q-21 0 -21 30.5zM363 363q0 -100 93.5 -213.5t213.5 -113.5q119 0 181.5 142t62.5 335q0 192 -94.5 334.5t-246.5 142.5q-103 0 -182 -61q-28 -22 -28 -117v-449z" />
<glyph unicode="c" horiz-adv-x="979" d="M106 476q0 269 147.5 434.5t356.5 165.5q257 0 303 -90q7 -15 7 -42q0 -40 -31 -71q-28 -29 -48 -29q-17 0 -30 17q-112 144 -222 144q-117 0 -210.5 -131.5t-93.5 -333.5q0 -205 107 -324.5t243 -119.5q101 0 267 89q11 6 29 -23q12 -18 12 -30q0 -8 -6 -13 q-47 -37 -107 -73q-121 -74 -298 -74q-193 0 -309.5 144.5t-116.5 359.5z" />
<glyph unicode="d" horiz-adv-x="1207" d="M82 509q0 234 152 400q152 167 413 167q88 0 140 -16q16 -5 24 -5q18 0 18 31v77q0 173 -115 173q-20 0 -20 31q0 30 20 30t106 44q85 46 122 75q38 28 50 28q13 0 13 -18q-8 -81 -8 -133v-1107q0 -184 102 -184q14 0 57 7q15 2 23 -47q3 -22 -7 -24q-155 -33 -179 -39 q-126 -32 -143 -40q-21 0 -21 61v51q0 28 -15 28q-14 0 -34 -17q-116 -110 -242 -110q-230 0 -342 153q-114 153 -114 384zM261 544q0 -195 97 -331q98 -136 243 -136q97 0 162 58q66 58 66 111v581q0 92 -27 116q-81 69 -184 69q-147 0 -252 -134q-105 -135 -105 -334z" />
<glyph unicode="e" horiz-adv-x="980" d="M105 540q0 205 129.5 370.5t302.5 165.5q176 0 273.5 -121t97.5 -207q0 -69 -64 -69h-534q-38 0 -38 -81q0 -213 98 -355.5t259 -142.5q116 0 234 86q24 17 37.5 -6t0.5 -35q-185 -173 -376 -173q-184 0 -302 173t-118 395zM302 780q0 -18 29 -18h397q19 0 19 21 q0 55 -67.5 138t-140.5 83q-101 0 -169 -80t-68 -144z" />
<glyph unicode="f" horiz-adv-x="699" d="M86 21q0 32 18 32q145 0 145 97v652q0 46 -46 46h-92q-18 0 -18 30q0 31 18 31q138 0 138 106v31q0 146 130 323t345 177q181 0 239 -68q26 -31 26 -72q0 -44 -38 -71q-40 -27 -68 -27q-72 0 -127 68t-123 68q-106 0 -161 -120q-56 -120 -56 -256v-80q0 -46 46 -46h251 q19 0 19 -48q0 -46 -19 -46h-251q-46 0 -46 -46v-652q0 -97 183 -97q18 0 18 -32q0 -31 -18 -31q-105 10 -241 10t-254 -10q-18 0 -18 31z" />
<glyph unicode="g" horiz-adv-x="1128" d="M74 -327q0 114 209 244q20 12 20 26q0 12 -25 20q-149 42 -149 174q0 81 122 163q12 8 27 17q18 11 18 26t-18 27q-159 114 -159 309q0 185 119 291q120 106 287 106q130 0 230 -52q99 -52 161 -52h213q19 0 19 -43q0 -44 -19 -44h-208q8 -46 8 -145q0 -176 -112 -303 q-104 -117 -276 -117q-15 0 -59 3q-45 4 -66 4q-26 0 -53 -17q-85 -56 -85 -125q0 -108 184 -108h315q349 0 349 -207q0 -191 -190 -322q-189 -131 -448 -131q-208 0 -311 74t-103 182zM250 -268q0 -94 82 -156q82 -64 270 -64q178 0 284 78q106 79 106 176q0 175 -302 175 h-228q-40 0 -75 -24q-137 -92 -137 -185zM288 705q0 -150 84 -233q86 -84 177 -84q210 0 210 284q0 184 -66 262q-67 78 -163 78q-103 0 -172 -86q-70 -87 -70 -221z" />
<glyph unicode="h" horiz-adv-x="1309" d="M82 21q0 32 17 32q150 0 150 97v1015q0 171 -114 171q-21 0 -21 31q0 30 21 30q41 0 115 42q73 42 110 73q35 32 50 32q13 0 13 -20q-7 -119 -7 -205v-340q0 -31 20 -31q11 0 22 10q144 118 297 118q125 0 233 -103q109 -103 109 -294v-529q0 -97 157 -97q18 0 18 -32 q0 -31 -18 -31q-100 10 -234 10t-232 -10q-16 0 -16 31q0 32 16 32q140 0 141 97v538q0 120 -74 204q-73 85 -177 85q-74 0 -183 -63q-79 -45 -79 -124v-640q0 -97 137 -97q18 0 18 -32q0 -31 -18 -31q-130 10 -243 10q-112 0 -211 -10q-17 0 -17 31z" />
<glyph unicode="i" horiz-adv-x="626" d="M92 21q0 32 17 32q140 0 140 97v568q0 158 -104 158q-21 0 -21 31t21 31q43 0 228 142q18 13 28 13q22 0 22 -26q-7 -130 -7 -162v-755q0 -97 140 -97q17 0 17 -32q0 -31 -17 -31q-94 10 -212 10q-117 0 -235 -10q-17 0 -17 31zM190 1448q0 56 35 85q35 30 82 30 q58 0 88 -34q30 -36 30 -81q0 -52 -36 -86t-82 -34q-55 0 -87 35q-30 36 -30 85z" />
<glyph unicode="j" horiz-adv-x="618" d="M-155 -460q0 44 29 66t68 22q60 0 100 -55q39 -56 89 -56q123 0 123 278v871q0 210 -109 210q-20 0 -20 31t20 31q48 0 125 54t100 77q25 24 41 24q24 0 24 -33q-14 -297 -14 -328v-550q0 -381 -106 -570t-315 -189q-67 0 -110 36q-45 38 -45 81zM190 1448q0 56 35 85 q35 30 82 30q58 0 88 -34q30 -36 30 -81q0 -52 -36 -86t-82 -34q-55 0 -87 35q-30 36 -30 85z" />
<glyph unicode="k" horiz-adv-x="1126" d="M75 21q0 30 14 30q120 0 120 81v1086q0 145 -96 145q-17 0 -17 26q0 32 17 32q58 0 194 91q23 16 34 24q15 10 19 10q15 0 14 -19q-6 -98 -6 -159v-825q0 -45 41 -45q53 0 77 24l257 252q132 129 225 129q60 0 94 -45q21 -27 21 -59q0 -56 -43 -88q-22 -16 -49 -16 q-18 0 -74 30q-38 21 -62 21q-46 0 -83 -36l-167 -159q-19 -19 -19 -35q0 -7 17 -37l196 -320q62 -103 163 -103q70 0 133 46q9 5 22 -16q11 -20 3 -27q-102 -83 -263 -83q-139 0 -219 139l-163 281q-18 32 -77 32q-30 0 -30 -44v-252q0 -81 124 -81q14 0 14 -29 q0 -30 -14 -30q-108 8 -197.5 8t-205.5 -8q-14 0 -14 29z" />
<glyph unicode="l" horiz-adv-x="626" d="M86 21q0 32 18 32q145 0 145 97v1013q0 173 -114 173q-21 0 -21 31q0 30 21 30q49 0 135 57t108 74q21 16 34 16q11 0 11 -18q-7 -90 -7 -120v-1256q0 -97 148 -97q17 0 17 -32q0 -31 -17 -31q-96 10 -228 10t-232 -10q-18 0 -18 31z" />
<glyph unicode="m" horiz-adv-x="1926" d="M82 21q0 32 17 32q150 0 150 97v573q0 153 -104 153q-21 0 -21 31t21 31q45 0 124 60q79 62 94 74q27 21 41 21q17 0 17 -33q-5 -97 -5 -103q0 -26 16 -26q10 0 20 9q129 136 312 136q155 0 258 -150q14 -20 22 -20q13 0 26 16q141 154 328 154q146 0 221 -78t87 -144 q11 -67 11 -155v-549q0 -97 144 -97q16 0 16 -32q0 -31 -16 -31q-96 10 -217 10q-120 0 -233 -10q-16 0 -16 31q0 32 16 32q137 0 137 97v580q0 142 -66 192q-71 56 -180 56q-107 0 -170 -99q-66 -103 -66 -276v-453q0 -97 142 -97q18 0 18 -32q0 -31 -18 -31 q-116 10 -225 10t-222 -10q-16 0 -16 31q0 32 16 32q137 0 137 97v521q0 202 -61 264q-41 43 -136 43h-28q-66 0 -153 -66q-103 -77 -103 -169v-593q0 -97 132 -97q17 0 17 -32q0 -31 -17 -31q-112 10 -223 10q-112 0 -227 -10q-17 0 -17 31z" />
<glyph unicode="n" horiz-adv-x="1279" d="M89 21q0 32 17 32q143 0 143 97v568q0 158 -104 158q-21 0 -21 31t21 31q61 0 125 54q66 55 91 78t40 23q18 0 18 -38l-3 -91q0 -26 18 -26q11 0 18 7q131 131 314 131q68 0 143 -44q75 -46 116 -141q41 -94 41 -303v-438q0 -97 142 -97q18 0 18 -32q0 -31 -18 -31 q-94 10 -213 10q-118 0 -234 -10q-16 0 -16 31q0 32 16 32q137 0 137 97v519q0 197 -61 266q-37 43 -136 43h-26q-61 0 -155 -66q-104 -73 -104 -169v-593q0 -97 133 -97q17 0 17 -32q0 -31 -17 -31q-112 10 -220 10q-109 0 -223 -10q-17 0 -17 31z" />
<glyph unicode="o" horiz-adv-x="1185" d="M104 525q0 212 143 381.5t354 169.5q219 0 358 -169t139 -380q0 -225 -126 -390t-369 -165q-216 0 -357.5 175.5t-141.5 377.5zM283 520q0 -216 101 -345.5t217 -129.5q117 0 217.5 129.5t100.5 345.5q0 220 -99 356t-217 136t-219 -134.5t-101 -357.5z" />
<glyph unicode="p" horiz-adv-x="1215" d="M56 -551q0 31 17 31q142 0 142 104v1142q0 154 -106 154q-21 0 -21 30t21 30q37 0 114 50q75 50 101 77q26 26 49 26q16 0 16 -33l-5 -84q0 -25 16 -25q17 0 26 9q104 116 231 116q138 0 254 -86q117 -85 166 -203q49 -117 49 -269q0 -244 -123 -395q-125 -151 -367 -151 q-136 0 -206 23q-8 2 -14 3q-32 -4 -32 -42v-369q0 -106 187 -107q18 0 18 -31q0 -32 -18 -32q-105 10 -253 10q-146 0 -245 -10q-17 0 -17 32zM384 245q0 -202 235 -202q173 0 244 141q71 142 71 336q0 464 -327 464q-104 0 -198 -124q-25 -32 -25 -116v-499z" />
<glyph unicode="q" horiz-adv-x="1207" d="M82 520q0 257 138 407q140 149 331 149q162 0 306 -72l126 68q28 -2 39 -16q13 -16 9 -40q-34 -34 -34 -370v-1061q0 -104 165 -104q17 0 17 -32q0 -31 -17 -31q-103 9 -241 9t-257 -9q-17 0 -17 31q0 32 17 32q165 0 165 106v367q0 46 -24 46l-16 -2q-195 -26 -252 -26 q-225 0 -339 140q-116 142 -116 408zM261 539q0 -213 80 -356q81 -141 197 -141q291 0 291 202v539q0 46 -18 74q-82 131 -188 131q-362 0 -362 -449z" />
<glyph unicode="r" horiz-adv-x="723" d="M45 -550.5q0 29.5 16 29.5q120 0 120 81v958q0 126 -11 160q-17 52 -76 52q-15 0 -15 29t15 29q39 0 139 66q38 25 54 40q29 24 41 24q17 0 17 -26q-4 -49 -4 -101q0 -33 17 -33q12 0 26 20q92 127 221 127q60 0 94 -45q21 -27 21 -59q0 -56 -43 -88q-22 -16 -49 -16 q-13 0 -27 7l-71 34q-24 10 -38 10q-64 0 -107 -64q-44 -62 -44 -170v-954q0 -81 157 -81q16 0 16 -29.5t-16 -29.5q-87 8 -218.5 8t-218.5 -8q-16 0 -16 29.5z" />
<glyph unicode="s" horiz-adv-x="841" d="M97 256v56q0 19 24.5 19t28.5 -19q15 -74 85.5 -174t206.5 -100q71 0 135.5 50.5t64.5 134.5q0 90 -50.5 145t-195.5 99q-283 85 -283 309q0 127 96 213.5t243 86.5q155 0 252 -44q39 -104 39 -210v-14q0 -18 -23.5 -18t-27.5 18q-13 65 -79.5 134t-177.5 69 q-79 0 -137.5 -51.5t-58.5 -125.5q0 -63 33 -112.5t211 -104.5q181 -56 234 -125t53 -187q0 -105 -46.5 -181.5t-137.5 -115.5t-185 -39q-175 0 -279 75q-25 78 -25 212z" />
<glyph unicode="t" horiz-adv-x="812" d="M82 968q0 28 17 28q78 0 154 85t104 158q4 11 15 11q8 0 21.5 -5t13.5 -19v-133q0 -53 51 -53h301q18 0 18 -50t-18 -50h-301q-51 0 -51 -49v-499q0 -164 45.5 -239t154.5 -75q71 0 141 48q13 9 24 -5t2 -24q-104 -125 -283 -125q-133 0 -192.5 63t-59.5 228v628 q0 49 -50 49h-90q-17 0 -17 28z" />
<glyph unicode="u" horiz-adv-x="1237" d="M59 1007q0 31 19 31q130 0 199 11q68 12 92 12t24 -20q-10 -152 -10 -188v-440q0 -142 50 -238q49 -97 148 -97q121 0 194 64q84 72 84 156v497q0 182 -137 182q-19 0 -19 30q0 31 19 31q152 0 212 11q60 12 76 12q24 0 24 -33q-8 -109 -8 -173v-574q0 -181 94 -181l67 9 q20 3 27 -34q2 -11 1 -18q0 -17 -10 -19q-34 -4 -158 -34q-123 -30 -159 -44q-3 -1 -9 -1q-20 0 -20 56v56q0 30 -15 29q-13 0 -33 -18q-117 -110 -290 -110q-130 0 -217 131q-89 131 -89 269v423q0 182 -137 182q-19 0 -19 30z" />
<glyph unicode="v" horiz-adv-x="1036" d="M-2 1031q0 29 17 29q71 -8 206 -8t210 8q16 0 16 -29t-16 -29q-97 0 -97 -69q0 -32 1 -35l207 -630q7 -23 28.5 -23t29.5 23l221 639v28q0 67 -119 67q-17 0 -17 29t17 29q71 -8 172.5 -8t174.5 8q18 0 18 -29t-18 -29q-114 0 -145 -90l-313 -892q-17 -48 -53.5 -48 t-48.5 33l-351 907q-34 90 -123 90q-17 0 -17 29z" />
<glyph unicode="w" horiz-adv-x="1646" d="M-2 1031q0 29 17 29q88 -8 205 -8q118 0 210 8q16 0 16 -29t-16 -29q-97 0 -97 -69q0 -29 2 -35l206 -631q7 -23 29 -23q21 0 29 23l195 562q5 14 5 34q0 74 -44 106q-43 33 -96 33q-17 0 -17 29t17 29q90 -8 202 -8q111 0 203 8q18 0 18 -29t-18 -29q-97 0 -97 -69 q0 -23 4 -35l204 -630q7 -23 29 -23t30 23l218 639q3 9 3 28q0 67 -120 67q-16 0 -16 29t16 29q88 -8 172 -8t176 8q17 0 17 -29t-17 -29q-117 0 -148 -90l-311 -892q-17 -48 -53 -48t-49 33l-263 679q-9 25 -18 25q-8 0 -16 -25l-234 -664q-17 -48 -53 -48q-37 0 -49 33 l-350 907q-34 90 -124 90q-17 0 -17 29z" />
<glyph unicode="x" horiz-adv-x="1114" d="M6 21.5q0 31.5 17 31.5q111 0 178 84l283 357q11 16 11 30q0 19 -4 25l-260 365q-63 88 -118 88q-17 0 -17 29t17 29q89 -8 199 -8t200 8q17 0 17 -29t-17 -29q-94 0 -94 -46q0 -29 17 -56l146 -235q12 -19 25 -19q12 0 26 19l163 215q29 38 29 71q0 51 -101 51 q-18 0 -18 29t18 29q88 -8 175.5 -8t178.5 8q17 0 17 -29t-17 -29q-78 0 -150 -90l-246 -300q-19 -24 -19 -43q0 -18 7 -27l264 -385q72 -104 180 -104q17 0 17 -31.5t-17 -31.5q-111 10 -226.5 10t-235.5 -10q-18 0 -18 31.5t18 31.5q120 0 120 42q0 18 -25 58l-180 283 q-11 15 -22.5 15t-21.5 -15l-189 -263q-37 -51 -37 -84q0 -36 80 -36q18 0 18 -31.5t-18 -31.5q-116 10 -179.5 10t-173.5 -10q-17 0 -17 31.5z" />
<glyph unicode="y" horiz-adv-x="1036" d="M-66 1031q0 29 18 29q88 -8 215 -8t219 8q18 0 18 -29t-18 -29q-119 0 -119 -69q0 -26 3 -35l223 -645q13 -39 44 -39t46 41l249 643q5 13 5 32q0 72 -160 72q-17 0 -17 29t17 29q87 -8 197 -8t198 8q17 0 17 -29t-17 -29q-118 0 -153 -90l-507 -1319q-32 -83 -94 -125 t-127 -42q-50 0 -80.5 30t-30.5 64q0 94 109 94q135 0 168 78l77 186q3 8 3 50q0 17 -16 62l-321 922q-31 90 -148 90q-18 0 -18 29z" />
<glyph unicode="z" horiz-adv-x="879" d="M70 17v3q0 6 1 8l481 910q11 20 11 28q0 23 -37 23h-185q-93 0 -161 -133l-50 -98q-6 -20 -26 -54q-3 -5 -18 -2q-11 3 -10 9l46 324q6 45 28 41l128 -19q27 -5 94 -5h400q18 0 18 -11q0 -6 -6 -18l-481 -901q-8 -14 -8 -23q0 -22 40.5 -27t94 -5t129.5 9.5t125 61.5 q71 75 119 207q4 13 29 7q21 -6 21 -16v-2q-38 -283 -38 -334q0 -33 -34 -33q-4 0 -94 19q-63 14 -108 14h-490q-19 0 -19 17z" />
<glyph unicode="{" horiz-adv-x="815" d="M69 643q0 17 10 17q219 0 219 179v352q0 169 43 246t129 96q85 20 274 20q14 0 14 -24q0 -25 -14 -25q-163 0 -232 -54q-71 -54 -71 -194v-252q0 -180 -13 -222q-12 -40 -47 -79t-111 -57v-7q70 -13 106 -50q38 -37 51 -88q14 -52 14 -196v-288q0 -179 65 -240 q66 -60 238 -60q14 0 14 -25q0 -24 -14 -24q-233 0 -301 26q-67 25 -106 93q-39 67 -39 194v460q0 183 -219 183q-10 0 -10 19z" />
<glyph unicode="|" horiz-adv-x="558" d="M242 -347v1838h126v-1838h-126z" />
<glyph unicode="}" horiz-adv-x="853" d="M69 -308q0 25 14 25q172 0 237 60q66 61 66 240v288q0 148 15 199q16 51 50 87q35 35 105 48v7q-80 19 -113 58q-33 40 -46 82q-11 42 -11 218v252q0 142 -73 195t-230 53q-14 0 -14 25q0 24 14 24q177 0 271 -18q92 -17 133 -99t41 -245v-352q0 -179 220 -179 q10 0 10 -17q0 -19 -10 -19q-220 0 -220 -183v-460q0 -140 -51 -214q-51 -73 -142 -85q-93 -14 -252 -14q-14 0 -14 24z" />
<glyph unicode="~" horiz-adv-x="703" d="M25 383q0 4 3 8q103 152 217 152q44 0 146 -37q102 -36 136 -36q69 0 124 67q3 3 8 3t13 -6q7 -7 7 -12q0 -4 -3 -8q-103 -152 -217 -152q-44 0 -146 36q-102 37 -136 37q-69 0 -124 -67q-3 -3 -7 -3q-5 0 -13 6q-8 7 -8 12z" />
<glyph unicode="&#xa1;" horiz-adv-x="540" d="M160 838q0 47 33 80q33 34 79 34q48 0 82 -34q33 -33 33 -80t-33 -80q-34 -33 -82 -33q-46 0 -79 33t-33 80zM173 12q0 24 31 271q30 247 32 320q0 11 34 11q35 0 35 -11q2 -57 19 -197q19 -140 38 -262q20 -123 20 -132q0 -42 -29 -62q-30 -19 -78 -19q-43 0 -73 25 q-29 25 -29 56z" />
<glyph unicode="&#xa2;" horiz-adv-x="862" d="M87 409q0 203 125 351.5t318 153.5l35 196q1 10 23 10q10 0 26 -3q46 -7 44 -24l-32 -184q140 -15 171 -72q6 -17 6 -34q0 -31 -23 -58t-42 -27q-14 0 -27 15q-57 71 -102 92l-123 -707q38 -15 79 -16q67 0 112 12.5t103 49.5q15 10 33 -20q10 -15 10 -24q0 -8 -6 -12 q-84 -68 -168 -95.5t-172 -27.5h-15l-34 -198q-1 -11 -22 -10q-11 0 -26 3q-47 7 -45 24l35 196q-126 36 -204.5 146t-78.5 263zM268 462q0 -187 130 -294l120 675q-92 -4 -171 -109.5t-79 -271.5z" />
<glyph unicode="&#xa3;" horiz-adv-x="1171" d="M32 104q0 68 48 112q48 46 133 46q66 0 247 -59q24 81 24 140q0 129 -67 338h-285q-16 0 -16 38q0 37 16 37h260q-62 170 -62 312q0 143 117 250t286 107q95 0 205 -33q110 -35 110 -85q0 -194 -28 -236q-3 -4 -15 -4t-31 56q-18 56 -36 111q-17 56 -66 99 q-50 43 -150 43q-118 0 -181 -72q-64 -73 -64 -160t88 -388h336q16 0 16 -37q0 -38 -16 -38h-320q17 -93 17 -205q0 -111 -70 -303q188 -71 281 -71q139 0 256 103q36 33 48 33q11 0 11 -22q0 -23 -27 -82q-81 -177 -274 -177q-133 0 -344 143q-65 -68 -125 -105 q-61 -38 -152 -38q-79 0 -125 44q-45 44 -45 103zM92 104q0 -40 33 -66t88 -26q117 0 213 118q-106 77 -187 77q-85 0 -116 -34q-31 -36 -31 -69z" />
<glyph unicode="&#xa4;" horiz-adv-x="1064" d="M83 695q0 154 92 270l-83 83q-3 2 -3 7q0 14 35 48q34 35 49 35q4 0 6 -2l83 -81q117 91 270 91t273 -91l81 81q2 2 6 2q15 0 49 -35q35 -34 35 -48q0 -5 -3 -7l-81 -81q92 -119 92 -273t-92 -272l81 -81q4 -3 4 -7q0 -15 -37 -49q-35 -33 -49 -33q-3 0 -5 2l-81 81 q-121 -93 -270 -93q-150 0 -273 95l-83 -83q-2 -2 -5 -2q-14 0 -49 33q-37 34 -37 49q0 4 4 7l83 83q-92 117 -92 271zM175 695q0 -150 104 -255q105 -105 256 -105q149 0 254 105t105 253q0 147 -107 254q-107 108 -255 108q-146 0 -251 -107q-106 -105 -106 -253z" />
<glyph unicode="&#xa5;" horiz-adv-x="1378" d="M14 1378q0 40 13 40q46 -6 245 -6q201 0 250 6q14 0 14 -40t-14 -40q-126 0 -126 -59q0 -24 22 -60l292 -491q9 -15 16 -15q8 0 18 15l310 482q28 43 28 73q0 55 -116 55q-14 0 -14 40t14 40q47 -6 205 -6q159 0 206 6q13 0 13 -40t-13 -40q-144 0 -218 -113l-231 -353 h212q15 0 15 -52q0 -54 -15 -54h-281l-22 -33q-67 -104 -74 -134q0 -2 -1 -5h378q15 0 15 -52t-15 -52h-383v-297q0 -121 171 -121q13 0 13 -40q0 -39 -13 -39q-78 7 -254 7t-254 -7q-13 0 -13 39q0 40 13 40q171 0 171 121v297h-1h-360q-16 0 -16 52t16 52h354 q-7 40 -22 65l-65 107h-267q-16 0 -16 54q0 52 16 52h203l-210 347q-73 119 -196 119q-13 0 -13 40z" />
<glyph unicode="&#xa6;" horiz-adv-x="558" d="M242 115v558h126v-558h-126zM242 867v560h126v-560h-126z" />
<glyph unicode="&#xa7;" horiz-adv-x="994" d="M98 551q0 99 53 188q55 93 145 128q-119 106 -119 243q0 136 105 231q105 94 248 94q87 0 188 -39q102 -39 102 -103q0 -30 -30 -55q-30 -26 -51 -26q-10 0 -80 71q-70 72 -155 72q-69 0 -128 -53q-59 -54 -59 -151q0 -96 156 -194l285 -179q156 -122 156 -278 q0 -203 -190 -311q136 -105 136 -252q0 -148 -116 -252q-117 -104 -269 -104q-102 0 -226 50q-125 50 -125 129q0 23 34 51q35 29 56 29q20 0 97 -90q77 -89 179 -89q101 0 157 71q56 70 56 169t-158 205l-289 184q-158 119 -158 261zM224 639q0 -117 95 -179l348 -228 q117 82 117 213q0 128 -233 258q-115 65 -202 126q-125 -75 -125 -190z" />
<glyph unicode="&#xa8;" horiz-adv-x="828" d="M113 1202q0 47 33 80t79.5 33t79.5 -33t33 -80t-33 -79.5t-79.5 -32.5t-79.5 32.5t-33 79.5zM511 1202q0 47 32.5 80t79 33t79 -33t32.5 -80t-32.5 -79.5t-79 -32.5t-79 32.5t-32.5 79.5z" />
<glyph unicode="&#xa9;" horiz-adv-x="1499" d="M2 778q0 311 220 530q219 219 530 219t530 -219q220 -219 220 -530t-220 -530q-219 -220 -530 -220t-530 220q-220 219 -220 530zM75 785q0 -273 191 -479q192 -206 479 -206q286 0 484 200q200 198 200 478q0 281 -198 478q-198 199 -479 199t-480 -199 q-197 -197 -197 -471zM361 774q0 120 55 214q54 95 141 148q88 53 216 53q48 0 142 -17q96 -17 98 -17q16 -77 16 -177q0 -10 -18 -10q-19 0 -21 9q-16 171 -233 171q-116 0 -202 -106q-85 -105 -85 -254t83 -258q83 -107 202 -107q203 0 259 154q2 6 16 6t19 -4q2 -2 2 -8 q-21 -109 -51 -154q-18 -2 -43 -10q-84 -26 -215 -26q-102 0 -189 50q-87 48 -139 135q-53 87 -53 208z" />
<glyph unicode="&#xaa;" horiz-adv-x="536" d="M27 907q0 46 34 93q20 28 41 41q75 47 165 47q68 0 116 -30q47 -30 48 -72v-317q0 -71 41 -71q19 0 45 23q2 2 5 2q4 0 13 -7q7 -8 7 -11q0 -4 -2 -8q-36 -68 -118 -68q-57 0 -102 51q-8 13 -14 13t-16 -12q-51 -51 -117 -51q-68 0 -100 33q-33 32 -33 83q0 76 132 144 l94 45q22 13 22 29v119q0 45 -57 45t-81 -32q-5 -8 -6 -38q0 -30 -4 -41q-15 -55 -57 -55q-56 0 -56 45zM183 673q0 -73 45 -73q60 0 60 66v113q0 15 -9 15q-4 0 -9 -3q-87 -44 -87 -118z" />
<glyph unicode="&#xab;" horiz-adv-x="820" d="M61 452q0 30 25 56l311 324q5 5 13 5q6 0 17 -9q12 -8 12 -18q0 -4 -3 -9l-205 -306q-13 -19 -13 -43t13 -42l205 -302q4 -5 4 -12q0 -9 -12 -19q-10 -9 -18 -9t-13 5l-311 324q-25 26 -25 55zM381 452q0 30 25 56l311 324q5 5 12 5t18 -9q11 -8 11 -18q0 -4 -3 -9 l-205 -306q-12 -19 -12 -43t12 -42l205 -302q4 -6 4 -11q0 -11 -11 -20t-19 -9q-7 0 -12 5l-311 324q-25 26 -25 55z" />
<glyph unicode="&#xac;" horiz-adv-x="1420" d="M0 558v125h1421v-683h-128v558h-1293z" />
<glyph unicode="&#xad;" horiz-adv-x="860" d="M104 566q0 60 16 60h615q17 0 17 -60t-19 -60h-613q-16 0 -16 60z" />
<glyph unicode="&#xae;" horiz-adv-x="1584" d="M2 778q0 311 220 530q219 219 530 219t530 -219q220 -219 220 -530t-220 -530q-219 -220 -530 -220t-530 220q-220 219 -220 530zM75 784q0 -275 193 -480q193 -204 478 -204t483 198q200 199 200 480t-198 478q-198 199 -479 199t-480 -199q-197 -197 -197 -472z M435 1144q0 21 7 21q66 -2 120 -2t108 1t88 1q129 0 203 -54q73 -54 73 -156q0 -156 -150 -196q-7 -2 -7 -10q0 -7 7 -21q87 -156 202 -258q69 -59 105 -59q7 0 7 -10t-7 -10q-32 -2 -39 -2q-91 0 -135 30q-69 48 -118 113l-98 144q-27 40 -43 50q-15 11 -47 11q-31 0 -42 1 q-12 2 -18 2q-5 0 -8 -3q-4 -3 -4 -9v-222q0 -65 108 -65q8 0 8 -21t-8 -22q-44 4 -150 4t-150 -4q-7 0 -7 22q0 21 7 21q101 0 101 65v555q0 61 -106 61q-7 0 -7 22zM639 799q0 -18 20 -23q22 -4 61 -4q217 0 217 183q0 74 -59 125q-58 50 -164 50h-49q-26 0 -26 -17v-314z " />
<glyph unicode="&#xaf;" horiz-adv-x="632" d="M51 1197q0 49 30 49h468q29 0 29 -49t-33 -49h-464q-30 0 -30 49z" />
<glyph unicode="&#xb0;" horiz-adv-x="741" d="M85 1089q0 124 84.5 199t213.5 75q108 0 190.5 -76t82.5 -214q0 -110 -81 -185t-219 -75q-118 0 -194.5 80t-76.5 196zM205 1089q0 -82 42.5 -141.5t139.5 -59.5q55 0 102 56q48 56 48 165q0 56 -42 118t-141 62q-57 0 -103 -57t-46 -143z" />
<glyph unicode="&#xb1;" horiz-adv-x="1064" d="M124 2v104h819v-104h-819zM124 620v104h347v349h125v-349h347v-104h-347v-386h-125v386h-347z" />
<glyph unicode="&#xb2;" horiz-adv-x="655" d="M47 568q0 13 12 25q100 100 197 231q159 218 159 330q0 128 -107 128q-93 0 -151 -103q-3 -6 -10 -6q-8 0 -20 7q-13 8 -13 15q0 3 2 6q51 99 132 145q52 29 110 29q102 0 163 -69q54 -60 54 -145q0 -116 -171 -312q-37 -42 -181 -185h184q71 0 98 11q29 12 49 50 q4 7 14 7q8 0 20 -5q20 -8 20 -17q0 -2 -1 -4l-60 -143q-10 -24 -50 -24q-43 0 -83 2t-71 2h-50q-50 -2 -103 -3t-110 -1q-33 0 -33 29z" />
<glyph unicode="&#xb3;" horiz-adv-x="655" d="M62 632q0 61 76 61q28 0 59 -35l31 -37q29 -29 62 -29q64 0 97 83q21 54 21 119q0 83 -51 131q-41 39 -102 39q-37 0 -67 -11q-17 0 -17 35q0 32 13 32q96 0 151 52q43 41 43 100q0 62 -35 98q-24 25 -60 25q-57 0 -105 -52q-19 -21 -34 -45q-4 -6 -11 -6q-8 0 -21 10 q-11 9 -11 17q0 3 2 7q59 89 113 120q49 29 108 29q84 0 141 -58q53 -54 53 -130q0 -107 -108 -170q150 -44 150 -208q0 -108 -77 -188q-90 -93 -226 -93q-90 0 -145 32q-49 27 -50 72z" />
<glyph unicode="&#xb4;" horiz-adv-x="591" d="M153 1101q0 13 5 23l140 320q7 13 26 13q36 0 65 -23.5t29 -36.5q0 -3 -2 -8l-186 -296q-19 -30 -48 -30t-29 38z" />
<glyph unicode="&#xb5;" horiz-adv-x="1150" d="M48 845.5q0 29.5 18 29.5q66 0 162 9t108.5 9t12.5 -10t-4 -64.5t-4 -120.5v-436q0 -193 175 -193q289 0 289 227v368q0 152 -114 152q-17 0 -17 29.5t17 29.5q70 0 157 9t105 9t18 -14t-3 -67.5t-3 -111.5v-434q0 -134 27 -156.5t54 -22.5q29 0 40 2.5t20 2.5 q8 0 12 -16.5t4 -29.5q0 -12 -10 -14q-160 -29 -283 -64q-24 0 -24 49v42q0 31 -12 31t-31 -17q-106 -97 -287 -97q-87 0 -149 41q-9 -65 -9 -144t4.5 -143.5t4.5 -129.5q0 -112 -104 -112q-92 0 -92 100t25.5 269.5t25.5 453.5v353q0 152 -115 152q-18 0 -18 29.5z" />
<glyph unicode="&#xb6;" horiz-adv-x="1036" d="M17 1140q0 172 131 273q130 101 323 101q89 0 199 -2t160 -2q49 0 162 6q15 0 15 -29q0 -30 -15 -30q-123 0 -123 -80v-1245q0 -81 123 -81q15 0 15 -30q0 -29 -15 -29q-86 8 -163 8h-266q-86 0 -177 -8q-15 0 -15 29q0 30 15 30q120 0 120 79v541q0 49 -53 52 q-227 13 -331 129q-105 115 -105 288zM603 132q0 -81 85 -81t85 79v1247q0 77 -85 77t-85 -77v-1245z" />
<glyph unicode="&#xb7;" horiz-adv-x="774" d="M245 648q0 53 37.5 85t95 32t88.5 -38.5t31 -91t-36 -84t-91 -31.5t-90 37.5t-35 90.5z" />
<glyph unicode="&#xb8;" horiz-adv-x="766" d="M211 -396q0 55 53 55q24 0 60 -31q38 -30 52 -30q59 0 59 69q0 71 -111 129q-19 11 -19 21q0 9 5 18l112 165h76l-60 -83q-5 -7 -5 -15t11 -16q112 -76 112 -165q0 -88 -69 -140q-70 -52 -152 -52q-124 0 -124 75z" />
<glyph unicode="&#xb9;" horiz-adv-x="655" d="M96 1244q0 8 7 11q90 38 217 133q17 13 30 13q28 0 28 -25t-3 -49t-3 -59v-548q0 -132 102 -134q10 0 10 -23.5t-10 -23.5q-50 4 -177 4q-126 0 -176 -4q-11 0 -11 23q0 24 11 24q110 0 110 133v503q0 35 -9 35q-8 0 -36 -10q-28 -9 -68 -29q-4 -1 -7 -1q-9 0 -13 14 q-2 8 -2 13z" />
<glyph unicode="&#xba;" horiz-adv-x="643" d="M42 802q0 113 75 199.5t208.5 86.5t206 -87.5t72.5 -203.5t-75 -191.5t-198 -75.5t-206 79t-83 193zM199 799q0 -108 39 -162t91 -54t84.5 66.5t32.5 169t-39 162t-87 59.5t-84.5 -66.5t-36.5 -174.5z" />
<glyph unicode="&#xbb;" horiz-adv-x="820" d="M59 808q0 10 12 20q10 9 17 9q8 0 14 -5l311 -324q25 -26 25 -56q0 -29 -25 -55l-311 -324q-5 -5 -13 -5q-7 0 -18 9q-11 8 -11 18q0 5 3 9l205 306q13 18 13 42t-13 43l-205 302q-4 5 -4 11zM379 809q0 8 10 19q11 9 19 9t13 -5l311 -324q25 -26 25 -56q0 -29 -25 -55 l-311 -324q-5 -5 -11 -5q-8 0 -19 9q-11 8 -11 18q0 4 3 9l205 306q12 18 12 42t-12 43l-205 302q-4 5 -4 12z" />
<glyph unicode="&#xbc;" horiz-adv-x="1569" d="M110 1302q0 9 8 13q97 40 235 143q17 14 33 14q29 0 29 -26q0 -27 -3 -53q-2 -26 -2 -65v-594q0 -143 110 -144q10 0 10 -26q0 -25 -10 -25q-54 4 -191 4q-138 0 -192 -4q-10 0 -10 25q0 26 10 26q119 0 119 143v545q0 39 -10 39q-7 0 -38 -11q-30 -11 -75 -32 q-3 -1 -6 -1q-11 0 -15 16q-2 8 -2 13zM321 74q0 2 1 3l924 1405q4 6 10 6q11 0 29 -12q24 -16 24 -26q0 -3 -1 -5l-926 -1409q-3 -4 -9 -4q-10 0 -29 14q-23 17 -23 28zM915 290q0 33 36 82l195 259q127 169 161 223l64 101q10 12 29 12q57 0 58 -36q0 -6 -3 -12l-417 -551 q-6 -8 -6 -14q0 -13 12 -13h241v289q0 15 76 15q78 0 78 -15v-289h84q10 0 10 -45t-10 -45h-84v-146q0 -59 69 -59q10 0 10 -25q0 -26 -10 -26q-54 5 -140 5q-121 0 -178 -5q-11 0 -11 26q0 25 11 25q95 0 95 59v146h-311q-59 0 -59 39z" />
<glyph unicode="&#xbd;" horiz-adv-x="1569" d="M110 1302q0 9 8 13q97 40 235 143q17 14 33 14q29 0 29 -26q0 -27 -3 -53q-2 -26 -2 -65v-594q0 -143 110 -144q10 0 10 -26q0 -25 -10 -25q-54 4 -191 4q-138 0 -192 -4q-10 0 -10 25q0 26 10 26q119 0 119 143v545q0 39 -10 39q-7 0 -38 -11q-30 -11 -75 -32 q-3 -1 -6 -1q-11 0 -15 16q-2 8 -2 13zM318 74q0 2 1 3l924 1405q4 6 10 6q11 0 29 -12q24 -16 24 -26q0 -3 -1 -5l-926 -1409q-4 -4 -9 -4q-10 0 -29 14q-23 17 -23 28zM918 27q0 15 14 27q108 108 212 250q172 236 172 356q0 139 -116 139q-100 0 -163 -112q-4 -7 -12 -7 q-7 0 -20 8q-14 9 -14 16q0 3 2 7q55 107 142 156q56 32 119 32q110 0 176 -74q58 -66 59 -158q0 -125 -186 -337q-39 -45 -195 -200h199q78 0 106 12q31 14 53 55q5 8 15 8q9 0 22 -6q22 -11 22 -18q0 -2 -1 -4l-66 -156q-11 -25 -53 -25q-46 0 -89 2q-44 2 -77 2h-54 q-55 -2 -112 -3t-119 -1q-36 0 -36 31z" />
<glyph unicode="&#xbe;" horiz-adv-x="1569" d="M31 635q0 67 83 67q32 0 65 -37l34 -42q32 -32 69 -32q70 0 106 91q23 61 23 131q0 92 -56 144q-45 43 -112 43q-40 0 -73 -12q-20 0 -20 40q0 35 15 35q105 0 166 57q47 45 47 109q0 69 -38 108q-26 27 -66 27q-63 0 -116 -57q-21 -23 -37 -49q-3 -7 -12 -7t-23 12 q-12 9 -12 18q0 3 2 8q65 97 125 132q54 32 118 32q92 0 155 -65q58 -59 58 -142q0 -119 -118 -187q164 -48 164 -229q0 -119 -85 -207q-98 -102 -248 -102q-98 0 -159 34q-54 31 -55 80zM321 74q0 2 1 3l924 1405q4 6 10 6q11 0 29 -12q24 -16 24 -26q0 -3 -1 -5 l-926 -1409q-3 -4 -9 -4q-10 0 -29 14q-23 17 -23 28zM915 290q0 33 36 82l195 259q127 169 161 223l64 101q10 12 29 12q57 0 58 -36q0 -6 -3 -12l-417 -551q-6 -8 -6 -14q0 -13 12 -13h241v289q0 15 76 15q78 0 78 -15v-289h84q10 0 10 -45t-10 -45h-84v-146q0 -59 69 -59 q10 0 10 -25.5t-10 -25.5q-54 5 -140 5q-121 0 -178 -5q-11 0 -11 25.5t11 25.5q95 0 95 59v146h-311q-59 0 -59 39z" />
<glyph unicode="&#xbf;" horiz-adv-x="587" d="M98 248q0 99 95 146l114 57q65 35 65 71q0 28 -18 85q-5 13 16 19q20 6 28 -4q75 -106 75 -173q0 -85 -103 -128l-134 -61q-61 -26 -61 -62q0 -113 253 -113q17 0 40 -21q24 -21 24 -58q0 -34 -22 -56q-21 -23 -61 -23q-118 0 -215 100q-96 101 -96 221zM250 836 q0 48 33 81q33 34 81 34q47 0 79 -34q33 -33 33 -81q0 -47 -33 -79q-32 -33 -79 -33q-48 0 -81 33q-33 32 -33 79z" />
<glyph unicode="&#xc0;" horiz-adv-x="1043" d="M-12 27.5q0 33.5 14 33.5q108 0 145 95l262 690q9 23 9 28t-8 12.5t-8 17.5t24.5 19.5t71.5 38t63 28.5q22 0 32 -37t35 -114l248 -694q33 -84 142 -84q15 0 15 -33.5t-15 -33.5q-63 6 -181.5 6t-182.5 -6q-15 0 -15 33.5t15 33.5q68 0 68 48q0 16 -6 36l-70 211 q-7 16 -26 16h-294q-17 0 -23 -18l-79 -212q-6 -14 -6 -27q0 -54 104 -54q15 0 15 -33.5t-16 -33.5q-63 6 -159 6t-160 -6q-14 0 -14 33.5zM341 458q-11 -23 15 -23h234q28 0 19 25l-111 330q-4 15 -16.5 15t-17.5 -13zM395 1395q5 24 25 44q22 24 53 17q11 -3 18 -12 l178 -249q9 -15 9 -35q0 -16 -26 -16q-11 3 -25 15l-225 202q-11 11 -7 34z" />
<glyph unicode="&#xc1;" horiz-adv-x="1043" d="M-12 27.5q0 33.5 14 33.5q108 0 145 95l262 690q9 23 9 28t-8 12.5t-8 17.5t24.5 19.5t71.5 38t63 28.5q22 0 32 -37t35 -114l248 -694q33 -84 142 -84q15 0 15 -33.5t-15 -33.5q-63 6 -181.5 6t-182.5 -6q-15 0 -15 33.5t15 33.5q68 0 68 48q0 16 -6 36l-70 211 q-7 16 -26 16h-294q-17 0 -23 -18l-79 -212q-6 -14 -6 -27q0 -54 104 -54q15 0 15 -33.5t-16 -33.5q-63 6 -159 6t-160 -6q-14 0 -14 33.5zM341 458q-11 -23 15 -23h234q28 0 19 25l-111 330q-4 15 -16.5 15t-17.5 -13zM382 1159q0 19 9 35l177 248q8 10 19 13q31 7 53 -17 q19 -20 25 -44q4 -23 -8 -34l-224 -202q-14 -12 -25 -15q-26 0 -26 16z" />
<glyph unicode="&#xc2;" horiz-adv-x="1043" d="M-12 27.5q0 33.5 14 33.5q108 0 145 95l262 690q9 23 9 28t-8 12.5t-8 17.5t24.5 19.5t71.5 38t63 28.5q22 0 32 -37t35 -114l248 -694q33 -84 142 -84q15 0 15 -33.5t-15 -33.5q-63 6 -181.5 6t-182.5 -6q-15 0 -15 33.5t15 33.5q68 0 68 48q0 16 -6 36l-70 211 q-7 16 -26 16h-294q-17 0 -23 -18l-79 -212q-6 -14 -6 -27q0 -54 104 -54q15 0 15 -33.5t-16 -33.5q-63 6 -159 6t-160 -6q-14 0 -14 33.5zM315 1155q0 7 3 11l183 264q17 24 31 24q16 0 32 -23l185 -264q2 -3 2 -9t-5.5 -14.5t-10.5 -8.5q-2 0 -4 1l-174 155q-12 9 -23 9 q-13 0 -25 -9l-170 -157q-3 -2 -5 -2q-7 0 -13 8t-6 15zM341 458q-11 -23 15 -23h234q28 0 19 25l-111 330q-4 15 -16.5 15t-17.5 -13z" />
<glyph unicode="&#xc3;" horiz-adv-x="1043" d="M-12 27.5q0 33.5 14 33.5q108 0 145 95l262 690q9 23 9 28t-8 12.5t-8 17.5t24.5 19.5t71.5 38t63 28.5q22 0 32 -37t35 -114l248 -694q33 -84 142 -84q15 0 15 -33.5t-15 -33.5q-63 6 -181.5 6t-182.5 -6q-15 0 -15 33.5t15 33.5q68 0 68 48q0 16 -6 36l-70 211 q-7 16 -26 16h-294q-17 0 -23 -18l-79 -212q-6 -14 -6 -27q0 -54 104 -54q15 0 15 -33.5t-16 -33.5q-63 6 -159 6t-160 -6q-14 0 -14 33.5zM192 1160q0 3 2 4q96 148 208 150q49 0 132 -31.5t122 -31.5q60 0 121 61q3 4 9 10q3 3 6 3q8 0 18 -11q5 -6 5 -10q0 -2 -1 -3 q-103 -158 -211 -158q-40 0 -133.5 32.5t-130.5 32.5q-65 0 -120 -63q-3 -4 -7 -4q-6 0 -14 8q-6 5 -6 11zM341 458q-11 -23 15 -23h234q28 0 19 25l-111 330q-4 15 -16.5 15t-17.5 -13z" />
<glyph unicode="&#xc4;" horiz-adv-x="1043" d="M-12 27.5q0 33.5 14 33.5q108 0 145 95l262 690q9 23 9 28t-8 12.5t-8 17.5t24.5 19.5t71.5 38t63 28.5q22 0 32 -37t35 -114l248 -694q33 -84 142 -84q15 0 15 -33.5t-15 -33.5q-63 6 -181.5 6t-182.5 -6q-15 0 -15 33.5t15 33.5q68 0 68 48q0 16 -6 36l-70 211 q-7 16 -26 16h-294q-17 0 -23 -18l-79 -212q-6 -14 -6 -27q0 -54 104 -54q15 0 15 -33.5t-16 -33.5q-63 6 -159 6t-160 -6q-14 0 -14 33.5zM218 1244q0 42 30 72.5t72 30.5t72 -30.5t30 -72.5t-30 -71.5t-72 -29.5t-72 29.5t-30 71.5zM341 458q-11 -23 15 -23h234 q28 0 19 25l-111 330q-4 15 -16.5 15t-17.5 -13zM614 1244q0 42 29.5 72.5t72 30.5t72 -30.5t29.5 -72.5t-29.5 -71.5t-72 -29.5t-72 29.5t-29.5 71.5z" />
<glyph unicode="&#xc5;" horiz-adv-x="1044" d="M-12 27q0 34 14 34q109 0 145 95l262 690q8 20 8 28q0 6 -4 10q-12 12 -12 21q0 8 11 13q4 2 10 4q29 10 87 47q35 21 52 21q22 0 33 -43q8 -32 34 -108l248 -694q12 -36 51 -60t91 -24q14 0 14 -34q0 -33 -14 -33q-63 6 -182 6q-118 0 -182 -6q-14 0 -14 33q0 34 14 34 q68 0 68 48q0 16 -6 36l-70 211q-7 16 -26 16h-294q-17 0 -23 -18l-79 -212q-6 -14 -6 -26q0 -53 103 -55q15 0 15 -34q0 -33 -15 -33q-63 6 -159 6q-95 0 -160 -6q-14 0 -14 33zM307 1280q0 109 94 169q53 33 119 33q124 0 184 -100q29 -48 29 -102q0 -109 -94 -169 q-53 -34 -119 -34q-124 0 -185 101q-28 47 -28 102zM341 458q-10 -23 15 -23h234q29 0 19 25l-111 330q-7 22 -24 13q-6 -3 -10 -11zM407 1280q0 -91 69 -122q21 -10 44 -10q77 0 104 77q8 26 8 55q0 91 -68 123q-21 9 -44 9q-73 0 -103 -76q-10 -26 -10 -56z" />
<glyph unicode="&#xc6;" horiz-adv-x="1362" d="M-77 27.5q0 33.5 18 33.5q53 0 81.5 19.5t60.5 70.5l409 690q12 23 12 37q0 8 -8 16.5t-51 8.5q-14 0 -14 33t14 33q136 -4 281.5 -4t255.5 2t167.5 2t66.5 -7t9 -37v-203q0 -13 -36.5 -13t-36.5 13q0 83 -53 131t-111 50l-200 4q-22 0 -22 -29v-369q0 -21 22 -21h192 q55 0 55 126q0 16 34 16t34 -16q-6 -39 -6 -150.5t6 -150.5q0 -15 -34 -15t-34 15q0 115 -55 115h-192q-22 0 -22 -23v-209q0 -58 28.5 -99.5t85.5 -41.5l175 6q46 2 100.5 50.5t54.5 128.5q0 14 36 14t36 -14v-204q0 -25 -18 -33.5t-40.5 -8.5t-193 3t-317.5 3t-209 -6 q-14 0 -14 33.5t14 33.5q59 0 84.5 15.5t25.5 61.5v269q0 21 -20 21h-247q-21 0 -26 -13l-155 -281q-19 -33 -19 -47.5t15 -20t102 -5.5q17 0 17 -33.5t-17 -33.5q-63 6 -161.5 6t-161.5 -6q-18 0 -18 33.5zM378 494q4 -6 12 -6h202q22 0 22 21v355q0 16 -10 16t-21 -16 l-203 -355q-6 -9 -2 -15zM808 -313q0 65 51 95q27 15 59 15q62 0 95 -49q19 -28 19 -61q0 -59 -50 -94q-28 -19 -64 -19q-62 0 -93 52q-17 28 -17 61z" />
<glyph unicode="&#xc7;" horiz-adv-x="1004" d="M61 462q0 226 147.5 376t379.5 150q95 0 262 -33q26 -5 55 -5q13 -28 21.5 -109t8.5 -125q0 -13 -33 -15t-35 10q-26 216 -284 216q-166 0 -257.5 -123t-91.5 -302q0 -118 33.5 -209.5t86.5 -143t110.5 -77t116.5 -25.5q248 0 313 198q5 15 38 6t31 -23 q-4 -32 -27.5 -101.5t-45.5 -100.5q-51 -9 -63 -14q-99 -28 -222 -31l-60 -83q82 -50 115 -115q17 -34 17 -66q0 -86 -81 -143q-64 -45 -140 -45q-93 0 -118 49q-6 12 -6 26q0 31 26 48q12 7 27 7q22 0 67 -37q32 -24 45 -24q40 0 53 36q5 12 5 29q0 83 -140 148l116 171 q-190 13 -323 139q-146 139 -147 341z" />
<glyph unicode="&#xc8;" horiz-adv-x="934" d="M51 936q0 33 18 33q127 -4 195 -4q158 0 318 2t170 2q49 0 61 -6q14 -6 14 -30v-220q0 -12 -37 -12q-36 0 -36 12q0 82 -52 130q-52 49 -108 51l-232 9q-19 0 -19 -29v-362q0 -22 21 -22h160q88 0 88 63v73q0 17 37 17q36 0 36 -17q-4 -25 -4 -166q0 -137 4 -162 q0 -17 -36 -17q-37 0 -37 17v62q0 64 -88 64h-160q-21 0 -21 -22v-244q0 -48 41 -73q40 -24 95 -24l155 5q161 5 161 179q0 13 36 13t36 -13v-204q0 -33 -12 -40q-14 -7 -71 -7q-9 0 -244 3t-272 3q-2 0 -193 -6q-16 0 -16 33q0 34 16 34q114 0 114 84v680q0 78 -120 78 q-18 0 -18 33zM303 1394q5 24 25 44q21 24 53 17q10 -3 17 -13l178 -248q10 -15 10 -35q0 -16 -26 -16q-12 3 -25 15l-225 202q-12 11 -7 34z" />
<glyph unicode="&#xc9;" horiz-adv-x="934" d="M51 936q0 33 18 33q127 -4 195 -4q158 0 318 2t170 2q49 0 61 -6q14 -6 14 -30v-220q0 -12 -37 -12q-36 0 -36 12q0 82 -52 130q-52 49 -108 51l-232 9q-19 0 -19 -29v-362q0 -22 21 -22h160q88 0 88 63v73q0 17 37 17q36 0 36 -17q-4 -25 -4 -166q0 -137 4 -162 q0 -17 -36 -17q-37 0 -37 17v62q0 64 -88 64h-160q-21 0 -21 -22v-244q0 -48 41 -73q40 -24 95 -24l155 5q161 5 161 179q0 13 36 13t36 -13v-204q0 -33 -12 -40q-14 -7 -71 -7q-9 0 -244 3t-272 3q-2 0 -193 -6q-16 0 -16 33q0 34 16 34q114 0 114 84v680q0 78 -120 78 q-18 0 -18 33zM392 1159q0 19 9 35l177 248q9 10 19 13q31 7 53 -17q20 -20 25 -44q4 -23 -7 -34l-225 -202q-13 -12 -25 -15q-26 0 -26 16z" />
<glyph unicode="&#xca;" horiz-adv-x="934" d="M51 936q0 33 18 33q127 -4 195 -4q158 0 318 2t170 2q49 0 61 -6q14 -6 14 -30v-220q0 -12 -37 -12q-36 0 -36 12q0 82 -52 130q-52 49 -108 51l-232 9q-19 0 -19 -29v-362q0 -22 21 -22h160q88 0 88 63v73q0 17 37 17q36 0 36 -17q-4 -25 -4 -166q0 -137 4 -162 q0 -17 -36 -17q-37 0 -37 17v62q0 64 -88 64h-160q-21 0 -21 -22v-244q0 -48 41 -73q40 -24 95 -24l155 5q161 5 161 179q0 13 36 13t36 -13v-204q0 -33 -12 -40q-14 -7 -71 -7q-9 0 -244 3t-272 3q-2 0 -193 -6q-16 0 -16 33q0 34 16 34q114 0 114 84v680q0 78 -120 78 q-18 0 -18 33zM261 1154q0 7 3 11l183 264q17 24 31 24q16 0 32 -23l185 -264q2 -3 2 -9t-5.5 -14.5t-10.5 -8.5q-2 0 -4 1l-174 155q-12 9 -24 9t-25 -9l-169 -157q-3 -3 -5 -3q-8 0 -13.5 8.5t-5.5 15.5z" />
<glyph unicode="&#xcb;" horiz-adv-x="934" d="M51 936q0 33 18 33q127 -4 195 -4q158 0 318 2t170 2q49 0 61 -6q14 -6 14 -30v-220q0 -12 -37 -12q-36 0 -36 12q0 82 -52 130q-52 49 -108 51l-232 9q-19 0 -19 -29v-362q0 -22 21 -22h160q88 0 88 63v73q0 17 37 17q36 0 36 -17q-4 -25 -4 -166q0 -137 4 -162 q0 -17 -36 -17q-37 0 -37 17v62q0 64 -88 64h-160q-21 0 -21 -22v-244q0 -48 41 -73q40 -24 95 -24l155 5q161 5 161 179q0 13 36 13t36 -13v-204q0 -33 -12 -40q-14 -7 -71 -7q-9 0 -244 3t-272 3q-2 0 -193 -6q-16 0 -16 33q0 34 16 34q114 0 114 84v680q0 78 -120 78 q-18 0 -18 33zM190 1244q0 42 30 72.5t72 30.5t72 -30.5t30 -72.5t-30 -71.5t-72 -29.5t-72 29.5t-30 71.5zM586 1244q0 42 29.5 72.5t72 30.5t72 -30.5t29.5 -72.5t-29.5 -71.5t-72 -29.5t-72 29.5t-29.5 71.5z" />
<glyph unicode="&#xcc;" horiz-adv-x="565" d="M69 27.5q0 33.5 16 33.5q116 0 116 84v680q0 82 -114 82q-14 0 -14 33t14 33q43 -4 192 -4t192 4q15 0 15 -33t-15 -33q-117 0 -117 -82v-680q0 -84 113 -84q15 0 15 -33.5t-15 -33.5q-65 6 -191.5 6t-190.5 -6q-16 0 -16 33.5zM124 1394q5 24 25 44q22 24 53 17 q10 -3 17 -13l178 -248q10 -15 10 -35q0 -16 -26 -16q-12 3 -25 15l-225 202q-11 11 -7 34z" />
<glyph unicode="&#xcd;" horiz-adv-x="565" d="M69 27.5q0 33.5 16 33.5q116 0 116 84v680q0 82 -114 82q-14 0 -14 33t14 33q43 -4 192 -4t192 4q15 0 15 -33t-15 -33q-117 0 -117 -82v-680q0 -84 113 -84q15 0 15 -33.5t-15 -33.5q-65 6 -191.5 6t-190.5 -6q-16 0 -16 33.5zM194 1160q0 19 10 35l177 249q8 9 18 12 q32 7 53 -17q20 -20 25 -44q5 -23 -7 -34l-225 -202q-13 -12 -25 -15q-26 0 -26 16z" />
<glyph unicode="&#xce;" horiz-adv-x="565" d="M57 1154q0 7 3 11l183 264q17 24 32 24t31 -23l185 -264q2 -3 2 -9t-5 -14.5t-11 -8.5q-2 0 -4 1l-173 155q-13 9 -24 9q-13 0 -25 -9l-170 -157q-3 -3 -5 -3q-7 0 -13 8.5t-6 15.5zM69 27.5q0 33.5 16 33.5q116 0 116 84v680q0 82 -114 82q-14 0 -14 33t14 33 q43 -4 192 -4t192 4q15 0 15 -33t-15 -33q-117 0 -117 -82v-680q0 -84 113 -84q15 0 15 -33.5t-15 -33.5q-65 6 -191.5 6t-190.5 -6q-16 0 -16 33.5z" />
<glyph unicode="&#xcf;" horiz-adv-x="565" d="M-14 1245.5q0 42.5 30 72.5t72 30t72 -30t30 -72.5t-30 -72t-72 -29.5t-72 29.5t-30 72zM69 27.5q0 33.5 16 33.5q116 0 116 84v680q0 82 -114 82q-14 0 -14 33t14 33q43 -4 192 -4t192 4q15 0 15 -33t-15 -33q-117 0 -117 -82v-680q0 -84 113 -84q15 0 15 -33.5 t-15 -33.5q-65 6 -191.5 6t-190.5 -6q-16 0 -16 33.5zM382 1245.5q0 42.5 29.5 72.5t72 30t72.5 -30t30 -72.5t-30 -72t-72.5 -29.5t-72 29.5t-29.5 72z" />
<glyph unicode="&#xd0;" horiz-adv-x="860" d="M123 387q0 280 195 490t405 210q56 0 139 -26q-24 157 -71 286l-204 -105q-13 -5 -40 42t-11 53l214 110q-45 94 -105 169q-14 19 35 52.5t65 16.5q77 -77 134 -172l215 109q14 8 33.5 -32t19.5 -50.5t-2 -12.5l-215 -109q112 -245 112 -585q0 -395 -167 -631t-447 -236 q-305 0 -305 421zM277 275q0 -202 180 -202q130 0 274 245t144 482q0 180 -170 180q-128 0 -278 -240t-150 -465z" />
<glyph unicode="&#xd1;" horiz-adv-x="1100" d="M43 940q0 33 14 33q43 -4 116 -4h48.5t42 -9.5t41.5 -32.5l518 -631q8 -11 18.5 -14t18 2.5t7.5 13.5v525q0 53 -27 68.5t-82 15.5q-16 0 -16 33t16 33q43 -4 139.5 -4t139.5 4q15 0 15 -33t-15 -33q-51 0 -74.5 -19t-23.5 -65v-768q0 -70 -21.5 -70t-53.5 41l-585 698 q-11 13 -17 11t-6 -15v-575q0 -41 32.5 -62.5t75.5 -21.5q16 0 16 -33.5t-16 -33.5q-63 6 -147.5 6t-147.5 -6q-18 0 -18 33.5t18 33.5q112 0 112 84v635q0 76 -23.5 101.5t-100.5 25.5q-14 0 -14 33zM242 1161q0 3 2 4q96 149 208 150q49 0 132 -31.5t122 -31.5 q59 0 121 62l9 9q3 3 6 3q8 0 18 -11q5 -6 5 -10q0 -2 -1 -3q-103 -158 -211 -158q-40 0 -133.5 33t-130.5 33q-66 0 -120 -64q-3 -4 -7 -4q-6 0 -14 8q-6 5 -6 11z" />
<glyph unicode="&#xd2;" horiz-adv-x="1103" d="M61 475q0 190 124 338q145 175 368 175q175 0 303 -110q185 -160 185 -405q0 -156 -102 -296q-147 -196 -390 -196q-147 0 -287 90q-81 51 -141 158.5t-60 245.5zM234 518q0 -220 105.5 -345.5t221.5 -125.5q80 0 140.5 34t92 81t49 110t22 106.5t4.5 85.5 q0 192 -101 327.5t-219 135.5q-138 0 -226.5 -115t-88.5 -294zM389 1394q5 24 25 44q22 24 53 17q10 -3 18 -13l177 -248q10 -15 10 -35q0 -16 -26 -16q-12 3 -25 15l-225 202q-11 11 -7 34z" />
<glyph unicode="&#xd3;" horiz-adv-x="1103" d="M61 475q0 190 124 338q145 175 368 175q175 0 303 -110q185 -160 185 -405q0 -156 -102 -296q-147 -196 -390 -196q-147 0 -287 90q-81 51 -141 158.5t-60 245.5zM234 518q0 -220 105.5 -345.5t221.5 -125.5q80 0 140.5 34t92 81t49 110t22 106.5t4.5 85.5 q0 192 -101 327.5t-219 135.5q-138 0 -226.5 -115t-88.5 -294zM450 1159q0 19 10 35l176 248q9 10 19 13q31 7 53 -17q20 -20 25 -44q4 -23 -7 -34l-225 -202q-13 -12 -25 -15q-26 0 -26 16z" />
<glyph unicode="&#xd4;" horiz-adv-x="1103" d="M61 475q0 190 124 338q145 175 368 175q175 0 303 -110q185 -160 185 -405q0 -156 -102 -296q-147 -196 -390 -196q-147 0 -287 90q-81 51 -141 158.5t-60 245.5zM234 518q0 -220 105.5 -345.5t221.5 -125.5q80 0 140.5 34t92 81t49 110t22 106.5t4.5 85.5 q0 192 -101 327.5t-219 135.5q-138 0 -226.5 -115t-88.5 -294zM326 1155q0 7 3 11l183 264q16 24 31 24t31 -23l185 -264q2 -3 2 -9t-5 -14.5t-10 -8.5q-2 0 -4 1l-174 155q-13 9 -24 9q-13 0 -25 -9l-170 -157q-3 -2 -5 -2q-7 0 -12.5 8t-5.5 15z" />
<glyph unicode="&#xd5;" horiz-adv-x="1103" d="M61 475q0 190 124 338q145 175 368 175q175 0 303 -110q185 -160 185 -405q0 -156 -102 -296q-147 -196 -390 -196q-147 0 -287 90q-81 51 -141 158.5t-60 245.5zM234 518q0 -220 105.5 -345.5t221.5 -125.5q80 0 140.5 34t92 81t49 110t22 106.5t4.5 85.5 q0 192 -101 327.5t-219 135.5q-138 0 -226.5 -115t-88.5 -294zM244 1160q0 3 2 4q96 148 208 150q49 0 132 -31.5t122 -31.5q60 0 121 61q3 4 9 10q3 3 6 3q8 0 18 -11q5 -6 5 -10q0 -2 -1 -3q-103 -158 -211 -158q-40 0 -133.5 32.5t-130.5 32.5q-65 0 -120 -63 q-3 -4 -7 -4q-6 0 -14 8q-6 5 -6 11z" />
<glyph unicode="&#xd6;" horiz-adv-x="1103" d="M61 475q0 190 124 338q145 175 368 175q175 0 303 -110q185 -160 185 -405q0 -156 -102 -296q-147 -196 -390 -196q-147 0 -287 90q-81 51 -141 158.5t-60 245.5zM234 518q0 -220 105.5 -345.5t221.5 -125.5q80 0 140.5 34t92 81t49 110t22 106.5t4.5 85.5 q0 192 -101 327.5t-219 135.5q-138 0 -226.5 -115t-88.5 -294zM264 1245.5q0 42.5 29.5 72.5t72 30t72.5 -30t30 -72.5t-30 -72t-72.5 -29.5t-72 29.5t-29.5 72zM659 1245.5q0 42.5 30 72.5t72.5 30t72 -30t29.5 -72.5t-29.5 -72t-72 -29.5t-72.5 29.5t-30 72z" />
<glyph unicode="&#xd7;" horiz-adv-x="817" d="M73 102l250 254l-250 251l89 90l251 -254l254 254l87 -90l-252 -251l252 -254l-87 -90l-254 254l-251 -254z" />
<glyph unicode="&#xd8;" horiz-adv-x="1130" d="M61 475q0 190 124 338q144 175 368 175q135 0 244 -66l67 96q3 5 11 5q13 0 40 -18q41 -29 32 -42l-71 -103q165 -158 165 -387q0 -156 -102 -296q-145 -196 -390 -196q-105 0 -221 53l-21 11l-79 -111q-3 -4 -10 -4q-13 0 -41 17q-42 26 -30 43l77 108q-109 94 -146 245 q-17 64 -17 132zM234 518q0 -172 73 -299l428 614q-91 88 -186 94q-138 0 -228 -117q-87 -115 -87 -292zM370 136q86 -89 191 -89q216 0 282 224q26 88 26 193q0 159 -72 284zM701 -294q0 65 51 94q27 16 59 16q62 0 95 -49q19 -28 19 -61q0 -60 -50 -94q-28 -20 -64 -20 q-62 0 -93 52q-17 28 -17 62z" />
<glyph unicode="&#xd9;" horiz-adv-x="1122" d="M51 940q0 33 18 33q41 -4 193.5 -4t195.5 4q15 0 15 -33t-15 -33q-78 0 -100.5 -17.5t-22.5 -64.5v-335q0 -39 8 -200q2 -75 47 -145q61 -98 208 -98q132 0 199 77q63 74 63 230v471q0 42 -35 62t-75 20q-17 0 -17 33t17 33q42 -4 162.5 -4t162.5 4q16 0 16 -33t-16 -33 q-42 0 -76 -20t-34 -62v-197q0 -193 -8 -296q-14 -176 -111 -266q-96 -85 -273 -85q-109 0 -191 29q-142 53 -177 188q-24 85 -24 190v437q0 47 -27.5 64.5t-84.5 17.5q-18 0 -18 33zM435 1395q5 24 25 44q22 24 53 17q10 -3 17 -12l178 -249q10 -15 10 -35q0 -16 -26 -16 q-12 3 -25 15l-225 202q-11 11 -7 34z" />
<glyph unicode="&#xda;" horiz-adv-x="1122" d="M51 940q0 33 18 33q41 -4 193.5 -4t195.5 4q15 0 15 -33t-15 -33q-78 0 -100.5 -17.5t-22.5 -64.5v-335q0 -39 8 -200q2 -75 47 -145q61 -98 208 -98q132 0 199 77q63 74 63 230v471q0 42 -35 62t-75 20q-17 0 -17 33t17 33q42 -4 162.5 -4t162.5 4q16 0 16 -33t-16 -33 q-42 0 -76 -20t-34 -62v-197q0 -193 -8 -296q-14 -176 -111 -266q-96 -85 -273 -85q-109 0 -191 29q-142 53 -177 188q-24 85 -24 190v437q0 47 -27.5 64.5t-84.5 17.5q-18 0 -18 33zM509 1160q0 19 9 35l177 249q8 9 18 12q32 7 53 -17q20 -20 25 -44q5 -23 -7 -34 l-224 -202q-14 -12 -25 -15q-26 0 -26 16z" />
<glyph unicode="&#xdb;" horiz-adv-x="1122" d="M51 940q0 33 18 33q41 -4 193.5 -4t195.5 4q15 0 15 -33t-15 -33q-78 0 -100.5 -17.5t-22.5 -64.5v-335q0 -39 8 -200q2 -75 47 -145q61 -98 208 -98q132 0 199 77q63 74 63 230v471q0 42 -35 62t-75 20q-17 0 -17 33t17 33q42 -4 162.5 -4t162.5 4q16 0 16 -33t-16 -33 q-42 0 -76 -20t-34 -62v-197q0 -193 -8 -296q-14 -176 -111 -266q-96 -85 -273 -85q-109 0 -191 29q-142 53 -177 188q-24 85 -24 190v437q0 47 -27.5 64.5t-84.5 17.5q-18 0 -18 33zM381 1155q0 7 3 11l183 264q16 24 31 24q16 0 31 -23l185 -264q2 -3 2 -9t-5 -14.5 t-10 -8.5q-2 0 -4 1l-174 155q-13 9 -24 9q-12 0 -25 -9l-169 -157q-4 -2 -6 -2q-7 0 -12.5 8t-5.5 15z" />
<glyph unicode="&#xdc;" horiz-adv-x="1122" d="M51 940q0 33 18 33q41 -4 193.5 -4t195.5 4q15 0 15 -33t-15 -33q-78 0 -100.5 -17.5t-22.5 -64.5v-335q0 -39 8 -200q2 -75 47 -145q61 -98 208 -98q132 0 199 77q63 74 63 230v471q0 42 -35 62t-75 20q-17 0 -17 33t17 33q42 -4 162.5 -4t162.5 4q16 0 16 -33t-16 -33 q-42 0 -76 -20t-34 -62v-197q0 -193 -8 -296q-14 -176 -111 -266q-96 -85 -273 -85q-109 0 -191 29q-142 53 -177 188q-24 85 -24 190v437q0 47 -27.5 64.5t-84.5 17.5q-18 0 -18 33zM305 1245.5q0 42.5 29.5 72.5t71.5 30t72.5 -30t30.5 -72.5t-30.5 -72t-72.5 -29.5 t-71.5 29.5t-29.5 72zM700 1245.5q0 42.5 29.5 72.5t72 30t72.5 -30t30 -72.5t-30 -72t-72.5 -29.5t-72 29.5t-29.5 72z" />
<glyph unicode="&#xdd;" horiz-adv-x="966" d="M-4 940q0 33 16 33q43 -4 177 -4t177 4q18 0 18 -33t-18 -33q-77 0 -77 -38q0 -17 14 -44l185 -297q12 -26 28 0l197 289q15 27 15 46q0 44 -74 44q-15 0 -15 33t15 33q43 -4 159 -4t158 4q17 0 17 -33t-17 -33q-40 0 -68 -8q-27 -9 -57 -40q-31 -30 -41 -46 q-10 -14 -51 -71l-175 -252q-23 -34 -30 -53q-6 -20 -7 -40q-1 -18 -1 -41v-211q0 -47 23 -66q24 -18 82 -18q14 0 14 -34q0 -33 -14 -33q-65 6 -182 6t-181 -6q-15 0 -15 33q0 34 15 34q60 0 83 18q22 17 22 66v209q0 46 -5 62q-7 15 -42 72l-211 337q-53 82 -118 82 q-16 0 -16 33zM459 1160q0 19 9 35l177 249q8 9 19 12q31 7 53 -17q19 -20 25 -44q4 -23 -8 -34l-224 -202q-14 -12 -25 -15q-26 0 -26 16z" />
<glyph unicode="&#xde;" horiz-adv-x="1249" d="M56 -548q0 35 18 35q143 8 143 105v1560q0 146 -115 175q-21 5 -21 34q0 35 21 35q59 0 208 92q53 34 70 46q12 10 21 10q16 0 16 -18q-7 -99 -7 -121v-421q0 -22 20 -25q7 -1 21 9q169 118 234 118q197 0 346 -161.5t149 -377.5q0 -271 -136.5 -423.5t-379.5 -152.5 q-138 0 -208 24q-12 4 -14 3q-32 -13 -32 -42v-361q0 -85 188 -108q18 -2 18 -36t-18 -34q-124 10 -265.5 10t-258.5 -10q-18 0 -18 35zM410 256q0 -205 324 -205q104 0 166.5 142.5t62.5 330.5q0 460 -329 460q-105 0 -199 -125q-25 -33 -25 -117v-486z" />
<glyph unicode="&#xdf;" horiz-adv-x="1564" d="M96 737q0 102 91 185q73 66 209 66q77 0 151 -15q36 -7 57 -7q9 0 14 1q28 -93 36 -194q2 -17 -32 -22t-36 7q-21 83 -70 126q-52 45 -132 45q-79 0 -121 -49q-41 -49 -41 -114q0 -127 200 -180q139 -37 219 -106q79 -69 79 -193q0 -129 -81 -217q-81 -89 -222 -89 q-87 0 -138 14q-51 13 -141 56q-12 36 -26 113q-12 78 -12 111q0 17 35 17t36 -13q6 -88 74 -160t183 -72q62 0 114 45q52 44 52 127q0 62 -30 101q-29 40 -77 59t-107 45q-43 13 -93 38q-49 24 -91 52q-43 29 -71 87q-29 57 -29 136zM878 737q0 102 91 185q73 66 209 66 q77 0 151 -15q37 -7 57 -7q9 0 14 1q28 -93 36 -194q2 -17 -32 -22t-36 7q-21 83 -70 126q-52 45 -132 45q-79 0 -121 -49q-41 -49 -41 -114q0 -127 200 -180q139 -37 219 -106q79 -69 79 -193q0 -129 -81 -217q-80 -89 -222 -89q-87 0 -138 14q-51 13 -141 56 q-12 36 -26 113q-12 78 -12 111q0 17 35 17t36 -13q6 -88 75 -160q67 -72 183 -72q61 0 113 45q52 44 52 127q0 62 -30 101q-29 40 -77 59t-107 45q-43 13 -93 38q-49 24 -91 52q-43 29 -71 87q-29 57 -29 136z" />
<glyph unicode="&#xe0;" horiz-adv-x="1043" d="M-12 27.5q0 33.5 14 33.5q108 0 145 95l262 690q9 23 9 28t-8 12.5t-8 17.5t24.5 19.5t71.5 38t63 28.5q22 0 32 -37t35 -114l248 -694q33 -84 142 -84q15 0 15 -33.5t-15 -33.5q-63 6 -181.5 6t-182.5 -6q-15 0 -15 33.5t15 33.5q68 0 68 48q0 16 -6 36l-70 211 q-7 16 -26 16h-294q-17 0 -23 -18l-79 -212q-6 -14 -6 -27q0 -54 104 -54q15 0 15 -33.5t-16 -33.5q-63 6 -159 6t-160 -6q-14 0 -14 33.5zM341 458q-11 -23 15 -23h234q28 0 19 25l-111 330q-4 15 -16.5 15t-17.5 -13zM395 1395q5 24 25 44q22 24 53 17q11 -3 18 -12 l178 -249q9 -15 9 -35q0 -16 -26 -16q-11 3 -25 15l-225 202q-11 11 -7 34z" />
<glyph unicode="&#xe1;" horiz-adv-x="938" d="M88 748q0 69 35.5 140t87.5 101t129 58.5t169 28.5q88 0 158.5 -51.5t70.5 -119.5v-659q0 -142 83 -142q39 0 89 46l8 2q26 -3 33 -23l4 -14q1 -2 -1 -6q-51 -85 -94.5 -111t-101.5 -26q-115 0 -165 167q-95 -93 -156.5 -130t-153.5 -37q-93 0 -136 65t-43 163 q0 93 59 162.5t121 103.5l263 146q24 13 24 39v224q0 120 -164 120q-119 0 -166 -66q-7 -11 -21 -134q-12 -111 -73 -111q-59 0 -59 64zM269 233q0 -62 32 -106t84 -44q64 0 125 59.5t61 103.5v274q0 27 -17 27q-9 0 -17 -5q-123 -60 -176 -106q-92 -81 -92 -203zM423 1237 q0 12 5 22l141 320q6 13 26 13q35 0 64 -23.5t29 -36.5q0 -3 -2 -7l-186 -297q-18 -30 -47.5 -30t-29.5 39z" />
<glyph unicode="&#xe2;" horiz-adv-x="1043" d="M-12 27.5q0 33.5 14 33.5q108 0 145 95l262 690q9 23 9 28t-8 12.5t-8 17.5t24.5 19.5t71.5 38t63 28.5q22 0 32 -37t35 -114l248 -694q33 -84 142 -84q15 0 15 -33.5t-15 -33.5q-63 6 -181.5 6t-182.5 -6q-15 0 -15 33.5t15 33.5q68 0 68 48q0 16 -6 36l-70 211 q-7 16 -26 16h-294q-17 0 -23 -18l-79 -212q-6 -14 -6 -27q0 -54 104 -54q15 0 15 -33.5t-16 -33.5q-63 6 -159 6t-160 -6q-14 0 -14 33.5zM315 1155q0 7 3 11l183 264q17 24 31 24q16 0 32 -23l185 -264q2 -3 2 -9t-5.5 -14.5t-10.5 -8.5q-2 0 -4 1l-174 155q-12 9 -23 9 q-13 0 -25 -9l-170 -157q-3 -2 -5 -2q-7 0 -13 8t-6 15zM341 458q-11 -23 15 -23h234q28 0 19 25l-111 330q-4 15 -16.5 15t-17.5 -13z" />
<glyph unicode="&#xe3;" horiz-adv-x="1043" d="M-12 27.5q0 33.5 14 33.5q108 0 145 95l262 690q9 23 9 28t-8 12.5t-8 17.5t24.5 19.5t71.5 38t63 28.5q22 0 32 -37t35 -114l248 -694q33 -84 142 -84q15 0 15 -33.5t-15 -33.5q-63 6 -181.5 6t-182.5 -6q-15 0 -15 33.5t15 33.5q68 0 68 48q0 16 -6 36l-70 211 q-7 16 -26 16h-294q-17 0 -23 -18l-79 -212q-6 -14 -6 -27q0 -54 104 -54q15 0 15 -33.5t-16 -33.5q-63 6 -159 6t-160 -6q-14 0 -14 33.5zM192 1160q0 3 2 4q96 148 208 150q49 0 132 -31.5t122 -31.5q60 0 121 61q3 4 9 10q3 3 6 3q8 0 18 -11q5 -6 5 -10q0 -2 -1 -3 q-103 -158 -211 -158q-40 0 -133.5 32.5t-130.5 32.5q-65 0 -120 -63q-3 -4 -7 -4q-6 0 -14 8q-6 5 -6 11zM341 458q-11 -23 15 -23h234q28 0 19 25l-111 330q-4 15 -16.5 15t-17.5 -13z" />
<glyph unicode="&#xe4;" horiz-adv-x="1043" d="M-12 27.5q0 33.5 14 33.5q108 0 145 95l262 690q9 23 9 28t-8 12.5t-8 17.5t24.5 19.5t71.5 38t63 28.5q22 0 32 -37t35 -114l248 -694q33 -84 142 -84q15 0 15 -33.5t-15 -33.5q-63 6 -181.5 6t-182.5 -6q-15 0 -15 33.5t15 33.5q68 0 68 48q0 16 -6 36l-70 211 q-7 16 -26 16h-294q-17 0 -23 -18l-79 -212q-6 -14 -6 -27q0 -54 104 -54q15 0 15 -33.5t-16 -33.5q-63 6 -159 6t-160 -6q-14 0 -14 33.5zM218 1244q0 42 30 72.5t72 30.5t72 -30.5t30 -72.5t-30 -71.5t-72 -29.5t-72 29.5t-30 71.5zM341 458q-11 -23 15 -23h234 q28 0 19 25l-111 330q-4 15 -16.5 15t-17.5 -13zM614 1244q0 42 29.5 72.5t72 30.5t72 -30.5t29.5 -72.5t-29.5 -71.5t-72 -29.5t-72 29.5t-29.5 71.5z" />
<glyph unicode="&#xe5;" horiz-adv-x="1044" d="M-12 27q0 34 14 34q109 0 145 95l262 690q8 20 8 28q0 6 -4 10q-12 12 -12 21q0 8 11 13q4 2 10 4q29 10 87 47q35 21 52 21q22 0 33 -43q8 -32 34 -108l248 -694q12 -36 51 -60t91 -24q14 0 14 -34q0 -33 -14 -33q-63 6 -182 6q-118 0 -182 -6q-14 0 -14 33q0 34 14 34 q68 0 68 48q0 16 -6 36l-70 211q-7 16 -26 16h-294q-17 0 -23 -18l-79 -212q-6 -14 -6 -26q0 -53 103 -55q15 0 15 -34q0 -33 -15 -33q-63 6 -159 6q-95 0 -160 -6q-14 0 -14 33zM307 1280q0 109 94 169q53 33 119 33q124 0 184 -100q29 -48 29 -102q0 -109 -94 -169 q-53 -34 -119 -34q-124 0 -185 101q-28 47 -28 102zM341 458q-10 -23 15 -23h234q29 0 19 25l-111 330q-7 22 -24 13q-6 -3 -10 -11zM407 1280q0 -91 69 -122q21 -10 44 -10q77 0 104 77q8 26 8 55q0 91 -68 123q-21 9 -44 9q-73 0 -103 -76q-10 -26 -10 -56z" />
<glyph unicode="&#xe6;" horiz-adv-x="1375" d="M56 750q0 128 143 228q142 98 268 98t202 -104q15 -21 25 -21q6 0 41 28q124 97 256 97q141 0 226 -52t85 -121q0 -45 -43 -64l-504 -213q-44 -19 -44 -129q0 -128 93 -262q92 -135 216 -135q126 0 252 105q16 13 32 0t16 -20t-8 -21q-133 -192 -396 -192 q-168 0 -283 176q-14 22 -21 22q-6 0 -22 -20q-130 -162 -262 -162q-246 0 -246 210q0 136 64 203q64 69 237 142q172 74 172 122v138q0 188 -167 189q-116 0 -157 -70q-17 -126 -38 -186q-19 -52 -79 -52q-58 0 -58 66zM249 223q0 -144 139 -144q60 0 129 79t69 113 q-3 10 -36 223q-6 44 -26 44q-10 0 -27 -8q-248 -112 -248 -307zM447 -313q0 65 51 95q27 15 59 15q62 0 95 -49q19 -28 19 -61q0 -59 -50 -94q-28 -19 -64 -19q-62 0 -93 52q-17 28 -17 61zM733 734q0 -28 37 -13l332 133q40 15 40 51t-58 71q-58 34 -99 34q-86 0 -147 -69 q-61 -68 -93 -158q-12 -30 -12 -49z" />
<glyph unicode="&#xe7;" horiz-adv-x="1004" d="M61 462q0 226 147.5 376t379.5 150q95 0 262 -33q26 -5 55 -5q13 -28 21.5 -109t8.5 -125q0 -13 -33 -15t-35 10q-26 216 -284 216q-166 0 -257.5 -123t-91.5 -302q0 -118 33.5 -209.5t86.5 -143t110.5 -77t116.5 -25.5q248 0 313 198q5 15 38 6t31 -23 q-4 -32 -27.5 -101.5t-45.5 -100.5q-51 -9 -63 -14q-99 -28 -222 -31l-60 -83q82 -50 115 -115q17 -34 17 -66q0 -86 -81 -143q-64 -45 -140 -45q-93 0 -118 49q-6 12 -6 26q0 31 26 48q12 7 27 7q22 0 67 -37q32 -24 45 -24q40 0 53 36q5 12 5 29q0 83 -140 148l116 171 q-190 13 -323 139q-146 139 -147 341z" />
<glyph unicode="&#xe8;" horiz-adv-x="934" d="M51 936q0 33 18 33q127 -4 195 -4q158 0 318 2t170 2q49 0 61 -6q14 -6 14 -30v-220q0 -12 -37 -12q-36 0 -36 12q0 82 -52 130q-52 49 -108 51l-232 9q-19 0 -19 -29v-362q0 -22 21 -22h160q88 0 88 63v73q0 17 37 17q36 0 36 -17q-4 -25 -4 -166q0 -137 4 -162 q0 -17 -36 -17q-37 0 -37 17v62q0 64 -88 64h-160q-21 0 -21 -22v-244q0 -48 41 -73q40 -24 95 -24l155 5q161 5 161 179q0 13 36 13t36 -13v-204q0 -33 -12 -40q-14 -7 -71 -7q-9 0 -244 3t-272 3q-2 0 -193 -6q-16 0 -16 33q0 34 16 34q114 0 114 84v680q0 78 -120 78 q-18 0 -18 33zM303 1394q5 24 25 44q21 24 53 17q10 -3 17 -13l178 -248q10 -15 10 -35q0 -16 -26 -16q-12 3 -25 15l-225 202q-12 11 -7 34z" />
<glyph unicode="&#xe9;" horiz-adv-x="934" d="M51 936q0 33 18 33q127 -4 195 -4q158 0 318 2t170 2q49 0 61 -6q14 -6 14 -30v-220q0 -12 -37 -12q-36 0 -36 12q0 82 -52 130q-52 49 -108 51l-232 9q-19 0 -19 -29v-362q0 -22 21 -22h160q88 0 88 63v73q0 17 37 17q36 0 36 -17q-4 -25 -4 -166q0 -137 4 -162 q0 -17 -36 -17q-37 0 -37 17v62q0 64 -88 64h-160q-21 0 -21 -22v-244q0 -48 41 -73q40 -24 95 -24l155 5q161 5 161 179q0 13 36 13t36 -13v-204q0 -33 -12 -40q-14 -7 -71 -7q-9 0 -244 3t-272 3q-2 0 -193 -6q-16 0 -16 33q0 34 16 34q114 0 114 84v680q0 78 -120 78 q-18 0 -18 33zM392 1159q0 19 9 35l177 248q9 10 19 13q31 7 53 -17q20 -20 25 -44q4 -23 -7 -34l-225 -202q-13 -12 -25 -15q-26 0 -26 16z" />
<glyph unicode="&#xea;" horiz-adv-x="934" d="M51 936q0 33 18 33q127 -4 195 -4q158 0 318 2t170 2q49 0 61 -6q14 -6 14 -30v-220q0 -12 -37 -12q-36 0 -36 12q0 82 -52 130q-52 49 -108 51l-232 9q-19 0 -19 -29v-362q0 -22 21 -22h160q88 0 88 63v73q0 17 37 17q36 0 36 -17q-4 -25 -4 -166q0 -137 4 -162 q0 -17 -36 -17q-37 0 -37 17v62q0 64 -88 64h-160q-21 0 -21 -22v-244q0 -48 41 -73q40 -24 95 -24l155 5q161 5 161 179q0 13 36 13t36 -13v-204q0 -33 -12 -40q-14 -7 -71 -7q-9 0 -244 3t-272 3q-2 0 -193 -6q-16 0 -16 33q0 34 16 34q114 0 114 84v680q0 78 -120 78 q-18 0 -18 33zM261 1154q0 7 3 11l183 264q17 24 31 24q16 0 32 -23l185 -264q2 -3 2 -9t-5.5 -14.5t-10.5 -8.5q-2 0 -4 1l-174 155q-12 9 -24 9t-25 -9l-169 -157q-3 -3 -5 -3q-8 0 -13.5 8.5t-5.5 15.5z" />
<glyph unicode="&#xeb;" horiz-adv-x="934" d="M51 936q0 33 18 33q127 -4 195 -4q158 0 318 2t170 2q49 0 61 -6q14 -6 14 -30v-220q0 -12 -37 -12q-36 0 -36 12q0 82 -52 130q-52 49 -108 51l-232 9q-19 0 -19 -29v-362q0 -22 21 -22h160q88 0 88 63v73q0 17 37 17q36 0 36 -17q-4 -25 -4 -166q0 -137 4 -162 q0 -17 -36 -17q-37 0 -37 17v62q0 64 -88 64h-160q-21 0 -21 -22v-244q0 -48 41 -73q40 -24 95 -24l155 5q161 5 161 179q0 13 36 13t36 -13v-204q0 -33 -12 -40q-14 -7 -71 -7q-9 0 -244 3t-272 3q-2 0 -193 -6q-16 0 -16 33q0 34 16 34q114 0 114 84v680q0 78 -120 78 q-18 0 -18 33zM190 1244q0 42 30 72.5t72 30.5t72 -30.5t30 -72.5t-30 -71.5t-72 -29.5t-72 29.5t-30 71.5zM586 1244q0 42 29.5 72.5t72 30.5t72 -30.5t29.5 -72.5t-29.5 -71.5t-72 -29.5t-72 29.5t-29.5 71.5z" />
<glyph unicode="&#xec;" horiz-adv-x="565" d="M69 27.5q0 33.5 16 33.5q116 0 116 84v680q0 82 -114 82q-14 0 -14 33t14 33q43 -4 192 -4t192 4q15 0 15 -33t-15 -33q-117 0 -117 -82v-680q0 -84 113 -84q15 0 15 -33.5t-15 -33.5q-65 6 -191.5 6t-190.5 -6q-16 0 -16 33.5zM124 1394q5 24 25 44q22 24 53 17 q10 -3 17 -13l178 -248q10 -15 10 -35q0 -16 -26 -16q-12 3 -25 15l-225 202q-11 11 -7 34z" />
<glyph unicode="&#xed;" horiz-adv-x="565" d="M69 27.5q0 33.5 16 33.5q116 0 116 84v680q0 82 -114 82q-14 0 -14 33t14 33q43 -4 192 -4t192 4q15 0 15 -33t-15 -33q-117 0 -117 -82v-680q0 -84 113 -84q15 0 15 -33.5t-15 -33.5q-65 6 -191.5 6t-190.5 -6q-16 0 -16 33.5zM194 1160q0 19 10 35l177 249q8 9 18 12 q32 7 53 -17q20 -20 25 -44q5 -23 -7 -34l-225 -202q-13 -12 -25 -15q-26 0 -26 16z" />
<glyph unicode="&#xee;" horiz-adv-x="565" d="M57 1154q0 7 3 11l183 264q17 24 32 24t31 -23l185 -264q2 -3 2 -9t-5 -14.5t-11 -8.5q-2 0 -4 1l-173 155q-13 9 -24 9q-13 0 -25 -9l-170 -157q-3 -3 -5 -3q-7 0 -13 8.5t-6 15.5zM69 27.5q0 33.5 16 33.5q116 0 116 84v680q0 82 -114 82q-14 0 -14 33t14 33 q43 -4 192 -4t192 4q15 0 15 -33t-15 -33q-117 0 -117 -82v-680q0 -84 113 -84q15 0 15 -33.5t-15 -33.5q-65 6 -191.5 6t-190.5 -6q-16 0 -16 33.5z" />
<glyph unicode="&#xef;" horiz-adv-x="565" d="M-14 1245.5q0 42.5 30 72.5t72 30t72 -30t30 -72.5t-30 -72t-72 -29.5t-72 29.5t-30 72zM69 27.5q0 33.5 16 33.5q116 0 116 84v680q0 82 -114 82q-14 0 -14 33t14 33q43 -4 192 -4t192 4q15 0 15 -33t-15 -33q-117 0 -117 -82v-680q0 -84 113 -84q15 0 15 -33.5 t-15 -33.5q-65 6 -191.5 6t-190.5 -6q-16 0 -16 33.5zM382 1245.5q0 42.5 29.5 72.5t72 30t72.5 -30t30 -72.5t-30 -72t-72.5 -29.5t-72 29.5t-29.5 72z" />
<glyph unicode="&#xf0;" horiz-adv-x="860" d="M123 387q0 280 195 490t405 210q56 0 139 -26q-24 157 -71 286l-204 -105q-13 -5 -40 42t-11 53l214 110q-45 94 -105 169q-14 19 35 52.5t65 16.5q77 -77 134 -172l215 109q14 8 33.5 -32t19.5 -50.5t-2 -12.5l-215 -109q112 -245 112 -585q0 -395 -167 -631t-447 -236 q-305 0 -305 421zM277 275q0 -202 180 -202q130 0 274 245t144 482q0 180 -170 180q-128 0 -278 -240t-150 -465z" />
<glyph unicode="&#xf1;" horiz-adv-x="1100" d="M43 940q0 33 14 33q43 -4 116 -4h48.5t42 -9.5t41.5 -32.5l518 -631q8 -11 18.5 -14t18 2.5t7.5 13.5v525q0 53 -27 68.5t-82 15.5q-16 0 -16 33t16 33q43 -4 139.5 -4t139.5 4q15 0 15 -33t-15 -33q-51 0 -74.5 -19t-23.5 -65v-768q0 -70 -21.5 -70t-53.5 41l-585 698 q-11 13 -17 11t-6 -15v-575q0 -41 32.5 -62.5t75.5 -21.5q16 0 16 -33.5t-16 -33.5q-63 6 -147.5 6t-147.5 -6q-18 0 -18 33.5t18 33.5q112 0 112 84v635q0 76 -23.5 101.5t-100.5 25.5q-14 0 -14 33zM242 1161q0 3 2 4q96 149 208 150q49 0 132 -31.5t122 -31.5 q59 0 121 62l9 9q3 3 6 3q8 0 18 -11q5 -6 5 -10q0 -2 -1 -3q-103 -158 -211 -158q-40 0 -133.5 33t-130.5 33q-66 0 -120 -64q-3 -4 -7 -4q-6 0 -14 8q-6 5 -6 11z" />
<glyph unicode="&#xf2;" horiz-adv-x="1103" d="M61 475q0 190 124 338q145 175 368 175q175 0 303 -110q185 -160 185 -405q0 -156 -102 -296q-147 -196 -390 -196q-147 0 -287 90q-81 51 -141 158.5t-60 245.5zM234 518q0 -220 105.5 -345.5t221.5 -125.5q80 0 140.5 34t92 81t49 110t22 106.5t4.5 85.5 q0 192 -101 327.5t-219 135.5q-138 0 -226.5 -115t-88.5 -294zM389 1394q5 24 25 44q22 24 53 17q10 -3 18 -13l177 -248q10 -15 10 -35q0 -16 -26 -16q-12 3 -25 15l-225 202q-11 11 -7 34z" />
<glyph unicode="&#xf3;" horiz-adv-x="1103" d="M61 475q0 190 124 338q145 175 368 175q175 0 303 -110q185 -160 185 -405q0 -156 -102 -296q-147 -196 -390 -196q-147 0 -287 90q-81 51 -141 158.5t-60 245.5zM234 518q0 -220 105.5 -345.5t221.5 -125.5q80 0 140.5 34t92 81t49 110t22 106.5t4.5 85.5 q0 192 -101 327.5t-219 135.5q-138 0 -226.5 -115t-88.5 -294zM450 1159q0 19 10 35l176 248q9 10 19 13q31 7 53 -17q20 -20 25 -44q4 -23 -7 -34l-225 -202q-13 -12 -25 -15q-26 0 -26 16z" />
<glyph unicode="&#xf4;" horiz-adv-x="1103" d="M61 475q0 190 124 338q145 175 368 175q175 0 303 -110q185 -160 185 -405q0 -156 -102 -296q-147 -196 -390 -196q-147 0 -287 90q-81 51 -141 158.5t-60 245.5zM234 518q0 -220 105.5 -345.5t221.5 -125.5q80 0 140.5 34t92 81t49 110t22 106.5t4.5 85.5 q0 192 -101 327.5t-219 135.5q-138 0 -226.5 -115t-88.5 -294zM326 1155q0 7 3 11l183 264q16 24 31 24t31 -23l185 -264q2 -3 2 -9t-5 -14.5t-10 -8.5q-2 0 -4 1l-174 155q-13 9 -24 9q-13 0 -25 -9l-170 -157q-3 -2 -5 -2q-7 0 -12.5 8t-5.5 15z" />
<glyph unicode="&#xf5;" horiz-adv-x="1103" d="M61 475q0 190 124 338q145 175 368 175q175 0 303 -110q185 -160 185 -405q0 -156 -102 -296q-147 -196 -390 -196q-147 0 -287 90q-81 51 -141 158.5t-60 245.5zM234 518q0 -220 105.5 -345.5t221.5 -125.5q80 0 140.5 34t92 81t49 110t22 106.5t4.5 85.5 q0 192 -101 327.5t-219 135.5q-138 0 -226.5 -115t-88.5 -294zM244 1160q0 3 2 4q96 148 208 150q49 0 132 -31.5t122 -31.5q60 0 121 61q3 4 9 10q3 3 6 3q8 0 18 -11q5 -6 5 -10q0 -2 -1 -3q-103 -158 -211 -158q-40 0 -133.5 32.5t-130.5 32.5q-65 0 -120 -63 q-3 -4 -7 -4q-6 0 -14 8q-6 5 -6 11z" />
<glyph unicode="&#xf6;" horiz-adv-x="1103" d="M61 475q0 190 124 338q145 175 368 175q175 0 303 -110q185 -160 185 -405q0 -156 -102 -296q-147 -196 -390 -196q-147 0 -287 90q-81 51 -141 158.5t-60 245.5zM234 518q0 -220 105.5 -345.5t221.5 -125.5q80 0 140.5 34t92 81t49 110t22 106.5t4.5 85.5 q0 192 -101 327.5t-219 135.5q-138 0 -226.5 -115t-88.5 -294zM264 1245.5q0 42.5 29.5 72.5t72 30t72.5 -30t30 -72.5t-30 -72t-72.5 -29.5t-72 29.5t-29.5 72zM659 1245.5q0 42.5 30 72.5t72.5 30t72 -30t29.5 -72.5t-29.5 -72t-72 -29.5t-72.5 29.5t-30 72z" />
<glyph unicode="&#xf7;" horiz-adv-x="1093" d="M124 386v104h847v-104h-847zM437 137q0 45 31.5 76.5t76.5 31.5t76.5 -31.5t31.5 -76t-31.5 -76.5t-76.5 -32t-76.5 32t-31.5 76zM437 738q0 45 31.5 77t76.5 32t76.5 -32t31.5 -76.5t-31.5 -76.5t-76.5 -32t-76.5 32t-31.5 76z" />
<glyph unicode="&#xf8;" horiz-adv-x="1130" d="M61 475q0 190 124 338q144 175 368 175q135 0 244 -66l67 96q3 5 11 5q13 0 40 -18q41 -29 32 -42l-71 -103q165 -158 165 -387q0 -156 -102 -296q-145 -196 -390 -196q-105 0 -221 53l-21 11l-79 -111q-3 -4 -10 -4q-13 0 -41 17q-42 26 -30 43l77 108q-109 94 -146 245 q-17 64 -17 132zM234 518q0 -172 73 -299l428 614q-91 88 -186 94q-138 0 -228 -117q-87 -115 -87 -292zM370 136q86 -89 191 -89q216 0 282 224q26 88 26 193q0 159 -72 284zM419 -312q0 66 51 95q27 15 59 15q62 0 95 -49q19 -28 19 -61q0 -59 -50 -94q-28 -19 -64 -19 q-62 0 -93 52q-17 28 -17 61z" />
<glyph unicode="&#xf9;" horiz-adv-x="1122" d="M51 940q0 33 18 33q41 -4 193.5 -4t195.5 4q15 0 15 -33t-15 -33q-78 0 -100.5 -17.5t-22.5 -64.5v-335q0 -39 8 -200q2 -75 47 -145q61 -98 208 -98q132 0 199 77q63 74 63 230v471q0 42 -35 62t-75 20q-17 0 -17 33t17 33q42 -4 162.5 -4t162.5 4q16 0 16 -33t-16 -33 q-42 0 -76 -20t-34 -62v-197q0 -193 -8 -296q-14 -176 -111 -266q-96 -85 -273 -85q-109 0 -191 29q-142 53 -177 188q-24 85 -24 190v437q0 47 -27.5 64.5t-84.5 17.5q-18 0 -18 33zM435 1395q5 24 25 44q22 24 53 17q10 -3 17 -12l178 -249q10 -15 10 -35q0 -16 -26 -16 q-12 3 -25 15l-225 202q-11 11 -7 34z" />
<glyph unicode="&#xfa;" horiz-adv-x="1122" d="M51 940q0 33 18 33q41 -4 193.5 -4t195.5 4q15 0 15 -33t-15 -33q-78 0 -100.5 -17.5t-22.5 -64.5v-335q0 -39 8 -200q2 -75 47 -145q61 -98 208 -98q132 0 199 77q63 74 63 230v471q0 42 -35 62t-75 20q-17 0 -17 33t17 33q42 -4 162.5 -4t162.5 4q16 0 16 -33t-16 -33 q-42 0 -76 -20t-34 -62v-197q0 -193 -8 -296q-14 -176 -111 -266q-96 -85 -273 -85q-109 0 -191 29q-142 53 -177 188q-24 85 -24 190v437q0 47 -27.5 64.5t-84.5 17.5q-18 0 -18 33zM509 1160q0 19 9 35l177 249q8 9 18 12q32 7 53 -17q20 -20 25 -44q5 -23 -7 -34 l-224 -202q-14 -12 -25 -15q-26 0 -26 16z" />
<glyph unicode="&#xfb;" horiz-adv-x="1122" d="M51 940q0 33 18 33q41 -4 193.5 -4t195.5 4q15 0 15 -33t-15 -33q-78 0 -100.5 -17.5t-22.5 -64.5v-335q0 -39 8 -200q2 -75 47 -145q61 -98 208 -98q132 0 199 77q63 74 63 230v471q0 42 -35 62t-75 20q-17 0 -17 33t17 33q42 -4 162.5 -4t162.5 4q16 0 16 -33t-16 -33 q-42 0 -76 -20t-34 -62v-197q0 -193 -8 -296q-14 -176 -111 -266q-96 -85 -273 -85q-109 0 -191 29q-142 53 -177 188q-24 85 -24 190v437q0 47 -27.5 64.5t-84.5 17.5q-18 0 -18 33zM381 1155q0 7 3 11l183 264q16 24 31 24q16 0 31 -23l185 -264q2 -3 2 -9t-5 -14.5 t-10 -8.5q-2 0 -4 1l-174 155q-13 9 -24 9q-12 0 -25 -9l-169 -157q-4 -2 -6 -2q-7 0 -12.5 8t-5.5 15z" />
<glyph unicode="&#xfc;" horiz-adv-x="1122" d="M51 940q0 33 18 33q41 -4 193.5 -4t195.5 4q15 0 15 -33t-15 -33q-78 0 -100.5 -17.5t-22.5 -64.5v-335q0 -39 8 -200q2 -75 47 -145q61 -98 208 -98q132 0 199 77q63 74 63 230v471q0 42 -35 62t-75 20q-17 0 -17 33t17 33q42 -4 162.5 -4t162.5 4q16 0 16 -33t-16 -33 q-42 0 -76 -20t-34 -62v-197q0 -193 -8 -296q-14 -176 -111 -266q-96 -85 -273 -85q-109 0 -191 29q-142 53 -177 188q-24 85 -24 190v437q0 47 -27.5 64.5t-84.5 17.5q-18 0 -18 33zM305 1245.5q0 42.5 29.5 72.5t71.5 30t72.5 -30t30.5 -72.5t-30.5 -72t-72.5 -29.5 t-71.5 29.5t-29.5 72zM700 1245.5q0 42.5 29.5 72.5t72 30t72.5 -30t30 -72.5t-30 -72t-72.5 -29.5t-72 29.5t-29.5 72z" />
<glyph unicode="&#xfd;" horiz-adv-x="966" d="M-4 940q0 33 16 33q43 -4 177 -4t177 4q18 0 18 -33t-18 -33q-77 0 -77 -38q0 -17 14 -44l185 -297q12 -26 28 0l197 289q15 27 15 46q0 44 -74 44q-15 0 -15 33t15 33q43 -4 159 -4t158 4q17 0 17 -33t-17 -33q-40 0 -68 -8q-27 -9 -57 -40q-31 -30 -41 -46 q-10 -14 -51 -71l-175 -252q-23 -34 -30 -53q-6 -20 -7 -40q-1 -18 -1 -41v-211q0 -47 23 -66q24 -18 82 -18q14 0 14 -34q0 -33 -14 -33q-65 6 -182 6t-181 -6q-15 0 -15 33q0 34 15 34q60 0 83 18q22 17 22 66v209q0 46 -5 62q-7 15 -42 72l-211 337q-53 82 -118 82 q-16 0 -16 33zM459 1160q0 19 9 35l177 249q8 9 19 12q31 7 53 -17q19 -20 25 -44q4 -23 -8 -34l-224 -202q-14 -12 -25 -15q-26 0 -26 16z" />
<glyph unicode="&#xfe;" horiz-adv-x="1249" d="M56 -548q0 35 18 35q143 8 143 105v1560q0 146 -115 175q-21 5 -21 34q0 35 21 35q59 0 208 92q53 34 70 46q12 10 21 10q16 0 16 -18q-7 -99 -7 -121v-421q0 -22 20 -25q7 -1 21 9q169 118 234 118q197 0 346 -161.5t149 -377.5q0 -271 -136.5 -423.5t-379.5 -152.5 q-138 0 -208 24q-12 4 -14 3q-32 -13 -32 -42v-361q0 -85 188 -108q18 -2 18 -36t-18 -34q-124 10 -265.5 10t-258.5 -10q-18 0 -18 35zM410 256q0 -205 324 -205q104 0 166.5 142.5t62.5 330.5q0 460 -329 460q-105 0 -199 -125q-25 -33 -25 -117v-486z" />
<glyph unicode="&#xff;" horiz-adv-x="966" d="M-4 940q0 33 16 33q43 -4 177 -4t177 4q18 0 18 -33t-18 -33q-77 0 -77 -38q0 -17 14 -44l185 -297q12 -26 28 0l197 289q15 27 15 46q0 44 -74 44q-15 0 -15 33t15 33q43 -4 159 -4t158 4q17 0 17 -33t-17 -33q-40 0 -68 -8q-27 -9 -57 -40q-31 -30 -41 -46 q-10 -14 -51 -71l-175 -252q-23 -34 -30 -53q-6 -20 -7 -40q-1 -18 -1 -41v-211q0 -47 23 -66q24 -18 82 -18q14 0 14 -34q0 -33 -14 -33q-65 6 -182 6t-181 -6q-15 0 -15 33q0 34 15 34q60 0 83 18q22 17 22 66v209q0 46 -5 62q-7 15 -42 72l-211 337q-53 82 -118 82 q-16 0 -16 33zM198 1244q0 42 29.5 72.5t71.5 30.5t72 -30.5t30 -72.5t-30 -71.5t-72 -29.5t-71.5 29.5t-29.5 71.5zM593 1244q0 42 29.5 72.5t72 30.5t72.5 -30.5t30 -72.5t-30 -71.5t-72.5 -29.5t-72 29.5t-29.5 71.5z" />
<glyph unicode="&#x131;" horiz-adv-x="544" d="M77 21q0 30 15 30q117 0 117 81v462q0 143 -96 143q-17 0 -17 29q0 30 17 30q35 0 101 35q68 35 102 61t46 26t12 -16q-6 -113 -6 -173v-597q0 -81 118 -81q14 0 14 -30q0 -29 -14 -29q-79 8 -195 8q-115 0 -199 -8q-15 0 -15 29z" />
<glyph unicode="&#x152;" horiz-adv-x="1477" d="M59 473q0 182 130 339q131 157 348 157q46 0 135 -2q88 -2 191 -2q102 0 262 2q159 2 170 2q49 0 61 -6q14 -6 14 -30v-220q0 -12 -37 -12q-36 0 -36 12q0 82 -51 129q-52 47 -93 50q-40 4 -132 8q-92 3 -116 3q-19 0 -19 -29v-362q0 -22 21 -22h160q87 0 87 63v73 q0 17 38 17q37 0 37 -17q-4 -25 -4 -164t4 -164q0 -17 -37 -17q-38 0 -38 17v62q0 64 -87 64h-160q-21 0 -21 -22v-244q0 -45 46 -71t90 -26l156 5q159 5 159 179q0 13 37 13q36 0 36 -13v-204q0 -33 -14 -40t-71 -7q-8 0 -237 3q-230 3 -272 3q-41 0 -137 -4t-144 -4 q-137 0 -250 68q-112 69 -169 174t-57 239zM232 512q0 -214 101 -334q102 -121 210 -121q90 0 140 18t50 70v680q0 84 -201 84q-127 0 -214 -112q-86 -114 -86 -285z" />
<glyph unicode="&#x153;" horiz-adv-x="1768" d="M104 525q0 212 144 382q142 169 353 169q219 -1 358 -169q17 -20 31 -41q15 22 31 45q129 165 303 165q177 0 273 -121q98 -121 98 -207q0 -69 -63 -69h-535q-37 0 -37 -81q0 -213 98 -356q97 -142 258 -142q111 0 234 86q24 17 38 -6q13 -23 0 -35q-186 -173 -376 -173 q-183 1 -301 174l-16 22q-11 -16 -24 -31q-127 -164 -368 -165q-216 0 -358 176q-141 175 -141 377zM283 520q0 -216 101 -345q101 -130 217 -130q117 0 217 130q101 129 101 345q0 220 -99 356t-217 136t-219 -134q-101 -135 -101 -358zM1089 780q0 -18 29 -18h397 q19 0 19 21q0 55 -68 138q-67 83 -140 83q-101 0 -170 -80q-67 -80 -67 -144z" />
<glyph unicode="&#x178;" horiz-adv-x="966" d="M-4 940q0 33 16 33q43 -4 177 -4t177 4q18 0 18 -33t-18 -33q-77 0 -77 -38q0 -17 14 -44l185 -297q12 -26 28 0l197 289q15 27 15 46q0 44 -74 44q-15 0 -15 33t15 33q43 -4 159 -4t158 4q17 0 17 -33t-17 -33q-40 0 -68 -8q-27 -9 -57 -40q-31 -30 -41 -46 q-10 -14 -51 -71l-175 -252q-23 -34 -30 -53q-6 -20 -7 -40q-1 -18 -1 -41v-211q0 -47 23 -66q24 -18 82 -18q14 0 14 -34q0 -33 -14 -33q-65 6 -182 6t-181 -6q-15 0 -15 33q0 34 15 34q60 0 83 18q22 17 22 66v209q0 46 -5 62q-7 15 -42 72l-211 337q-53 82 -118 82 q-16 0 -16 33zM198 1244q0 42 29.5 72.5t71.5 30.5t72 -30.5t30 -72.5t-30 -71.5t-72 -29.5t-71.5 29.5t-29.5 71.5zM593 1244q0 42 29.5 72.5t72 30.5t72.5 -30.5t30 -72.5t-30 -71.5t-72.5 -29.5t-72 29.5t-29.5 71.5z" />
<glyph unicode="&#x17f;" horiz-adv-x="575" d="M70 21.5q0 29.5 17 29.5q122 0 122 81v588q0 22 -26 22h-89q-16 0 -16 28.5t16 28.5q36 0 75.5 38.5t39.5 123.5q0 262 146.5 423.5t343.5 161.5q128 0 174 -59q19 -25 19 -63t-33 -63.5t-56 -25.5q-58 0 -105.5 57t-103.5 57q-96 0 -161 -79t-65 -328v-910 q0 -81 150 -81q16 0 16 -29.5t-16 -29.5q-86 8 -216 8t-215 -8q-17 0 -17 29.5zM204 -312q0 66 51 95q27 15 59 15q61 0 95 -49q18 -28 18 -61q0 -59 -49 -94q-29 -19 -64 -19q-62 0 -94 52q-16 28 -16 61z" />
<glyph unicode="&#x195;" horiz-adv-x="1656" d="M66 21q0 30 17 30q126 0 126 81v1089q0 145 -96 145q-17 0 -17 28q0 29 17 29q54 0 123 41q69 42 91 63q20 19 34 19q13 0 13 -19t-3 -56t-3 -96v-552q0 -26 18 -26q8 0 16 8q95 100 251 100q145 0 225 -106q81 -106 81 -228v-331q0 -101 64 -148q65 -47 125 -47 q97 0 181 103q85 104 85 289q0 274 -211 349q0 38 42 78q41 41 84 41q116 0 185 -148q71 -147 71 -313q0 -107 -40 -207q-39 -101 -142 -181t-253 -80q-139 0 -245 68t-106 194v331q0 101 -62 171q-61 71 -148 71q-88 0 -154 -53q-67 -53 -67 -104v-522q0 -81 116 -81 q14 0 14 -30q0 -29 -14 -29q-83 8 -200 8q-118 0 -201 -8q-17 0 -17 29z" />
<glyph unicode="&#x1bf;" horiz-adv-x="928" d="M66 -541q0 11 9 17l83 55q23 16 23 45v993q0 107 -26 137q-20 24 -61 24q-15 0 -15 28q0 30 15 30q56 0 220 127q4 3 14 3q19 0 19 -22q-6 -33 -6 -67q0 -24 15 -24q8 0 18 12q75 88 173 88q135 0 231 -94q98 -99 98 -270q0 -244 -193 -411q-151 -132 -311 -151 q-31 -4 -31 -32v-382q0 -59 -60 -81l-183 -63h-4q-28 0 -28 38zM341 94q0 -41 25 -41q129 0 239 160q90 130 90 281q0 142 -39 230q-47 105 -134 105q-83 0 -156 -122q-25 -41 -25 -98v-515z" />
<glyph unicode="&#x1f7;" horiz-adv-x="1241" d="M30 1375.5q0 39.5 14 39.5q190 -3 304 -3t334 1.5t435 1.5q71 0 71 -57q0 -12 -8 -22l-754 -1251q-19 -43 -19 -103v-258q0 -73 -140 -180l-113 -84q-4 -2 -9 -2q-18 0 -47 32q-23 28 -23 50q0 11 7 18q157 121 157 209v1455q0 114 -195 114q-14 0 -14 39.5zM407 277 q0 -27 14 -27t25 18l643 1042q4 7 4 11q0 17 -20 17q-29 -2 -179 -2h-453q-34 0 -34 -38v-1021z" />
<glyph unicode="&#x2b0;" horiz-adv-x="682" d="M23 564q0 24 9 24q70 0 70 42v640q0 78 -57 78q-10 0 -10 23t10 23q31 0 115 41q41 20 53 31q9 7 19 7q17 0 17 -17q-1 -53 -4 -108v-290q0 -15 7 -15q5 0 14 6q51 39 131 39q113 0 169 -85q35 -52 35 -111v-258q4 -46 72 -46q10 0 10 -24t-10 -24q-50 5 -140 5t-141 -5 q-9 0 -9 23.5t9 24.5q65 7 66 39v264q0 47 -28 87q-31 42 -77 42q-57 0 -90 -39q-18 -22 -18 -45v-302q0 -46 65 -46q9 0 9 -24t-9 -24q-52 5 -139 5t-139 -5q-9 0 -9 24z" />
<glyph unicode="&#x2b2;" horiz-adv-x="310" d="M-121 279q0 35 33 55q16 9 36 9q30 0 50 -33q27 -45 50 -45q29 0 34 56q3 27 3 81v490q0 78 -57 78q-9 0 -9 24q0 23 9 23q32 0 118 42q39 19 52 30q8 7 18 7q17 0 18 -16q-5 -58 -5 -110v-339q0 -116 -6 -166q-15 -109 -68 -180q-48 -65 -130 -81q-23 -5 -45 -5 q-37 0 -73 27q-27 22 -28 53zM51 1285q0 43 29 65q30 23 67 23q36 0 61 -30q25 -31 25 -66q0 -36 -31 -57q-30 -21 -69 -21q-37 0 -60 28q-22 29 -22 58z" />
<glyph unicode="&#x2b3;" horiz-adv-x="471" d="M27 564q0 24 9 24q66 0 66 46v253q0 83 -57 83q-11 0 -10 23q0 24 10 24q32 0 118 44q38 19 50 28q9 7 19 7q14 0 17 -12l-4 -47q0 -15 8 -15t23 17q42 49 105 49q43 0 71 -27q20 -20 20 -47q0 -36 -27 -59q-17 -15 -37 -15q-33 0 -64 31q-14 15 -31 15q-26 0 -48 -36 q-20 -35 -20 -80v-236q0 -46 65 -46q9 0 9 -24t-9 -24q-52 5 -131 5q-90 0 -143 -5q-9 0 -9 24z" />
<glyph unicode="&#x2b7;" horiz-adv-x="910" d="M-2 1057q0 23 9 23q40 -5 129.5 -5t127.5 5q10 0 10 -23t-10 -23q-44 0 -44 -28q0 -12 5 -24l88 -277q3 -8 7 -9q6 0 10 9l77 223q2 8 2 14t-2 14l-15 34q-19 44 -54 44q-10 0 -10 23t10 23q37 -5 124 -5t125 5q10 0 10 -23t-10 -23q-43 0 -44 -28q0 -9 4 -24l88 -277 q4 -8 8 -9q5 0 8 9l98 281q3 8 3 16q0 32 -57 32q-10 0 -10 23t10 23q39 -5 105.5 -5t104.5 5q9 0 9 -23t-9 -23q-62 0 -78 -44l-161 -421q-15 -39 -47 -39q-33 0 -48 33l-111 266q-3 8 -8 8t-8 -8l-100 -260q-14 -39 -49 -39q-30 0 -46 33l-178 427q-19 44 -64 44 q-9 0 -9 23z" />
<glyph unicode="&#x2b8;" horiz-adv-x="551" d="M-33 1057q0 23 9 23q40 -5 126 -5q92 0 132 5q9 0 9 -23t-9 -23q-50 0 -50 -29q0 -10 5 -23l95 -264q4 -13 10 -13q9 0 14 14l103 263q3 8 3 14q0 38 -75 38q-10 0 -10 23t10 23q37 -5 121 -5q70 0 109 5q10 0 9 -23q0 -23 -9 -23q-57 0 -78 -37l-280 -701 q-26 -66 -80 -88q-21 -8 -43 -8q-38 0 -63 27q-17 18 -17 42q0 39 38 57q18 9 40 9q65 0 76 25l49 113q4 12 4 22t-4 22l-168 473q-17 44 -67 44q-9 0 -9 23z" />
<glyph unicode="&#x2c6;" horiz-adv-x="828" d="M149 1056l219 390q17 29 40 29t39 -29l220 -390q0 -24 -31 -24q-3 0 -6 4l-191 226q-23 26 -31 26q-9 0 -30 -26l-193 -226q-3 -4 -8 -4q-28 0 -28 24z" />
<glyph unicode="&#x2dc;" horiz-adv-x="605" d="M-9 1111q0 1 1 2q95 149 209 149q45 0 142 -35q75 -27 110 -27q60 0 130 71q1 1 4 1q5 0 15 -8q11 -10 11 -21q0 -4 -1 -9q-15 -42 -91 -93q-74 -49 -121 -49q-51 0 -142 35q-79 31 -122 31q-56 0 -119 -64q-5 -4 -9 -4t-8 4q-9 12 -9 17z" />
<glyph unicode="&#x2e1;" horiz-adv-x="326" d="M27 564q0 24 9 24q66 0 66 41v641q0 78 -57 78q-10 0 -10 23t10 23q31 0 115 41q41 20 53 31q9 7 17 7q19 0 19 -21q-4 -47 -4 -104v-714q0 -46 65 -46q9 0 9 -24t-9 -24q-52 5 -131 5q-90 0 -143 -5q-9 0 -9 24z" />
<glyph unicode="&#x2e2;" horiz-adv-x="466" d="M40 927q0 70 62 118q58 43 139 43q77 0 135 -23q24 -66 25 -119q0 -11 -18 -12q-20 0 -22 7q-12 32 -50 71q-26 25 -78 25q-39 0 -62 -31q-14 -20 -14 -41q0 -62 105 -88q100 -25 139 -73q32 -39 32 -98q0 -83 -69 -134q-58 -42 -148 -42q-91 0 -149 38q-18 41 -18 138 q0 12 21 12q24 0 26 -11q2 -33 42 -79q41 -48 98 -48q30 0 56 26q21 21 21 47q0 75 -107 104q-110 29 -148 94q-18 32 -18 76z" />
<glyph unicode="&#x2e3;" horiz-adv-x="592" d="M-19 564q0 24 11 24q62 0 96 41l128 156q7 7 7 16q0 8 -5 14l-138 176q-33 43 -70 43q-9 0 -9 23t9 23q40 -5 132 -5q96 0 134 5q10 0 10 -23t-10 -23q-38 0 -38 -17q0 -11 16 -34l47 -66q4 -7 10 -7t12 7l45 56q21 26 21 41q0 20 -45 20q-10 0 -10 23t10 23 q38 -5 103 -5q66 0 105 5q10 0 10 -23t-10 -23q-39 0 -75 -41l-113 -135q-6 -7 -6 -14t6 -15l142 -188q40 -53 85 -53q10 0 10 -24t-10 -24q-50 5 -138 5q-92 0 -142 -5q-10 0 -10 24t10 24q51 0 51 14q0 7 -20 34l-65 95q-5 5 -11 5q-5 0 -10 -6l-70 -83q-29 -35 -29 -45 q0 -14 37 -14q10 0 10 -24t-10 -24q-49 5 -102 5q-51 0 -100 -5q-11 0 -11 24z" />
<glyph unicode="&#x1d43;" horiz-adv-x="536" d="M27 911q0 42 34 89q20 28 41 41q75 47 165 47q71 0 122 -36q41 -27 42 -66v-317q0 -71 41 -71q19 0 45 23q2 2 4 2q5 0 14 -7q7 -8 7 -13q0 -1 -1 -3q-37 -71 -119 -71q-57 0 -102 51q-8 12 -12 13q-8 0 -18 -12q-51 -51 -124 -51q-78 0 -111 53q-15 27 -15 63 q0 76 132 144l94 45q22 13 22 29v119q0 45 -65 45q-49 0 -73 -32q-5 -8 -6 -46q0 -22 -4 -33q-15 -55 -57 -55q-56 0 -56 49zM183 673q0 -73 45 -73q60 0 60 66v113q0 15 -9 15q-4 0 -9 -3q-87 -44 -87 -118z" />
<glyph unicode="&#x1d47;" horiz-adv-x="655" d="M11 1371q0 23 11 23q31 0 116 41q43 21 54 31q9 7 19 7q17 0 18 -16l-5 -109v-279q0 -18 9 -18q5 0 12 5q46 32 105 32q111 0 185 -74q78 -78 78 -194q0 -129 -71 -211q-69 -79 -207 -79q-37 0 -81 19q-36 15 -65 16q-10 0 -34 -22l-13 -9q-2 -3 -7 -3q-20 0 -47 21 q-11 10 -11 15q3 19 3 152v551q0 78 -58 78q-11 0 -11 23zM224 730q0 -73 45 -115q36 -34 84 -35q100 0 100 232q0 99 -41 159q-37 54 -99 54q-45 0 -71 -27q-18 -19 -18 -50v-218z" />
<glyph unicode="&#x1d48;" horiz-adv-x="646" d="M33 806q0 110 76 188q92 94 245 94q25 0 43 -1l11 -1q12 0 12 13v171q0 78 -57 78q-9 0 -9 23t9 23q31 0 115 41q41 20 53 31q9 7 17 7q19 0 19 -21q-3 -44 -3 -104v-643q0 -56 6 -74q8 -25 33 -25q13 0 17 2q4 1 6 1q7 0 12 -12q4 -14 4 -21q0 -9 -4 -11q-18 -8 -97 -22 q-64 -17 -82 -20h-8q-6 0 -6 28v18q0 13 -7 14q-7 0 -18 -9q-58 -44 -122 -44q-151 0 -221 110q-44 69 -44 166zM191 822q0 -121 50 -189q37 -50 90 -50q54 0 81 33q8 10 8 17v345q0 27 -2 33q-3 6 -10 10q-29 18 -70 19q-83 0 -123 -90q-24 -56 -24 -128z" />
<glyph unicode="&#x1d49;" horiz-adv-x="547" d="M43 817q0 103 66 181q76 90 179 90q111 0 176 -74q40 -56 40 -87q0 -47 -56 -47h-240q-23 0 -23 -17q0 -147 70 -208q38 -33 95 -33q51 0 103 34q13 8 32 -16q16 -22 9 -28q-30 -31 -84 -56q-55 -26 -126 -26q-84 0 -152 69q-89 89 -89 218zM192 953q0 -17 24 -17h126 q23 0 24 16q0 41 -34 69q-21 18 -43 18q-39 0 -71 -27q-26 -25 -26 -59z" />
<glyph unicode="&#x1d4d;" horiz-adv-x="591" d="M12 346q0 51 65 103q21 18 50 33q8 4 8 7q0 4 -9 8q-83 35 -83 109q0 47 90 87q9 4 9 7t-10 11q-96 61 -97 164q0 88 69 149q70 64 172 64q69 0 138 -27q40 -18 57 -19h121q9 0 9 -35q0 -37 -9 -37h-57q-20 0 -20 -17v-49q0 -105 -74 -169q-65 -55 -173 -55q-31 0 -66 4 q-8 0 -14 -4q-23 -19 -24 -35q0 -20 25 -32q21 -11 55 -11h158q81 0 120 -12q91 -30 91 -133q0 -101 -93 -175q-108 -85 -263 -85q-187 0 -232 91q-13 26 -13 58zM161 390q0 -47 38 -81q42 -39 115 -39q157 0 186 88q6 16 6 36q0 81 -147 81h-132q-14 0 -26 -8 q-40 -29 -40 -77zM180 887q0 -76 37 -122q29 -36 71 -36q55 0 74 74q7 30 7 67q0 111 -43 151q-20 18 -47 19q-45 0 -75 -54q-24 -44 -24 -99z" />
<glyph unicode="&#x1d4f;" horiz-adv-x="669" d="M21 564q0 24 9 24q72 0 72 43v639q-5 74 -57 78q-10 0 -10 23t10 23q31 0 115 41q41 20 53 31q9 7 19 7q17 0 17 -17q-4 -54 -4 -108v-473q0 -23 13 -23q27 0 50 24l96 106q19 23 19 33q0 19 -51 19q-10 0 -10 23q0 21 10 23q38 -5 136 -5q87 0 126 5q10 0 10 -23 t-10 -23q-65 0 -114 -44l-130 -118q-7 -7 -7 -13q0 -7 7 -16l205 -222q29 -33 78 -33q10 0 10 -23q0 -25 -10 -25q-50 5 -143 5t-145 -5q-10 0 -10 24t10 24q46 0 47 17q0 11 -18 30l-122 140q-15 19 -36 19q-11 0 -11 -21v-139q0 -46 68 -46q9 0 9 -24t-9 -24q-52 5 -140 5 q-90 0 -143 -5q-9 0 -9 24z" />
<glyph unicode="&#x1d50;" horiz-adv-x="1017" d="M23 564q0 24 9 24q70 0 70 42v259q0 81 -57 81q-10 0 -10 24q0 23 10 23q31 0 116 42q40 19 52 30q9 7 19 7q17 0 17 -15l-4 -44q0 -13 6 -13q5 0 11 7q51 57 136 57q89 0 134 -79q6 -11 12 -11t16 12q48 52 116 71q27 7 52 7q80 0 128 -43q68 -60 69 -155v-258 q0 -44 65 -44q10 0 10 -24t-10 -24q-50 5 -135 5q-86 0 -136 -5q-11 0 -11 24t11 24q62 0 62 41v297q0 94 -95 94q-42 0 -73 -38q-29 -36 -29 -82v-268q0 -44 65 -44q10 0 10 -24t-10 -24q-50 5 -134 5t-136 -5q-10 0 -10 24t10 24q62 0 62 39v271q0 83 -28 109 q-17 13 -60 13q-33 0 -61 -20q-47 -36 -47 -79v-293q0 -40 62 -40q9 0 9 -24t-9 -24q-52 5 -137 5q-86 0 -138 -5q-9 0 -9 24z" />
<glyph unicode="&#x1d56;" horiz-adv-x="629" d="M10 220q0 23 11 23q64 0 64 53v591q0 83 -57 83q-9 0 -9 24q0 23 9 23q34 0 119 44q36 19 49 28q8 7 16 7q20 0 20 -13l-3 -29q0 -15 8 -15q7 0 18 10q17 21 52 34q19 5 42 5q94 0 151 -42q98 -70 98 -205q0 -217 -125 -281q-55 -30 -144 -30q-58 0 -80 13q-6 2 -9 2 q-11 0 -11 -17v-231q0 -54 88 -54q10 0 10 -23t-10 -23q-52 4 -149 4t-147 -4q-11 0 -11 23zM229 656q4 -74 110 -75q55 0 91 88q22 58 22 127q0 141 -52 197q-32 32 -77 32q-53 0 -87 -52q-7 -11 -7 -43v-274z" />
<glyph unicode="&#x1d57;" horiz-adv-x="419" d="M32 1033q0 24 11 23q38 0 83 37q42 35 57 78q2 7 26 1q27 -7 31 -19v-58q0 -20 20 -20h134q10 0 10 -32q0 -33 -10 -33h-134q-20 0 -20 -20v-259q0 -76 21 -99q17 -19 55 -19q32 0 79 30q7 5 24 -16q16 -19 9 -26q-67 -71 -171 -71q-136 1 -157 115q-4 21 -4 46v299 q0 20 -19 20h-34q-11 0 -11 23z" />
<glyph unicode="&#x1d58;" horiz-adv-x="641" d="M18 1041q0 23 9 23q70 0 139 10q20 3 32 3q29 0 29 -27q-4 -61 -4 -100v-214q0 -77 31 -113q17 -21 60 -21q40 0 83 34q34 28 34 59v259q0 64 -52 64q-11 0 -11 23t11 23q69 0 142 11q16 2 24 2q33 0 33 -21q-5 -60 -5 -98v-253q0 -56 6 -74q9 -25 34 -25q8 0 20 3 q11 3 17 -19q5 -22 -2 -25q-5 -1 -66 -14l-32 -6q-35 -7 -71 -20q-8 -2 -15 -2q-10 0 -10 28v29q0 15 -7 15t-16 -8q-58 -56 -154 -57q-79 0 -106 22q-92 74 -92 185v217q0 64 -52 64q-9 0 -9 23z" />
<glyph unicode="&#x1d5b;" horiz-adv-x="577" d="M-2 1057q0 23 9 23q40 -5 121 -5q98 0 136 5q10 0 10 -23t-10 -23q-44 0 -44 -28q0 -12 3 -16l90 -285q2 -8 8 -9q5 0 9 9l96 281q4 8 4 16q0 32 -57 32q-9 0 -9 23t9 23q38 -5 113 -5q58 0 96 5q10 0 10 -23t-10 -23q-61 0 -78 -44l-160 -421q-16 -39 -50 -39 q-32 0 -45 33l-178 427q-19 44 -64 44q-9 0 -9 23z" />
<glyph unicode="&#x1d79;" horiz-adv-x="971" d="M53 -187q0 111 122 221q106 96 262 122q14 2 14 9q0 8 -12 16q-141 88 -158 102q-78 64 -78 130q0 86 272 345q12 12 12 18q0 10 -23 10h-381q-28 0 -20 15q27 50 41 79q15 29 36 89q5 9 20 9q49 0 42 -20q-9 -25 -9 -44q0 -45 71 -45h262q223 0 424 15q23 0 23 -49 t-23 -49h-311q-39 0 -64 -30l-81 -97q-124 -147 -124 -233q0 -72 123 -163q26 -20 60 -39l276 -163q136 -80 136 -242q0 -177 -130 -288q-128 -110 -313 -110q-174 0 -324 132q-145 128 -145 260zM222 -187q0 -106 89 -218q93 -113 213 -113q109 0 196 120q75 103 75 217 q0 106 -75 187q-82 92 -224 92q-137 0 -210 -96q-2 -2 -3 -4q-61 -83 -61 -185z" />
<glyph unicode="&#x1d9c;" horiz-adv-x="549" d="M42 786q0 106 65 192q85 110 219 110q84 0 139 -28q24 -13 33 -28q4 -11 4 -25q0 -33 -19 -53q-22 -22 -41 -22q-23 0 -34 18l-25 41q-24 37 -70 37q-51 0 -87 -58q-42 -63 -42 -153q0 -83 55 -142q49 -52 113 -52q67 0 116 34q10 8 29 -18q17 -27 5 -34l-51 -33 q-72 -42 -166 -42q-87 0 -156 63q-87 77 -87 193z" />
<glyph unicode="&#x1da0;" horiz-adv-x="364" d="M25 564q0 24 9 24q68 0 68 42v357q0 23 -23 23h-34q-10 0 -10 23t10 23q31 0 47 27q10 17 10 43q0 92 43 175q20 41 47 69q99 103 228 103q77 0 116 -37q24 -23 24 -53q0 -34 -34 -60q-20 -15 -37 -15q-64 0 -92 55q-17 37 -49 39q-36 0 -59 -32q-44 -61 -44 -171v-101 q0 -23 23 -23h102q10 0 10 -33q0 -32 -10 -32h-102q-23 0 -23 -23v-357q0 -42 84 -42q9 0 9 -24q0 -23 -9 -24q-50 5 -150 5q-93 0 -145 -5q-9 0 -9 24z" />
<glyph unicode="&#x1dbb;" horiz-adv-x="480" d="M16 900q17 157 18 160q4 27 20 28q99 -13 131 -13h217q30 0 30 -20q0 -12 -6 -20l-224 -416q-2 -4 -2 -10q0 -14 17 -14h68q82 0 140 128q3 7 17 7q5 0 17 -3q19 -6 19 -18l-15 -116q-2 -21 -2 -38q0 -26 -24 -26q-7 0 -59 10q-34 6 -59 6h-276q-26 0 -25 23q0 8 5 20 l222 410q6 11 6 17q0 13 -18 13h-70q-39 0 -77 -80l-29 -64q-2 -5 -11 -6q-12 0 -22 8q-8 5 -8 14z" />
<glyph unicode="&#x1e04;" horiz-adv-x="1191" d="M61 1366.5q0 30.5 21 30.5q31 0 125 51t113 73.5t35 22.5t15 -31l-7 -153v-325q0 -33 17 -33q10 0 24 7q116 67 218 67q217 0 349.5 -162t132.5 -382q0 -269 -125.5 -414.5t-351.5 -145.5q-59 0 -182 56q-26 13 -61 13q-41 0 -118 -69q-3 -2 -10.5 -2.5t-26.5 6.5 q-39 16 -39 24q6 80 6 321v851q0 164 -114 164q-21 0 -21 30.5zM363 363q0 -100 93.5 -213.5t213.5 -113.5q119 0 181.5 142t62.5 335q0 192 -94.5 334.5t-246.5 142.5q-103 0 -182 -61q-28 -22 -28 -117v-449zM535 -313q0 65 51 95q27 15 59 15q61 0 95 -49q18 -28 18 -61 q0 -59 -49 -94q-29 -19 -64 -19q-62 0 -94 52q-16 28 -16 61z" />
<glyph unicode="&#x1e05;" horiz-adv-x="1191" d="M61 1366.5q0 30.5 21 30.5q31 0 125 51t113 73.5t35 22.5t15 -31l-7 -153v-325q0 -33 17 -33q10 0 24 7q116 67 218 67q217 0 349.5 -162t132.5 -382q0 -269 -125.5 -414.5t-351.5 -145.5q-59 0 -182 56q-26 13 -61 13q-41 0 -118 -69q-3 -2 -10.5 -2.5t-26.5 6.5 q-39 16 -39 24q6 80 6 321v851q0 164 -114 164q-21 0 -21 30.5zM363 363q0 -100 93.5 -213.5t213.5 -113.5q119 0 181.5 142t62.5 335q0 192 -94.5 334.5t-246.5 142.5q-103 0 -182 -61q-28 -22 -28 -117v-449zM379 -312q0 65 51 95q27 15 59 15q61 0 95 -49q18 -28 18 -61 q0 -59 -49 -94q-29 -19 -64 -19q-62 0 -94 52q-16 28 -16 61z" />
<glyph unicode="&#x1e0c;" horiz-adv-x="1146" d="M51 936q0 33 18 33q127 -4 193 -4q75 0 150.5 2t122.5 2q236 0 392.5 -120.5t156.5 -330.5q0 -248 -146 -386t-369 -138q-47 0 -120 3t-195 3q-43 0 -106 -3t-73 -3q-16 0 -16 33.5t16 33.5q43 0 78.5 20.5t35.5 63.5v680q0 78 -120 78q-18 0 -18 33zM343 196 q0 -51 11.5 -82t40.5 -44t52.5 -16t72.5 -3q179 0 284 125t105 336q0 155 -112 278.5t-322 123.5q-32 0 -60.5 1t-50 -12t-21.5 -45v-662zM470 -313q0 65 51 95q27 15 59 15q62 0 95 -49q19 -28 19 -61q0 -59 -50 -94q-28 -19 -64 -19q-62 0 -93 52q-17 28 -17 61z" />
<glyph unicode="&#x1e0d;" horiz-adv-x="1146" d="M51 936q0 33 18 33q127 -4 193 -4q75 0 150.5 2t122.5 2q236 0 392.5 -120.5t156.5 -330.5q0 -248 -146 -386t-369 -138q-47 0 -120 3t-195 3q-43 0 -106 -3t-73 -3q-16 0 -16 33.5t16 33.5q43 0 78.5 20.5t35.5 63.5v680q0 78 -120 78q-18 0 -18 33zM343 196 q0 -51 11.5 -82t40.5 -44t52.5 -16t72.5 -3q179 0 284 125t105 336q0 155 -112 278.5t-322 123.5q-32 0 -60.5 1t-50 -12t-21.5 -45v-662zM470 -313q0 65 51 95q27 15 59 15q62 0 95 -49q19 -28 19 -61q0 -59 -50 -94q-28 -19 -64 -19q-62 0 -93 52q-17 28 -17 61z" />
<glyph unicode="&#x1e24;" horiz-adv-x="1371" d="M72 1330.5q0 39.5 13 39.5q102 0 277 61q29 9 44 9q37 0 38 -37q-9 -99 -9 -184v-91q0 -24 14 -24q9 0 19 11q113 98 303 98q210 0 347 -137q173 -171 173 -403q0 -334 -195 -533q-146 -147 -301 -147q-35 0 -97 75q-64 78 -78 78q-46 0 -104 -235q-5 -12 -25 -12 q-48 0 -48 24v5q39 181 61 233q56 125 140 125q60 0 137 -95q74 -93 99 -93q68 0 139 158q73 168 73 400q0 184 -95 322q-109 156 -296 156q-125 0 -242 -147q-24 -30 -24 -75v-396q0 -205 -91 -339q-51 -77 -169 -181q-3 -3 -10 -3q-25 0 -54 39q-17 26 -17 44q0 9 5 13 q56 41 112 141q56 102 56 176v744q0 84 -85 122q-43 19 -97 19q-13 0 -13 39.5zM742 -312q0 65 51 95q27 15 59 15q61 0 95 -49q18 -28 18 -61q0 -59 -49 -94q-29 -19 -64 -19q-62 0 -94 52q-16 28 -16 61z" />
<glyph unicode="&#x1e25;" horiz-adv-x="1309" d="M82 21q0 32 17 32q150 0 150 97v1015q0 171 -114 171q-21 0 -21 31q0 30 21 30q41 0 115 42q73 42 110 73q35 32 50 32q13 0 13 -20q-7 -119 -7 -205v-340q0 -31 20 -31q11 0 22 10q144 118 297 118q125 0 233 -103q109 -103 109 -294v-529q0 -97 157 -97q18 0 18 -32 q0 -31 -18 -31q-100 10 -234 10t-232 -10q-16 0 -16 31q0 32 16 32q140 0 141 97v538q0 120 -74 204q-73 85 -177 85q-74 0 -183 -63q-79 -45 -79 -124v-640q0 -97 137 -97q18 0 18 -32q0 -31 -18 -31q-130 10 -243 10q-112 0 -211 -10q-17 0 -17 31zM476 -312q0 65 51 95 q27 15 59 15q61 0 95 -49q18 -28 18 -61q0 -59 -49 -94q-29 -19 -64 -19q-62 0 -94 52q-16 28 -16 61z" />
<glyph unicode="&#x1e32;" horiz-adv-x="1126" d="M75 21q0 30 14 30q120 0 120 81v1086q0 145 -96 145q-17 0 -17 26q0 32 17 32q58 0 194 91q23 16 34 24q15 10 19 10q15 0 14 -19q-6 -98 -6 -159v-825q0 -45 41 -45q53 0 77 24l257 252q132 129 225 129q60 0 94 -45q21 -27 21 -59q0 -56 -43 -88q-22 -16 -49 -16 q-18 0 -74 30q-38 21 -62 21q-46 0 -83 -36l-167 -159q-19 -19 -19 -35q0 -7 17 -37l196 -320q62 -103 163 -103q70 0 133 46q9 5 22 -16q11 -20 3 -27q-102 -83 -263 -83q-139 0 -219 139l-163 281q-18 32 -77 32q-30 0 -30 -44v-252q0 -81 124 -81q14 0 14 -29 q0 -30 -14 -30q-108 8 -197.5 8t-205.5 -8q-14 0 -14 29zM532 -313q0 65 51 95q27 15 59 15q61 0 95 -49q18 -28 18 -61q0 -59 -49 -94q-29 -19 -64 -19q-62 0 -94 52q-16 28 -16 61z" />
<glyph unicode="&#x1e33;" horiz-adv-x="1126" d="M75 21q0 30 14 30q120 0 120 81v1086q0 145 -96 145q-17 0 -17 26q0 32 17 32q58 0 194 91q23 16 34 24q15 10 19 10q15 0 14 -19q-6 -98 -6 -159v-825q0 -45 41 -45q53 0 77 24l257 252q132 129 225 129q60 0 94 -45q21 -27 21 -59q0 -56 -43 -88q-22 -16 -49 -16 q-18 0 -74 30q-38 21 -62 21q-46 0 -83 -36l-167 -159q-19 -19 -19 -35q0 -7 17 -37l196 -320q62 -103 163 -103q70 0 133 46q9 5 22 -16q11 -20 3 -27q-102 -83 -263 -83q-139 0 -219 139l-163 281q-18 32 -77 32q-30 0 -30 -44v-252q0 -81 124 -81q14 0 14 -29 q0 -30 -14 -30q-108 8 -197.5 8t-205.5 -8q-14 0 -14 29zM400 -312q0 65 51 95q27 15 59 15q61 0 95 -49q18 -28 18 -61q0 -59 -49 -94q-29 -19 -64 -19q-62 0 -94 52q-16 28 -16 61z" />
<glyph unicode="&#x1e36;" horiz-adv-x="1012" d="M51 940q0 33 18 33q41 -4 191 -4q151 0 193 4q16 0 16 -33t-16 -33q-110 0 -110 -82v-646q0 -59 31 -92q31 -32 93 -32l236 11q57 5 108 68q51 64 51 145q0 13 37 13q36 0 36 -13v-238q0 -33 -14 -40q-12 -7 -69 -7q-4 0 -211 3q-206 3 -340 3q-135 0 -226 -6 q-16 0 -16 33q0 34 16 34q114 0 114 90v674q0 82 -120 82q-18 0 -18 33zM421 -313q0 65 51 95q27 15 59 15q62 0 95 -49q19 -28 19 -61q0 -59 -50 -94q-28 -19 -64 -19q-62 0 -93 52q-17 28 -17 61z" />
<glyph unicode="&#x1e37;" horiz-adv-x="1012" d="M51 940q0 33 18 33q41 -4 191 -4q151 0 193 4q16 0 16 -33t-16 -33q-110 0 -110 -82v-646q0 -59 31 -92q31 -32 93 -32l236 11q57 5 108 68q51 64 51 145q0 13 37 13q36 0 36 -13v-238q0 -33 -14 -40q-12 -7 -69 -7q-4 0 -211 3q-206 3 -340 3q-135 0 -226 -6 q-16 0 -16 33q0 34 16 34q114 0 114 90v674q0 82 -120 82q-18 0 -18 33zM421 -313q0 65 51 95q27 15 59 15q62 0 95 -49q19 -28 19 -61q0 -59 -50 -94q-28 -19 -64 -19q-62 0 -93 52q-17 28 -17 61z" />
<glyph unicode="&#x1e42;" horiz-adv-x="1339" d="M34 27q0 34 15 34q107 0 111 88l43 648q0 66 -25 87q-29 23 -99 23q-16 0 -16 33t16 33q43 -4 112 -4h60q24 0 45 -13q21 -15 39 -49l334 -671q22 -49 47 2l353 674q17 33 30 46q13 11 29 11h47q56 0 99 4q17 0 17 -33t-17 -33q-62 0 -86 -22q-25 -23 -25 -82l6 -654 q0 -25 4 -41q5 -14 32 -30q28 -17 79 -17q15 0 15 -34q0 -33 -15 -33q-63 6 -185 6q-121 0 -185 -6q-15 0 -15 33q0 34 15 34q108 0 108 88l-2 477q0 30 -16 2l-335 -626q-9 -14 -21 -14q-14 0 -22 14l-336 689q-18 31 -20 -3l-36 -541q-2 -34 24 -60q25 -26 98 -26 q14 0 14 -34q0 -33 -14 -33q-64 6 -153 6q-90 0 -154 -6q-15 0 -15 33zM565 -313q0 65 51 95q27 15 59 15q61 0 95 -49q18 -28 18 -61q0 -59 -50 -94q-28 -19 -63 -19q-62 0 -94 52q-16 28 -16 61z" />
<glyph unicode="&#x1e43;" horiz-adv-x="1339" d="M34 27q0 34 15 34q107 0 111 88l43 648q0 66 -25 87q-29 23 -99 23q-16 0 -16 33t16 33q43 -4 112 -4h60q24 0 45 -13q21 -15 39 -49l334 -671q22 -49 47 2l353 674q17 33 30 46q13 11 29 11h47q56 0 99 4q17 0 17 -33t-17 -33q-62 0 -86 -22q-25 -23 -25 -82l6 -654 q0 -25 4 -41q5 -14 32 -30q28 -17 79 -17q15 0 15 -34q0 -33 -15 -33q-63 6 -185 6q-121 0 -185 -6q-15 0 -15 33q0 34 15 34q108 0 108 88l-2 477q0 30 -16 2l-335 -626q-9 -14 -21 -14q-14 0 -22 14l-336 689q-18 31 -20 -3l-36 -541q-2 -34 24 -60q25 -26 98 -26 q14 0 14 -34q0 -33 -14 -33q-64 6 -153 6q-90 0 -154 -6q-15 0 -15 33zM565 -313q0 65 51 95q27 15 59 15q61 0 95 -49q18 -28 18 -61q0 -59 -50 -94q-28 -19 -63 -19q-62 0 -94 52q-16 28 -16 61z" />
<glyph unicode="&#x1e46;" horiz-adv-x="1100" d="M43 940q0 33 14 33q43 -4 116 -4h48.5t42 -9.5t41.5 -32.5l518 -631q8 -11 18.5 -14t18 2.5t7.5 13.5v525q0 53 -27 68.5t-82 15.5q-16 0 -16 33t16 33q43 -4 139.5 -4t139.5 4q15 0 15 -33t-15 -33q-51 0 -74.5 -19t-23.5 -65v-768q0 -70 -21.5 -70t-53.5 41l-585 698 q-11 13 -17 11t-6 -15v-575q0 -41 32.5 -62.5t75.5 -21.5q16 0 16 -33.5t-16 -33.5q-63 6 -147.5 6t-147.5 -6q-18 0 -18 33.5t18 33.5q112 0 112 84v635q0 76 -23.5 101.5t-100.5 25.5q-14 0 -14 33zM453 -313q0 65 51 95q27 15 60 15q61 0 94 -49q19 -28 19 -61 q0 -59 -50 -94q-28 -19 -63 -19q-63 0 -94 52q-17 28 -17 61z" />
<glyph unicode="&#x1e47;" horiz-adv-x="1100" d="M43 940q0 33 14 33q43 -4 116 -4h48.5t42 -9.5t41.5 -32.5l518 -631q8 -11 18.5 -14t18 2.5t7.5 13.5v525q0 53 -27 68.5t-82 15.5q-16 0 -16 33t16 33q43 -4 139.5 -4t139.5 4q15 0 15 -33t-15 -33q-51 0 -74.5 -19t-23.5 -65v-768q0 -70 -21.5 -70t-53.5 41l-585 698 q-11 13 -17 11t-6 -15v-575q0 -41 32.5 -62.5t75.5 -21.5q16 0 16 -33.5t-16 -33.5q-63 6 -147.5 6t-147.5 -6q-18 0 -18 33.5t18 33.5q112 0 112 84v635q0 76 -23.5 101.5t-100.5 25.5q-14 0 -14 33zM453 -313q0 65 51 95q27 15 60 15q61 0 94 -49q19 -28 19 -61 q0 -59 -50 -94q-28 -19 -63 -19q-63 0 -94 52q-17 28 -17 61z" />
<glyph unicode="&#x1e5a;" horiz-adv-x="994" d="M6 33q0 11 12 20q474 495 618 827q40 91 40 198q0 104 -67 166q-65 60 -159 60q-154 0 -266 -196q-9 -16 -38 3q-30 17 -23 30q60 124 170 211q109 88 244 88q153 0 245 -100q93 -100 93 -250q0 -148 -100 -291q-98 -142 -204 -260l-307 -345q-18 -18 -18 -30 q0 -16 33 -16l693 1q35 0 22 -36l-38 -108q-5 -13 -45 -13q-136 8 -449 8q-314 0 -411 -8q-45 -4 -45 41zM565 -312q0 65 51 95q27 15 59 15q61 0 95 -49q18 -28 18 -61q0 -59 -49 -94q-29 -19 -64 -19q-62 0 -94 52q-16 28 -16 61z" />
<glyph unicode="&#x1e5b;" horiz-adv-x="723" d="M45 -550.5q0 29.5 16 29.5q120 0 120 81v958q0 126 -11 160q-17 52 -76 52q-15 0 -15 29t15 29q39 0 139 66q38 25 54 40q29 24 41 24q17 0 17 -26q-4 -49 -4 -101q0 -33 17 -33q12 0 26 20q92 127 221 127q60 0 94 -45q21 -27 21 -59q0 -56 -43 -88q-22 -16 -49 -16 q-13 0 -27 7l-71 34q-24 10 -38 10q-64 0 -107 -64q-44 -62 -44 -170v-954q0 -81 157 -81q16 0 16 -29.5t-16 -29.5q-87 8 -218.5 8t-218.5 -8q-16 0 -16 29.5zM256 -313q0 65 51 95q27 15 59 15q61 0 95 -49q18 -28 18 -61q0 -59 -49 -94q-29 -19 -64 -19q-62 0 -94 52 q-16 28 -16 61z" />
<glyph unicode="&#x1e62;" horiz-adv-x="1083" d="M109 347q0 222 251 334q10 5 10 16t-14 17q-192 98 -210 319q-4 28 -4 59q0 135 125 256q102 92 279 92q108 0 214 -24q74 -18 97 -18q4 0 7 1q29 -104 40 -269q2 -23 -38 -23q-31 0 -34 13q-53 251 -306 251q-131 0 -196 -93q-42 -58 -42 -139q0 -136 82 -202 q52 -42 204 -97l169 -61q90 -33 151 -104q88 -101 88 -269q0 -224 -150 -349q-104 -85 -256 -85q-229 0 -360 134q-107 107 -107 241zM291 338q0 -100 80 -183q100 -105 235 -105q95 0 167 79q65 69 65 171t-64.5 192t-271.5 154q-15 5 -26 5q-14 0 -29 -9 q-156 -92 -156 -304zM447 -312q0 65 51 95q27 15 59 15q61 0 95 -49q18 -28 18 -61q0 -59 -49 -94q-29 -19 -64 -19q-62 0 -94 52q-16 28 -16 61z" />
<glyph unicode="&#x1e63;" horiz-adv-x="841" d="M97 256v56q0 19 24.5 19t28.5 -19q15 -74 85.5 -174t206.5 -100q71 0 135.5 50.5t64.5 134.5q0 90 -50.5 145t-195.5 99q-283 85 -283 309q0 127 96 213.5t243 86.5q155 0 252 -44q39 -104 39 -210v-14q0 -18 -23.5 -18t-27.5 18q-13 65 -79.5 134t-177.5 69 q-79 0 -137.5 -51.5t-58.5 -125.5q0 -63 33 -112.5t211 -104.5q181 -56 234 -125t53 -187q0 -105 -46.5 -181.5t-137.5 -115.5t-185 -39q-175 0 -279 75q-25 78 -25 212zM245 -313q0 65 51 95q27 15 59 15q61 0 95 -49q18 -28 18 -61q0 -59 -49 -94q-29 -19 -64 -19 q-62 0 -94 52q-16 28 -16 61z" />
<glyph unicode="&#x1e6c;" horiz-adv-x="982" d="M47 717v227q0 23 56 23q70 0 175 -1.5t236 -1.5t215.5 1.5t154.5 1.5q55 0 55 -23v-227q0 -10 -32 -10t-32 10q0 101 -32.5 142.5t-122.5 41.5h-116q-36 0 -36 -33v-726q0 -84 134 -84q10 0 10 -32.5t-10 -32.5q-72 7 -213.5 7t-211.5 -7q-11 0 -11 32.5t11 32.5 q140 0 140 84v726q0 33 -34 33h-93q-94 0 -136 -43.5t-42 -140.5q0 -10 -32.5 -10t-32.5 10zM390 -312q0 66 51 95q27 15 59 15q62 0 95 -49q19 -28 19 -61q0 -59 -50 -94q-28 -19 -64 -19q-62 0 -93 52q-17 28 -17 61z" />
<glyph unicode="&#x1e6d;" horiz-adv-x="982" d="M47 717v227q0 23 56 23q70 0 175 -1.5t236 -1.5t215.5 1.5t154.5 1.5q55 0 55 -23v-227q0 -10 -32 -10t-32 10q0 101 -32.5 142.5t-122.5 41.5h-116q-36 0 -36 -33v-726q0 -84 134 -84q10 0 10 -32.5t-10 -32.5q-72 7 -213.5 7t-211.5 -7q-11 0 -11 32.5t11 32.5 q140 0 140 84v726q0 33 -34 33h-93q-94 0 -136 -43.5t-42 -140.5q0 -10 -32.5 -10t-32.5 10zM390 -312q0 66 51 95q27 15 59 15q62 0 95 -49q19 -28 19 -61q0 -59 -50 -94q-28 -19 -64 -19q-62 0 -93 52q-17 28 -17 61z" />
<glyph unicode="&#x1e7e;" horiz-adv-x="1241" d="M30 1375.5q0 39.5 14 39.5q190 -3 304 -3t334 1.5t435 1.5q71 0 71 -57q0 -12 -8 -22l-754 -1251q-19 -43 -19 -103v-258q0 -73 -140 -180l-113 -84q-4 -2 -9 -2q-18 0 -47 32q-23 28 -23 50q0 11 7 18q157 121 157 209v1455q0 114 -195 114q-14 0 -14 39.5zM407 277 q0 -27 14 -27t25 18l643 1042q4 7 4 11q0 17 -20 17q-29 -2 -179 -2h-453q-34 0 -34 -38v-1021zM533 -313q0 65 51 95q27 15 59 15q61 0 95 -49q18 -28 18 -61q0 -59 -49 -94q-29 -19 -64 -19q-62 0 -94 52q-16 28 -16 61z" />
<glyph unicode="&#x1e7f;" horiz-adv-x="1036" d="M-2 1031q0 29 17 29q71 -8 206 -8t210 8q16 0 16 -29t-16 -29q-97 0 -97 -69q0 -32 1 -35l207 -630q7 -23 28.5 -23t29.5 23l221 639v28q0 67 -119 67q-17 0 -17 29t17 29q71 -8 172.5 -8t174.5 8q18 0 18 -29t-18 -29q-114 0 -145 -90l-313 -892q-17 -48 -53.5 -48 t-48.5 33l-351 907q-34 90 -123 90q-17 0 -17 29zM341 -313q0 65 51 95q27 15 59 15q61 0 95 -49q18 -28 18 -61q0 -59 -49 -94q-29 -19 -64 -19q-62 0 -94 52q-16 28 -16 61z" />
<glyph unicode="&#x1e88;" horiz-adv-x="1241" d="M30 1375.5q0 39.5 14 39.5q190 -3 304 -3t334 1.5t435 1.5q71 0 71 -57q0 -12 -8 -22l-754 -1251q-19 -43 -19 -103v-258q0 -73 -140 -180l-113 -84q-4 -2 -9 -2q-18 0 -47 32q-23 28 -23 50q0 11 7 18q157 121 157 209v1455q0 114 -195 114q-14 0 -14 39.5zM407 277 q0 -27 14 -27t25 18l643 1042q4 7 4 11q0 17 -20 17q-29 -2 -179 -2h-453q-34 0 -34 -38v-1021zM928 -313q0 65 51 95q27 15 59 15q61 0 95 -49q18 -28 18 -61q0 -59 -49 -94q-29 -19 -64 -19q-62 0 -94 52q-16 28 -16 61z" />
<glyph unicode="&#x1e89;" horiz-adv-x="1646" d="M-2 1031q0 29 17 29q88 -8 205 -8q118 0 210 8q16 0 16 -29t-16 -29q-97 0 -97 -69q0 -29 2 -35l206 -631q7 -23 29 -23q21 0 29 23l195 562q5 14 5 34q0 74 -44 106q-43 33 -96 33q-17 0 -17 29t17 29q90 -8 202 -8q111 0 203 8q18 0 18 -29t-18 -29q-97 0 -97 -69 q0 -23 4 -35l204 -630q7 -23 29 -23t30 23l218 639q3 9 3 28q0 67 -120 67q-16 0 -16 29t16 29q88 -8 172 -8t176 8q17 0 17 -29t-17 -29q-117 0 -148 -90l-311 -892q-17 -48 -53 -48t-49 33l-263 679q-9 25 -18 25q-8 0 -16 -25l-234 -664q-17 -48 -53 -48q-37 0 -49 33 l-350 907q-34 90 -124 90q-17 0 -17 29zM606 -313q0 65 51 95q27 15 59 15q61 0 95 -49q18 -28 18 -61q0 -59 -49 -94q-29 -19 -64 -19q-62 0 -94 52q-16 28 -16 61z" />
<glyph unicode="&#x1e8f;" horiz-adv-x="1036" d="M-66 1031q0 29 18 29q88 -8 215 -8t219 8q18 0 18 -29t-18 -29q-119 0 -119 -69q0 -26 3 -35l223 -645q13 -39 44 -39t46 41l249 643q5 13 5 32q0 72 -160 72q-17 0 -17 29t17 29q87 -8 197 -8t198 8q17 0 17 -29t-17 -29q-118 0 -153 -90l-507 -1319q-32 -83 -94 -125 t-127 -42q-50 0 -80.5 30t-30.5 64q0 94 109 94q135 0 168 78l77 186q3 8 3 50q0 17 -16 62l-321 922q-31 90 -148 90q-18 0 -18 29zM352 1203q0 66 50 95q28 16 60 16q61 0 94 -49q19 -28 19 -62q0 -59 -50 -93q-28 -20 -63 -20q-63 0 -94 52q-16 28 -16 61z" />
<glyph unicode="&#x1e92;" horiz-adv-x="879" d="M70 17v3q0 6 1 8l481 910q11 20 11 28q0 23 -37 23h-185q-93 0 -161 -133l-50 -98q-6 -20 -26 -54q-3 -5 -18 -2q-11 3 -10 9l46 324q6 45 28 41l128 -19q27 -5 94 -5h400q18 0 18 -11q0 -6 -6 -18l-481 -901q-8 -14 -8 -23q0 -22 40.5 -27t94 -5t129.5 9.5t125 61.5 q71 75 119 207q4 13 29 7q21 -6 21 -16v-2q-38 -283 -38 -334q0 -33 -34 -33q-4 0 -94 19q-63 14 -108 14h-490q-19 0 -19 17zM639 -312q0 65 51 95q27 15 59 15q61 0 95 -49q18 -28 18 -61q0 -59 -49 -94q-29 -19 -64 -19q-62 0 -94 52q-16 28 -16 61z" />
<glyph unicode="&#x1e93;" horiz-adv-x="879" d="M70 17v3q0 6 1 8l481 910q11 20 11 28q0 23 -37 23h-185q-93 0 -161 -133l-50 -98q-6 -20 -26 -54q-3 -5 -18 -2q-11 3 -10 9l46 324q6 45 28 41l128 -19q27 -5 94 -5h400q18 0 18 -11q0 -6 -6 -18l-481 -901q-8 -14 -8 -23q0 -22 40.5 -27t94 -5t129.5 9.5t125 61.5 q71 75 119 207q4 13 29 7q21 -6 21 -16v-2q-38 -283 -38 -334q0 -33 -34 -33q-4 0 -94 19q-63 14 -108 14h-490q-19 0 -19 17zM277 -312q0 65 51 95q27 15 59 15q61 0 95 -49q18 -28 18 -61q0 -59 -49 -94q-29 -19 -64 -19q-62 0 -94 52q-16 28 -16 61z" />
<glyph unicode="&#x1ea0;" horiz-adv-x="1453" d="M-4 32.5q0 39.5 13 39.5q104 0 145 36q30 27 58 101l430 1124l-286 -10q-276 -13 -276 -277q0 -16 -39.5 -16t-39.5 16v332q0 34 39 34h44l400 -5h1h408l457 5h7q57 0 75 -22q5 -6 5 -12v-332q0 -16 -39.5 -16t-39.5 16q0 264 -276 277l-235 10h-7l382 -1140 q41 -121 200 -121q15 0 15 -40t-15 -39q-86 7 -242 7t-238 -7q-14 -1 -14 39t14 40q103 0 103 70q0 25 -8 51l-105 326q-11 33 -46 33h-423q-28 0 -42 -36l-117 -327q-10 -26 -10 -41q0 -76 157 -76q13 0 13 -39.5t-13 -39.5q-66 7 -222 7t-220 -7q-13 0 -13 39.5zM466 636 q3 -12 25 -12h373q24 0 25 15l-2 13l-176 553q-6 21 -17 21q-13 0 -21 -21l-205 -553zM601 -313q0 65 51 95q27 15 59 15q61 0 95 -49q18 -28 18 -61q0 -59 -49 -94q-29 -19 -64 -19q-62 0 -94 52q-16 28 -16 61z" />
<glyph unicode="&#x1ea1;" horiz-adv-x="938" d="M88 748q0 69 35.5 140t87.5 101t129 58.5t169 28.5q88 0 158.5 -51.5t70.5 -119.5v-659q0 -142 83 -142q39 0 89 46l8 2q26 -3 33 -23l4 -14q1 -2 -1 -6q-51 -85 -94.5 -111t-101.5 -26q-115 0 -165 167q-95 -93 -156.5 -130t-153.5 -37q-93 0 -136 65t-43 163 q0 93 59 162.5t121 103.5l263 146q24 13 24 39v224q0 120 -164 120q-119 0 -166 -66q-7 -11 -21 -134q-12 -111 -73 -111q-59 0 -59 64zM269 233q0 -62 32 -106t84 -44q64 0 125 59.5t61 103.5v274q0 27 -17 27q-9 0 -17 -5q-123 -60 -176 -106q-92 -81 -92 -203zM331 -312 q0 65 51 95q27 15 59 15q61 0 95 -49q18 -28 18 -61q0 -59 -49 -94q-29 -19 -64 -19q-62 0 -94 52q-16 28 -16 61z" />
<glyph unicode="&#x1eb8;" horiz-adv-x="1311" d="M94 694q0 256 140 458q132 192 332 257q94 31 194 31q152 0 303 -65q79 -34 124 -78q46 -45 46 -90q0 -44 -44 -70q-22 -13 -48 -13q-43 0 -70 32q-82 96 -114 125q-94 86 -202 86q-195 0 -325 -170q-133 -173 -133 -355q0 -44 41 -44h830q14 0 14 -40q0 -39 -14 -39 h-830q-41 0 -41 -44q0 -212 107 -369q149 -212 336 -212q186 0 293 48q74 34 154 87q6 4 9 4q20 0 32 -25q4 -8 4 -17t-8 -16q-133 -104 -204 -141q-121 -62 -263 -62q-251 0 -422 148q-241 208 -241 574zM579 -312q0 65 51 95q27 15 59 15q61 0 95 -49q18 -28 18 -61 q0 -59 -49 -94q-29 -19 -64 -19q-62 0 -94 52q-16 28 -16 61z" />
<glyph unicode="&#x1eb9;" horiz-adv-x="980" d="M105 540q0 205 129.5 370.5t302.5 165.5q176 0 273.5 -121t97.5 -207q0 -69 -64 -69h-534q-38 0 -38 -81q0 -213 98 -355.5t259 -142.5q116 0 234 86q24 17 37.5 -6t0.5 -35q-185 -173 -376 -173q-184 0 -302 173t-118 395zM302 780q0 -18 29 -18h397q19 0 19 21 q0 55 -67.5 138t-140.5 83q-101 0 -169 -80t-68 -144zM359 -312q0 65 51 95q27 15 59 15q61 0 95 -49q18 -28 18 -61q0 -59 -49 -94q-29 -19 -64 -19q-62 0 -94 52q-16 28 -16 61z" />
<glyph unicode="&#x1eca;" horiz-adv-x="626" d="M92 21q0 32 17 32q140 0 140 97v568q0 158 -104 158q-21 0 -21 31t21 31q43 0 228 142q18 13 28 13q22 0 22 -26q-7 -130 -7 -162v-755q0 -97 140 -97q17 0 17 -32q0 -31 -17 -31q-94 10 -212 10q-117 0 -235 -10q-17 0 -17 31zM190 1448q0 56 35 85q35 30 82 30 q58 0 88 -34q30 -36 30 -81q0 -52 -36 -86t-82 -34q-55 0 -87 35q-30 36 -30 85zM249 -313q0 65 51 95q27 15 59 15q61 0 95 -49q18 -28 18 -61q0 -59 -49 -94q-29 -19 -64 -19q-62 0 -94 52q-16 28 -16 61z" />
<glyph unicode="&#x1ecb;" horiz-adv-x="626" d="M92 21q0 32 17 32q140 0 140 97v568q0 158 -104 158q-21 0 -21 31t21 31q43 0 228 142q18 13 28 13q22 0 22 -26q-7 -130 -7 -162v-755q0 -97 140 -97q17 0 17 -32q0 -31 -17 -31q-94 10 -212 10q-117 0 -235 -10q-17 0 -17 31zM182 -312q0 65 51 95q27 15 59 15 q61 0 95 -49q18 -28 18 -61q0 -59 -49 -94q-29 -19 -64 -19q-62 0 -94 52q-16 28 -16 61zM190 1448q0 56 35 85q35 30 82 30q58 0 88 -34q30 -36 30 -81q0 -52 -36 -86t-82 -34q-55 0 -87 35q-30 36 -30 85z" />
<glyph unicode="&#x1ecc;" horiz-adv-x="1185" d="M104 525q0 212 143 381.5t354 169.5q219 0 358 -169t139 -380q0 -225 -126 -390t-369 -165q-216 0 -357.5 175.5t-141.5 377.5zM283 520q0 -216 101 -345.5t217 -129.5q117 0 217.5 129.5t100.5 345.5q0 220 -99 356t-217 136t-219 -134.5t-101 -357.5zM679 -313 q0 65 51 95q27 15 59 15q61 0 95 -49q18 -28 18 -61q0 -59 -49 -94q-29 -19 -64 -19q-62 0 -94 52q-16 28 -16 61z" />
<glyph unicode="&#x1ecd;" horiz-adv-x="1185" d="M104 525q0 212 143 381.5t354 169.5q219 0 358 -169t139 -380q0 -225 -126 -390t-369 -165q-216 0 -357.5 175.5t-141.5 377.5zM283 520q0 -216 101 -345.5t217 -129.5q117 0 217.5 129.5t100.5 345.5q0 220 -99 356t-217 136t-219 -134.5t-101 -357.5zM415 -312 q0 65 51 95q27 15 59 15q61 0 95 -49q18 -28 18 -61q0 -59 -49 -94q-29 -19 -64 -19q-62 0 -94 52q-16 28 -16 61z" />
<glyph unicode="&#x1ee4;" horiz-adv-x="1237" d="M59 1007q0 31 19 31q130 0 199 11q68 12 92 12t24 -20q-10 -152 -10 -188v-440q0 -142 50 -238q49 -97 148 -97q121 0 194 64q84 72 84 156v497q0 182 -137 182q-19 0 -19 30q0 31 19 31q152 0 212 11q60 12 76 12q24 0 24 -33q-8 -109 -8 -173v-574q0 -181 94 -181l67 9 q20 3 27 -34q2 -11 1 -18q0 -17 -10 -19q-34 -4 -158 -34q-123 -30 -159 -44q-3 -1 -9 -1q-20 0 -20 56v56q0 30 -15 29q-13 0 -33 -18q-117 -110 -290 -110q-130 0 -217 131q-89 131 -89 269v423q0 182 -137 182q-19 0 -19 30zM690 -312q0 65 51 95q27 15 59 15 q61 0 95 -49q18 -28 18 -61q0 -59 -49 -94q-29 -19 -64 -19q-62 0 -94 52q-16 28 -16 61z" />
<glyph unicode="&#x1ee5;" horiz-adv-x="1237" d="M59 1007q0 31 19 31q130 0 199 11q68 12 92 12t24 -20q-10 -152 -10 -188v-440q0 -142 50 -238q49 -97 148 -97q121 0 194 64q84 72 84 156v497q0 182 -137 182q-19 0 -19 30q0 31 19 31q152 0 212 11q60 12 76 12q24 0 24 -33q-8 -109 -8 -173v-574q0 -181 94 -181l67 9 q20 3 27 -34q2 -11 1 -18q0 -17 -10 -19q-34 -4 -158 -34q-123 -30 -159 -44q-3 -1 -9 -1q-20 0 -20 56v56q0 30 -15 29q-13 0 -33 -18q-117 -110 -290 -110q-130 0 -217 131q-89 131 -89 269v423q0 182 -137 182q-19 0 -19 30zM431 -312q0 65 51 95q27 15 59 15 q61 0 95 -49q18 -28 18 -61q0 -59 -49 -94q-29 -19 -64 -19q-62 0 -94 52q-16 28 -16 61z" />
<glyph unicode="&#x1ef4;" horiz-adv-x="966" d="M-4 940q0 33 16 33q43 -4 177 -4t177 4q18 0 18 -33t-18 -33q-77 0 -77 -38q0 -17 14 -44l185 -297q12 -26 28 0l197 289q15 27 15 46q0 44 -74 44q-15 0 -15 33t15 33q43 -4 159 -4t158 4q17 0 17 -33t-17 -33q-40 0 -68 -8q-27 -9 -57 -40q-31 -30 -41 -46 q-10 -14 -51 -71l-175 -252q-23 -34 -30 -53q-6 -20 -7 -40q-1 -18 -1 -41v-211q0 -47 23 -66q24 -18 82 -18q14 0 14 -34q0 -33 -14 -33q-65 6 -182 6t-181 -6q-15 0 -15 33q0 34 15 34q60 0 83 18q22 17 22 66v209q0 46 -5 62q-7 15 -42 72l-211 337q-53 82 -118 82 q-16 0 -16 33zM525 -312q0 66 51 95q27 15 59 15q62 0 95 -49q19 -28 19 -61q0 -59 -50 -94q-28 -19 -64 -19q-62 0 -93 52q-17 28 -17 61zM525 -312q0 65 51 95q27 15 59 15q61 0 95 -49q18 -28 18 -61q0 -59 -49 -94q-29 -19 -64 -19q-62 0 -94 52q-16 28 -16 61z M572 1726q0 66 51 95q27 16 59 16q62 0 95 -49q19 -28 19 -62q0 -59 -50 -93q-28 -20 -64 -20q-62 0 -93 52q-17 28 -17 61z" />
<glyph unicode="&#x1ef5;" horiz-adv-x="1036" d="M-66 1031q0 29 18 29q88 -8 215 -8t219 8q18 0 18 -29t-18 -29q-119 0 -119 -69q0 -26 3 -35l223 -645q13 -39 44 -39t46 41l249 643q5 13 5 32q0 72 -160 72q-17 0 -17 29t17 29q87 -8 197 -8t198 8q17 0 17 -29t-17 -29q-118 0 -153 -90l-507 -1319q-32 -83 -94 -125 t-127 -42q-50 0 -80.5 30t-30.5 64q0 94 109 94q135 0 168 78l77 186q3 8 3 50q0 17 -16 62l-321 922q-31 90 -148 90q-18 0 -18 29zM509 -312q0 65 51 95q27 15 59 15q61 0 95 -49q18 -28 18 -61q0 -59 -49 -94q-29 -19 -64 -19q-62 0 -94 52q-16 28 -16 61z" />
<glyph unicode="&#x1efa;" horiz-adv-x="2092" d="M71 1378q0 40 14 40q47 -6 273 -6q224 0 271 6q14 0 14 -40t-14 -40q-181 0 -181 -119v-931q0 -53 16 -103q14 -49 58 -85t111 -36l210 9q144 11 144 111v1035q0 119 -197 119q-14 0 -14 40t14 40q47 -6 273 -6q225 0 272 6q13 0 13 -40t-13 -40q-181 0 -181 -119v-931 q0 -53 15 -103q16 -49 58 -85t113 -36l324 14q130 5 203 95q72 89 72 221q0 14 40 14q41 0 41 -14v-366q0 -29 -38 -33q-14 -2 -46 -2l-449 4l-1123 3q-116 0 -265 -7q-14 0 -14 39q0 40 14 40q183 0 183 112v1035q0 119 -197 119q-14 0 -14 40z" />
<glyph unicode="&#x2000;" horiz-adv-x="925" />
<glyph unicode="&#x2001;" horiz-adv-x="1850" />
<glyph unicode="&#x2002;" horiz-adv-x="925" />
<glyph unicode="&#x2003;" horiz-adv-x="1850" />
<glyph unicode="&#x2004;" horiz-adv-x="616" />
<glyph unicode="&#x2005;" horiz-adv-x="462" />
<glyph unicode="&#x2006;" horiz-adv-x="308" />
<glyph unicode="&#x2007;" horiz-adv-x="308" />
<glyph unicode="&#x2008;" horiz-adv-x="231" />
<glyph unicode="&#x2009;" horiz-adv-x="370" />
<glyph unicode="&#x200a;" horiz-adv-x="102" />
<glyph unicode="&#x2010;" horiz-adv-x="860" d="M103 566q0 60 17 60h615q18 0 18 -60t-20 -60h-613q-17 0 -17 60z" />
<glyph unicode="&#x2011;" horiz-adv-x="860" d="M103 566q0 60 17 60h615q18 0 18 -60t-20 -60h-613q-17 0 -17 60z" />
<glyph unicode="&#x2012;" horiz-adv-x="860" d="M103 566q0 60 17 60h615q18 0 18 -60t-20 -60h-613q-17 0 -17 60z" />
<glyph unicode="&#x2013;" horiz-adv-x="1064" d="M7 541l2 33q7 35 23 35h1001q22 0 25 -48l-2 -34l-7 -23l-8 -9q-4 -3 -8 -3h-1001q-22 0 -25 49z" />
<glyph unicode="&#x2014;" horiz-adv-x="2129" d="M7 541l2 33q7 35 23 35h2066q22 0 25 -48l-2 -34l-7 -23q-7 -12 -16 -12h-2066q-22 0 -25 49z" />
<glyph unicode="&#x2018;" horiz-adv-x="552" d="M66 1163q0 217 255 379l10 1q15 -4 22 -19v-9l-1 -1q-100 -98 -132 -162q-22 -48 -22 -98q0 -47 32 -59q87 -34 104 -86q5 -18 5 -38q0 -91 -107 -91q-75 0 -126 64q-40 52 -40 119z" />
<glyph unicode="&#x2019;" horiz-adv-x="552" d="M201 1006l2 2q150 109 158 244v14q0 40 -34 58l-40 19q-65 35 -67 106q0 75 76 88q15 3 31 3q79 0 130 -68q36 -51 36 -115q0 -197 -193 -342q-30 -22 -63 -42l-9 -1q-16 6 -25 24z" />
<glyph unicode="&#x201a;" horiz-adv-x="404" d="M55 -298q0 4 2 6q158 120 158 258q0 45 -41 65l-48 21l-4 3q-47 34 -47 94q0 79 82 90q11 1 24 1q78 0 129 -68q37 -51 37 -115q0 -234 -255 -383q-3 -2 -7 -2q-30 0 -30 30z" />
<glyph unicode="&#x201c;" horiz-adv-x="903" d="M66 1163q0 217 255 379l10 1q15 -4 22 -19v-9l-1 -1q-100 -98 -132 -162q-22 -48 -22 -98q0 -47 32 -59q87 -34 104 -86q5 -18 5 -38q0 -91 -107 -91q-75 0 -126 64q-40 52 -40 119zM418 1163q0 217 256 379l9 1q16 -4 22 -19v-9l-1 -1q-100 -98 -131 -162 q-23 -48 -23 -98q0 -47 32 -59q88 -34 104 -86q6 -18 6 -38q0 -91 -108 -91q-74 0 -125 64q-41 52 -41 119z" />
<glyph unicode="&#x201d;" horiz-adv-x="907" d="M201 1006l2 2q150 109 158 244v14q0 40 -34 58l-40 19q-65 35 -67 106q0 75 76 88q15 3 31 3q79 0 130 -68q36 -51 36 -115q0 -197 -193 -342q-30 -22 -63 -42l-9 -1q-16 6 -25 24zM556 1006l2 2q150 109 159 244v14q0 40 -35 58l-39 19q-66 35 -67 106q0 75 76 88 q15 3 30 3q79 0 130 -68q37 -51 37 -115q0 -197 -194 -342q-29 -22 -62 -42l-10 -1q-15 6 -25 24z" />
<glyph unicode="&#x201e;" horiz-adv-x="760" d="M55 -298q0 4 2 6q158 120 158 258q0 45 -41 65l-48 21l-4 3q-47 34 -47 94q0 79 82 90q11 1 24 1q78 0 129 -68q37 -51 37 -115q0 -234 -255 -383q-3 -2 -7 -2q-30 0 -30 30zM408 -298q0 4 2 6q158 120 158 258q0 45 -42 65l-48 21l-4 3q-47 34 -47 94q0 79 83 90 q11 1 24 1q78 0 128 -68q38 -51 38 -115q0 -234 -256 -383q-2 -2 -6 -2q-30 0 -30 30z" />
<glyph unicode="&#x2022;" horiz-adv-x="847" d="M149 790q0 122 93 198q81 64 197 64q123 0 199 -91q63 -78 63 -190q0 -114 -77 -188q-75 -74 -185 -74q-141 0 -223 92q-67 76 -67 189z" />
<glyph unicode="&#x202f;" horiz-adv-x="370" />
<glyph unicode="&#x2039;" horiz-adv-x="500" d="M61 452.5q0 29.5 25 55.5l311 324q12 11 30 -3.5t9 -27.5l-205 -306q-13 -19 -13 -43t13 -42l205 -302q10 -15 -8 -31.5t-31 -3.5l-311 324q-25 26 -25 55.5z" />
<glyph unicode="&#x203a;" horiz-adv-x="500" d="M61 108l205 302q13 18 13 42t-13 43l-205 306q-9 13 9 27.5t30 3.5l311 -324q25 -26 25 -55.5t-25 -55.5l-311 -324q-13 -14 -31 3t-8 32z" />
<glyph unicode="&#x204a;" horiz-adv-x="881" d="M28 747q0 2 1 4q13 25 41 114q22 69 32 117q2 10 25 10q15 0 26 -6q12 -7 9 -19q-2 -8 -2 -22q0 -61 72 -61q343 0 467 21q25 4 38 4q41 0 41 -51q-9 -142 -9 -206v-916q0 -224 -144 -288q-55 -25 -127 -25q-54 0 -219 30q-14 2 -14 33q0 43 25 39q68 -13 119 -13 q135 0 177 90q23 51 23 142v1016q0 39 -38 39h-394q-63 0 -92 -64q-7 -15 -36 -5q-21 7 -21 17z" />
<glyph unicode="&#x205f;" horiz-adv-x="462" />
<glyph unicode="&#x2070;" horiz-adv-x="655" d="M34 960q0 144 48 252q73 163 230 163q164 0 235 -178q43 -108 43 -253q0 -127 -44 -233q-73 -179 -235 -179q-167 0 -237 182q-40 106 -40 246zM189 967q0 -161 18 -239q32 -137 103 -137q123 0 123 347q0 171 -24 272q-26 108 -95 109q-99 0 -121 -222q-4 -55 -4 -130z " />
<glyph unicode="&#x2071;" horiz-adv-x="326" d="M27 564q0 24 9 24q66 0 66 46v258q0 78 -57 78q-10 0 -10 24q0 23 10 23q31 0 116 42q40 19 52 30q9 7 20 7q16 0 16 -16q-4 -56 -4 -110v-336q0 -46 65 -46q9 0 9 -24q0 -23 -9 -24q-52 5 -136 5q-85 0 -138 -5q-9 0 -9 24zM71 1284q0 43 35 70q24 17 54 17q49 0 73 -36 q18 -25 18 -51q0 -44 -38 -69q-24 -16 -53 -16q-47 0 -74 37q-15 22 -15 48z" />
<glyph unicode="&#x2074;" horiz-adv-x="655" d="M50 810q0 30 32 77l180 238q118 155 149 206l58 94q9 10 28 10q53 0 53 -33q0 -5 -3 -10l-385 -509q-5 -7 -5 -14q0 -11 11 -12h223v267q0 14 71 14q70 0 70 -14v-267h77q10 0 10 -41t-10 -41h-77v-134q0 -55 65 -55q9 0 9 -24t-9 -24q-50 5 -130 5q-111 0 -164 -5 q-10 0 -10 24t10 24q88 0 88 55v134h-287q-54 0 -54 35z" />
<glyph unicode="&#x2075;" horiz-adv-x="655" d="M53 623q0 33 22 50q20 14 49 14q38 0 66 -33q46 -54 90 -54q66 0 111 68q39 57 39 122q0 96 -66 148q-52 43 -131 43q-41 0 -85 -13q-11 -3 -17 -3q-23 0 -20 22q27 174 60 343q6 34 43 34h313q4 0 4 -12q0 -11 -3 -34q-10 -70 -23 -70h-259q-21 0 -22 -8 q-15 -59 -20 -120q-1 -10 9 -8q26 4 45 4q144 0 224 -79q67 -69 67 -180q0 -121 -73 -210q-93 -115 -249 -115q-92 0 -140 33q-34 23 -34 58z" />
<glyph unicode="&#x2076;" horiz-adv-x="655" d="M40 839q0 159 111 313q128 176 324 255q2 1 3 1q9 0 16 -16q4 -11 4 -17t-3 -7q-150 -83 -232 -243q-38 -75 -57 -154q36 47 98 64q19 5 38 5q101 0 166 -81q55 -70 55 -162q0 -103 -68 -178q-78 -87 -200 -87q-140 0 -209 118q-46 80 -46 189zM188 838q0 -240 123 -240 q67 0 97 71q17 40 17 91q0 64 -36 124q-37 60 -97 60q-57 0 -100 -49q-5 -25 -4 -57z" />
<glyph unicode="&#x2077;" horiz-adv-x="655" d="M44 1178l32 151q5 24 10 30q8 5 24 5h426q35 0 34 -20q0 -6 -3 -13l-313 -788q-5 -14 -58 -14q-56 0 -85 16q-3 2 -3 10l343 700h-185q-72 0 -108 -17q-39 -20 -58 -64q-4 -10 -26 -10q-33 0 -30 14z" />
<glyph unicode="&#x2078;" horiz-adv-x="655" d="M43 751q0 111 158 205q-137 83 -137 204q0 90 69 155q66 60 164 60q114 0 178 -61q53 -52 53 -136q0 -112 -132 -188q158 -95 158 -230q0 -99 -75 -163q-77 -65 -182 -65q-107 0 -177 58q-77 60 -77 161zM184 1200q0 -85 144 -169q67 37 67 122q0 88 -42 131 q-29 28 -70 28q-55 0 -83 -49q-16 -29 -16 -63zM185 762q0 -72 39 -123q36 -48 93 -48t85 55q17 33 17 73q0 103 -153 196q-81 -47 -81 -153z" />
<glyph unicode="&#x2079;" horiz-adv-x="655" d="M34 1100q0 118 69 193q75 82 199 82q129 0 198 -104q57 -84 57 -196q0 -191 -147 -355q-110 -124 -276 -203q-11 -5 -24 21q-7 15 -7 23q0 6 4 9q126 71 191 161q54 74 92 203q-30 -30 -81 -48q-27 -9 -49 -9q-104 0 -164 68q-62 71 -62 155zM178 1141q0 -65 33 -120 q37 -58 90 -58q63 0 99 37q8 29 8 74q0 234 -125 234q-67 0 -94 -83q-11 -38 -11 -84z" />
<glyph unicode="&#x207a;" horiz-adv-x="632" d="M74 775v62h209v209h75v-209h208v-62h-208v-232h-75v232h-209z" />
<glyph unicode="&#x207c;" horiz-adv-x="646" d="M74 749v62h492v-62h-492zM74 915v63h492v-63h-492z" />
<glyph unicode="&#x207d;" horiz-adv-x="475" d="M87 935q0 161 73 299q78 156 224 231q14 9 40 9q43 0 43 -18q0 -11 -20 -19q-102 -58 -158 -193q-57 -136 -57 -309q0 -170 55 -305q58 -135 162 -196q18 -12 18 -21q0 -18 -43 -18q-23 0 -40 10q-142 71 -220 219q-77 142 -77 311z" />
<glyph unicode="&#x207e;" horiz-adv-x="453" d="M6 411q0 9 18 21q216 121 216 501q0 175 -56 309q-55 135 -158 193q-20 7 -20 19q0 18 43 18q26 0 40 -10q143 -74 224 -230q73 -138 73 -299q0 -165 -75 -311q-81 -148 -222 -220q-16 -9 -40 -9q-43 0 -43 18z" />
<glyph unicode="&#x207f;" horiz-adv-x="678" d="M26 564q0 24 9 24q67 0 67 46v253q0 83 -57 83q-10 0 -10 24q0 23 10 23q31 0 116 42q40 19 52 30q9 7 17 7q18 0 19 -16l-4 -43q0 -13 7 -13q5 0 10 7q26 34 86 50q26 7 60 7q117 0 170 -116q23 -45 23 -137v-205q0 -42 66 -42q10 0 10 -24t-10 -24q-67 5 -132 5 t-140 -5q-9 0 -9 24t9 24q63 0 63 38v254q0 92 -37 125q-17 15 -60 15q-39 0 -74 -31q-42 -36 -42 -75v-280q0 -46 62 -46q9 0 9 -24t-9 -24q-52 5 -135 5q-84 0 -137 -5q-9 0 -9 24z" />
<glyph unicode="&#x2080;" horiz-adv-x="655" d="M34 128q0 144 48 252q73 163 230 163q164 0 235 -178q43 -108 43 -253q0 -127 -44 -233q-73 -179 -235 -179q-167 0 -237 182q-40 106 -40 246zM189 135q0 -161 18 -239q32 -137 103 -137q123 0 123 347q0 171 -24 272q-26 108 -95 109q-99 0 -121 -222q-4 -55 -4 -130z " />
<glyph unicode="&#x2081;" horiz-adv-x="655" d="M96 412q0 8 7 11q90 38 217 133q17 13 30 13q28 0 28 -25t-3 -49t-3 -59v-548q0 -132 102 -134q10 0 10 -23.5t-10 -23.5q-50 4 -177 4q-126 0 -176 -4q-11 0 -11 23q0 24 11 24q110 0 110 133v503q0 35 -9 35q-8 0 -36 -10q-28 -9 -68 -29q-4 -1 -7 -1q-9 0 -13 14 q-2 8 -2 13z" />
<glyph unicode="&#x2082;" horiz-adv-x="655" d="M47 -264q0 13 12 25q100 100 197 231q159 218 159 330q0 128 -107 128q-93 0 -151 -103q-3 -6 -10 -6q-8 0 -20 7q-13 8 -13 15q0 3 2 6q51 99 132 145q52 29 110 29q102 0 163 -69q54 -60 54 -145q0 -116 -171 -312q-37 -42 -181 -185h184q71 0 98 11q29 12 49 50 q4 7 14 7q8 0 20 -5q20 -8 20 -17q0 -2 -1 -4l-60 -143q-10 -24 -50 -24q-43 0 -83 2t-71 2h-50q-50 -2 -103 -3t-110 -1q-33 0 -33 29z" />
<glyph unicode="&#x2083;" horiz-adv-x="655" d="M62 -200q0 61 76 61q28 0 59 -35l31 -37q29 -29 62 -29q64 0 97 83q21 54 21 119q0 83 -51 131q-41 39 -102 39q-37 0 -67 -11q-17 0 -17 35q0 32 13 32q96 0 151 52q43 41 43 100q0 62 -35 98q-24 25 -60 25q-57 0 -105 -52q-19 -21 -34 -45q-4 -6 -11 -6q-8 0 -21 10 q-11 9 -11 17q0 3 2 7q59 89 113 120q49 29 108 29q84 0 141 -58q53 -54 53 -130q0 -107 -108 -170q150 -44 150 -208q0 -108 -77 -188q-90 -93 -226 -93q-90 0 -145 32q-49 27 -50 72z" />
<glyph unicode="&#x2084;" horiz-adv-x="655" d="M50 -22q0 30 32 77l180 238q118 155 149 206l58 94q9 10 28 10q53 0 53 -33q0 -5 -3 -10l-385 -509q-5 -7 -5 -14q0 -11 11 -12h223v267q0 14 71 14q70 0 70 -14v-267h77q10 0 10 -41t-10 -41h-77v-134q0 -55 65 -55q9 0 9 -24t-9 -24q-50 5 -130 5q-111 0 -164 -5 q-10 0 -10 24t10 24q88 0 88 55v134h-287q-54 0 -54 35z" />
<glyph unicode="&#x2085;" horiz-adv-x="655" d="M53 -209q0 33 22 50q20 14 49 14q38 0 66 -33q46 -54 90 -54q66 0 111 68q39 57 39 122q0 96 -66 148q-52 43 -131 43q-41 0 -85 -13q-11 -3 -17 -3q-23 0 -20 22q27 174 60 343q6 34 43 34h313q4 0 4 -12q0 -11 -3 -34q-10 -70 -23 -70h-259q-21 0 -22 -8 q-15 -59 -20 -120q-1 -10 9 -8q26 4 45 4q144 0 224 -79q67 -69 67 -180q0 -121 -73 -210q-93 -115 -249 -115q-92 0 -140 33q-34 23 -34 58z" />
<glyph unicode="&#x2086;" horiz-adv-x="655" d="M40 7q0 159 111 313q128 176 324 255q2 1 3 1q9 0 16 -16q4 -11 4 -17t-3 -7q-150 -83 -232 -243q-38 -75 -57 -154q36 47 98 64q19 5 38 5q101 0 166 -81q55 -70 55 -162q0 -103 -68 -178q-78 -87 -200 -87q-140 0 -209 118q-46 80 -46 189zM188 6q0 -240 123 -240 q67 0 97 71q17 40 17 91q0 64 -36 124q-37 60 -97 60q-57 0 -100 -49q-5 -25 -4 -57z" />
<glyph unicode="&#x2087;" horiz-adv-x="655" d="M44 346l32 151q5 24 10 30q8 5 24 5h426q35 0 34 -20q0 -6 -3 -13l-313 -788q-5 -14 -58 -14q-56 0 -85 16q-3 2 -3 10l343 700h-185q-72 0 -108 -17q-39 -20 -58 -64q-4 -10 -26 -10q-33 0 -30 14z" />
<glyph unicode="&#x2088;" horiz-adv-x="655" d="M43 -81q0 111 158 205q-137 83 -137 204q0 90 69 155q66 60 164 60q114 0 178 -61q53 -52 53 -136q0 -112 -132 -188q158 -95 158 -230q0 -99 -75 -163q-77 -65 -182 -65q-107 0 -177 58q-77 60 -77 161zM184 368q0 -85 144 -169q67 37 67 122q0 88 -42 131 q-29 28 -70 28q-55 0 -83 -49q-16 -29 -16 -63zM185 -70q0 -72 39 -123q36 -48 93 -48t85 55q17 33 17 73q0 103 -153 196q-81 -47 -81 -153z" />
<glyph unicode="&#x2089;" horiz-adv-x="655" d="M34 268q0 118 69 193q75 82 199 82q129 0 198 -104q57 -84 57 -196q0 -191 -147 -355q-110 -124 -276 -203q-11 -5 -24 21q-7 15 -7 23q0 6 4 9q126 71 191 161q54 74 92 203q-30 -30 -81 -48q-27 -9 -49 -9q-104 0 -164 68q-62 71 -62 155zM178 309q0 -65 33 -120 q37 -58 90 -58q63 0 99 37q8 29 8 74q0 234 -125 234q-67 0 -94 -83q-11 -38 -11 -84z" />
<glyph unicode="&#x208a;" horiz-adv-x="632" d="M74 5h209v209h75v-209h208v-62h-208v-232h-75v232h-209v62z" />
<glyph unicode="&#x208c;" horiz-adv-x="643" d="M74 -21h492v-62h-492v62zM74 83v63h492v-63h-492z" />
<glyph unicode="&#x208d;" horiz-adv-x="534" d="M87 162q0 162 73 301q78 153 224 230q14 8 40 8q43 0 43 -17q0 -8 -20 -22q-103 -58 -158 -192q-57 -134 -57 -308q0 -171 55 -307q58 -136 162 -193q18 -11 18 -22q0 -16 -43 -16q-22 0 -40 8q-142 73 -220 219q-77 142 -77 311z" />
<glyph unicode="&#x208e;" horiz-adv-x="453" d="M6 -360q0 11 18 22q216 122 216 500q0 173 -56 308q-55 134 -158 192q-20 14 -20 22q0 17 43 17q26 0 40 -8q143 -77 224 -230q73 -139 73 -301q0 -168 -75 -311q-81 -145 -222 -219q-18 -8 -40 -8q-43 0 -43 16z" />
<glyph unicode="&#x20ac;" horiz-adv-x="1311" d="M-8 577l2 32q5 32 22 32h78v53q0 46 1 68h-79q-21 0 -24 46l2 32q5 32 22 32h94q53 225 205 380q185 188 445 188q182 0 328 -73q63 -32 99 -70q46 -52 46 -90q0 -47 -45 -71q-22 -12 -47 -12q-44 0 -87 49l-60 71l-6 6q-78 79 -137 101q-43 16 -96 16q-206 0 -335 -182 l-33 -55q-64 -115 -82 -258h692q20 0 23 -46l-2 -34l-7 -20q-6 -10 -14 -10h-702v-22q0 -67 3 -99h699q20 0 23 -46l-2 -33l-7 -21q-6 -10 -14 -10h-681q50 -221 189 -340q116 -97 270 -97q143 0 239 41q47 20 173 94q6 4 9 4q20 0 32 -25q4 -8 4 -17t-8 -16 q-142 -118 -247 -160q-103 -43 -220 -43q-228 0 -408 137q-168 129 -224 326q-14 48 -20 96h-89q-21 0 -24 46z" />
<glyph unicode="&#x2122;" horiz-adv-x="2144" d="M36 1215v186q0 20 46 20q128 -2 257 -3h270q214 3 257 3q45 0 45 -20v-186q0 -9 -22 -9t-22 9q0 149 -150 156l-167 5q-29 0 -30 -26v-614q0 -67 109 -67q9 0 9 -22q0 -23 -9 -23q-45 4 -157 4q-113 0 -158 -4q-8 0 -8 22t8 23q59 0 93 27q20 17 20 40v614q0 26 -27 26 l-166 -5q-153 -5 -153 -156q0 -9 -23 -9q-22 0 -22 9zM1013 647q0 22 8 23q89 0 94 67l34 549q0 65 -49 83q-24 8 -63 9q-8 0 -8 22t8 22q27 -3 95 -3q56 0 74 -10q19 -7 32 -32l280 -587q8 -15 13 -15t14 16l290 589q13 27 35 33q18 6 63 6q72 0 100 3q9 0 9 -22t-9 -22 q-77 0 -100 -42q-12 -22 -12 -64l4 -535q1 -67 95 -67q8 0 8 -23q0 -22 -8 -22q-45 4 -137 4q-91 0 -142 -4q-8 0 -8 22t8 23q88 0 89 67l-3 496q0 8 -5 8t-7 -4l-303 -611q-4 -10 -12 -10q-10 0 -14 10l-276 608q-5 11 -10 11t-6 -11l-30 -497l1 -18q9 -49 92 -49 q9 0 9 -23q0 -22 -9 -22q-47 4 -117 4q-69 0 -119 -4q-8 0 -8 22z" />
<glyph unicode="&#x2150;" horiz-adv-x="1547" d="M108 1231q-7 21 4 24q82 35 218 133q16 13 30 13q27 0 27 -33q-4 -45 -4 -100v-548q0 -79 21 -106q22 -27 80 -28q9 0 9 -24q0 -23 -9 -23q-49 5 -177 5t-178 -5q-9 0 -9 23q0 24 9 24q69 0 91 31q20 28 20 102v503q0 35 -12 35q-66 -21 -101 -39q-13 -6 -19 13zM359 77 l923 1405q3 5 12 5q13 0 35 -16q22 -17 16 -26l-927 -1409q-7 -11 -37 10q-29 21 -22 31zM1007 631l31 151q5 24 11 30q8 5 23 5h426q35 0 35 -19q0 -6 -3 -14l-314 -788q-5 -14 -57 -14q-56 0 -85 16q-3 2 -3 10l342 700h-185q-72 0 -108 -17q-39 -20 -57 -64 q-4 -10 -30 -10t-26 14z" />
<glyph unicode="&#x2151;" horiz-adv-x="1547" d="M108 1231q-7 21 4 24q82 35 218 133q16 13 30 13q27 0 27 -33q-4 -45 -4 -100v-548q0 -79 21 -106q22 -27 80 -28q9 0 9 -24q0 -23 -9 -23q-49 5 -177 5t-178 -5q-9 0 -9 23q0 24 9 24q69 0 91 31q20 28 20 102v503q0 35 -12 35q-66 -21 -101 -39q-13 -6 -19 13zM359 77 l923 1405q3 5 12 5q13 0 35 -16.5t16 -25.5l-927 -1409q-7 -11 -36.5 10t-22.5 31zM981 552q0 118 68 193q75 82 198 82q129 0 200 -104q56 -84 56 -196q0 -191 -147 -355q-110 -124 -275 -203q-12 -5 -24 20q-8 15 -8 23q0 7 5 10q125 71 190 160q53 74 92 204 q-30 -30 -81 -48q-27 -9 -50 -9q-104 0 -163 68q-61 71 -61 155zM1124 593q0 -65 34 -120q36 -58 88 -58q63 0 100 37q7 28 7 74q0 234 -125 234q-66 0 -92 -83q-12 -38 -12 -84z" />
<glyph unicode="&#x2152;" horiz-adv-x="1989" d="M108 1231q-7 21 4 24q82 35 218 133q16 13 30 13q27 0 27 -33q-4 -45 -4 -100v-548q0 -79 21 -106q22 -27 80 -28q9 0 9 -24q0 -23 -9 -23q-49 5 -177 5t-178 -5q-9 0 -9 23q0 24 9 24q69 0 91 31q20 28 20 102v503q0 35 -12 35q-66 -21 -101 -39q-13 -6 -19 13zM307 77 l923 1405q3 5 12 5q13 0 35 -16.5t16 -25.5l-927 -1409q-7 -11 -36.5 10t-22.5 31zM907 688q-6 20 5 23q82 35 217 133q17 13 31 13q27 0 27 -33q-5 -45 -5 -100v-548q0 -79 21 -106q23 -27 80 -28q10 0 10 -23q0 -24 -10 -24q-49 5 -176 5q-128 0 -178 -5q-10 0 -10 24 q0 23 10 23q68 0 91 31q20 28 20 102v503q0 35 -12 35q-66 -21 -101 -39q-13 -6 -20 14zM1372 418q0 145 48 253q72 162 230 162q165 0 234 -177q44 -109 44 -254q0 -126 -44 -231q-72 -179 -235 -179q-167 0 -237 182q-39 105 -40 244zM1527 426q0 -161 17 -239 q33 -138 103 -138q123 0 124 309v38q0 171 -25 273q-26 108 -94 108q-99 0 -120 -221q-5 -55 -5 -130z" />
<glyph unicode="&#x2153;" horiz-adv-x="1547" d="M108 1231q-7 21 4 24q82 35 218 133q16 13 30 13q27 0 27 -33q-4 -45 -4 -100v-548q0 -79 21 -106q22 -27 80 -28q9 0 9 -24q0 -23 -9 -23q-49 5 -177 5t-178 -5q-9 0 -9 23q0 24 9 24q69 0 91 31q20 28 20 102v503q0 35 -12 35q-66 -21 -101 -39q-13 -6 -19 13zM359 77 l923 1405q3 5 12 5q13 0 35 -16.5t16 -25.5l-927 -1409q-7 -11 -36.5 10t-22.5 31zM994 88q0 61 76 61q28 0 57 -35l33 -37q29 -29 62 -29q63 0 97 83q21 54 21 119q0 83 -51 131q-41 39 -102 39q-37 0 -67 -10q-18 0 -18 34q0 32 14 32q96 0 151 52q41 41 41 100 q0 63 -33 98q-24 25 -60 25q-57 0 -105 -52q-18 -21 -35 -45q-8 -13 -31 4q-16 13 -10 24q59 89 114 121q49 28 108 28q84 0 140 -58q54 -54 54 -129q0 -107 -108 -171q149 -43 149 -208q0 -108 -77 -188q-89 -92 -225 -92q-89 0 -145 31q-49 27 -50 72z" />
<glyph unicode="&#x2154;" horiz-adv-x="1535" d="M30 570q0 13 13 26q99 100 196 231q159 216 159 329q-3 128 -107 128q-92 0 -151 -102q-7 -13 -30 2q-16 10 -10 20q51 99 131 145q52 29 110 29q102 0 163 -69q54 -60 54 -146q0 -120 -171 -311q-37 -42 -181 -185h184q72 0 99 11q31 14 49 50q7 14 33 2q24 -9 21 -18 l-62 -146q-10 -24 -50 -25q-84 5 -153 5h-50q-101 0 -214 -5q-33 0 -33 29zM374 77l924 1405q3 5 11 5q14 0 36 -16.5t15 -25.5l-926 -1409q-8 -11 -37.5 10t-22.5 31zM994 88q0 61 76 61q28 0 57 -35l33 -37q29 -29 62 -29q63 0 97 83q21 54 21 119q0 83 -51 131 q-41 39 -102 39q-37 0 -67 -10q-18 0 -18 34q0 32 14 32q96 0 151 52q41 41 41 100q0 63 -33 98q-24 25 -60 25q-57 0 -105 -52q-18 -21 -35 -45q-8 -13 -31 4q-16 13 -10 24q59 89 114 121q49 28 108 28q84 0 140 -58q54 -54 54 -129q0 -107 -108 -171q149 -43 149 -208 q0 -108 -77 -188q-89 -92 -225 -92q-89 0 -145 31q-49 27 -50 72z" />
<glyph unicode="&#x2155;" horiz-adv-x="1543" d="M108 1231q-7 21 4 24q82 35 218 133q16 13 30 13q27 0 27 -33q-4 -45 -4 -100v-548q0 -79 21 -106q22 -27 80 -28q9 0 9 -24q0 -23 -9 -23q-49 5 -177 5t-178 -5q-9 0 -9 23q0 24 9 24q69 0 91 31q20 28 20 102v503q0 35 -12 35q-66 -21 -101 -39q-13 -6 -19 13zM356 77 l923 1405q3 5 12 5q13 0 35 -16.5t16 -25.5l-927 -1409q-7 -11 -37 10t-22 31zM987 79q0 33 22 50q20 13 49 13q38 0 66 -32q46 -54 90 -54q66 0 111 68q38 57 38 122q0 96 -65 148q-52 43 -131 43q-41 0 -85 -13q-11 -3 -17 -3q-23 0 -20 21q27 174 59 344q7 35 44 35h313 q4 0 4 -13q0 -11 -3 -34q-10 -70 -23 -70h-259q-21 0 -22 -9q-15 -59 -20 -119q-1 -10 9 -8q26 4 45 4q144 0 223 -79q68 -69 68 -180q0 -121 -73 -210q-93 -114 -249 -114q-92 0 -140 32q-34 23 -34 58z" />
<glyph unicode="&#x2156;" horiz-adv-x="1535" d="M30 570q0 13 13 26q99 100 196 231q159 216 159 329q-3 128 -107 128q-92 0 -151 -102q-7 -13 -30 2q-16 10 -10 20q51 99 131 145q52 29 110 29q102 0 163 -69q54 -60 54 -146q0 -120 -171 -311q-37 -42 -181 -185h184q72 0 99 11q31 14 49 50q7 14 33 2q24 -9 21 -18 l-62 -146q-10 -24 -50 -25q-84 5 -153 5h-50q-101 0 -214 -5q-33 0 -33 29zM390 77l924 1405q3 5 11 5q13 0 35 -16.5t16 -25.5l-927 -1409q-7 -11 -36.5 10t-22.5 31zM987 79q0 33 22 50q20 13 49 13q38 0 66 -32q46 -54 90 -54q66 0 111 68q38 57 38 122q0 96 -65 148 q-52 43 -131 43q-41 0 -85 -13q-11 -3 -17 -3q-23 0 -20 21q27 174 59 344q7 35 44 35h313q4 0 4 -13q0 -11 -3 -34q-10 -70 -23 -70h-259q-21 0 -22 -9q-15 -59 -20 -119q-1 -10 9 -8q26 4 45 4q144 0 223 -79q68 -69 68 -180q0 -121 -73 -210q-93 -114 -249 -114 q-92 0 -140 32q-34 23 -34 58z" />
<glyph unicode="&#x2157;" horiz-adv-x="1543" d="M47 631q0 61 76 61q28 0 57 -35l32 -37q29 -29 63 -29q63 0 96 83q21 54 21 118q0 84 -51 132q-40 39 -102 39q-36 0 -66 -10q-18 0 -18 34q0 32 13 32q96 0 151 52q42 41 42 100q0 62 -33 98q-24 25 -61 25q-57 0 -105 -52q-17 -21 -34 -45q-8 -13 -31 4q-17 13 -11 24 q60 89 115 121q49 28 108 28q83 0 139 -58q54 -54 54 -129q0 -107 -108 -171q150 -44 150 -208q0 -108 -77 -188q-89 -92 -226 -92q-88 0 -144 30q-49 28 -50 73zM340 77l924 1405q3 5 11 5q14 0 35.5 -16.5t15.5 -25.5l-927 -1409q-7 -11 -36.5 10t-22.5 31zM987 79 q0 33 22 50q20 13 49 13q38 0 66 -32q46 -54 90 -54q66 0 111 68q38 57 38 122q0 96 -65 148q-52 43 -131 43q-41 0 -85 -13q-11 -3 -17 -3q-23 0 -20 21q27 174 59 344q7 35 44 35h313q4 0 4 -13q0 -11 -3 -34q-10 -70 -23 -70h-259q-21 0 -22 -9q-15 -59 -20 -119 q-1 -10 9 -8q26 4 45 4q144 0 223 -79q68 -69 68 -180q0 -121 -73 -210q-93 -114 -249 -114q-92 0 -140 32q-34 23 -34 58z" />
<glyph unicode="&#x2158;" horiz-adv-x="1539" d="M20 810q0 30 32 76l180 239q117 155 149 206l59 94q9 10 27 10q53 0 53 -33q0 -5 -2 -10l-386 -509q-5 -7 -5 -14q0 -11 11 -12h224v267q0 14 71 14q70 0 70 -14v-267h77q10 0 10 -41t-10 -42h-77v-134q0 -54 64 -54q9 0 9 -24t-9 -24q-50 5 -146 5q-95 0 -149 -5 q-9 0 -9 24t9 24q89 0 90 54v134h-288q-54 0 -54 36zM387 77l923 1405q4 5 12 5q13 0 35 -16.5t16 -25.5l-927 -1409q-7 -11 -36.5 10t-22.5 31zM987 79q0 33 22 50q20 13 49 13q38 0 66 -32q46 -54 90 -54q66 0 111 68q38 57 38 122q0 96 -65 148q-52 43 -131 43 q-41 0 -85 -13q-11 -3 -17 -3q-23 0 -20 21q27 174 59 344q7 35 44 35h313q4 0 4 -13q0 -11 -3 -34q-10 -70 -23 -70h-259q-21 0 -22 -9q-15 -59 -20 -119q-1 -10 9 -8q26 4 45 4q144 0 223 -79q68 -69 68 -180q0 -121 -73 -210q-93 -114 -249 -114q-92 0 -140 32 q-34 23 -34 58z" />
<glyph unicode="&#x2159;" horiz-adv-x="1541" d="M108 1231q-7 21 4 24q82 35 218 133q16 13 30 13q27 0 27 -33q-4 -45 -4 -100v-548q0 -79 21 -106q22 -27 80 -28q9 0 9 -24q0 -23 -9 -23q-49 5 -177 5t-178 -5q-9 0 -9 23q0 24 9 24q69 0 91 31q20 28 20 102v503q0 35 -12 35q-66 -21 -101 -39q-13 -6 -19 13zM399 77 l924 1405q3 5 11 5q14 0 36 -16.5t15 -25.5l-926 -1409q-8 -11 -37.5 10t-22.5 31zM963 296q0 160 110 313q128 176 326 255q2 1 3 0q8 0 16 -15q4 -11 4 -17t-3 -8q-150 -82 -233 -242q-39 -74 -57 -155q37 47 97 64q20 5 40 6q101 0 165 -82q54 -70 54 -162 q0 -103 -66 -177q-78 -86 -200 -86q-141 0 -209 116q-47 80 -47 190zM1111 294q0 -240 123 -240q67 0 97 71q18 40 18 91q0 64 -37 124t-96 60q-57 0 -100 -47q-5 -25 -5 -59z" />
<glyph unicode="&#x215a;" horiz-adv-x="1539" d="M47 623q0 33 22 50q19 13 49 13q38 0 66 -32q46 -54 90 -54q66 0 111 68q38 57 38 122q0 96 -65 148q-52 43 -131 43q-41 0 -86 -13q-10 -3 -16 -3q-23 0 -20 21q27 174 59 344q7 34 44 34h313q4 0 4 -12q0 -11 -3 -34q-10 -70 -23 -70h-259q-22 0 -23 -9 q-14 -59 -19 -119q-1 -10 9 -8q26 4 45 4q144 0 223 -79q68 -69 68 -180q0 -121 -73 -210q-94 -115 -250 -115q-91 0 -139 33q-34 23 -34 58zM343 77l924 1405q3 5 11 5q14 0 35.5 -16.5t15.5 -25.5l-927 -1409q-7 -11 -36.5 10t-22.5 31zM963 296q0 160 110 313 q128 176 326 255q2 1 3 0q8 0 16 -15q4 -11 4 -17t-3 -8q-150 -82 -233 -242q-39 -74 -57 -155q37 47 97 64q20 5 40 6q101 0 165 -82q54 -70 54 -162q0 -103 -66 -177q-78 -86 -200 -86q-141 0 -209 116q-47 80 -47 190zM1111 294q0 -240 123 -240q67 0 97 71q18 40 18 91 q0 64 -37 124t-96 60q-57 0 -100 -47q-5 -25 -5 -59z" />
<glyph unicode="&#x215b;" horiz-adv-x="1543" d="M108 1231q-7 21 4 24q82 35 218 133q16 13 30 13q27 0 27 -33q-4 -45 -4 -100v-548q0 -79 21 -106q22 -27 80 -28q9 0 9 -24q0 -23 -9 -23q-49 5 -177 5t-178 -5q-9 0 -9 23q0 24 9 24q69 0 91 31q20 28 20 102v503q0 35 -12 35q-66 -21 -101 -39q-13 -6 -19 13zM343 77 l924 1405q3 5 11 5q14 0 36 -16q21 -17 15 -26l-927 -1409q-7 -11 -36 10q-30 21 -23 31zM959 209q0 111 158 204q-135 83 -135 205q0 90 68 154q66 60 164 60q113 0 178 -61q53 -52 53 -136q0 -112 -133 -188q160 -94 160 -230q0 -98 -76 -163q-77 -63 -182 -63 q-107 0 -178 56q-77 60 -77 162zM1100 657q0 -85 144 -169q67 38 67 124q0 87 -42 130q-28 28 -70 28q-55 0 -83 -49q-16 -28 -16 -64zM1101 219q0 -72 40 -122q36 -49 92 -49q58 0 86 55q16 33 16 73q0 103 -153 196q-81 -46 -81 -153z" />
<glyph unicode="&#x215c;" horiz-adv-x="1537" d="M47 631q0 61 76 61q28 0 57 -35l32 -37q29 -29 63 -29q63 0 96 83q21 54 21 118q0 84 -51 132q-40 39 -102 39q-36 0 -66 -10q-18 0 -18 34q0 32 13 32q96 0 151 52q42 41 42 100q0 62 -33 98q-24 25 -61 25q-57 0 -105 -52q-17 -21 -34 -45q-8 -13 -31 4q-17 13 -11 24 q60 89 115 121q49 28 108 28q83 0 139 -58q54 -54 54 -129q0 -107 -108 -171q150 -44 150 -208q0 -108 -77 -188q-89 -92 -226 -92q-88 0 -144 30q-49 28 -50 73zM311 77l923 1405q4 5 12 5q13 0 35 -16q22 -17 16 -26l-927 -1409q-7 -11 -36 10t-23 31zM959 209 q0 111 158 204q-135 83 -135 205q0 90 68 154q66 60 164 60q113 0 178 -61q53 -52 53 -136q0 -112 -133 -188q160 -94 160 -230q0 -98 -76 -163q-77 -63 -182 -63q-107 0 -178 56q-77 60 -77 162zM1100 657q0 -85 144 -169q67 38 67 124q0 87 -42 130q-28 28 -70 28 q-55 0 -83 -49q-16 -28 -16 -64zM1101 219q0 -72 40 -122q36 -49 92 -49q58 0 86 55q16 33 16 73q0 103 -153 196q-81 -46 -81 -153z" />
<glyph unicode="&#x215d;" horiz-adv-x="1541" d="M47 623q0 33 22 50q19 13 49 13q38 0 66 -32q46 -54 90 -54q66 0 111 68q38 57 38 122q0 96 -65 148q-52 43 -131 43q-41 0 -86 -13q-10 -3 -16 -3q-23 0 -20 21q27 174 59 344q7 34 44 34h313q4 0 4 -12q0 -11 -3 -34q-10 -70 -23 -70h-259q-22 0 -23 -9 q-14 -59 -19 -119q-1 -10 9 -8q26 4 45 4q144 0 223 -79q68 -69 68 -180q0 -121 -73 -210q-94 -115 -250 -115q-91 0 -139 33q-34 23 -34 58zM311 77l923 1405q4 5 12 5q13 0 35 -16.5t16 -25.5l-927 -1409q-7 -11 -36 10t-23 31zM959 209q0 111 158 204q-135 83 -135 205 q0 90 68 154q66 60 164 60q113 0 178 -61q53 -52 53 -136q0 -112 -133 -188q160 -94 160 -230q0 -98 -76 -163q-77 -63 -182 -63q-107 0 -178 56q-77 60 -77 162zM1100 657q0 -85 144 -169q67 38 67 124q0 87 -42 130q-28 28 -70 28q-55 0 -83 -49q-16 -28 -16 -64z M1101 219q0 -72 40 -122q36 -49 92 -49q58 0 86 55q16 33 16 73q0 103 -153 196q-81 -46 -81 -153z" />
<glyph unicode="&#x215e;" horiz-adv-x="1539" d="M51 1184l31 150q5 24 12 30t22 6h427q35 0 34 -21q0 -5 -3 -13l-314 -788q-5 -13 -57 -13q-55 0 -84 15q-4 2 -4 11l344 698h-187q-71 0 -107 -16q-39 -20 -58 -64q-4 -10 -26 -10q-33 0 -30 15zM293 95l924 1405q3 5 11 5q14 0 35.5 -16.5t15.5 -26.5l-926 -1408 q-8 -11 -37.5 9.5t-22.5 31.5zM959 209q0 111 158 204q-135 83 -135 205q0 90 68 154q66 60 164 60q113 0 178 -61q53 -52 53 -136q0 -112 -133 -188q160 -94 160 -230q0 -98 -76 -163q-77 -63 -182 -63q-107 0 -178 56q-77 60 -77 162zM1100 657q0 -85 144 -169 q67 38 67 124q0 87 -42 130q-28 28 -70 28q-55 0 -83 -49q-16 -28 -16 -64zM1101 219q0 -72 40 -122q36 -49 92 -49q58 0 86 55q16 33 16 73q0 103 -153 196q-81 -46 -81 -153z" />
<glyph unicode="&#x215f;" horiz-adv-x="1537" d="M108 1231q-7 21 4 24q82 35 218 133q16 13 30 13q27 0 27 -33q-4 -45 -4 -100v-548q0 -79 21 -106q22 -27 80 -28q9 0 9 -24q0 -23 -9 -23q-49 5 -177 5t-178 -5q-9 0 -9 23q0 24 9 24q69 0 91 31q20 28 20 102v503q0 35 -12 35q-66 -21 -101 -39q-13 -6 -19 13zM311 77 l923 1405q4 5 12 5q13 0 35 -16.5t16 -25.5l-927 -1409q-7 -11 -36 10t-23 31z" />
<glyph unicode="&#x2161;" horiz-adv-x="1358" d="M71 1378q0 40 14 40q46 -6 275 -6h649q229 0 274 6q14 0 14 -40t-14 -40q-109 0 -148 -26t-39 -93v-1026q0 -121 187 -121q14 0 14 -39.5t-14 -39.5q-89 7 -269 7h-648q-180 0 -269 -7q-14 0 -14 39.5t14 39.5q185 0 185 121v1026q0 119 -197 119q-14 0 -14 40zM448 193 q0 -121 187 -121h110q185 0 185 121v1026q0 119 -197 119h-98q-109 0 -148 -26t-39 -93v-1026z" />
<glyph unicode="&#x2162;" horiz-adv-x="2006" d="M71 1378q0 40 14 40q46 -6 275 -6h1296q228 0 275 6q14 0 14 -40t-14 -40q-109 0 -148 -26t-39 -93v-1026q0 -121 187 -121q14 0 14 -39.5t-14 -39.5q-89 7 -269 7h-1296q-180 0 -269 -7q-14 0 -14 39.5t14 39.5q185 0 185 121v1026q0 119 -197 119q-14 0 -14 40z M448 193q0 -121 187 -121h110q185 0 185 121v1026q0 119 -197 119h-98q-109 0 -148 -26t-39 -93v-1026zM1096 193q0 -121 187 -121h110q185 0 185 121v1026q0 119 -197 119h-98q-109 0 -148 -26t-39 -93v-1026z" />
<glyph unicode="&#x2163;" horiz-adv-x="1955" d="M71 1378q0 40 14 40q46 -6 275 -6h528q195 0 239 6q14 0 14 -40t-14 -40q-148 0 -148 -76q0 -18 7 -43l316 -915q7 -21 17 -21q11 0 21 23l331 904q11 34 11 47q0 81 -106 81q-15 0 -15 40t15 40q47 -6 201.5 -6t201.5 6q15 0 15 -40t-15 -40q-159 0 -194 -89l-495 -1263 q-11 -26 -27 -26q-18 0 -34 46l-425 1213q-42 119 -153 119h-16q-109 0 -148 -26t-39 -93v-1026q0 -121 187 -121q14 0 14 -39.5t-14 -39.5q-89 7 -269 7t-269 -7q-14 0 -14 39.5t14 39.5q185 0 185 121v1026q0 119 -197 119q-14 0 -14 40z" />
<glyph unicode="&#x2165;" horiz-adv-x="1955" d="M21 1378q0 40 13 40q46 -6 237.5 -6t239.5 6q13 0 13 -40t-13 -40q-149 0 -149 -76q0 -18 7 -43l316 -915q8 -21 17 -21q11 0 21 23l332 904q10 34 10 47q0 81 -106 81q-15 0 -15 40t15 40q48 -6 202 -6h445q229 0 274 6q14 0 14 -40t-14 -40q-109 0 -148 -26t-39 -93 v-1026q0 -121 187 -121q14 0 14 -39.5t-14 -39.5q-89 7 -269 7t-269 -7q-14 0 -14 39.5t14 39.5q185 0 185 121v1026q0 119 -180 119q-144 0 -179 -89l-495 -1263q-11 -26 -27 -26q-18 0 -33 46l-426 1213q-41 119 -153 119q-13 0 -13 40z" />
<glyph unicode="&#x2166;" horiz-adv-x="2603" d="M21 1378q0 40 13 40q60 -6 237.5 -6t239.5 6q13 0 13 -40t-13 -40q-149 0 -149 -76q0 -22 7 -43l316 -915q8 -21 17 -21q12 0 21 23l332 904q10 28 10 47q0 81 -106 81q-15 0 -15 40t15 40q48 -6 202 -6h1092q228 0 275 6q14 0 14 -40t-14 -40q-109 0 -148 -26t-39 -93 v-1026q0 -121 187 -121q14 0 14 -39.5t-14 -39.5q-89 7 -269 7h-648q-180 0 -269 -7q-14 0 -14 39.5t14 39.5q185 0 185 121v1026q0 119 -180 119q-144 0 -179 -89l-495 -1263q-11 -26 -27 -26q-18 0 -33 46l-426 1213q-41 119 -153 119q-13 0 -13 40zM1693 193 q0 -121 187 -121h110q185 0 185 121v1026q0 119 -197 119h-98q-109 0 -148 -26t-39 -93v-1026z" />
<glyph unicode="&#x2167;" horiz-adv-x="3251" d="M21 1378q0 40 13 40q60 -6 237.5 -6t239.5 6q13 0 13 -40t-13 -40q-149 0 -149 -76q0 -22 7 -43l316 -915q8 -21 17 -21q12 0 21 23l332 904q10 28 10 47q0 81 -106 81q-15 0 -15 40t15 40q48 -6 202 -6h1724q243 0 291 6q14 0 14 -40t-14 -40q-109 0 -148 -26t-39 -93 v-1026q0 -121 187 -121q14 0 14 -39.5t-14 -39.5q-89 7 -285 7h-1280q-180 0 -269 -7q-14 0 -14 39.5t14 39.5q185 0 185 121v1026q0 119 -180 119q-144 0 -179 -89l-495 -1263q-11 -26 -27 -26q-18 0 -33 46l-426 1213q-41 119 -153 119q-13 0 -13 40zM1693 193 q0 -121 187 -121h110q185 0 185 121v1026q0 119 -197 119h-98q-109 0 -148 -26t-39 -93v-1026zM2341 193q0 -121 187 -121h109q186 0 186 121v1026q0 119 -197 119h-98q-109 0 -148 -26t-39 -93v-1026z" />
<glyph unicode="&#x2168;" horiz-adv-x="1999" d="M71 1378q0 40 14 40q46 -6 275 -6h565q241 0 291 6q14 0 14 -40t-14 -40q-145 0 -145 -59q0 -26 23 -61l218 -340q12 -17 23 -17q12 0 24 17l251 332q39 52 39 81q0 47 -90 47q-15 0 -15 40t15 40q46 -6 207 -6q160 0 208 6q13 0 13 -40t-13 -40q-123 0 -192 -53 q-42 -32 -133 -149l-249 -327q-12 -14 -12 -29t10 -29l360 -558q79 -121 249 -121q14 0 14 -40q0 -39 -14 -39q-79 7 -266 7q-188 0 -267 -7q-15 0 -15 39q0 40 15 40q118 0 118 55q0 27 -30 72l-274 407q-12 18 -21 18q-11 0 -23 -18l-212 -292q-99 -136 -99 -189t125 -53 q14 0 14 -40q0 -39 -14 -39q-77 7 -229 7h-463q-180 0 -269 -7q-14 0 -14 39q0 40 14 40q185 0 185 121v1026q0 119 -197 119q-14 0 -14 40zM448 193q0 -120 155 -120q156 0 219 88l389 516q8 11 8 22t-13 30l-337 497q-45 68 -99 92q-48 20 -146 20t-137 -26t-39 -93v-1026 z" />
<glyph unicode="&#x216a;" horiz-adv-x="1999" d="M-44 32.5q0 39.5 14 39.5q167 0 235 89l389 516q8 11 8 22t-12 30l-337 497q-47 70 -100 92q-48 19 -133 20q-14 0 -14 40t14 40q47 -6 288 -6t291 6q15 0 15 -40t-15 -40q-145 0 -145 -59q0 -26 23 -61l219 -340q11 -17 22.5 -17t24.5 17l250 332q40 52 40 81 q0 47 -91 47q-14 0 -14 40t14 40q46 -6 206 -6h501q229 0 276 6q14 0 14 -40t-14 -40q-109 0 -148 -26t-39 -93v-1026q0 -121 187 -121q14 0 14 -39.5t-14 -39.5q-89 7 -269 7h-533q-187 0 -266 -7q-15 0 -15 39.5t15 39.5q119 0 119 55q0 27 -31 72l-274 407 q-12 18 -21.5 18t-22.5 -18l-212 -292q-99 -136 -99 -189t125 -53q15 0 15 -39.5t-15 -39.5q-77 7 -229 7t-242 -7q-14 0 -14 39.5zM772 780q0 -15 9 -29l360 -558q78 -121 254 -121t176 121v1026q0 119 -196 119h-18q-123 0 -192 -53q-41 -31 -132 -149l-250 -327 q-11 -14 -11 -29z" />
<glyph unicode="&#x216b;" horiz-adv-x="2647" d="M-44 32.5q0 39.5 14 39.5q167 0 235 89l389 516q8 11 8 22t-12 30l-337 497q-48 70 -100 92q-48 19 -133 20q-14 0 -14 40t14 40q47 -6 288 -6t291 6q15 0 15 -40t-15 -40q-145 0 -145 -59q0 -26 23 -61l219 -340q10 -17 22 -17t25 17l250 332q40 52 40 81q0 47 -91 47 q-14 0 -14 40t14 40q46 -6 206 -6h1150q229 0 275 6q13 0 13 -40t-13 -40q-109 0 -148 -26t-39 -93v-1026q0 -121 187 -121q13 0 13 -39.5t-13 -39.5q-89 7 -269 7h-1181q-187 0 -266 -7q-15 0 -15 39.5t15 39.5q119 0 119 55q0 27 -31 72l-274 407q-12 18 -21.5 18 t-22.5 -18l-212 -292q-99 -136 -99 -189t125 -53q15 0 15 -39.5t-15 -39.5q-77 7 -229 7t-242 -7q-14 0 -14 39.5zM772 780q0 -15 9 -29l360 -558q78 -121 254 -121t176 121v1026q0 119 -196 119h-18q-123 0 -192 -53q-41 -31 -132 -149l-250 -327q-11 -14 -11 -29z M1738 193q0 -121 187 -121h109q185 0 185 121v1026q0 119 -196 119h-98q-109 0 -148 -26t-39 -93v-1026z" />
<glyph unicode="&#x2171;" horiz-adv-x="1089" d="M92 21q0 32 17 32q140 0 140 97v568q0 158 -104 158q-21 0 -21 31t21 31q43 0 228 142q18 13 28 13q22 0 22 -26q-7 -130 -7 -162v-755q0 -97 140 -97q17 0 17 -32q0 -31 -17 -31q-94 10 -212 10q-117 0 -235 -10q-17 0 -17 31zM190 1448q0 56 35 85q35 30 82 30 q58 0 88 -34q30 -36 30 -81q0 -52 -36 -86t-82 -34q-55 0 -87 35q-30 36 -30 85zM637 21q0 32 17 32q140 0 140 97v568q0 158 -104 158q-21 0 -21 31t21 31q43 0 228 142q18 13 28 13q22 0 22 -26q-7 -130 -7 -162v-755q0 -97 140 -97q17 0 17 -32q0 -31 -17 -31 q-94 10 -212 10q-117 0 -235 -10q-17 0 -17 31zM735 1448q0 56 35 85q35 30 82 30q58 0 88 -34q30 -36 30 -81q0 -52 -36 -86t-82 -34q-55 0 -87 35q-30 36 -30 85z" />
<glyph unicode="&#x2172;" horiz-adv-x="1634" d="M92 21q0 32 17 32q140 0 140 97v568q0 158 -104 158q-21 0 -21 31t21 31q43 0 228 142q18 13 28 13q22 0 22 -26q-7 -130 -7 -162v-755q0 -97 140 -97q17 0 17 -32q0 -31 -17 -31q-94 10 -212 10q-117 0 -235 -10q-17 0 -17 31zM190 1448q0 56 35 85q35 30 82 30 q58 0 88 -34q30 -36 30 -81q0 -52 -36 -86t-82 -34q-55 0 -87 35q-30 36 -30 85zM637 21q0 32 17 32q140 0 140 97v568q0 158 -104 158q-21 0 -21 31t21 31q43 0 228 142q18 13 28 13q22 0 22 -26q-7 -130 -7 -162v-755q0 -97 140 -97q17 0 17 -32q0 -31 -17 -31 q-94 10 -212 10q-117 0 -235 -10q-17 0 -17 31zM735 1448q0 56 35 85q35 30 82 30q58 0 88 -34q30 -36 30 -81q0 -52 -36 -86t-82 -34q-55 0 -87 35q-30 36 -30 85zM1182 21q0 32 17 32q140 0 140 97v568q0 158 -104 158q-21 0 -21 31t21 31q43 0 228 142q18 13 28 13 q22 0 22 -26q-7 -130 -7 -162v-755q0 -97 140 -97q17 0 17 -32q0 -31 -17 -31q-94 10 -212 10q-117 0 -235 -10q-17 0 -17 31zM1280 1448q0 56 35 85q35 30 82 30q58 0 88 -34q30 -36 30 -81q0 -52 -36 -86t-82 -34q-55 0 -87 35q-30 36 -30 85z" />
<glyph unicode="&#x2173;" horiz-adv-x="1416" d="M92 21q0 32 17 32q140 0 140 97v568q0 158 -104 158q-21 0 -21 31t21 31q43 0 228 142q18 13 28 13q22 0 22 -26q-7 -130 -7 -162v-755q0 -97 140 -97q17 0 17 -32q0 -31 -17 -31q-94 10 -212 10q-117 0 -235 -10q-17 0 -17 31zM190 1448q0 56 35 85q35 30 82 30 q58 0 88 -34q30 -36 30 -81q0 -52 -36 -86t-82 -34q-55 0 -87 35q-30 36 -30 85zM543 1031q0 29 17 29q71 -8 206 -8t210 8q16 0 16 -29t-16 -29q-97 0 -97 -69q0 -32 1 -35l207 -630q7 -23 28.5 -23t29.5 23l221 639v28q0 67 -119 67q-17 0 -17 29t17 29q71 -8 172.5 -8 t174.5 8q18 0 18 -29t-18 -29q-114 0 -145 -90l-313 -892q-17 -48 -53.5 -48t-48.5 33l-351 907q-34 90 -123 90q-17 0 -17 29z" />
<glyph unicode="&#x2175;" horiz-adv-x="1416" d="M-2 1031q0 29 17 29q71 -8 206 -8t210 8q16 0 16 -29t-16 -29q-97 0 -97 -69q0 -32 1 -35l207 -630q7 -23 28.5 -23t29.5 23l221 639v28q0 67 -119 67q-17 0 -17 29t17 29q71 -8 172.5 -8t174.5 8q18 0 18 -29t-18 -29q-114 0 -145 -90l-313 -892q-17 -48 -53.5 -48 t-48.5 33l-351 907q-34 90 -123 90q-17 0 -17 29zM964 21q0 32 17 32q140 0 140 97v568q0 158 -104 158q-21 0 -21 31t21 31q43 0 228 142q18 13 28 13q22 0 22 -26q-7 -130 -7 -162v-755q0 -97 140 -97q17 0 17 -32q0 -31 -17 -31q-94 10 -212 10q-117 0 -235 -10 q-17 0 -17 31zM1062 1448q0 56 35 85q35 30 82 30q58 0 88 -34q30 -36 30 -81q0 -52 -36 -86t-82 -34q-55 0 -87 35q-30 36 -30 85z" />
<glyph unicode="&#x2176;" horiz-adv-x="1961" d="M-2 1031q0 29 17 29q71 -8 206 -8t210 8q16 0 16 -29t-16 -29q-97 0 -97 -69q0 -32 1 -35l207 -630q7 -23 28.5 -23t29.5 23l221 639v28q0 67 -119 67q-17 0 -17 29t17 29q71 -8 172.5 -8t174.5 8q18 0 18 -29t-18 -29q-114 0 -145 -90l-313 -892q-17 -48 -53.5 -48 t-48.5 33l-351 907q-34 90 -123 90q-17 0 -17 29zM964 21q0 32 17 32q140 0 140 97v568q0 158 -104 158q-21 0 -21 31t21 31q43 0 228 142q18 13 28 13q22 0 22 -26q-7 -130 -7 -162v-755q0 -97 140 -97q17 0 17 -32q0 -31 -17 -31q-94 10 -212 10q-117 0 -235 -10 q-17 0 -17 31zM1062 1448q0 56 35 85q35 30 82 30q58 0 88 -34q30 -36 30 -81q0 -52 -36 -86t-82 -34q-55 0 -87 35q-30 36 -30 85zM1508 21q0 32 17 32q140 0 140 97v568q0 158 -104 158q-21 0 -21 31t21 31q43 0 228 142q18 13 28 13q22 0 22 -26q-7 -130 -7 -162v-755 q0 -97 140 -97q17 0 17 -32q0 -31 -17 -31q-94 10 -212 10q-117 0 -235 -10q-17 0 -17 31zM1606 1448q0 56 35 85q35 30 82 30q58 0 88 -34q30 -36 30 -81q0 -52 -36 -86t-82 -34q-55 0 -87 35q-30 36 -30 85z" />
<glyph unicode="&#x2177;" horiz-adv-x="2506" d="M-2 1031q0 29 17 29q71 -8 206 -8t210 8q16 0 16 -29t-16 -29q-97 0 -97 -69q0 -32 1 -35l207 -630q7 -23 28.5 -23t29.5 23l221 639v28q0 67 -119 67q-17 0 -17 29t17 29q71 -8 172.5 -8t174.5 8q18 0 18 -29t-18 -29q-114 0 -145 -90l-313 -892q-17 -48 -53.5 -48 t-48.5 33l-351 907q-34 90 -123 90q-17 0 -17 29zM964 21q0 32 17 32q140 0 140 97v568q0 158 -104 158q-21 0 -21 31t21 31q43 0 228 142q18 13 28 13q22 0 22 -26q-7 -130 -7 -162v-755q0 -97 140 -97q17 0 17 -32q0 -31 -17 -31q-94 10 -212 10q-117 0 -235 -10 q-17 0 -17 31zM1062 1448q0 56 35 85q35 30 82 30q58 0 88 -34q30 -36 30 -81q0 -52 -36 -86t-82 -34q-55 0 -87 35q-30 36 -30 85zM1508 21q0 32 17 32q140 0 140 97v568q0 158 -104 158q-21 0 -21 31t21 31q43 0 228 142q18 13 28 13q22 0 22 -26q-7 -130 -7 -162v-755 q0 -97 140 -97q17 0 17 -32q0 -31 -17 -31q-94 10 -212 10q-117 0 -235 -10q-17 0 -17 31zM1606 1448q0 56 35 85q35 30 82 30q58 0 88 -34q30 -36 30 -81q0 -52 -36 -86t-82 -34q-55 0 -87 35q-30 36 -30 85zM2053 21q0 32 17 32q140 0 140 97v568q0 158 -104 158 q-21 0 -21 31t21 31q43 0 228 142q18 13 28 13q22 0 22 -26q-7 -130 -7 -162v-755q0 -97 140 -97q17 0 17 -32q0 -31 -17 -31q-94 10 -212 10q-117 0 -235 -10q-17 0 -17 31zM2151 1448q0 56 35 85q35 30 82 30q58 0 88 -34q30 -36 30 -81q0 -52 -36 -86t-82 -34 q-55 0 -87 35q-30 36 -30 85z" />
</font>
</defs>
</svg>
